G04 ================== begin FILE IDENTIFICATION RECORD ==================*
G04 Layout Name:  C:/tmp/20_037760d/worklib/02_037760d_top/physical/08_037760d.brd*
G04 Film Name:    assy2*
G04 File Format:  Gerber RS274X*
G04 File Origin:  Cadence Allegro 16.5-S052*
G04 Origin Date:  Tue Jan 06 12:18:48 2015*
G04 *
G04 Layer:  BOARD GEOMETRY/ASSEMBLY_DETAIL*
G04 Layer:  BOARD GEOMETRY/ASSEMBLY_BOTTOM*
G04 Layer:  DRAWING FORMAT/DSIZEM*
G04 Layer:  REF DES/ASSEMBLY_BOTTOM*
G04 Layer:  PACKAGE GEOMETRY/ASSEMBLY_BOTTOM*
G04 Layer:  MANUFACTURING/ASSY_DETAIL_BOTTOM*
G04 Layer:  BOARD GEOMETRY/OUTLINE*
G04 *
G04 Offset:    (0.00 0.00)*
G04 Mirror:    Yes*
G04 Mode:      Positive*
G04 Rotation:  0*
G04 FullContactRelief:  No*
G04 UndefLineWidth:     2.00*
G04 ================== end FILE IDENTIFICATION RECORD ====================*
%FSLAX55Y55*MOIN*%
%IR0*IPPOS*OFA0.00000B0.00000*MIA1B0*SFA1.00000B1.00000*%
%ADD10C,.012*%
%ADD11C,.002*%
%ADD12C,.008*%
G75*
%LPD*%
G75*
G54D10*
G01X-348982Y-703000D02*
X-346982Y-700700D01*
X-344782Y-700000D01*
X-342482D01*
X-340282Y-701200D01*
X-338782Y-703200D01*
X-338282Y-706200D01*
X-338982Y-709200D01*
X-341282Y-710700D01*
X-345282Y-711700D01*
X-347982Y-713200D01*
X-349482Y-715700D01*
X-350282Y-718700D01*
X-349282Y-721700D01*
X-347282Y-723700D01*
X-344782Y-725000D01*
X-342282D01*
X-339482Y-723700D01*
X-336982Y-721700D01*
G01X-348282Y-671500D02*
X-346282Y-669700D01*
X-343482Y-669000D01*
X-340982D01*
X-338282Y-670200D01*
X-335982Y-672000D01*
X-333982Y-674500D01*
X-332782Y-677000D01*
X-331982Y-679700D01*
Y-682700D01*
X-332482Y-686000D01*
X-333982Y-689000D01*
X-335982Y-691500D01*
X-338282Y-693000D01*
X-341982Y-694000D01*
X-345482Y-693200D01*
X-347982Y-691500D01*
X-349982Y-689000D01*
Y-681500D01*
X-342982D01*
G01X-325982Y-700000D02*
X-313282D01*
Y-725000D01*
X-325982D01*
G01X-303482Y-683200D02*
Y-679700D01*
X-304282Y-676500D01*
X-305782Y-673500D01*
X-307782Y-671000D01*
X-309982Y-669500D01*
X-312982Y-669000D01*
X-315982Y-669500D01*
X-318282Y-671000D01*
X-320282Y-673500D01*
X-321782Y-676500D01*
X-322482Y-679700D01*
Y-683200D01*
X-321782Y-686500D01*
X-320282Y-689500D01*
X-318282Y-692000D01*
X-315982Y-693500D01*
X-312982Y-694000D01*
X-309982Y-693500D01*
X-307782Y-692000D01*
X-305482Y-689200D01*
X-304282Y-686500D01*
X-303482Y-683200D01*
G01X-302482Y-702000D02*
X-300482Y-700700D01*
X-298282Y-700000D01*
X-295782D01*
X-292982Y-701200D01*
X-290782Y-703200D01*
X-289282Y-705700D01*
X-287982Y-709700D01*
X-287482Y-713700D01*
X-288282Y-717500D01*
X-289282Y-720000D01*
X-290982Y-722500D01*
X-293282Y-724200D01*
X-295482Y-725000D01*
X-297782D01*
X-299782Y-724200D01*
X-301782Y-723000D01*
X-303482Y-721200D01*
G01X-313282Y-712000D02*
X-320982D01*
G01X-267782Y-725000D02*
X-275282D01*
G01X-267782Y-700000D02*
X-275282D01*
G01X-277982Y-669000D02*
Y-694000D01*
X-291982D01*
G01X-271482Y-700000D02*
Y-725000D01*
G01X-239482Y-700000D02*
X-247482Y-725000D01*
X-255482Y-700000D01*
G01X-248282Y-694000D02*
X-256982Y-669000D01*
X-265782Y-694000D01*
G01X-251782Y-685200D02*
X-262482D01*
G01X-229982Y-700000D02*
X-217282D01*
Y-725000D01*
X-229982D01*
G01X-217282Y-712000D02*
X-224982D01*
G01X-220982Y-694000D02*
Y-669000D01*
X-236982Y-694000D01*
Y-669000D01*
G01X-192482Y-700000D02*
Y-725000D01*
X-198982D01*
X-201482Y-723700D01*
X-203282Y-722000D01*
X-204982Y-719500D01*
X-206282Y-716500D01*
X-206482Y-712500D01*
X-206282Y-708200D01*
X-204982Y-705500D01*
X-203282Y-702700D01*
X-201482Y-701200D01*
X-198982Y-700000D01*
X-192482D01*
G01X-192282Y-694000D02*
X-200982Y-669000D01*
X-209782Y-694000D01*
G01X-195782Y-685200D02*
X-206482D01*
G54D11*
G01X-564982Y-460000D02*
X-594982D01*
G01X-604982Y-38500D02*
Y-31500D01*
G01X-603982Y-37500D02*
Y-32500D01*
G01X-602982Y-36500D02*
Y-33500D01*
G01X-601982Y-35500D02*
Y-34500D01*
G01X-604982Y-31500D02*
X-584982D01*
G01Y-38500D02*
X-604982D01*
G01X-603982Y-32500D02*
X-583982D01*
G01X-602982Y-33500D02*
X-582982D01*
G01X-601982Y-34500D02*
X-581982D01*
G01X-583982Y-37500D02*
X-603982D01*
G01X-582982Y-36500D02*
X-602982D01*
G01X-581982Y-35500D02*
X-601982D01*
G01X-564982Y390000D02*
X-594982D01*
G01X-584982Y-31500D02*
Y-24000D01*
G01Y-46000D02*
Y-38500D01*
G01Y-24000D02*
X-564982Y-35000D01*
G01X-583982Y-32500D02*
Y-25500D01*
G01D02*
X-566482Y-35000D01*
G01X-582982Y-33500D02*
Y-27000D01*
G01D02*
X-567982Y-35000D01*
G01X-581982Y-34500D02*
Y-28500D01*
G01D02*
X-569482Y-35000D01*
G01X-580982Y-30000D02*
X-570982Y-35000D01*
G01X-579982Y-31500D02*
X-572482Y-35000D01*
G01X-578982Y-33000D02*
X-573982Y-35000D01*
G01X-577982Y-34000D02*
X-575482Y-35000D01*
G01X-576482D02*
X-577482D01*
G01X-564982D02*
X-584982Y-46000D01*
G01X-566482Y-35000D02*
X-583982Y-44500D01*
G01D02*
Y-37500D01*
G01X-567982Y-35000D02*
X-582982Y-43000D01*
G01D02*
Y-36500D01*
G01X-569482Y-35000D02*
X-581982Y-41500D01*
G01D02*
Y-35500D01*
G01X-570982Y-35000D02*
X-580982Y-40000D01*
G01D02*
Y-30000D01*
G01X-572482Y-35000D02*
X-579982Y-38500D01*
G01D02*
Y-31500D01*
G01X-573982Y-35000D02*
X-578982Y-37000D01*
G01D02*
Y-33000D01*
G01X-575482Y-35000D02*
X-577982Y-36000D01*
G01D02*
Y-34000D01*
G01X-564982Y-635000D02*
Y-835000D01*
X-89982D01*
G01X-114982Y-810000D02*
X-564982D01*
G01X-114982Y-735000D02*
X-564982D01*
G01X-114982Y-660000D02*
X-564982D01*
G01Y-635000D02*
Y765000D01*
X1535018D01*
Y-835000D01*
X-89982D01*
G01X-514982Y-810000D02*
Y-735000D01*
G01X-414982Y-810000D02*
Y-835000D01*
G01X-264982D02*
Y-735000D01*
G01X-179982Y-716000D02*
X-137982D01*
G01X-179982Y-717000D02*
X-135982D01*
G01X-179982Y-718000D02*
X-133982D01*
G01X-179982Y-719000D02*
X-131982D01*
G01X-124982Y-724000D02*
X-179982D01*
G01X-124982Y-723000D02*
X-179982D01*
G01X-124982Y-722000D02*
X-179982D01*
G01X-124982Y-721000D02*
X-179982D01*
G01X-124982Y-720000D02*
X-179982D01*
G01X-124982Y-670000D02*
X-179982D01*
Y-725000D01*
X-124982D01*
Y-670000D01*
G01X-179982Y-715000D02*
X-139982D01*
G01X-161982Y-691000D02*
X-179982D01*
G01X-163982Y-692000D02*
X-179982D01*
G01X-165982Y-693000D02*
X-179982D01*
G01X-167982Y-694000D02*
X-179982D01*
G01X-169982Y-695000D02*
X-179982D01*
G01X-171982Y-696000D02*
X-179982D01*
G01X-173982Y-697000D02*
X-179982D01*
G01Y-697500D02*
X-174982D01*
G01X-173982Y-698000D02*
X-179982D01*
G01X-171982Y-699000D02*
X-179982D01*
G01X-169982Y-700000D02*
X-179982D01*
G01X-167982Y-701000D02*
X-179982D01*
G01X-165982Y-702000D02*
X-179982D01*
G01X-163982Y-703000D02*
X-179982D01*
G01X-161982Y-704000D02*
X-179982D01*
G01X-159982Y-705000D02*
X-179982D01*
G01Y-706000D02*
X-157982D01*
G01X-179982Y-707000D02*
X-155982D01*
G01X-179982Y-708000D02*
X-153982D01*
G01X-179982Y-709000D02*
X-151982D01*
G01X-179982Y-710000D02*
X-149982D01*
G01X-179982Y-711000D02*
X-147982D01*
G01X-179982Y-712000D02*
X-145982D01*
G01X-179982Y-713000D02*
X-143982D01*
G01X-179982Y-714000D02*
X-141982D01*
G01X-129982Y-675000D02*
Y-720000D01*
X-174982Y-697500D01*
X-129982Y-675000D01*
G01X-151982Y-686000D02*
X-179982D01*
G01X-153982Y-687000D02*
X-179982D01*
G01X-155982Y-688000D02*
X-179982D01*
G01X-157982Y-689000D02*
X-179982D01*
G01X-159982Y-690000D02*
X-179982D01*
G01X-131982Y-676000D02*
X-179982D01*
G01X-133982Y-677000D02*
X-179982D01*
G01X-135982Y-678000D02*
X-179982D01*
G01X-137982Y-679000D02*
X-179982D01*
G01X-139982Y-680000D02*
X-179982D01*
G01X-141982Y-681000D02*
X-179982D01*
G01X-143982Y-682000D02*
X-179982D01*
G01X-145982Y-683000D02*
X-179982D01*
G01X-147982Y-684000D02*
X-179982D01*
G01X-149982Y-685000D02*
X-179982D01*
G01X-124982Y-675000D02*
X-179982D01*
G01X-124982Y-674000D02*
X-179982D01*
G01X-124982Y-673000D02*
X-179982D01*
G01X-124982Y-672000D02*
X-179982D01*
G01X-124982Y-671000D02*
X-179982D01*
G01X-164982Y-810000D02*
Y-735000D01*
G01X-124982Y-716000D02*
X-129982D01*
G01X-124982Y-719000D02*
X-129982D01*
G01X-124982Y-718000D02*
X-129982D01*
G01X-124982Y-717000D02*
X-129982D01*
G01X-124982Y-715000D02*
X-129982D01*
G01X-124982Y-704000D02*
X-129982D01*
G01X-124982Y-703000D02*
X-129982D01*
G01X-124982Y-707000D02*
X-129982D01*
G01X-124982Y-706000D02*
X-129982D01*
G01X-124982Y-705000D02*
X-129982D01*
G01X-124982Y-710000D02*
X-129982D01*
G01X-124982Y-709000D02*
X-129982D01*
G01X-124982Y-708000D02*
X-129982D01*
G01X-124982Y-713000D02*
X-129982D01*
G01X-124982Y-712000D02*
X-129982D01*
G01X-124982Y-711000D02*
X-129982D01*
G01X-124982Y-714000D02*
X-129982D01*
G01X-124982Y-702000D02*
X-129982D01*
G01X-124982Y-701000D02*
X-129982D01*
G01X-124982Y-700000D02*
X-129982D01*
G01X-124982Y-699000D02*
X-129982D01*
G01X-124982Y-698000D02*
X-129982D01*
G01X-124982Y-697000D02*
X-129982D01*
G01X-124982Y-696000D02*
X-129982D01*
G01X-124982Y-695000D02*
X-129982D01*
G01X-124982Y-694000D02*
X-129982D01*
G01X-124982Y-693000D02*
X-129982D01*
G01X-124982Y-692000D02*
X-129982D01*
G01X-124982Y-691000D02*
X-129982D01*
G01X-124982Y-690000D02*
X-129982D01*
G01X-124982Y-689000D02*
X-129982D01*
G01X-124982Y-688000D02*
X-129982D01*
G01X-124982Y-687000D02*
X-129982D01*
G01X-124982Y-686000D02*
X-129982D01*
G01X-124982Y-685000D02*
X-129982D01*
G01X-124982Y-684000D02*
X-129982D01*
G01X-124982Y-683000D02*
X-129982D01*
G01X-124982Y-682000D02*
X-129982D01*
G01X-124982Y-681000D02*
X-129982D01*
G01X-124982Y-680000D02*
X-129982D01*
G01X-124982Y-679000D02*
X-129982D01*
G01X-124982Y-678000D02*
X-129982D01*
G01X-124982Y-677000D02*
X-129982D01*
G01X-124982Y-676000D02*
X-129982D01*
G01X-114982Y-835000D02*
Y-660000D01*
G01X-64982Y-865000D02*
Y-835000D01*
G01Y795000D02*
Y765000D01*
G01X-15700Y0D02*
Y189100D01*
G02X0Y204800I15700J0D01*
G01X322900D01*
G02X338600Y189100I0J-15700D01*
G01Y0D01*
G02X322900Y-15700I-15700J0D01*
G01X0D01*
G02X-15700Y0I0J15700D01*
G01Y86921D02*
X-9204D01*
G02X-7432Y85150I0J-1772D01*
G02X-9204Y83378I-1772J0D01*
G01X-15700D01*
G01Y102079D02*
X-9204D01*
G03X-7432Y103850I0J1772D01*
G03X-9204Y105622I-1772J0D01*
G01X-15700D01*
G01X71500Y88250D02*
X96500D01*
Y101750D01*
X71500D01*
Y88250D01*
G01X132000Y-4000D02*
Y1000D01*
X140000D01*
Y-4000D01*
X132000D01*
G01X154000Y0D02*
Y-3000D01*
X148000D01*
Y0D01*
X154000D01*
G01X485518Y-852000D02*
Y-872000D01*
G01D02*
X484518D01*
G01X486518Y-853000D02*
Y-873000D01*
G01D02*
X483518D01*
G01X487518Y-854000D02*
Y-874000D01*
G01D02*
X482518D01*
G01X488518Y-875000D02*
X481518D01*
G01X484518Y-872000D02*
Y-852000D01*
G01X483518Y-873000D02*
Y-853000D01*
G01X482518Y-874000D02*
Y-854000D01*
G01X481518Y-875000D02*
Y-855000D01*
G01X485018Y-845500D02*
X486018Y-848000D01*
G01D02*
X484018D01*
G01X485018Y-844000D02*
X487018Y-849000D01*
G01D02*
X483018D01*
G01X485018Y-842500D02*
X488518Y-850000D01*
G01D02*
X481518D01*
G01X485018Y-841000D02*
X490018Y-851000D01*
G01D02*
X480018D01*
G01X485018Y-839500D02*
X491518Y-852000D01*
G01D02*
X485518D01*
G01X485018Y-838000D02*
X493018Y-853000D01*
G01D02*
X486518D01*
G01X485018Y-836500D02*
X494518Y-854000D01*
G01D02*
X487518D01*
G01X484018Y-848000D02*
X485018Y-845500D01*
G01X483018Y-849000D02*
X485018Y-844000D01*
G01X481518Y-850000D02*
X485018Y-842500D01*
G01X480018Y-851000D02*
X485018Y-841000D01*
G01X484518Y-852000D02*
X478518D01*
G01D02*
X485018Y-839500D01*
G01X483518Y-853000D02*
X477018D01*
G01D02*
X485018Y-838000D01*
G01X482518Y-854000D02*
X475518D01*
G01D02*
X485018Y-836500D01*
G01X481518Y-855000D02*
X474018D01*
G01D02*
X485018Y-835000D01*
G01Y-846500D02*
Y-847500D01*
G01Y-835000D02*
X496018Y-855000D01*
G01X486518Y803000D02*
Y783000D01*
G01D02*
X493018D01*
G01X485518Y802000D02*
Y782000D01*
G01D02*
X491518D01*
G01X480018Y781000D02*
X490018D01*
G01X481518Y780000D02*
X488518D01*
G01X483018Y779000D02*
X487018D01*
G01X486018Y778000D02*
X485018Y775500D01*
G01X484018Y778000D02*
X486018D01*
G01X477018Y783000D02*
X483518D01*
G01D02*
Y803000D01*
G01X478518Y782000D02*
X484518D01*
G01D02*
Y802000D01*
G01X485018Y775500D02*
X484018Y778000D01*
G01X485018Y776500D02*
Y777500D01*
G01X494518Y784000D02*
X485018Y766500D01*
G01X493018Y783000D02*
X485018Y768000D01*
G01X491518Y782000D02*
X485018Y769500D01*
G01X490018Y781000D02*
X485018Y771000D01*
G01X488518Y780000D02*
X485018Y772500D01*
G01X487018Y779000D02*
X485018Y774000D01*
G01Y765000D02*
X474018Y785000D01*
G01X485018Y766500D02*
X475518Y784000D01*
G01X485018Y768000D02*
X477018Y783000D01*
G01X485018Y769500D02*
X478518Y782000D01*
G01X485018Y771000D02*
X480018Y781000D01*
G01X485018Y772500D02*
X481518Y780000D01*
G01X485018Y774000D02*
X483018Y779000D01*
G01X496018Y785000D02*
X485018Y765000D01*
G01X481518Y805000D02*
X488518D01*
G01X487518Y804000D02*
Y784000D01*
G01D02*
X494518D01*
G01X482518Y804000D02*
X487518D01*
G01X483518Y803000D02*
X486518D01*
G01X484518Y802000D02*
X485518D01*
G01X475518Y784000D02*
X482518D01*
G01D02*
Y804000D01*
G01X474018Y785000D02*
X481518D01*
G01D02*
Y805000D01*
G01X488518Y-855000D02*
Y-875000D01*
G01X496018Y-855000D02*
X488518D01*
G01Y805000D02*
Y785000D01*
G01D02*
X496018D01*
G01X1035018Y-865000D02*
Y-835000D01*
G01Y795000D02*
Y765000D01*
G01X1565018Y-460000D02*
X1535018D01*
G01Y-35000D02*
X1555018Y-24000D01*
G01X1536518Y-35000D02*
X1554018Y-25500D01*
G01X1538018Y-35000D02*
X1553018Y-27000D01*
G01X1539518Y-35000D02*
X1552018Y-28500D01*
G01X1541018Y-35000D02*
X1551018Y-30000D01*
G01X1542518Y-35000D02*
X1550018Y-31500D01*
G01X1544018Y-35000D02*
X1549018Y-33000D01*
G01X1555018Y-46000D02*
X1535018Y-35000D01*
G01X1554018Y-44500D02*
X1536518Y-35000D01*
G01X1553018Y-43000D02*
X1538018Y-35000D01*
G01X1552018Y-41500D02*
X1539518Y-35000D01*
G01X1551018Y-40000D02*
X1541018Y-35000D01*
G01X1550018Y-38500D02*
X1542518Y-35000D01*
G01X1549018Y-37000D02*
X1544018Y-35000D01*
G01X1535018Y390000D02*
X1565018D01*
G01X1555018Y-31500D02*
X1575018D01*
G01X1554018Y-32500D02*
X1574018D01*
G01X1553018Y-33500D02*
X1573018D01*
G01X1552018Y-34500D02*
X1572018D01*
G01X1555018Y-24000D02*
Y-31500D01*
G01X1554018Y-25500D02*
Y-32500D01*
G01X1553018Y-27000D02*
Y-33500D01*
G01X1552018Y-28500D02*
Y-34500D01*
G01X1545518Y-35000D02*
X1548018Y-34000D01*
G01X1546518Y-35000D02*
X1547518D01*
G01X1575018Y-38500D02*
X1555018D01*
G01X1574018Y-37500D02*
X1554018D01*
G01X1573018Y-36500D02*
X1553018D01*
G01X1572018Y-35500D02*
X1552018D01*
G01X1555018Y-38500D02*
Y-46000D01*
G01X1554018Y-37500D02*
Y-44500D01*
G01X1553018Y-36500D02*
Y-43000D01*
G01X1552018Y-35500D02*
Y-41500D01*
G01X1551018Y-30000D02*
Y-40000D01*
G01X1550018Y-31500D02*
Y-38500D01*
G01X1549018Y-33000D02*
Y-37000D01*
G01X1548018Y-36000D02*
X1545518Y-35000D01*
G01X1548018Y-34000D02*
Y-36000D01*
G01X1575018Y-31500D02*
Y-38500D01*
G01X1574018Y-32500D02*
Y-37500D01*
G01X1573018Y-33500D02*
Y-36500D01*
G01X1572018Y-34500D02*
Y-35500D01*
G54D12*
G01X-577107Y-685000D02*
X-584982Y-660000D01*
X-592857Y-685000D01*
G01X-590022Y-676250D02*
X-579942D01*
G01X-587502Y-246666D02*
X-588762Y-245417D01*
X-589707Y-243334D01*
X-590337Y-240416D01*
X-589707Y-237917D01*
X-588447Y-236250D01*
X-586242Y-235000D01*
X-577737D01*
Y-260000D01*
X-588132D01*
X-590337Y-258334D01*
X-591597Y-255833D01*
X-592227Y-252917D01*
X-591597Y-250001D01*
X-589707Y-247500D01*
X-587502Y-246666D01*
X-577737D01*
G01X-591912Y187916D02*
X-590022Y189167D01*
X-587817Y190000D01*
X-585297D01*
X-582462Y188750D01*
X-580257Y186667D01*
X-578682Y184166D01*
X-577422Y180000D01*
X-577107Y176250D01*
X-577737Y172500D01*
X-578682Y170000D01*
X-580572Y167499D01*
X-582777Y165833D01*
X-584982Y165000D01*
X-587187D01*
X-589392Y165833D01*
X-591282Y167083D01*
X-592857Y168749D01*
G01X-578052Y590000D02*
Y615000D01*
X-584352D01*
X-586872Y613750D01*
X-588762Y612083D01*
X-590337Y609584D01*
X-591597Y606666D01*
X-591912Y602500D01*
X-591597Y598333D01*
X-590337Y595416D01*
X-588762Y592916D01*
X-586872Y591250D01*
X-584352Y590000D01*
X-578052D01*
G01X-534482Y-795000D02*
Y-775000D01*
X-539482D01*
X-541482Y-776000D01*
X-542982Y-777333D01*
X-544232Y-779333D01*
X-545232Y-781667D01*
X-545482Y-785000D01*
X-545232Y-788334D01*
X-544232Y-790667D01*
X-542982Y-792667D01*
X-541482Y-794000D01*
X-539482Y-795000D01*
X-534482D01*
G01X-528482Y-755000D02*
Y-747000D01*
X-530982D01*
X-531782Y-747400D01*
X-532282Y-747933D01*
X-532482Y-749000D01*
X-532282Y-750067D01*
X-531682Y-750733D01*
X-530982Y-751133D01*
X-528482D01*
G01X-530982D02*
X-532482Y-755000D01*
G01X-540482D02*
X-536482D01*
Y-747000D01*
X-540482D01*
G01X-538882Y-750867D02*
X-536482D01*
G01X-543982Y-747000D02*
X-546482Y-755000D01*
X-548982Y-747000D01*
G01X-385982Y-717000D02*
X-387382Y-725000D01*
X-388982Y-717000D01*
X-390582Y-725000D01*
X-391982Y-717000D01*
G01X-395782D02*
X-398182D01*
G01X-396982D02*
Y-725000D01*
G01X-395782D02*
X-398182D01*
G01X-402982Y-717000D02*
Y-725000D01*
X-406982D01*
G01X-410382D02*
Y-717000D01*
X-412982Y-723667D01*
X-415582Y-717000D01*
Y-725000D01*
G01X-419782Y-717000D02*
X-422182D01*
G01X-420982D02*
Y-725000D01*
G01X-419782D02*
X-422182D01*
G01X-426682D02*
Y-717000D01*
X-431282Y-725000D01*
Y-717000D01*
G01X-437582Y-721000D02*
X-439582D01*
Y-723400D01*
X-438982Y-724200D01*
X-438282Y-724733D01*
X-437282Y-725000D01*
X-436282Y-724733D01*
X-435582Y-724200D01*
X-434982Y-723400D01*
X-434582Y-722467D01*
X-434382Y-721400D01*
Y-720467D01*
X-434582Y-719667D01*
X-434982Y-718733D01*
X-435582Y-717933D01*
X-436182Y-717400D01*
X-436982Y-717000D01*
X-437682D01*
X-438482Y-717267D01*
X-439082Y-717800D01*
G01X-444982Y-717000D02*
Y-725000D01*
G01X-442682Y-717000D02*
X-447282D01*
G01X-452982Y-725000D02*
X-452182Y-724867D01*
X-451482Y-724333D01*
X-450882Y-723533D01*
X-450482Y-722600D01*
X-450282Y-721533D01*
Y-720467D01*
X-450482Y-719400D01*
X-450882Y-718467D01*
X-451482Y-717667D01*
X-452182Y-717133D01*
X-452982Y-717000D01*
X-453782Y-717133D01*
X-454482Y-717667D01*
X-455082Y-718467D01*
X-455482Y-719400D01*
X-455682Y-720467D01*
Y-721533D01*
X-455482Y-722600D01*
X-455082Y-723533D01*
X-454482Y-724333D01*
X-453782Y-724867D01*
X-452982Y-725000D01*
G01X-458682D02*
Y-717000D01*
X-463282Y-725000D01*
Y-717000D01*
G01X-468782Y-726467D02*
X-469182Y-724733D01*
G01X-482382Y-725000D02*
Y-717000D01*
X-484982Y-723667D01*
X-487582Y-717000D01*
Y-725000D01*
G01X-490482D02*
X-492982Y-717000D01*
X-495482Y-725000D01*
G01X-494582Y-722200D02*
X-491382D01*
G01X-508982Y-717000D02*
X-508182Y-717267D01*
X-507582Y-717933D01*
X-507182Y-718733D01*
X-506882Y-719800D01*
X-506782Y-721000D01*
X-506882Y-722200D01*
X-507182Y-723267D01*
X-507582Y-724067D01*
X-508182Y-724733D01*
X-508982Y-725000D01*
X-509782Y-724733D01*
X-510382Y-724067D01*
X-510782Y-723267D01*
X-511082Y-722200D01*
X-511182Y-721000D01*
X-511082Y-719800D01*
X-510782Y-718733D01*
X-510382Y-717933D01*
X-509782Y-717267D01*
X-508982Y-717000D01*
G01X-516982Y-725000D02*
Y-717000D01*
X-515782Y-718600D01*
G01Y-725000D02*
X-518182D01*
G01X-524982D02*
X-525682Y-724867D01*
X-526482Y-724467D01*
X-526982Y-723800D01*
X-527182Y-722867D01*
X-526982Y-721934D01*
X-526382Y-721133D01*
X-525482Y-720733D01*
X-524482D01*
X-523882Y-720467D01*
X-523382Y-719800D01*
X-523182Y-718867D01*
X-523482Y-717933D01*
X-524182Y-717267D01*
X-524982Y-717000D01*
X-525782Y-717267D01*
X-526482Y-717933D01*
X-526782Y-718867D01*
X-526582Y-719800D01*
X-526082Y-720467D01*
X-525482Y-720733D01*
X-524482D01*
X-523582Y-721133D01*
X-522982Y-721934D01*
X-522782Y-722867D01*
X-522982Y-723800D01*
X-523482Y-724467D01*
X-524282Y-724867D01*
X-524982Y-725000D01*
G01X-532982D02*
X-533682Y-724867D01*
X-534482Y-724467D01*
X-534982Y-723800D01*
X-535182Y-722867D01*
X-534982Y-721934D01*
X-534382Y-721133D01*
X-533482Y-720733D01*
X-532482D01*
X-531882Y-720467D01*
X-531382Y-719800D01*
X-531182Y-718867D01*
X-531482Y-717933D01*
X-532182Y-717267D01*
X-532982Y-717000D01*
X-533782Y-717267D01*
X-534482Y-717933D01*
X-534782Y-718867D01*
X-534582Y-719800D01*
X-534082Y-720467D01*
X-533482Y-720733D01*
X-532482D01*
X-531582Y-721133D01*
X-530982Y-721934D01*
X-530782Y-722867D01*
X-530982Y-723800D01*
X-531482Y-724467D01*
X-532282Y-724867D01*
X-532982Y-725000D01*
G01X-540782D02*
X-540982Y-723267D01*
X-541282Y-721800D01*
X-541682Y-720467D01*
X-542182Y-719000D01*
X-542982Y-717000D01*
X-538982D01*
G01X-522607Y-819167D02*
X-523357Y-818167D01*
X-524232Y-817667D01*
X-525232Y-817500D01*
X-526482Y-817833D01*
X-527357Y-818667D01*
X-527607Y-819667D01*
X-527482Y-820667D01*
X-526982Y-821500D01*
X-524482Y-823167D01*
X-523357Y-824333D01*
X-522607Y-826000D01*
X-522357Y-827500D01*
X-527607D01*
G01X-400982Y-710000D02*
X-401682Y-709867D01*
X-402482Y-709467D01*
X-402982Y-708800D01*
X-403182Y-707867D01*
X-402982Y-706934D01*
X-402382Y-706133D01*
X-401482Y-705733D01*
X-400482D01*
X-399882Y-705467D01*
X-399382Y-704800D01*
X-399182Y-703867D01*
X-399482Y-702933D01*
X-400182Y-702267D01*
X-400982Y-702000D01*
X-401782Y-702267D01*
X-402482Y-702933D01*
X-402782Y-703867D01*
X-402582Y-704800D01*
X-402082Y-705467D01*
X-401482Y-705733D01*
X-400482D01*
X-399582Y-706133D01*
X-398982Y-706934D01*
X-398782Y-707867D01*
X-398982Y-708800D01*
X-399482Y-709467D01*
X-400282Y-709867D01*
X-400982Y-710000D01*
G01X-408982Y-702000D02*
X-408182Y-702267D01*
X-407582Y-702933D01*
X-407182Y-703733D01*
X-406882Y-704800D01*
X-406782Y-706000D01*
X-406882Y-707200D01*
X-407182Y-708267D01*
X-407582Y-709067D01*
X-408182Y-709733D01*
X-408982Y-710000D01*
X-409782Y-709733D01*
X-410382Y-709067D01*
X-410782Y-708267D01*
X-411082Y-707200D01*
X-411182Y-706000D01*
X-411082Y-704800D01*
X-410782Y-703733D01*
X-410382Y-702933D01*
X-409782Y-702267D01*
X-408982Y-702000D01*
G01X-418182Y-710000D02*
Y-702000D01*
X-414482Y-707733D01*
X-419482D01*
G01X-429982Y-702000D02*
X-431382Y-710000D01*
X-432982Y-702000D01*
X-434582Y-710000D01*
X-435982Y-702000D01*
G01X-440982Y-710000D02*
X-440182Y-709867D01*
X-439482Y-709333D01*
X-438882Y-708533D01*
X-438482Y-707600D01*
X-438282Y-706533D01*
Y-705467D01*
X-438482Y-704400D01*
X-438882Y-703467D01*
X-439482Y-702667D01*
X-440182Y-702133D01*
X-440982Y-702000D01*
X-441782Y-702133D01*
X-442482Y-702667D01*
X-443082Y-703467D01*
X-443482Y-704400D01*
X-443682Y-705467D01*
Y-706533D01*
X-443482Y-707600D01*
X-443082Y-708533D01*
X-442482Y-709333D01*
X-441782Y-709867D01*
X-440982Y-710000D01*
G01X-449782Y-705733D02*
X-450182Y-705333D01*
X-450482Y-704667D01*
X-450682Y-703733D01*
X-450482Y-702933D01*
X-450082Y-702400D01*
X-449382Y-702000D01*
X-446682D01*
Y-710000D01*
X-449982D01*
X-450682Y-709467D01*
X-451082Y-708667D01*
X-451282Y-707733D01*
X-451082Y-706800D01*
X-450482Y-706000D01*
X-449782Y-705733D01*
X-446682D01*
G01X-454782Y-702000D02*
Y-707733D01*
X-455182Y-708934D01*
X-455982Y-709733D01*
X-456982Y-710000D01*
X-457982Y-709733D01*
X-458782Y-708934D01*
X-459182Y-707733D01*
Y-702000D01*
G01X-462982Y-710000D02*
Y-702000D01*
X-465482D01*
X-466282Y-702400D01*
X-466782Y-702933D01*
X-466982Y-704000D01*
X-466782Y-705067D01*
X-466182Y-705733D01*
X-465482Y-706133D01*
X-462982D01*
G01X-465482D02*
X-466982Y-710000D01*
G01X-470682D02*
Y-702000D01*
X-475282Y-710000D01*
Y-702000D01*
G01X-486882Y-708934D02*
X-487682Y-709600D01*
X-488582Y-710000D01*
X-489382D01*
X-490182Y-709600D01*
X-490782Y-708934D01*
X-491082Y-708000D01*
X-490882Y-707067D01*
X-490382Y-706267D01*
X-489482Y-705733D01*
X-488282Y-705467D01*
X-487582Y-704933D01*
X-487282Y-704000D01*
X-487482Y-703067D01*
X-487982Y-702400D01*
X-488682Y-702000D01*
X-489382D01*
X-490082Y-702267D01*
X-490682Y-702933D01*
G01X-496982Y-702000D02*
Y-710000D01*
G01X-494682Y-702000D02*
X-499282D01*
G01X-502982Y-710000D02*
Y-702000D01*
X-505482D01*
X-506282Y-702400D01*
X-506782Y-702933D01*
X-506982Y-704000D01*
X-506782Y-705067D01*
X-506182Y-705733D01*
X-505482Y-706133D01*
X-502982D01*
G01X-505482D02*
X-506982Y-710000D01*
G01X-514982D02*
X-510982D01*
Y-702000D01*
X-514982D01*
G01X-513382Y-705867D02*
X-510982D01*
G01X-522982Y-710000D02*
X-518982D01*
Y-702000D01*
X-522982D01*
G01X-521382Y-705867D02*
X-518982D01*
G01X-528982Y-702000D02*
Y-710000D01*
G01X-526682Y-702000D02*
X-531282D01*
G01X-497982Y-827500D02*
X-497182Y-827367D01*
X-496482Y-826833D01*
X-495882Y-826033D01*
X-495482Y-825100D01*
X-495282Y-824033D01*
Y-822967D01*
X-495482Y-821900D01*
X-495882Y-820967D01*
X-496482Y-820167D01*
X-497182Y-819633D01*
X-497982Y-819500D01*
X-498782Y-819633D01*
X-499482Y-820167D01*
X-500082Y-820967D01*
X-500482Y-821900D01*
X-500682Y-822967D01*
Y-824033D01*
X-500482Y-825100D01*
X-500082Y-826033D01*
X-499482Y-826833D01*
X-498782Y-827367D01*
X-497982Y-827500D01*
G01X-504082D02*
Y-819500D01*
X-507882D01*
G01X-506482Y-823367D02*
X-504082D01*
G01X-427232Y-695000D02*
Y-685000D01*
X-429732D01*
X-430732Y-685500D01*
X-431482Y-686167D01*
X-432107Y-687167D01*
X-432607Y-688334D01*
X-432732Y-690000D01*
X-432607Y-691667D01*
X-432107Y-692833D01*
X-431482Y-693834D01*
X-430732Y-694500D01*
X-429732Y-695000D01*
X-427232D01*
G01X-438482Y-685000D02*
X-441482D01*
G01X-439982D02*
Y-695000D01*
G01X-438482D02*
X-441482D01*
G01X-446857Y-685000D02*
X-449982Y-695000D01*
X-453107Y-685000D01*
G01X-458482D02*
X-461482D01*
G01X-459982D02*
Y-695000D01*
G01X-458482D02*
X-461482D01*
G01X-467357Y-693667D02*
X-468357Y-694500D01*
X-469482Y-695000D01*
X-470482D01*
X-471482Y-694500D01*
X-472232Y-693667D01*
X-472607Y-692500D01*
X-472357Y-691334D01*
X-471732Y-690333D01*
X-470607Y-689667D01*
X-469107Y-689333D01*
X-468232Y-688667D01*
X-467857Y-687500D01*
X-468107Y-686333D01*
X-468732Y-685500D01*
X-469607Y-685000D01*
X-470482D01*
X-471357Y-685333D01*
X-472107Y-686167D01*
G01X-478482Y-685000D02*
X-481482D01*
G01X-479982D02*
Y-695000D01*
G01X-478482D02*
X-481482D01*
G01X-489982D02*
X-488982Y-694833D01*
X-488107Y-694167D01*
X-487357Y-693167D01*
X-486857Y-692000D01*
X-486607Y-690667D01*
Y-689333D01*
X-486857Y-688000D01*
X-487357Y-686833D01*
X-488107Y-685833D01*
X-488982Y-685167D01*
X-489982Y-685000D01*
X-490982Y-685167D01*
X-491857Y-685833D01*
X-492607Y-686833D01*
X-493107Y-688000D01*
X-493357Y-689333D01*
Y-690667D01*
X-493107Y-692000D01*
X-492607Y-693167D01*
X-491857Y-694167D01*
X-490982Y-694833D01*
X-489982Y-695000D01*
G01X-497107D02*
Y-685000D01*
X-502857Y-695000D01*
Y-685000D01*
G01X-475107Y-819167D02*
X-475857Y-818167D01*
X-476732Y-817667D01*
X-477732Y-817500D01*
X-478982Y-817833D01*
X-479857Y-818667D01*
X-480107Y-819667D01*
X-479982Y-820667D01*
X-479482Y-821500D01*
X-476982Y-823167D01*
X-475857Y-824333D01*
X-475107Y-826000D01*
X-474857Y-827500D01*
X-480107D01*
G01X-451232Y-670000D02*
X-452982Y-680000D01*
X-454982Y-670000D01*
X-456982Y-680000D01*
X-458732Y-670000D01*
G01X-461232D02*
X-462982Y-680000D01*
X-464982Y-670000D01*
X-466982Y-680000D01*
X-468732Y-670000D01*
G01X-471732Y-680000D02*
Y-670000D01*
X-474982Y-678333D01*
X-478232Y-670000D01*
Y-680000D01*
G01X-420882Y-826434D02*
X-421682Y-827100D01*
X-422582Y-827500D01*
X-423382D01*
X-424182Y-827100D01*
X-424782Y-826434D01*
X-425082Y-825500D01*
X-424882Y-824567D01*
X-424382Y-823767D01*
X-423482Y-823233D01*
X-422282Y-822967D01*
X-421582Y-822433D01*
X-421282Y-821500D01*
X-421482Y-820567D01*
X-421982Y-819900D01*
X-422682Y-819500D01*
X-423382D01*
X-424082Y-819767D01*
X-424682Y-820433D01*
G01X-428882Y-827500D02*
Y-819500D01*
G01X-433082D02*
Y-827500D01*
G01Y-823500D02*
X-428882D01*
G01X-440982Y-827500D02*
X-436982D01*
Y-819500D01*
X-440982D01*
G01X-439382Y-823367D02*
X-436982D01*
G01X-448982Y-827500D02*
X-444982D01*
Y-819500D01*
X-448982D01*
G01X-447382Y-823367D02*
X-444982D01*
G01X-454982Y-819500D02*
Y-827500D01*
G01X-452682Y-819500D02*
X-457282D01*
G01X-292482Y-775000D02*
X-290482Y-775667D01*
X-288982Y-777333D01*
X-287982Y-779333D01*
X-287232Y-782000D01*
X-286982Y-785000D01*
X-287232Y-788000D01*
X-287982Y-790667D01*
X-288982Y-792667D01*
X-290482Y-794333D01*
X-292482Y-795000D01*
X-294482Y-794333D01*
X-295982Y-792667D01*
X-296982Y-790667D01*
X-297732Y-788000D01*
X-297982Y-785000D01*
X-297732Y-782000D01*
X-296982Y-779333D01*
X-295982Y-777333D01*
X-294482Y-775667D01*
X-292482Y-775000D01*
G01X-312482Y-795000D02*
Y-775000D01*
X-309482Y-779000D01*
G01Y-795000D02*
X-315482D01*
G01X-329232Y-788334D02*
X-335732D01*
G01X-352482Y-775000D02*
X-350482Y-775667D01*
X-348982Y-777333D01*
X-347982Y-779333D01*
X-347232Y-782000D01*
X-346982Y-785000D01*
X-347232Y-788000D01*
X-347982Y-790667D01*
X-348982Y-792667D01*
X-350482Y-794333D01*
X-352482Y-795000D01*
X-354482Y-794333D01*
X-355982Y-792667D01*
X-356982Y-790667D01*
X-357732Y-788000D01*
X-357982Y-785000D01*
X-357732Y-782000D01*
X-356982Y-779333D01*
X-355982Y-777333D01*
X-354482Y-775667D01*
X-352482Y-775000D01*
G01X-366982Y-791000D02*
X-368482Y-793334D01*
X-370482Y-794667D01*
X-372732Y-795000D01*
X-374732Y-794667D01*
X-376732Y-793000D01*
X-377982Y-791000D01*
X-378232Y-789000D01*
X-377732Y-786667D01*
X-375982Y-785000D01*
X-374232Y-784333D01*
X-371982D01*
G01X-374232D02*
X-375732Y-783333D01*
X-376982Y-781667D01*
X-377482Y-779667D01*
X-376982Y-777667D01*
X-375732Y-776000D01*
X-373482Y-775000D01*
X-371232Y-775333D01*
X-368982Y-776667D01*
G01X-391982Y-795000D02*
X-392482Y-790667D01*
X-393232Y-787000D01*
X-394232Y-783667D01*
X-395482Y-780000D01*
X-397482Y-775000D01*
X-387482D01*
G01X-411982Y-795000D02*
X-412482Y-790667D01*
X-413232Y-787000D01*
X-414232Y-783667D01*
X-415482Y-780000D01*
X-417482Y-775000D01*
X-407482D01*
G01X-427732Y-786667D02*
X-429482Y-784333D01*
X-430982Y-783000D01*
X-432982Y-782334D01*
X-434732Y-783000D01*
X-435982Y-784333D01*
X-436982Y-786333D01*
X-437232Y-788667D01*
X-436982Y-790667D01*
X-435982Y-792667D01*
X-434482Y-794333D01*
X-432732Y-795000D01*
X-430732Y-794333D01*
X-428982Y-792334D01*
X-427982Y-789333D01*
X-427732Y-786000D01*
X-428232Y-781667D01*
X-428982Y-779333D01*
X-430232Y-777000D01*
X-431982Y-775333D01*
X-433732Y-775000D01*
X-435482Y-775667D01*
X-436732Y-777333D01*
G01X-452482Y-775000D02*
X-450482Y-775667D01*
X-448982Y-777333D01*
X-447982Y-779333D01*
X-447232Y-782000D01*
X-446982Y-785000D01*
X-447232Y-788000D01*
X-447982Y-790667D01*
X-448982Y-792667D01*
X-450482Y-794333D01*
X-452482Y-795000D01*
X-454482Y-794333D01*
X-455982Y-792667D01*
X-456982Y-790667D01*
X-457732Y-788000D01*
X-457982Y-785000D01*
X-457732Y-782000D01*
X-456982Y-779333D01*
X-455982Y-777333D01*
X-454482Y-775667D01*
X-452482Y-775000D01*
G01X-270782Y-755000D02*
Y-747000D01*
X-272782D01*
X-273582Y-747400D01*
X-274182Y-747933D01*
X-274682Y-748733D01*
X-275082Y-749667D01*
X-275182Y-751000D01*
X-275082Y-752333D01*
X-274682Y-753267D01*
X-274182Y-754067D01*
X-273582Y-754600D01*
X-272782Y-755000D01*
X-270782D01*
G01X-278982D02*
Y-747000D01*
X-281482D01*
X-282282Y-747400D01*
X-282782Y-747933D01*
X-282982Y-749000D01*
X-282782Y-750067D01*
X-282182Y-750733D01*
X-281482Y-751133D01*
X-278982D01*
G01X-281482D02*
X-282982Y-755000D01*
G01X-286482D02*
X-288982Y-747000D01*
X-291482Y-755000D01*
G01X-290582Y-752200D02*
X-287382D01*
G01X-293982Y-747000D02*
X-295382Y-755000D01*
X-296982Y-747000D01*
X-298582Y-755000D01*
X-299982Y-747000D01*
G01X-303782D02*
X-306182D01*
G01X-304982D02*
Y-755000D01*
G01X-303782D02*
X-306182D01*
G01X-310682D02*
Y-747000D01*
X-315282Y-755000D01*
Y-747000D01*
G01X-321582Y-751000D02*
X-323582D01*
Y-753400D01*
X-322982Y-754200D01*
X-322282Y-754733D01*
X-321282Y-755000D01*
X-320282Y-754733D01*
X-319582Y-754200D01*
X-318982Y-753400D01*
X-318582Y-752467D01*
X-318382Y-751400D01*
Y-750467D01*
X-318582Y-749667D01*
X-318982Y-748733D01*
X-319582Y-747933D01*
X-320182Y-747400D01*
X-320982Y-747000D01*
X-321682D01*
X-322482Y-747267D01*
X-323082Y-747800D01*
G01X-334682Y-755000D02*
Y-747000D01*
X-339282Y-755000D01*
Y-747000D01*
G01X-342782D02*
Y-752733D01*
X-343182Y-753934D01*
X-343982Y-754733D01*
X-344982Y-755000D01*
X-345982Y-754733D01*
X-346782Y-753934D01*
X-347182Y-752733D01*
Y-747000D01*
G01X-350382Y-755000D02*
Y-747000D01*
X-352982Y-753667D01*
X-355582Y-747000D01*
Y-755000D01*
G01X-361782Y-750733D02*
X-362182Y-750333D01*
X-362482Y-749667D01*
X-362682Y-748733D01*
X-362482Y-747933D01*
X-362082Y-747400D01*
X-361382Y-747000D01*
X-358682D01*
Y-755000D01*
X-361982D01*
X-362682Y-754467D01*
X-363082Y-753667D01*
X-363282Y-752733D01*
X-363082Y-751800D01*
X-362482Y-751000D01*
X-361782Y-750733D01*
X-358682D01*
G01X-370982Y-755000D02*
X-366982D01*
Y-747000D01*
X-370982D01*
G01X-369382Y-750867D02*
X-366982D01*
G01X-374982Y-755000D02*
Y-747000D01*
X-377482D01*
X-378282Y-747400D01*
X-378782Y-747933D01*
X-378982Y-749000D01*
X-378782Y-750067D01*
X-378182Y-750733D01*
X-377482Y-751133D01*
X-374982D01*
G01X-377482D02*
X-378982Y-755000D01*
G01X-114982Y-649834D02*
X-116982Y-651500D01*
X-119232Y-652500D01*
X-121232D01*
X-123232Y-651500D01*
X-124732Y-649834D01*
X-125482Y-647500D01*
X-124982Y-645167D01*
X-123732Y-643167D01*
X-121482Y-641833D01*
X-118482Y-641167D01*
X-116732Y-639834D01*
X-115982Y-637500D01*
X-116482Y-635167D01*
X-117732Y-633500D01*
X-119482Y-632500D01*
X-121232D01*
X-122982Y-633167D01*
X-124482Y-634833D01*
G01X-145232Y-652500D02*
X-135232D01*
Y-632500D01*
X-145232D01*
G01X-141232Y-642166D02*
X-135232D01*
G01X-165732Y-634167D02*
X-164232Y-633167D01*
X-162482Y-632500D01*
X-160482D01*
X-158232Y-633500D01*
X-156482Y-635167D01*
X-155232Y-637167D01*
X-154232Y-640500D01*
X-153982Y-643500D01*
X-154482Y-646500D01*
X-155232Y-648500D01*
X-156732Y-650500D01*
X-158482Y-651833D01*
X-160232Y-652500D01*
X-161982D01*
X-163732Y-651833D01*
X-165232Y-650834D01*
X-166482Y-649501D01*
G01X-180232Y-652500D02*
X-178232Y-652167D01*
X-176482Y-650834D01*
X-174982Y-648834D01*
X-173982Y-646500D01*
X-173482Y-643833D01*
Y-641167D01*
X-173982Y-638500D01*
X-174982Y-636166D01*
X-176482Y-634167D01*
X-178232Y-632833D01*
X-180232Y-632500D01*
X-182232Y-632833D01*
X-183982Y-634167D01*
X-185482Y-636166D01*
X-186482Y-638500D01*
X-186982Y-641167D01*
Y-643833D01*
X-186482Y-646500D01*
X-185482Y-648834D01*
X-183982Y-650834D01*
X-182232Y-652167D01*
X-180232Y-652500D01*
G01X-194482D02*
Y-632500D01*
X-205982Y-652500D01*
Y-632500D01*
G01X-214732Y-652500D02*
Y-632500D01*
X-219732D01*
X-221732Y-633500D01*
X-223232Y-634833D01*
X-224482Y-636833D01*
X-225482Y-639167D01*
X-225732Y-642500D01*
X-225482Y-645834D01*
X-224482Y-648167D01*
X-223232Y-650167D01*
X-221732Y-651500D01*
X-219732Y-652500D01*
X-214732D01*
G01X-233982D02*
X-240232Y-632500D01*
X-246482Y-652500D01*
G01X-244232Y-645500D02*
X-236232D01*
G01X-255232Y-652500D02*
Y-632500D01*
X-261482D01*
X-263482Y-633500D01*
X-264732Y-634833D01*
X-265232Y-637500D01*
X-264732Y-640167D01*
X-263232Y-641833D01*
X-261482Y-642834D01*
X-255232D01*
G01X-261482D02*
X-265232Y-652500D01*
G01X-280232D02*
Y-643500D01*
X-275232Y-632500D01*
G01X-285232D02*
X-280232Y-643500D01*
G01X-314982Y-649834D02*
X-316982Y-651500D01*
X-319232Y-652500D01*
X-321232D01*
X-323232Y-651500D01*
X-324732Y-649834D01*
X-325482Y-647500D01*
X-324982Y-645167D01*
X-323732Y-643167D01*
X-321482Y-641833D01*
X-318482Y-641167D01*
X-316732Y-639834D01*
X-315982Y-637500D01*
X-316482Y-635167D01*
X-317732Y-633500D01*
X-319482Y-632500D01*
X-321232D01*
X-322982Y-633167D01*
X-324482Y-634833D01*
G01X-337232Y-632500D02*
X-343232D01*
G01X-340232D02*
Y-652500D01*
G01X-337232D02*
X-343232D01*
G01X-354732D02*
Y-632500D01*
X-359732D01*
X-361732Y-633500D01*
X-363232Y-634833D01*
X-364482Y-636833D01*
X-365482Y-639167D01*
X-365732Y-642500D01*
X-365482Y-645834D01*
X-364482Y-648167D01*
X-363232Y-650167D01*
X-361732Y-651500D01*
X-359732Y-652500D01*
X-354732D01*
G01X-385232D02*
X-375232D01*
Y-632500D01*
X-385232D01*
G01X-381232Y-642166D02*
X-375232D01*
G01X-339982Y-870000D02*
Y-845000D01*
X-336202Y-850000D01*
G01Y-870000D02*
X-343761D01*
G01X-339982Y775000D02*
Y800000D01*
X-336202Y795000D01*
G01Y775000D02*
X-343761D01*
G01X-170232Y-778333D02*
X-171732Y-776334D01*
X-173482Y-775333D01*
X-175482Y-775000D01*
X-177982Y-775667D01*
X-179732Y-777333D01*
X-180232Y-779333D01*
X-179982Y-781334D01*
X-178982Y-783000D01*
X-173982Y-786333D01*
X-171732Y-788667D01*
X-170232Y-792001D01*
X-169732Y-795000D01*
X-180232D01*
G01X-197982D02*
Y-775000D01*
X-188732Y-789333D01*
X-201232D01*
G01X-209482Y-791000D02*
X-210982Y-793334D01*
X-212982Y-794667D01*
X-215232Y-795000D01*
X-217232Y-794667D01*
X-219232Y-793000D01*
X-220482Y-791000D01*
X-220732Y-789000D01*
X-220232Y-786667D01*
X-218482Y-785000D01*
X-216732Y-784333D01*
X-214482D01*
G01X-216732D02*
X-218232Y-783333D01*
X-219482Y-781667D01*
X-219982Y-779667D01*
X-219482Y-777667D01*
X-218232Y-776000D01*
X-215982Y-775000D01*
X-213732Y-775333D01*
X-211482Y-776667D01*
G01X-229482Y-792001D02*
X-230982Y-793667D01*
X-232732Y-794667D01*
X-234982Y-795000D01*
X-237232Y-794333D01*
X-238982Y-793000D01*
X-240232Y-790667D01*
X-240482Y-788000D01*
X-239982Y-785334D01*
X-238732Y-783667D01*
X-236982Y-782334D01*
X-235232Y-782000D01*
X-233482Y-782334D01*
X-231232Y-783667D01*
X-231982Y-775000D01*
X-238732D01*
G01X-249482Y-792001D02*
X-250982Y-793667D01*
X-252732Y-794667D01*
X-254982Y-795000D01*
X-257232Y-794333D01*
X-258982Y-793000D01*
X-260232Y-790667D01*
X-260482Y-788000D01*
X-259982Y-785334D01*
X-258732Y-783667D01*
X-256982Y-782334D01*
X-255232Y-782000D01*
X-253482Y-782334D01*
X-251232Y-783667D01*
X-251982Y-775000D01*
X-258732D01*
G01X-203732Y-827500D02*
Y-817500D01*
X-202232Y-819500D01*
G01Y-827500D02*
X-205232D01*
G01X-211482Y-827833D02*
X-215982Y-817500D01*
G01X-223732Y-827500D02*
Y-817500D01*
X-222232Y-819500D01*
G01Y-827500D02*
X-225232D01*
G01X-181082Y-755000D02*
Y-747000D01*
X-184882D01*
G01X-183482Y-750867D02*
X-181082D01*
G01X-188882Y-753934D02*
X-189682Y-754600D01*
X-190582Y-755000D01*
X-191382D01*
X-192182Y-754600D01*
X-192782Y-753934D01*
X-193082Y-753000D01*
X-192882Y-752067D01*
X-192382Y-751267D01*
X-191482Y-750733D01*
X-190282Y-750467D01*
X-189582Y-749933D01*
X-189282Y-749000D01*
X-189482Y-748067D01*
X-189982Y-747400D01*
X-190682Y-747000D01*
X-191382D01*
X-192082Y-747267D01*
X-192682Y-747933D01*
G01X-201182Y-747667D02*
X-200582Y-747267D01*
X-199882Y-747000D01*
X-199082D01*
X-198182Y-747400D01*
X-197482Y-748067D01*
X-196982Y-748867D01*
X-196582Y-750200D01*
X-196482Y-751400D01*
X-196682Y-752600D01*
X-196982Y-753400D01*
X-197582Y-754200D01*
X-198282Y-754733D01*
X-198982Y-755000D01*
X-199682D01*
X-200382Y-754733D01*
X-200982Y-754333D01*
X-201482Y-753800D01*
G01X-204382Y-755000D02*
Y-747000D01*
X-206982Y-753667D01*
X-209582Y-747000D01*
Y-755000D01*
G01X-220682D02*
Y-747000D01*
X-225282Y-755000D01*
Y-747000D01*
G01X-230982Y-755000D02*
X-230182Y-754867D01*
X-229482Y-754333D01*
X-228882Y-753533D01*
X-228482Y-752600D01*
X-228282Y-751533D01*
Y-750467D01*
X-228482Y-749400D01*
X-228882Y-748467D01*
X-229482Y-747667D01*
X-230182Y-747133D01*
X-230982Y-747000D01*
X-231782Y-747133D01*
X-232482Y-747667D01*
X-233082Y-748467D01*
X-233482Y-749400D01*
X-233682Y-750467D01*
Y-751533D01*
X-233482Y-752600D01*
X-233082Y-753533D01*
X-232482Y-754333D01*
X-231782Y-754867D01*
X-230982Y-755000D01*
G01X-125882Y-826434D02*
X-126682Y-827100D01*
X-127582Y-827500D01*
X-128382D01*
X-129182Y-827100D01*
X-129782Y-826434D01*
X-130082Y-825500D01*
X-129882Y-824567D01*
X-129382Y-823767D01*
X-128482Y-823233D01*
X-127282Y-822967D01*
X-126582Y-822433D01*
X-126282Y-821500D01*
X-126482Y-820567D01*
X-126982Y-819900D01*
X-127682Y-819500D01*
X-128382D01*
X-129082Y-819767D01*
X-129682Y-820433D01*
G01X-138182Y-820167D02*
X-137582Y-819767D01*
X-136882Y-819500D01*
X-136082D01*
X-135182Y-819900D01*
X-134482Y-820567D01*
X-133982Y-821367D01*
X-133582Y-822700D01*
X-133482Y-823900D01*
X-133682Y-825100D01*
X-133982Y-825900D01*
X-134582Y-826700D01*
X-135282Y-827233D01*
X-135982Y-827500D01*
X-136682D01*
X-137382Y-827233D01*
X-137982Y-826833D01*
X-138482Y-826300D01*
G01X-141482Y-827500D02*
X-143982Y-819500D01*
X-146482Y-827500D01*
G01X-145582Y-824700D02*
X-142382D01*
G01X-149982Y-819500D02*
Y-827500D01*
X-153982D01*
G01X-161982D02*
X-157982D01*
Y-819500D01*
X-161982D01*
G01X-160382Y-823367D02*
X-157982D01*
G01X-125882Y-753934D02*
X-126682Y-754600D01*
X-127582Y-755000D01*
X-128382D01*
X-129182Y-754600D01*
X-129782Y-753934D01*
X-130082Y-753000D01*
X-129882Y-752067D01*
X-129382Y-751267D01*
X-128482Y-750733D01*
X-127282Y-750467D01*
X-126582Y-749933D01*
X-126282Y-749000D01*
X-126482Y-748067D01*
X-126982Y-747400D01*
X-127682Y-747000D01*
X-128382D01*
X-129082Y-747267D01*
X-129682Y-747933D01*
G01X-134782Y-747000D02*
X-137182D01*
G01X-135982D02*
Y-755000D01*
G01X-134782D02*
X-137182D01*
G01X-142082Y-747000D02*
X-145882D01*
X-142082Y-755000D01*
X-145882D01*
G01X-153982D02*
X-149982D01*
Y-747000D01*
X-153982D01*
G01X-152382Y-750867D02*
X-149982D01*
G01X-134482Y-795000D02*
Y-775000D01*
X-139482D01*
X-141482Y-776000D01*
X-142982Y-777333D01*
X-144232Y-779333D01*
X-145232Y-781667D01*
X-145482Y-785000D01*
X-145232Y-788334D01*
X-144232Y-790667D01*
X-142982Y-792667D01*
X-141482Y-794000D01*
X-139482Y-795000D01*
X-134482D01*
G01X69000Y100000D02*
Y104000D01*
X69760Y103200D01*
G01Y100000D02*
X68240D01*
G01X93417Y103800D02*
X93100Y103400D01*
X92720Y103133D01*
X92277Y103000D01*
X91770Y103133D01*
X91390Y103400D01*
X91010Y103800D01*
X90883Y104333D01*
Y107000D01*
G01X87050D02*
Y103000D01*
G01X88507Y107000D02*
X85593D01*
G01X83533Y103000D02*
X81950Y107000D01*
X80367Y103000D01*
G01X80937Y104400D02*
X82963D01*
G01X76470Y105000D02*
X75203D01*
Y103800D01*
X75583Y103400D01*
X76027Y103133D01*
X76660Y103000D01*
X77293Y103133D01*
X77737Y103400D01*
X78117Y103800D01*
X78370Y104267D01*
X78497Y104800D01*
Y105267D01*
X78370Y105667D01*
X78117Y106133D01*
X77737Y106533D01*
X77357Y106800D01*
X76850Y107000D01*
X76407D01*
X75900Y106867D01*
X75520Y106600D01*
G01X139367Y-10500D02*
Y-6500D01*
X137783D01*
X137277Y-6700D01*
X136960Y-6967D01*
X136833Y-7500D01*
X136960Y-8033D01*
X137340Y-8367D01*
X137783Y-8567D01*
X139367D01*
G01X137783D02*
X136833Y-10500D01*
G01X133000D02*
Y-6500D01*
X133760Y-7300D01*
G01Y-10500D02*
X132240D01*
G01X129293Y-9700D02*
X128913Y-10167D01*
X128407Y-10433D01*
X127837Y-10500D01*
X127330Y-10433D01*
X126823Y-10100D01*
X126507Y-9700D01*
X126443Y-9300D01*
X126570Y-8833D01*
X127013Y-8500D01*
X127457Y-8367D01*
X128027D01*
G01X127457D02*
X127077Y-8167D01*
X126760Y-7833D01*
X126633Y-7433D01*
X126760Y-7033D01*
X127077Y-6700D01*
X127647Y-6500D01*
X128217Y-6567D01*
X128787Y-6833D01*
G01X158367Y-10500D02*
Y-6500D01*
X156783D01*
X156277Y-6700D01*
X155960Y-6967D01*
X155833Y-7500D01*
X155960Y-8033D01*
X156340Y-8367D01*
X156783Y-8567D01*
X158367D01*
G01X156783D02*
X155833Y-10500D01*
G01X153393Y-9900D02*
X153013Y-10233D01*
X152570Y-10433D01*
X152000Y-10500D01*
X151430Y-10367D01*
X150987Y-10100D01*
X150670Y-9633D01*
X150607Y-9100D01*
X150733Y-8567D01*
X151050Y-8233D01*
X151493Y-7967D01*
X151937Y-7900D01*
X152380Y-7967D01*
X152950Y-8233D01*
X152760Y-6500D01*
X151050D01*
G01X148103Y-8833D02*
X147660Y-8367D01*
X147280Y-8100D01*
X146773Y-7967D01*
X146330Y-8100D01*
X146013Y-8367D01*
X145760Y-8767D01*
X145697Y-9233D01*
X145760Y-9633D01*
X146013Y-10033D01*
X146393Y-10367D01*
X146837Y-10500D01*
X147343Y-10367D01*
X147787Y-9967D01*
X148040Y-9367D01*
X148103Y-8700D01*
X147977Y-7833D01*
X147787Y-7367D01*
X147470Y-6900D01*
X147027Y-6567D01*
X146583Y-6500D01*
X146140Y-6633D01*
X145823Y-6967D01*
G01X216003Y-849167D02*
X214113Y-846667D01*
X211908Y-845417D01*
X209388Y-845000D01*
X206238Y-845833D01*
X204033Y-847917D01*
X203403Y-850416D01*
X203718Y-852917D01*
X204978Y-855000D01*
X211278Y-859167D01*
X214113Y-862083D01*
X216003Y-866251D01*
X216633Y-870000D01*
X203403D01*
G01X216003Y795833D02*
X214113Y798333D01*
X211908Y799583D01*
X209388Y800000D01*
X206238Y799167D01*
X204033Y797083D01*
X203403Y794584D01*
X203718Y792083D01*
X204978Y790000D01*
X211278Y785833D01*
X214113Y782917D01*
X216003Y778749D01*
X216633Y775000D01*
X203403D01*
G01X766948Y-865000D02*
X765058Y-867917D01*
X762538Y-869583D01*
X759703Y-870000D01*
X757183Y-869583D01*
X754663Y-867501D01*
X753088Y-865000D01*
X752773Y-862500D01*
X753403Y-859584D01*
X755608Y-857500D01*
X757813Y-856666D01*
X760648D01*
G01X757813D02*
X755923Y-855417D01*
X754348Y-853334D01*
X753718Y-850834D01*
X754348Y-848333D01*
X755923Y-846250D01*
X758758Y-845000D01*
X761593Y-845417D01*
X764428Y-847084D01*
G01X766948Y780000D02*
X765058Y777083D01*
X762538Y775417D01*
X759703Y775000D01*
X757183Y775417D01*
X754663Y777499D01*
X753088Y780000D01*
X752773Y782500D01*
X753403Y785416D01*
X755608Y787500D01*
X757813Y788334D01*
X760648D01*
G01X757813D02*
X755923Y789583D01*
X754348Y791666D01*
X753718Y794166D01*
X754348Y796667D01*
X755923Y798750D01*
X758758Y800000D01*
X761593Y799583D01*
X764428Y797916D01*
G01X1306238Y-870000D02*
Y-845000D01*
X1317893Y-862917D01*
X1302143D01*
G01X1306238Y775000D02*
Y800000D01*
X1317893Y782083D01*
X1302143D01*
G01X1562893Y-685000D02*
X1555018Y-660000D01*
X1547143Y-685000D01*
G01X1549978Y-676250D02*
X1560058D01*
G01X1552498Y-246666D02*
X1551238Y-245417D01*
X1550293Y-243334D01*
X1549663Y-240416D01*
X1550293Y-237917D01*
X1551553Y-236250D01*
X1553758Y-235000D01*
X1562263D01*
Y-260000D01*
X1551868D01*
X1549663Y-258334D01*
X1548403Y-255833D01*
X1547773Y-252917D01*
X1548403Y-250001D01*
X1550293Y-247500D01*
X1552498Y-246666D01*
X1562263D01*
G01X1548088Y187916D02*
X1549978Y189167D01*
X1552183Y190000D01*
X1554703D01*
X1557538Y188750D01*
X1559743Y186667D01*
X1561318Y184166D01*
X1562578Y180000D01*
X1562893Y176250D01*
X1562263Y172500D01*
X1561318Y170000D01*
X1559428Y167499D01*
X1557223Y165833D01*
X1555018Y165000D01*
X1552813D01*
X1550608Y165833D01*
X1548718Y167083D01*
X1547143Y168749D01*
G01X1561948Y590000D02*
Y615000D01*
X1555648D01*
X1553128Y613750D01*
X1551238Y612083D01*
X1549663Y609584D01*
X1548403Y606666D01*
X1548088Y602500D01*
X1548403Y598333D01*
X1549663Y595416D01*
X1551238Y592916D01*
X1553128Y591250D01*
X1555648Y590000D01*
X1561948D01*
M02*
