G04 ================== begin FILE IDENTIFICATION RECORD ==================*
G04 Layout Name:  C:/tmp/20_037760d/worklib/02_037760d_top/physical/08_037760d.brd*
G04 Film Name:    l1_primary*
G04 File Format:  Gerber RS274X*
G04 File Origin:  Cadence Allegro 16.5-S052*
G04 Origin Date:  Tue Jan 06 12:18:47 2015*
G04 *
G04 Layer:  VIA CLASS/TOP*
G04 Layer:  PIN/TOP*
G04 Layer:  PACKAGE GEOMETRY/ETCH_TOP*
G04 Layer:  ETCH/TOP*
G04 Layer:  BOARD GEOMETRY/TOOLING_CORNERS*
G04 Layer:  BOARD GEOMETRY/LYR_TOP*
G04 Layer:  BOARD GEOMETRY/ROOT_NUMBER*
G04 *
G04 Offset:    (0.00 0.00)*
G04 Mirror:    No*
G04 Mode:      Positive*
G04 Rotation:  0*
G04 FullContactRelief:  No*
G04 UndefLineWidth:     8.00*
G04 ================== end FILE IDENTIFICATION RECORD ====================*
%FSLAX55Y55*MOIN*%
%IR0*IPPOS*OFA0.00000B0.00000*MIA0B0*SFA1.00000B1.00000*%
%ADD30R,.1X.035*%
%ADD11C,.02*%
%ADD18C,.04*%
%ADD38C,.06*%
%ADD65C,.072*%
%ADD46R,.038X.146*%
%ADD49R,.06X.06*%
%ADD45R,.08X.08*%
%ADD33R,.063X.063*%
%ADD40R,.098X.098*%
%ADD44O,.01X.032*%
%ADD41O,.041X.012*%
%ADD51O,.033X.012*%
%ADD42O,.012X.041*%
%ADD59O,.034X.012*%
%ADD27R,.06X.01*%
%AMMACRO10*
4,1,36,0.0,-.02,
.003473,-.019696,
.00684,-.018794,
.01,-.017321,
.012856,-.015321,
.015321,-.012856,
.017321,-.01,
.018794,-.00684,
.019696,-.003473,
.02,0.0,
.019696,.003473,
.018794,.00684,
.017321,.01,
.015321,.012856,
.012856,.015321,
.01,.017321,
.00684,.018794,
.003473,.019696,
0.0,.02,
-.003473,.019696,
-.00684,.018794,
-.01,.017321,
-.012856,.015321,
-.015321,.012856,
-.017321,.01,
-.018794,.00684,
-.019696,.003473,
-.02,0.0,
-.019696,-.003473,
-.018794,-.00684,
-.017321,-.01,
-.015321,-.012856,
-.012856,-.015321,
-.01,-.017321,
-.00684,-.018794,
-.003473,-.019696,
0.0,-.02,
0.0*
%
%ADD10MACRO10*%
%ADD53O,.035X.012*%
%ADD28R,.01X.06*%
%ADD23R,.024X.02*%
%ADD14O,.012X.034*%
%ADD54O,.012X.035*%
%ADD55R,.052X.012*%
%ADD36R,.053X.02*%
%ADD35R,.012X.052*%
%ADD47R,.04X.07*%
%ADD32O,.039X.012*%
%ADD31O,.012X.039*%
%ADD26R,.032X.035*%
%ADD57O,.039X.014*%
%ADD37R,.024X.017*%
%ADD13R,.035X.032*%
%ADD63R,.04X.055*%
%ADD58O,.014X.039*%
%ADD34R,.033X.045*%
%ADD19R,.063X.051*%
%ADD62R,.055X.051*%
%ADD50R,.028X.05*%
%ADD39R,.051X.063*%
%ADD25R,.083X.05*%
%ADD61R,.051X.055*%
%ADD20R,.047X.043*%
%ADD12R,.043X.047*%
%ADD56R,.086X.024*%
%ADD64R,.024X.086*%
%ADD60R,.039X.063*%
%ADD21R,.069X.016*%
%ADD15R,.063X.039*%
%ADD24R,.087X.08*%
%ADD52R,.065X.094*%
%ADD43R,.094X.065*%
%ADD48R,.096X.093*%
%ADD22R,.057X.079*%
%ADD29R,.079X.094*%
%AMMACRO16*
4,1,35,-.062,.0115,
-.062,-.0368,
-.061761,-.039526,
-.061053,-.04217,
-.059897,-.04465,
-.058327,-.046892,
-.056392,-.048827,
-.05415,-.050397,
-.05167,-.051553,
-.049026,-.052261,
-.0463,-.0525,
.0053,-.0525,
.008026,-.052261,
.01067,-.051553,
.01315,-.050397,
.015392,-.048827,
.017327,-.046892,
.018897,-.04465,
.020053,-.04217,
.020761,-.039526,
.021,-.0368,
.021,-.019,
.062,-.019,
.062,.0525,
.0098,.0525,
.0098,.041,
.00935,.035876,
.008017,.030907,
.005841,.026246,
.002889,.022033,
-.00075,.018397,
-.004965,.015448,
-.009628,.013276,
-.014597,.011946,
-.0197,.0115,
-.062,.0115,
0.0*
%
%ADD16MACRO16*%
%AMMACRO17*
4,1,35,-.062,-.0115,
-.062,.0368,
-.061761,.039526,
-.061053,.04217,
-.059897,.04465,
-.058327,.046892,
-.056392,.048827,
-.05415,.050397,
-.05167,.051553,
-.049026,.052261,
-.0463,.0525,
.0053,.0525,
.008026,.052261,
.01067,.051553,
.01315,.050397,
.015392,.048827,
.017327,.046892,
.018897,.04465,
.020053,.04217,
.020761,.039526,
.021,.0368,
.021,.019,
.062,.019,
.062,-.0525,
.0098,-.0525,
.0098,-.041,
.00935,-.035876,
.008017,-.030907,
.005841,-.026246,
.002889,-.022033,
-.00075,-.018397,
-.004965,-.015448,
-.009628,-.013276,
-.014597,-.011946,
-.0197,-.0115,
-.062,-.0115,
0.0*
%
%ADD17MACRO17*%
%ADD66C,.01*%
%ADD67C,.03*%
%ADD68C,.012*%
%ADD69C,.015*%
%ADD70C,.025*%
%ADD71C,.006*%
%ADD72C,.008*%
%ADD80C,.04004*%
%ADD76R,.11604X.05104*%
%ADD73C,.06004*%
%ADD79C,.07604*%
%ADD81R,.0707X.47204*%
%ADD83R,.12404X.12102*%
%ADD77R,.05604X.07104*%
%ADD84R,.09104X.09104*%
%ADD74R,.07904X.06704*%
%ADD82R,.09604X.09604*%
%ADD75R,.09904X.06604*%
%ADD78R,.07904X.07904*%
G75*
%LPD*%
G75*
G36*
G01X1960Y50522D02*
X252Y52231D01*
Y52598D01*
X5052D01*
Y57402D01*
X2000D01*
Y58848D01*
X8198D01*
Y49132D01*
X12632Y44698D01*
X18948D01*
Y39598D01*
X22500D01*
Y37902D01*
X18948D01*
Y33098D01*
X22500D01*
Y31402D01*
X18948D01*
Y26598D01*
X23748D01*
Y26390D01*
G02X23889Y25666I-81J-391D01*
G03X23180Y23165I1111J-1666D01*
G01X23198Y23126D01*
Y22302D01*
X20848D01*
Y15198D01*
X29152D01*
Y22302D01*
X26802D01*
Y23126D01*
X26820Y23165D01*
G03X26111Y25666I-1820J835D01*
G02X26332Y26398I222J332D01*
G01X29252D01*
Y26500D01*
X32986D01*
Y13876D01*
X40500D01*
Y5000D01*
X41209D01*
G02X41507Y4334I-1J-400D01*
G03X41179Y2168I1493J-1334D01*
G02X40815Y1602I-364J-166D01*
G01X40748D01*
Y-3602D01*
X43898D01*
Y-8699D01*
X5493D01*
G02X5272Y-7965I-1J400D01*
G03X-7965Y5272I-5272J7965D01*
G02X-8699Y5493I-334J220D01*
G01Y66632D01*
G02X-8107Y66982I400J-1D01*
G03X-7000Y66698I1108J2018D01*
G01X-3802D01*
Y65352D01*
X-5002D01*
Y58648D01*
X-4802D01*
Y57602D01*
X-5252D01*
Y55503D01*
X-6860Y53894D01*
Y50998D01*
G03X-6101Y49291I2301J1D01*
G03X-6160Y48862I1542J-431D01*
G01Y46659D01*
G03X-5952Y45868I1601J-2D01*
G01Y41132D01*
G03X-6160Y40341I1393J-789D01*
G01Y38141D01*
G03X-5961Y37366I1601J-2D01*
G01Y33478D01*
X-5752Y33269D01*
Y29898D01*
X-4802D01*
Y28852D01*
X-7002D01*
Y22148D01*
X-5802D01*
Y21874D01*
X-5820Y21835D01*
G03X-5802Y20127I1820J-835D01*
G01Y17873D01*
G03X-2198I1802J-873D01*
G01Y20127D01*
G03X-2180Y21835I-1802J873D01*
G01X-2198Y21874D01*
Y22148D01*
X-698D01*
Y22500D01*
X-102D01*
Y22348D01*
X5802D01*
Y28652D01*
X1500D01*
Y30098D01*
X4552D01*
Y34902D01*
X0D01*
Y36856D01*
G03X1960Y38141I559J1285D01*
G01Y40341D01*
G03X1953Y40489I-1401J8D01*
G01X1952Y40500D01*
Y45868D01*
G03X2160Y46659I-1393J789D01*
G01Y48859D01*
G03X1960Y49634I-1602J0D01*
G01Y50522D01*
G37*
G36*
G01X55898Y79881D02*
X54984Y78966D01*
G02X54302Y79249I-282J283D01*
G01Y83152D01*
X49000D01*
Y86298D01*
X53838D01*
Y97702D01*
X53638D01*
Y98000D01*
X28000D01*
Y97500D01*
X28162D01*
Y86298D01*
X33000D01*
Y83152D01*
X27698D01*
Y76848D01*
X33602D01*
Y77000D01*
X34198D01*
Y76648D01*
X38861D01*
X39198Y76311D01*
Y75461D01*
X42376Y72283D01*
Y67500D01*
X40500D01*
Y64124D01*
X34046D01*
X32302Y65868D01*
Y71868D01*
X28368Y75802D01*
X26352D01*
Y79002D01*
X21689D01*
X20302Y80389D01*
Y88698D01*
X23206D01*
Y92302D01*
X20302D01*
Y93698D01*
X23206D01*
Y97302D01*
X18998D01*
Y97502D01*
X14594D01*
Y95522D01*
X8107D01*
X7827Y95802D01*
X6562D01*
Y96302D01*
X6362D01*
Y97500D01*
X7000D01*
Y110698D01*
X-730D01*
Y110654D01*
X-4252D01*
Y111632D01*
G03X-6624Y114004I-2372J0D01*
G01X-8696D01*
Y125498D01*
X14848D01*
Y116198D01*
X25152D01*
Y125498D01*
X27502D01*
Y134998D01*
X29348D01*
Y128698D01*
X35652D01*
Y132967D01*
G02X36334Y133249I400J-1D01*
G01X39085Y130498D01*
X57415D01*
X63915Y136998D01*
X74998D01*
Y134000D01*
X74160D01*
X72080Y131920D01*
Y127000D01*
X67160D01*
X65962Y125802D01*
X59961D01*
X55698Y121539D01*
Y115461D01*
X60698Y110461D01*
Y88052D01*
X56098D01*
Y83252D01*
X55898D01*
Y79881D01*
G37*
G36*
G01X62098Y180398D02*
Y179127D01*
X62089Y179098D01*
G03X65565Y179749I1911J-598D01*
G02X65878Y180398I313J249D01*
G01X66252D01*
Y185602D01*
X61000D01*
Y186000D01*
X54500D01*
Y191500D01*
X40252D01*
Y191602D01*
X34748D01*
Y191402D01*
X29948D01*
Y186598D01*
X34748D01*
Y186398D01*
X35000D01*
Y184602D01*
X34748D01*
Y184402D01*
X29948D01*
Y179598D01*
X34748D01*
Y179398D01*
X35000D01*
Y178000D01*
X28000D01*
Y181500D01*
X27752D01*
Y181602D01*
X22248D01*
Y181500D01*
X22000D01*
Y181402D01*
X17448D01*
Y176598D01*
X22000D01*
Y175000D01*
X9000D01*
Y168302D01*
X8374D01*
X8335Y168320D01*
G03Y164680I-835J-1820D01*
G01X8374Y164698D01*
X9000D01*
Y163500D01*
X18000D01*
Y161852D01*
X13498D01*
Y160302D01*
X12874D01*
X12835Y160320D01*
G03Y156680I-835J-1820D01*
G01X12874Y156698D01*
X13498D01*
Y155148D01*
X18000D01*
Y153152D01*
X12698D01*
Y146848D01*
X18000D01*
Y144402D01*
X13548D01*
Y139598D01*
X18000D01*
Y137802D01*
X14848D01*
Y128198D01*
X25152D01*
Y137498D01*
X26498D01*
Y134998D01*
X26500D01*
Y126500D01*
X-8500D01*
Y183343D01*
G02X-7774Y183575I400J0D01*
G03X5714Y196780I7774J5550D01*
G02X5953Y197500I239J320D01*
G01X70000D01*
Y174000D01*
X58652D01*
Y178302D01*
X52348D01*
Y174000D01*
X50000D01*
Y180000D01*
X60500D01*
X60898Y180398D01*
X62098D01*
G37*
G36*
G01X39473Y159473D02*
X38500Y158500D01*
X37828D01*
X37772Y158546D01*
G03X35174Y158500I-1272J-1546D01*
G01X33000D01*
X30002Y155502D01*
X29148D01*
Y154648D01*
X29000Y154500D01*
Y148000D01*
X29348D01*
Y142698D01*
X35498D01*
Y141302D01*
X29348D01*
Y136000D01*
X27500D01*
Y138500D01*
X21000D01*
Y139598D01*
X24452D01*
Y144402D01*
X21000D01*
Y146848D01*
X25302D01*
Y153152D01*
X21000D01*
Y155348D01*
X26302D01*
Y161652D01*
X21000D01*
Y163000D01*
X26500D01*
X27500Y162000D01*
X37500D01*
X38500Y163000D01*
X39403D01*
Y162785D01*
G03X39398Y162669I1597J-127D01*
G01Y159969D01*
G03X39446Y159583I1602J3D01*
G01X39473Y159473D01*
G37*
G36*
G01X51052Y-3298D02*
Y1402D01*
X46252D01*
Y1602D01*
X44902D01*
Y2373D01*
X44911Y2402D01*
G03X45001Y3070I-1911J598D01*
G01X44998Y3157D01*
X45180Y3339D01*
Y4486D01*
X47348D01*
Y4686D01*
X48281D01*
Y4486D01*
X56858D01*
G02X57214Y3905I-1J-400D01*
G03X57179Y2168I1786J-905D01*
G02X56815Y1602I-364J-166D01*
G01X56748D01*
Y-3298D01*
X51052D01*
G37*
G36*
G01X42500Y140500D02*
Y149000D01*
X44048D01*
Y142898D01*
X51952D01*
Y149000D01*
X53500D01*
Y140500D01*
X42500D01*
G37*
G36*
G01X39500Y131500D02*
X37797Y133203D01*
X37794Y133206D01*
G03X37706Y133294I-1317J-1229D01*
G01X37703Y133297D01*
X36500Y134500D01*
Y153500D01*
X40500Y157500D01*
X41498D01*
Y152585D01*
X41500Y152584D01*
Y150002D01*
X41498D01*
Y141543D01*
G03Y141457I2002J-43D01*
G01Y139498D01*
X43457D01*
G03X43543I43J2002D01*
G01X46457D01*
G03X46543I43J2002D01*
G01X49457D01*
G03X49543I43J2002D01*
G01X54502D01*
Y148000D01*
X63500D01*
Y138000D01*
X57000Y131500D01*
X39500D01*
G37*
G36*
G01X49027Y165973D02*
X50500Y164500D01*
X62000D01*
X63500Y163000D01*
Y152000D01*
X54502D01*
Y161002D01*
X52043D01*
G03X51957I-43J-2002D01*
G01X49043D01*
G03X48957I-43J-2002D01*
G01X47998D01*
X45500Y163500D01*
Y165703D01*
G02X45715Y165903I200J0D01*
G03X45831Y165898I127J1597D01*
G01X48531D01*
G03X48917Y165946I-3J1602D01*
G01X49027Y165973D01*
G37*
G36*
G01X44000Y151500D02*
X42500Y153000D01*
Y159407D01*
X42511Y159439D01*
G03X42602Y159969I-1511J532D01*
G01Y162669D01*
G03X42597Y162785I-1602J-11D01*
G01Y163000D01*
X43500D01*
X46500Y160000D01*
X53500D01*
Y151500D01*
X44000D01*
G37*
G36*
G01X67052Y-3298D02*
Y1402D01*
X62252D01*
Y1602D01*
X60902D01*
Y2373D01*
X60911Y2402D01*
G03X60934Y3516I-1911J597D01*
G01X60928Y3542D01*
Y4486D01*
X83916D01*
Y3244D01*
X84002Y3157D01*
X83999Y3070D01*
G03X84089Y2402I2001J-70D01*
G01X84098Y2373D01*
Y1602D01*
X82748D01*
Y-3298D01*
X67052D01*
G37*
G36*
G01X110102Y-9999D02*
Y-3298D01*
X93052D01*
Y1402D01*
X88252D01*
Y1602D01*
X88185D01*
G02X87821Y2168I0J400D01*
G03X87786Y3905I-1821J832D01*
G02X88142Y4486I357J181D01*
G01X92624D01*
Y5000D01*
X95500D01*
Y13876D01*
X100783D01*
X101698Y12961D01*
Y5961D01*
X106020Y1640D01*
X107058D01*
Y1089D01*
X111462D01*
Y1215D01*
G02X111803Y1356I200J-1D01*
G01X115461Y-2302D01*
X121461D01*
X124461Y-5302D01*
X165039D01*
X188302Y17961D01*
Y36539D01*
X186000Y38841D01*
Y42500D01*
X177618D01*
G02X177657Y42876I370J152D01*
G03X175334Y45888I-1657J1124D01*
G02X174802Y46265I-132J377D01*
G01Y53039D01*
X173039Y54802D01*
X173000D01*
Y56500D01*
X142500D01*
Y56252D01*
X142398D01*
Y54802D01*
X141461D01*
X139198Y52539D01*
Y51521D01*
G03X138765Y49000I1302J-1521D01*
G01X137341D01*
X125039Y61302D01*
X116039D01*
X110802Y66539D01*
Y71998D01*
X112864D01*
G02X113220Y71416I0J-400D01*
G03X116617Y71681I1780J-916D01*
G02X116778Y71998I162J117D01*
G01X116852D01*
Y74448D01*
X117898D01*
Y73248D01*
X123102D01*
Y74448D01*
X123569D01*
X124919Y73098D01*
X125500D01*
Y72000D01*
X121000D01*
Y63500D01*
X130500D01*
Y62500D01*
X158266D01*
G03X161734Y64500I1734J1000D01*
G01X165048D01*
Y57898D01*
X172952D01*
Y64500D01*
X174598D01*
Y61948D01*
X179402D01*
Y66748D01*
X179602D01*
Y72252D01*
X176089D01*
X174802Y73539D01*
Y73962D01*
X175031D01*
X175060Y73954D01*
G03X176453Y74296I409J1340D01*
G03X178838Y75294I984J998D01*
G01Y78195D01*
G03X178829Y78353I-1401J-1D01*
G02X179202Y78798I398J46D01*
G02X179647Y79171I399J-25D01*
G03X179805Y79162I159J1392D01*
G01X182706D01*
G03X183670Y79546I0J1402D01*
G02X184288Y79463I276J-290D01*
G03X185544Y78551I1712J1037D01*
G01X185698Y78514D01*
Y76039D01*
X185198Y75539D01*
Y66461D01*
X187961Y63698D01*
X188480D01*
G02X188816Y63082I-1J-400D01*
G03X188561Y61502I1684J-1082D01*
G02X188174Y61002I-387J-100D01*
G01X188098D01*
Y60802D01*
X184548D01*
Y54198D01*
X188000D01*
Y51002D01*
X184348D01*
Y43998D01*
X186198D01*
Y43461D01*
X187000Y42660D01*
Y41083D01*
G03Y40917I2000J-83D01*
G01Y39336D01*
G03X188279Y38500I2000J1664D01*
G01X189720D01*
G03X190212Y38698I-720J2500D01*
G02X190766Y38500I186J-354D01*
G01X191398D01*
Y28248D01*
X192698D01*
Y26752D01*
X191398D01*
Y21248D01*
X191598D01*
Y16448D01*
X194339D01*
G02X194699Y15874I0J-400D01*
G03X195135Y13536I1801J-874D01*
G01X195198Y13476D01*
Y13002D01*
X190648D01*
Y13000D01*
X190500D01*
Y0D01*
X197500D01*
Y5500D01*
X202500D01*
Y0D01*
X203098D01*
Y-4552D01*
X207902D01*
Y-1000D01*
X210098D01*
Y-4552D01*
X214902D01*
Y-1000D01*
X217500D01*
Y-3000D01*
X218098D01*
Y-7052D01*
X222902D01*
Y-3500D01*
X225398D01*
Y-7252D01*
X230602D01*
Y-5802D01*
X250539D01*
X254039Y-2302D01*
X255198D01*
Y-3202D01*
X265802D01*
Y-2000D01*
X267500D01*
Y-4500D01*
X267598D01*
Y-4552D01*
X272402D01*
Y-4500D01*
X272500D01*
Y248D01*
X272602D01*
Y816D01*
G02X273168Y1179I400J-1D01*
G03X274000Y5002I832J1821D01*
G01Y7498D01*
G03X273168Y11321I0J2002D01*
G02X272602Y11684I-166J364D01*
G01Y12252D01*
X272402D01*
Y13500D01*
X272000D01*
Y17500D01*
X274500D01*
X276698Y15302D01*
Y10754D01*
X282248Y5204D01*
Y1198D01*
X289752D01*
Y1500D01*
X292248D01*
Y-1602D01*
X302752D01*
Y3602D01*
X302500D01*
Y5248D01*
X303602D01*
Y10500D01*
X305248D01*
Y10398D01*
X315752D01*
Y15602D01*
X314402D01*
Y17248D01*
X315602D01*
Y18598D01*
X316068D01*
X316126Y18544D01*
G03Y21456I1374J1456D01*
G01X316068Y21402D01*
X315602D01*
Y22752D01*
X315402D01*
Y27552D01*
X313000D01*
Y35448D01*
X315402D01*
Y40248D01*
X315602D01*
Y45752D01*
X315247D01*
G02X314873Y46293I0J400D01*
G03X313000Y49002I-1873J707D01*
G01Y52377D01*
G03X312500Y59921I-2500J3623D01*
G01Y61198D01*
X316246D01*
X319302Y64254D01*
Y74346D01*
X315243Y78405D01*
X315273Y78516D01*
G03X310114Y83000I-3673J984D01*
G01X307000D01*
Y106000D01*
X310115D01*
G03X314948Y107698I1485J3500D01*
G01X315746D01*
X319802Y111754D01*
Y122746D01*
X315246Y127302D01*
X314000D01*
Y129331D01*
G03Y134669I-3500J2669D01*
G01Y139248D01*
X314102D01*
Y139815D01*
G02X314668Y140179I400J0D01*
G03Y143821I832J1821D01*
G02X314102Y144185I-166J364D01*
G01Y149752D01*
X312902D01*
Y151198D01*
X317152D01*
Y152294D01*
G02X317710Y152661I400J-1D01*
G03Y156339I790J1839D01*
G02X317152Y156706I-158J368D01*
G01Y160294D01*
G02X317710Y160661I400J-1D01*
G03Y164339I790J1839D01*
G02X317152Y164706I-158J368D01*
G01Y165802D01*
X310500D01*
Y168452D01*
X311302Y169254D01*
Y181246D01*
X308496Y184052D01*
X307252D01*
Y185802D01*
X299748D01*
Y185500D01*
X297252D01*
Y188602D01*
X286748D01*
Y183398D01*
X287000D01*
Y181752D01*
X285898D01*
Y181500D01*
X284102D01*
Y181752D01*
X278898D01*
Y181500D01*
X277102D01*
Y181752D01*
X271898D01*
Y181684D01*
G02X271332Y181321I-400J1D01*
G03Y177679I-832J-1821D01*
G02X271898Y177316I166J-364D01*
G01Y176248D01*
X272098D01*
Y171448D01*
X276902D01*
Y174500D01*
X278898D01*
Y171248D01*
X283000D01*
Y151552D01*
X279098D01*
Y146752D01*
X278898D01*
Y141248D01*
X279000D01*
Y137002D01*
X278648D01*
Y124000D01*
X276048D01*
X269746Y130302D01*
X265746D01*
X264186Y131861D01*
G02X264391Y132537I283J283D01*
G03X265710Y135541I-391J1963D01*
G02X266052Y136148I342J207D01*
G01X266302D01*
Y136500D01*
X266898D01*
Y136348D01*
X272802D01*
Y142652D01*
X267500D01*
Y144598D01*
X270552D01*
Y149402D01*
X267500D01*
Y153348D01*
X267652D01*
Y161652D01*
X261706D01*
G02X261339Y162209I1J400D01*
G03X258665Y164820I-1839J791D01*
G01X258626Y164802D01*
X257802D01*
Y166752D01*
X243198D01*
Y161289D01*
X241860Y159950D01*
Y156118D01*
G03X241460Y155022I1302J-1096D01*
G01Y152522D01*
G03X241469Y152343I1701J-4D01*
G02X241098Y151902I-398J-42D01*
G02X240657Y151531I-399J27D01*
G03X240478Y151540I-175J-1692D01*
G01X237977D01*
G03X237491Y151469I0J-1701D01*
G02X236980Y151794I-115J383D01*
G03X233343Y150376I-1980J-294D01*
G02X233012Y149752I-331J-224D01*
G01X228398D01*
Y149500D01*
X227352D01*
Y151002D01*
X226136D01*
G02X225780Y151584I0J400D01*
G03X222220I-1780J916D01*
G02X221864Y151002I-356J-182D01*
G01X220648D01*
Y144698D01*
X221000D01*
Y144102D01*
X220848D01*
Y138198D01*
X227152D01*
Y142000D01*
X228598D01*
Y139448D01*
X232991D01*
X233011Y139271D01*
G03X235166Y137505I1989J229D01*
G01X235258Y137513D01*
X235465Y137306D01*
X235198Y137039D01*
Y128711D01*
X241575Y122334D01*
G02X241292Y121652I-283J-282D01*
G01X237206D01*
G02X236839Y122209I1J400D01*
G03X234930Y125001I-1839J791D01*
G01X234843Y124998D01*
X225539Y134302D01*
X212539D01*
X209539Y137302D01*
X206000D01*
Y141527D01*
G03X208073Y144500I339J1973D01*
G01X210848D01*
Y140698D01*
X217152D01*
Y146602D01*
X217000D01*
Y147198D01*
X217352D01*
Y153502D01*
X210648D01*
Y153000D01*
X207500D01*
Y154561D01*
G03Y158439I500J1939D01*
G01Y160348D01*
X208802D01*
Y162235D01*
G02X209335Y162612I400J0D01*
G03Y166388I665J1888D01*
G02X208802Y166765I-133J377D01*
G01Y168652D01*
X194198D01*
Y166765D01*
G02X193665Y166388I-400J0D01*
G03X191000Y164418I-665J-1888D01*
G01Y162002D01*
G03X189333Y161109I0J-2002D01*
G02X188667I-333J221D01*
G03X185219Y159085I-1667J-1109D01*
G02X184864Y158502I-355J-183D01*
G01X184598D01*
Y158302D01*
X181048D01*
Y151698D01*
X184000D01*
Y148502D01*
X180848D01*
Y147342D01*
G02X180448Y146942I-400J0D01*
G01X180447D01*
G03X180165Y146825I1J-400D01*
G01X178802Y145461D01*
Y141592D01*
G03X178990Y141253I400J0D01*
G02X179148Y140761I-212J-339D01*
G03X181165Y138005I1852J-761D01*
G02X181598Y137607I33J-398D01*
G01Y133252D01*
X181398D01*
Y130239D01*
X180657Y129498D01*
X180570Y129501D01*
G03X178790Y126459I-70J-2001D01*
G02X178448Y125852I-342J-207D01*
G01X177498D01*
Y119148D01*
X183802D01*
Y119500D01*
X184398D01*
Y119348D01*
X190302D01*
Y119587D01*
X190580D01*
X190638Y119533D01*
G03X192835Y119180I1363J1467D01*
G01X192874Y119198D01*
X193498D01*
Y119148D01*
X200500D01*
Y117902D01*
X196448D01*
Y113836D01*
G02X195791Y113530I-400J0D01*
G03X192765Y113000I-1291J-1530D01*
G01X191235D01*
G03X187979Y113302I-1735J-1000D01*
G01X184461D01*
X180761Y109602D01*
X172248D01*
Y106089D01*
X171084Y104925D01*
G02X170402Y105208I-282J283D01*
G01Y107052D01*
X165598D01*
Y102252D01*
X165398D01*
Y96748D01*
X165598D01*
Y96432D01*
X165544Y96374D01*
G03X167468Y93053I1456J-1374D01*
G02X167962Y92665I94J-389D01*
G01Y90806D01*
G03X168002Y90446I1601J-4D01*
G01X168008Y90424D01*
Y90202D01*
X167798D01*
Y89992D01*
X167576D01*
X167554Y89998D01*
G03X167194Y90038I-356J-1561D01*
G01X164294D01*
G03X163361Y89738I0J-1601D01*
G01X162602D01*
X159802Y92539D01*
Y106539D01*
X151039Y115302D01*
X121961D01*
X117698Y111039D01*
Y90302D01*
X111961D01*
X108198Y86539D01*
Y65461D01*
X114961Y58698D01*
X123961D01*
X131659Y51000D01*
X113000D01*
Y52098D01*
X116052D01*
Y56902D01*
X111252D01*
Y57102D01*
X110684D01*
G02X110321Y57668I1J400D01*
G03X106679I-1821J832D01*
G02X106316Y57102I-364J-166D01*
G01X105748D01*
Y54082D01*
X102014D01*
Y54282D01*
X101814D01*
Y55215D01*
X102014D01*
Y64124D01*
X100500D01*
Y72600D01*
G03X104052Y74000I1500J1400D01*
G01Y78698D01*
X107652D01*
Y85802D01*
X99348D01*
Y84500D01*
X97402D01*
Y89052D01*
X92598D01*
Y84500D01*
X91252D01*
Y84602D01*
X85748D01*
Y84500D01*
X81000D01*
Y84402D01*
X80948D01*
Y81836D01*
G02X80291Y81530I-400J0D01*
G03X79000Y82002I-1291J-1530D01*
G01Y85000D01*
X75902D01*
Y88552D01*
X71098D01*
Y85500D01*
X69402D01*
Y88552D01*
X65302D01*
Y112000D01*
X72498D01*
G03X75964Y110635I2002J0D01*
G01X76024Y110698D01*
X76398D01*
Y106239D01*
X75698Y105539D01*
Y94555D01*
X78092Y92161D01*
Y88098D01*
X88908D01*
Y90048D01*
X90889D01*
X93589Y92748D01*
X97102D01*
Y103252D01*
X95802D01*
Y104461D01*
X97802Y106461D01*
Y114539D01*
X91539Y120802D01*
X80500D01*
Y123998D01*
G03X82280Y126917I0J2002D01*
G02X82635Y127500I355J183D01*
G01X107848D01*
Y120198D01*
X108000D01*
Y120000D01*
X140500D01*
Y122500D01*
X173000D01*
X175500Y125000D01*
Y130124D01*
X175700D01*
G03X175841Y130182I0J200D01*
G01X176198Y130539D01*
Y146539D01*
X176267Y146607D01*
G03X176321Y146790I-142J141D01*
G01X176298Y146897D01*
X179552Y150150D01*
Y159150D01*
X182552Y162150D01*
Y179850D01*
X182500Y179902D01*
Y182000D01*
X186448D01*
Y181998D01*
X194408D01*
Y178852D01*
X192698D01*
Y178500D01*
X192102D01*
Y178652D01*
X186198D01*
Y172348D01*
X192102D01*
Y172500D01*
X192698D01*
Y172148D01*
X199002D01*
Y173698D01*
X199626D01*
X199665Y173680D01*
G03X201373Y173698I835J1820D01*
G01X202627D01*
G03X204902Y176930I874J1802D01*
G01Y179248D01*
X206102D01*
Y185698D01*
X208348D01*
Y181348D01*
X216652D01*
Y189652D01*
X208348D01*
Y188302D01*
X206102D01*
Y189752D01*
X201558D01*
G02X201275Y190435I0J400D01*
G01X202239Y191398D01*
X205752D01*
Y191598D01*
X210552D01*
Y196402D01*
X205752D01*
Y196602D01*
X200248D01*
Y193089D01*
X198914Y191754D01*
X198194D01*
X198144Y191788D01*
G03X197261Y192054I-884J-1335D01*
G01X195159D01*
G03X194993Y192046I-6J-1601D01*
G02X194551Y192444I-42J398D01*
G01Y193002D01*
X186448D01*
Y192443D01*
G02X186007Y192046I-400J1D01*
G03X185841Y192054I-160J-1593D01*
G01X183741D01*
G03X182808Y191754I0J-1601D01*
G01X180502D01*
Y191852D01*
X174198D01*
Y191500D01*
X173602D01*
Y191652D01*
X167698D01*
Y185000D01*
X158000D01*
Y197799D01*
X317395D01*
G02X317617Y197066I0J-400D01*
G03X330866Y183817I5308J-7941D01*
G02X331599Y183595I333J-222D01*
G01Y5530D01*
G02X330866Y5308I-400J0D01*
G03X317653Y-7965I-7941J-5308D01*
G02X317432Y-8699I-220J-334D01*
G01X110999D01*
Y-9999D01*
X110102D01*
G37*
G36*
G01X64502Y138000D02*
Y149000D01*
X66348D01*
Y144198D01*
X72652D01*
Y149000D01*
X74500D01*
Y138000D01*
X64502D01*
G37*
G36*
G01Y152000D02*
Y163000D01*
X74500D01*
Y152000D01*
X72652D01*
Y156802D01*
X66348D01*
Y152000D01*
X64502D01*
G37*
G36*
G01X90000Y126500D02*
Y155000D01*
X91548D01*
Y148898D01*
X99452D01*
Y155000D01*
X100848D01*
Y149698D01*
X107152D01*
Y155000D01*
X108848D01*
Y150198D01*
X115152D01*
Y155000D01*
X116500D01*
Y150000D01*
X117098D01*
Y145448D01*
X121902D01*
Y150000D01*
X124500D01*
X125000Y149500D01*
X136498D01*
Y127500D01*
X132500D01*
Y136919D01*
G03Y137081I-2000J81D01*
G01Y138682D01*
X132669Y138708D01*
G03X133297Y138990I-200J1286D01*
G01X133323Y139011D01*
X133453Y139060D01*
X133583Y139011D01*
X133609Y138990D01*
G03X135738Y139994I828J1004D01*
G01Y142194D01*
G03X133609Y143198I-1301J0D01*
G01X133583Y143177D01*
X133453Y143128D01*
X133323Y143177D01*
X133297Y143198D01*
G03X132669Y143480I-828J-1004D01*
G01X132500Y143506D01*
Y144500D01*
X125000D01*
X124500Y144000D01*
Y141500D01*
X121752D01*
Y141602D01*
X116248D01*
Y141402D01*
X111448D01*
Y136598D01*
X116248D01*
Y136398D01*
X117000D01*
Y126500D01*
X116152D01*
Y127302D01*
X107848D01*
Y126500D01*
X90000D01*
G37*
G36*
G01Y157500D02*
Y171500D01*
X91498D01*
Y168748D01*
X98402D01*
Y171500D01*
X102348D01*
Y166198D01*
X107500D01*
Y164500D01*
X107998Y164002D01*
Y163998D01*
X108002D01*
X108500Y163500D01*
Y157500D01*
X107152D01*
Y162302D01*
X100848D01*
Y157500D01*
X99452D01*
Y163102D01*
X91548D01*
Y157500D01*
X90000D01*
G37*
G36*
G01X72000Y173500D02*
Y182000D01*
X73598D01*
Y177948D01*
X78402D01*
Y182000D01*
X100000D01*
Y173500D01*
X98402D01*
Y180252D01*
X91498D01*
Y173500D01*
X88502D01*
Y180252D01*
X81598D01*
Y173500D01*
X72000D01*
G37*
G36*
G01Y184000D02*
Y191000D01*
X84500D01*
Y184000D01*
X78402D01*
Y188052D01*
X73598D01*
Y184000D01*
X72000D01*
G37*
G36*
G01X130250Y156750D02*
X129000Y158000D01*
X125000D01*
X124000Y159000D01*
Y163000D01*
X123852Y163148D01*
Y163302D01*
X123698D01*
X123443Y163557D01*
G02X123584Y163898I141J141D01*
G01X123652D01*
Y169802D01*
X117348D01*
Y165000D01*
X109000D01*
Y172000D01*
X110598D01*
Y167448D01*
X115402D01*
Y172000D01*
X127500D01*
Y162000D01*
X133000D01*
Y159500D01*
X130250Y156750D01*
G37*
G36*
G01X101002Y173500D02*
Y183002D01*
X101000D01*
Y197500D01*
X126000D01*
Y194102D01*
X121648D01*
Y177898D01*
X126000D01*
Y173500D01*
X115402D01*
Y177552D01*
X110598D01*
Y173500D01*
X108652D01*
Y178802D01*
X102348D01*
Y173500D01*
X101002D01*
G37*
G36*
G01X137500Y128000D02*
Y128415D01*
G03Y128585I-2000J85D01*
G01Y136915D01*
G03Y137085I-2000J85D01*
G01Y152500D01*
X142500Y157500D01*
Y157584D01*
X142502Y157585D01*
Y166000D01*
X156500D01*
Y164085D01*
G03Y163915I2000J-85D01*
G01Y149500D01*
X147500D01*
Y148952D01*
X140898D01*
Y141048D01*
X147500D01*
Y140500D01*
X156000D01*
Y137802D01*
X151198D01*
Y129198D01*
X156000D01*
Y128000D01*
X137500D01*
G37*
G36*
G01X129000Y165000D02*
Y174000D01*
X130998D01*
Y173998D01*
X133000D01*
Y165000D01*
X129000D01*
G37*
G36*
G01X132002Y152500D02*
Y154006D01*
G03X132000Y154069I-1501J-16D01*
G01Y155000D01*
X133998Y156998D01*
X134352D01*
Y157352D01*
X135500Y158500D01*
Y175000D01*
X132089D01*
G03X132000Y175002I-89J-2000D01*
G01Y177898D01*
X136352D01*
Y194102D01*
X132000D01*
Y197500D01*
X156500D01*
Y180085D01*
G03Y179915I2000J-85D01*
G01Y176085D01*
G03Y175915I2000J-85D01*
G01Y172085D01*
G03Y171915I2000J-85D01*
G01Y168089D01*
G03X156498Y168000I2000J-89D01*
G01X141500D01*
Y158000D01*
X136000Y152500D01*
X132002D01*
G37*
G36*
G01X159500Y147000D02*
Y143000D01*
X149500D01*
Y147000D01*
X159500D01*
G37*
G36*
G01X159000Y128000D02*
Y129198D01*
X163802D01*
Y137802D01*
X159000D01*
Y140500D01*
X164500D01*
Y151500D01*
X172500D01*
Y128000D01*
X159000D01*
G37*
G36*
G01X157502Y163000D02*
Y181500D01*
X174848D01*
Y180902D01*
X177500Y178250D01*
Y163750D01*
X176750Y163000D01*
X157502D01*
G37*
G36*
G01X228902Y102500D02*
Y108500D01*
X231098D01*
Y107698D01*
X231298D01*
Y103302D01*
X231098D01*
Y102500D01*
X228902D01*
G37*
G36*
G01X258352Y73000D02*
Y78902D01*
X256920D01*
G02X256531Y79395I0J400D01*
G03X252614Y82202I-2531J605D01*
G02X252002Y82541I-212J339D01*
G01Y84648D01*
X252202D01*
Y85000D01*
X252648D01*
Y84298D01*
X264352D01*
Y90702D01*
X260987D01*
X259674Y92015D01*
G02X259957Y92698I283J283D01*
G01X262902D01*
Y96148D01*
X263498D01*
Y91348D01*
X269502D01*
Y91514D01*
X269731D01*
X269758Y91506D01*
G03X270984Y91443I743J2494D01*
G02X271458Y91050I74J-393D01*
G01Y89990D01*
X271858D01*
Y86745D01*
X276000Y82604D01*
Y73000D01*
X258352D01*
G37*
G36*
G01X273103Y99810D02*
X273102Y100010D01*
G03X271543Y102384I-2602J-10D01*
G02Y103116I161J366D01*
G03X270155Y108079I-1043J2384D01*
G02X269702Y108475I-53J396D01*
G01Y109352D01*
X269502D01*
Y114152D01*
G02X269231Y114834I12J400D01*
G01X269902Y115505D01*
Y115798D01*
X270852D01*
Y122202D01*
X264902D01*
Y122998D01*
X264916Y123033D01*
G03X264645Y125472I-2416J966D01*
G02X264975Y126098I330J226D01*
G01X268005D01*
X276000Y118104D01*
Y99810D01*
X273103D01*
G37*
%LPC*%
G75*
G36*
G01X18002Y100598D02*
Y97998D01*
X9585D01*
X7498Y100085D01*
Y112415D01*
X9585Y114502D01*
X18002D01*
Y111902D01*
X22552D01*
Y107098D01*
X18002D01*
Y105402D01*
X22552D01*
Y100598D01*
X18002D01*
G37*
G36*
G01X5152Y144000D02*
Y139698D01*
X-1152D01*
Y144000D01*
X-4000D01*
Y145498D01*
X-4002D01*
Y159002D01*
X-43D01*
G02X43I43J-2002D01*
G01X3957D01*
G02X4043I43J-2002D01*
G01X8002D01*
Y159000D01*
X8500D01*
Y144000D01*
X5152D01*
G37*
G36*
G01X241802Y165873D02*
G02X238198I-1802J-873D01*
G01Y167127D01*
G02X238180Y168835I1802J873D01*
G01X238198Y168874D01*
Y169648D01*
X236698D01*
Y170000D01*
X236102D01*
Y169848D01*
X230198D01*
Y176152D01*
X236102D01*
Y176000D01*
X236698D01*
Y176352D01*
X237958D01*
Y180001D01*
G02X237868Y180048I696J1443D01*
G01X233132D01*
G02X232344Y179840I-789J1393D01*
G01X230141D01*
G02X229629Y179924I0J1602D01*
G01X229511Y179963D01*
X228246Y178698D01*
X227352D01*
Y176698D01*
X227000D01*
Y176102D01*
X227152D01*
Y170198D01*
X220848D01*
Y176102D01*
X221000D01*
Y176698D01*
X220648D01*
Y183002D01*
X221198D01*
Y183626D01*
X221180Y183665D01*
G02X221198Y185373I1820J835D01*
G01Y186627D01*
G02X223666Y189388I1802J873D01*
G03X224198Y189765I132J377D01*
G01Y191398D01*
X222748D01*
Y191598D01*
X217948D01*
Y196402D01*
X222748D01*
Y196602D01*
X228252D01*
Y192397D01*
G03X228626Y191998I400J0D01*
G02X230031Y188710I-126J-1998D01*
G01X229913Y188569D01*
X230322Y188160D01*
X232344D01*
G02X233132Y187952I-1J-1601D01*
G01X238500D01*
X238511Y187953D01*
G02X238659Y187960I140J-1394D01*
G01X240859D01*
G02X241950Y185679I0J-1401D01*
G03X241981Y185143I311J-251D01*
G02X241986Y182863I-1122J-1142D01*
G03Y182578I141J-143D01*
G02X241560Y180001I-1127J-1137D01*
G01Y176352D01*
X243002D01*
Y175468D01*
G03X243564Y175103I400J0D01*
G02X244500Y175302I936J-2102D01*
G01X247248D01*
Y175602D01*
X247498D01*
Y176848D01*
X246798D01*
Y184352D01*
X252802D01*
Y184000D01*
X254198D01*
Y184352D01*
X260202D01*
Y184000D01*
X262148D01*
Y188802D01*
X262500D01*
Y189398D01*
X262348D01*
Y195302D01*
X268652D01*
Y189398D01*
X268500D01*
Y188802D01*
X268852D01*
Y188302D01*
X273500D01*
G02Y183698I0J-2302D01*
G01X268852D01*
Y182498D01*
X267302D01*
Y181252D01*
X267602D01*
Y175748D01*
X267402D01*
Y170948D01*
X262598D01*
Y174500D01*
X257552D01*
Y170598D01*
X252752D01*
Y170398D01*
X247248D01*
Y170698D01*
X244500D01*
G02X243564Y170897I0J2301D01*
G03X243002Y170532I-162J-365D01*
G01Y169648D01*
X241802D01*
Y168874D01*
X241820Y168835D01*
G02X241802Y167127I-1820J-835D01*
G01Y165873D01*
G37*
G54D80*
X69000Y97500D03*
G54D76*
X47000Y124100D03*
Y134900D03*
G54D73*
X20000Y-3000D03*
X306000Y192000D03*
X309000Y-3000D03*
G54D79*
X311600Y99500D03*
Y89500D03*
G54D81*
X324333Y36000D03*
G54D83*
X167500Y171705D03*
G54D77*
X253500Y189400D03*
G54D84*
X263500Y79000D03*
G54D74*
X25000Y11250D03*
X103500Y89750D03*
X112000Y131250D03*
G54D82*
X149500Y159150D03*
Y174850D03*
G54D75*
X2500Y119200D03*
Y134800D03*
G54D78*
X212500Y174500D03*
X274500Y157500D03*
%LPD*%
G75*
G36*
G01X-3000Y146500D02*
Y158000D01*
X7000D01*
Y146500D01*
X5152D01*
Y152302D01*
X-1152D01*
Y146500D01*
X-3000D01*
G37*
G36*
G01X11326Y99000D02*
G03X9650Y99471I-1326J-1500D01*
G01X9547Y99453D01*
X8500Y100500D01*
Y112000D01*
X10000Y113500D01*
X17000D01*
Y111902D01*
X12448D01*
Y107098D01*
X17000D01*
Y105402D01*
X12448D01*
Y100598D01*
X17000D01*
Y99000D01*
X11326D01*
G37*
G54D10*
X0Y0D03*
Y189125D03*
X322925Y0D03*
Y189125D03*
G54D20*
X13500Y69150D03*
X23000D03*
X13500Y75850D03*
X23000D03*
X2000Y142650D03*
Y149350D03*
X32500Y145650D03*
Y138350D03*
Y131650D03*
Y152350D03*
X69500Y147150D03*
X55500Y168650D03*
X69500Y153850D03*
X55500Y175350D03*
X113500Y81850D03*
Y75150D03*
X120500Y124650D03*
Y131350D03*
X104000Y152650D03*
Y159350D03*
X120500Y166850D03*
Y160150D03*
X112000Y159850D03*
Y153150D03*
X105500Y169150D03*
Y175850D03*
X131000Y166850D03*
Y160150D03*
X194000Y9850D03*
Y3150D03*
X202000Y22850D03*
Y16150D03*
X217500Y46150D03*
Y52850D03*
X214000Y143650D03*
Y150350D03*
X227500Y44650D03*
Y51350D03*
X224000Y141150D03*
Y147850D03*
Y173150D03*
Y179850D03*
X265500Y192350D03*
Y185650D03*
X292000Y60350D03*
Y53650D03*
X290500Y127150D03*
Y133850D03*
X282000Y127150D03*
Y133850D03*
X300000Y60350D03*
Y53650D03*
G54D11*
G01X-3850Y25500D02*
X-4000Y25350D01*
Y21000D01*
G01D02*
Y17000D01*
G01X-3000Y32500D02*
Y26350D01*
X-3850Y25500D01*
G01X-2652Y119200D02*
X2500D01*
G01X-2652Y134800D02*
X2500D01*
G01X2850Y22148D02*
Y25500D01*
G01D02*
X7500D01*
G01X2000Y32500D02*
X6500D01*
G01X2850Y25500D02*
Y28852D01*
G01X18500Y63000D02*
X14000D01*
G01X18500Y57500D02*
X14000D01*
G01X18500Y52000D02*
X14000D01*
G01X2500Y52398D02*
Y55000D01*
G01D02*
Y57602D01*
G01Y55000D02*
X5252D01*
G01X20000Y121000D02*
Y114000D01*
G01X2500Y119200D02*
Y114000D01*
G01Y119200D02*
Y122702D01*
G01Y119200D02*
X7652D01*
G01X21900Y139398D02*
Y142000D01*
G01D02*
Y144602D01*
G01Y142000D02*
X24652D01*
G01X16100Y139398D02*
Y142000D01*
G01D02*
Y144602D01*
G01X13348Y142000D02*
X16100D01*
G01X2500Y131298D02*
Y134800D01*
G01D02*
Y138302D01*
G01Y134800D02*
X7652D01*
G01X20000Y127998D02*
Y133000D01*
G01X14648D02*
X20000D01*
G01D02*
X25352D01*
G01X2000Y139498D02*
Y142650D01*
G01X-1352D02*
X2000D01*
G01D02*
X5352D01*
G01X2000Y149350D02*
X5352D01*
G01X-1352D02*
X2000D01*
G01D02*
Y152502D01*
G01X22350Y146648D02*
Y150000D01*
G01D02*
Y153352D01*
G01Y150000D02*
X25502D01*
G01X12000Y166500D02*
X7500D01*
G01X16650Y158500D02*
X12000D01*
G01X16500Y162600D02*
X19000Y165100D01*
Y166500D01*
G01X15650Y146648D02*
Y150000D01*
G01D02*
Y153352D01*
G01X12498Y150000D02*
X15650D01*
G01X20000Y176398D02*
Y179000D01*
G01D02*
Y181602D01*
G01X17248Y179000D02*
X20000D01*
G01X25000Y18750D02*
Y24000D01*
G01Y11250D02*
Y6000D01*
G01X47000Y119500D02*
Y123250D01*
G01X32500Y131650D02*
Y127000D01*
G01X36477Y131977D02*
X32827D01*
X32500Y131650D01*
G01X28500Y132000D02*
X32150D01*
X32500Y131650D01*
G01X47000Y124100D02*
Y126852D01*
G01X40998Y124100D02*
X47000D01*
G01D02*
X53002D01*
G01X32500Y142498D02*
Y145650D01*
G01X29148D02*
X32500D01*
G01X47000Y134900D02*
Y137652D01*
G01X40998Y134900D02*
X47000D01*
G01D02*
X53002D01*
G01X43848Y146250D02*
X48000D01*
G01X23350Y155148D02*
Y158500D01*
G01D02*
Y161852D01*
G01Y158500D02*
X26502D01*
G01X32500Y152350D02*
Y153000D01*
X36500Y157000D01*
G01X32500Y179398D02*
Y182000D01*
G01D02*
Y184602D01*
G01X29748Y182000D02*
X32500D01*
G01Y186398D02*
Y189000D01*
G01D02*
Y191602D01*
G01X29748Y189000D02*
X32500D01*
G01X48000Y142698D02*
Y146250D01*
G01X69500Y143998D02*
Y147150D01*
G01X52098Y146500D02*
X51848Y146250D01*
X48000D01*
G01X61000Y169000D02*
X60650Y168650D01*
X55500D01*
G01D02*
X54350Y167500D01*
X51000D01*
G01X66148Y147150D02*
X69500D01*
G01D02*
X72852D01*
G01X69500Y153850D02*
Y157002D01*
G01X66148Y153850D02*
X69500D01*
G01D02*
X72852D01*
G01X51500Y188000D02*
Y192500D01*
G01Y188000D02*
X56500D01*
G01X55500Y175350D02*
Y178502D01*
G01X52148Y175350D02*
X55500D01*
G01D02*
X58852D01*
G01X95000Y81500D02*
X102750D01*
G01X95500Y148698D02*
Y152250D01*
G01X91348D02*
X95500D01*
G01D02*
X99652D01*
G01X94950Y168548D02*
Y170550D01*
G01X95500Y159750D02*
Y163302D01*
G01X91348Y159750D02*
X95500D01*
G01D02*
X99652D01*
G01X76000Y180500D02*
Y177000D01*
G01Y180500D02*
X79500D01*
G01X76000D02*
X73000D01*
G01X94950Y178450D02*
Y180452D01*
G01X91298Y178450D02*
X94950D01*
G01D02*
X98602D01*
G01X91298Y174500D02*
X94950D01*
G01D02*
X98602D01*
G01X85050Y178450D02*
Y180452D01*
G01X81398Y178450D02*
X85050D01*
G01D02*
X88702D01*
G01X81398Y174500D02*
X85050D01*
G01D02*
X88702D01*
G01X76000Y185500D02*
Y188252D01*
G01X73398Y185500D02*
X76000D01*
G01D02*
X78602D01*
G01X91298Y170550D02*
X94950D01*
G01D02*
X98602D01*
G01X119500Y145248D02*
Y148000D01*
G01X114000Y136398D02*
Y139000D01*
G01D02*
Y141602D01*
G01X111248Y139000D02*
X114000D01*
G01X112000Y131250D02*
Y134802D01*
G01X107848Y131250D02*
X112000D01*
G01D02*
X116152D01*
G01X116898Y148000D02*
X119500D01*
G01D02*
X122102D01*
G01X112000Y149998D02*
Y153150D01*
G01X108648D02*
X112000D01*
G01D02*
X115352D01*
G01X104000Y149498D02*
Y152650D01*
G01X100648D02*
X104000D01*
G01D02*
X107352D01*
G01X104000Y159350D02*
Y162502D01*
G01X100648Y159350D02*
X104000D01*
G01D02*
X107352D01*
G01X113000Y175000D02*
Y177752D01*
G01X110398Y175000D02*
X113000D01*
G01D02*
X115602D01*
G01X105500Y175850D02*
Y179002D01*
G01X102148Y175850D02*
X105500D01*
G01D02*
X108852D01*
G01X169000Y68750D02*
Y69000D01*
X171250Y71250D01*
Y72719D01*
G01X161000Y128998D02*
Y133500D01*
G01D02*
Y138002D01*
G01Y133500D02*
X164002D01*
G01X154000Y128998D02*
Y133500D01*
G01D02*
Y138002D01*
G01X150998Y133500D02*
X154000D01*
G01X196650Y122500D02*
X195150Y121000D01*
X192000D01*
G01X170650Y188500D02*
Y184850D01*
X172500Y183000D01*
G01X189150Y175500D02*
X184500D01*
G01X177350Y188500D02*
X178500D01*
X181500Y185500D01*
X182000D01*
G01X202000Y22850D02*
X198500Y26350D01*
Y28000D01*
G01X196209Y184547D02*
Y186000D01*
G01Y184547D02*
Y175859D01*
X195850Y175500D01*
G01X200500D02*
X203500D01*
G01X200500D02*
X195850D01*
G01X208000Y194000D02*
X220500D01*
G01Y191000D02*
X219000Y189500D01*
Y184500D01*
G01X233500Y11500D02*
Y10000D01*
X234500Y9000D01*
X240500D01*
G01X237000Y105500D02*
X230000D01*
G01X239850Y173000D02*
X240000Y172850D01*
Y168000D01*
G01D02*
Y165000D01*
G01X239759Y181441D02*
Y183259D01*
G01Y181441D02*
Y173091D01*
X239850Y173000D01*
G01X228441Y181441D02*
X227500Y180500D01*
X224650D01*
X224000Y179850D01*
G01X223000Y184500D02*
Y187500D01*
G01Y184500D02*
Y180850D01*
X224000Y179850D01*
G01X233150Y173000D02*
X228500D01*
G01X235500Y184000D02*
Y178000D01*
G01X220500Y194000D02*
Y191000D01*
G01X267000Y21500D02*
Y18000D01*
X263000Y14000D01*
X260500D01*
G01X262000Y21500D02*
Y26000D01*
G01X254250Y22500D02*
X255000D01*
X256000Y21500D01*
X262000D01*
G01Y26000D02*
X269000D01*
X278500Y16500D01*
Y11500D01*
X285250Y4750D01*
X286000D01*
G01X288850Y85000D02*
Y81350D01*
X262500Y55000D01*
G01X254000Y80000D02*
Y74750D01*
G01X257000Y110500D02*
X260000D01*
X264500Y115000D01*
X266000D01*
X267500Y116500D01*
Y119000D01*
G01X262500D02*
X254250D01*
G01X262500D02*
Y124000D01*
G01X259000Y139500D02*
Y134500D01*
X265000Y128500D01*
X269000D01*
X288850Y108650D01*
Y105000D01*
G01X254250Y163000D02*
X259500D01*
G01X262148Y192350D02*
X265500D01*
G01D02*
Y195502D01*
G01X255000Y173000D02*
X259500D01*
G01X262398Y173500D02*
X265000D01*
G01D02*
X267602D01*
G01X255000Y170398D02*
Y173000D01*
G01X290500Y22500D02*
Y16750D01*
X286000Y12250D01*
G01Y4750D02*
X289250Y8000D01*
X294000D01*
G01X292000Y60350D02*
X284900D01*
X283500Y61750D01*
G01X292000Y60350D02*
X293000Y61350D01*
Y67000D01*
X293500Y67500D01*
G01X300000Y53650D02*
X292000D01*
G01X283500Y54250D02*
Y53500D01*
X288000Y49000D01*
X294500D01*
X295500Y48000D01*
Y42500D01*
G01X290941Y92441D02*
X288850Y90350D01*
Y85000D01*
G01X282150D02*
X277000D01*
X274260Y87740D01*
Y91240D01*
G01X298500Y98500D02*
X292000Y105000D01*
X288850D01*
G01X291500Y120000D02*
Y126150D01*
X290900Y126750D01*
G01X282150Y105000D02*
X281740Y104590D01*
Y98760D01*
G01X286500Y120000D02*
Y122650D01*
X282000Y127150D01*
G01X294000Y144500D02*
Y137350D01*
X290500Y133850D01*
G01D02*
X282000D01*
G01X299500Y126750D02*
X290900D01*
G01D02*
X290500Y127150D01*
G01X295500Y174000D02*
X288500D01*
G01D02*
X281500D01*
G01X289500Y186000D02*
X289000Y185500D01*
Y179500D01*
X288500Y179000D01*
G01X294000Y13000D02*
X301000D01*
G01D02*
X308000D01*
G01X295500Y22500D02*
Y17500D01*
X294000Y16000D01*
Y13000D01*
G01X301000Y8000D02*
X300500Y7500D01*
Y1500D01*
X300000Y1000D01*
G01X294000Y8000D02*
X294500Y7500D01*
Y1500D01*
X295000Y1000D01*
G01X300500Y42500D02*
Y53150D01*
X300000Y53650D01*
G01X311600Y69500D02*
X304500Y76600D01*
Y81500D01*
X294500Y91500D01*
G01X311600Y79500D02*
X317500Y73600D01*
Y65000D01*
X315500Y63000D01*
X308500D01*
X305500Y66000D01*
Y69000D01*
X302500Y72000D01*
X295000D01*
X293500Y70500D01*
Y67500D01*
G01X300000Y60350D02*
X299000Y61350D01*
Y67000D01*
X298500Y67500D01*
G01X302000Y98000D02*
X304500Y100500D01*
Y112400D01*
X311600Y119500D01*
G01X299500Y126750D02*
X300750Y125500D01*
X314500D01*
X318000Y122000D01*
Y112500D01*
X315000Y109500D01*
X311600D01*
G01X299000Y164500D02*
Y170500D01*
X295500Y174000D01*
G01X294000Y164500D02*
Y157000D01*
G01X304000Y164500D02*
Y174250D01*
X303500Y174750D01*
G01Y182250D02*
X307750D01*
X309500Y180500D01*
Y170000D01*
X307500Y168000D01*
Y158500D01*
X306000Y157000D01*
X304500D01*
G01X295500Y179000D02*
X299000D01*
X302250Y182250D01*
X303500D01*
G01X294500Y186000D02*
X295000Y185500D01*
Y179500D01*
X295500Y179000D01*
X-4000Y21000D03*
Y17000D03*
X-7000Y69000D03*
X-4500D03*
X17500Y42000D03*
Y29000D03*
Y35500D03*
X2500Y36500D03*
X7500Y25500D03*
X6500Y32500D03*
X14000Y63000D03*
Y57500D03*
Y52000D03*
X6500Y57000D03*
Y52500D03*
X10000Y97500D03*
X2500Y114000D03*
X22500D03*
X10000Y106500D03*
Y110000D03*
Y103000D03*
X4000Y157000D03*
X0D03*
X4000Y153500D03*
X0D03*
X12000Y158500D03*
X7500Y166500D03*
X43000Y3000D03*
X25000Y6000D03*
X48000Y16000D03*
X31000Y41000D03*
Y46500D03*
Y32500D03*
X25000Y24000D03*
X42500Y38000D03*
X48000Y24000D03*
X28500Y55000D03*
X42500Y55500D03*
X33000Y75000D03*
X47000Y119500D03*
X31000Y119000D03*
Y101000D03*
X39000D03*
Y119000D03*
X26500Y114000D03*
X25000Y110000D03*
Y106500D03*
Y103000D03*
X46500Y141500D03*
X43500D03*
X32500Y127000D03*
X36500Y157000D03*
X46000Y159000D03*
X38000Y178000D03*
X59000Y3000D03*
X65500D03*
X49500D03*
X51500Y20000D03*
X64000Y34000D03*
X56500Y31000D03*
X69000Y29000D03*
X64000D03*
X56500Y35000D03*
Y39000D03*
Y43000D03*
X51500Y28000D03*
X69000Y41000D03*
X48500Y64000D03*
X72500Y63000D03*
X61500D03*
X54500Y54000D03*
Y50000D03*
X48500Y60000D03*
X52500D03*
X56000Y76500D03*
X67000Y77000D03*
X69000Y97500D03*
X70000Y90000D03*
X67000D03*
X53500Y84500D03*
X56000Y90000D03*
X62000Y119500D03*
X66000D03*
X49500Y141500D03*
X62500Y130000D03*
X72000Y139500D03*
X67000D03*
X72000Y143000D03*
X67000D03*
Y168500D03*
X61000Y169000D03*
X72000Y162000D03*
X67000D03*
X72000Y158000D03*
X67000D03*
X52000Y159000D03*
X49000D03*
X64000Y178500D03*
X86000Y3000D03*
X75000Y2500D03*
X91500Y3000D03*
X86500Y22000D03*
X90500Y32000D03*
X80500Y47000D03*
X87500D03*
X73500Y24500D03*
X74500Y46000D03*
X86500Y26000D03*
X90500D03*
X86500Y30000D03*
X90500Y60000D03*
X80000Y56000D03*
X83500D03*
X80000Y63000D03*
X77000D03*
X74000Y77000D03*
X88500Y78000D03*
X90000Y95500D03*
X83460Y78100D03*
X79000Y80000D03*
X84500Y75500D03*
X80500Y77000D03*
X94000Y112000D03*
X90500D03*
X74500D03*
X87000Y127000D03*
X94500Y140000D03*
Y144000D03*
X76500Y126000D03*
X80500Y130000D03*
Y126000D03*
X85500Y151000D03*
X78500Y155000D03*
X94500Y148000D03*
X85500Y167000D03*
X83500Y188000D03*
X80500D03*
X83500Y185000D03*
X80500D03*
X120500Y5500D03*
Y16500D03*
X106059Y8059D03*
Y20059D03*
X120500Y13000D03*
Y2500D03*
X106500Y31000D03*
X112000D03*
X120000Y43000D03*
X118000Y34000D03*
Y26500D03*
X108500Y58500D03*
X115000Y70500D03*
X119500Y67500D03*
X105000Y58500D03*
X113500D03*
X102000Y77000D03*
Y74000D03*
X113500Y86500D03*
X105000Y95000D03*
X98000Y91000D03*
X102500Y128000D03*
X106500D03*
Y132000D03*
X102500D03*
Y136000D03*
X110500D03*
X106500D03*
X98500Y140000D03*
X102500D03*
X106500D03*
X110500D03*
X98500Y144000D03*
X102500D03*
X106500D03*
X110500D03*
X114500Y148000D03*
X98500D03*
X102500D03*
X106500D03*
X110500D03*
X97500Y164000D03*
X100500D03*
X103500D03*
X106500D03*
X127000Y-1500D03*
X131000Y12500D03*
Y7500D03*
X144500D03*
X135500D03*
X144500Y65500D03*
X140500Y50000D03*
X126500Y96000D03*
X122500Y87000D03*
X141500Y73500D03*
X144500D03*
X122500Y90500D03*
X126000Y109500D03*
X133000D03*
X140000D03*
X123500Y146500D03*
Y144500D03*
Y142500D03*
X135500Y137000D03*
X133500D03*
X135500Y128500D03*
X133500D03*
X130500Y137000D03*
X130000Y171000D03*
X123500Y148500D03*
X132000Y171000D03*
X125500Y167000D03*
X132000Y173000D03*
X130000D03*
X159000Y-1500D03*
X149500Y12500D03*
X158500Y47500D03*
X157000Y44000D03*
X160000Y63500D03*
X152500D03*
X167000Y95000D03*
X150500Y96000D03*
X159500Y85500D03*
X149500Y75500D03*
X147500Y91000D03*
Y84000D03*
X149500Y80000D03*
X154500D03*
X168000Y109000D03*
X147000Y109500D03*
X156500Y146000D03*
X158500D03*
Y144000D03*
X156500D03*
X158500Y164000D03*
Y168000D03*
X162500Y164000D03*
X158500Y172000D03*
Y176000D03*
Y180000D03*
X162500D03*
X192500Y15000D03*
X194000Y39500D03*
X176000Y44000D03*
X189000Y41000D03*
X190500Y62000D03*
X184000Y72500D03*
X181000D03*
X175000Y60000D03*
X181000Y63500D03*
X184500D03*
X194500Y62000D03*
X194000Y74000D03*
X189500D03*
X192500Y92000D03*
X186000Y84000D03*
X184500Y77500D03*
X186000Y91000D03*
Y87500D03*
Y80500D03*
X178500Y99500D03*
X189500Y112000D03*
X192000Y103500D03*
X194500Y112000D03*
X192000Y121000D03*
Y125000D03*
X185000Y140000D03*
X191000D03*
X180500Y127500D03*
X181000Y140000D03*
X187000Y160000D03*
X193000Y164500D03*
X182000Y160000D03*
X191000D03*
X172500Y183000D03*
X190500Y180500D03*
X184500Y175500D03*
X216500Y-4500D03*
X212500Y-6000D03*
X205500D03*
X217500Y7500D03*
X210500D03*
X212000Y23000D03*
X199000Y4000D03*
X196500Y15000D03*
X212000Y29000D03*
X218000Y41500D03*
X202000Y28000D03*
X204720Y46000D03*
X205500Y39000D03*
X219000Y32500D03*
X209126Y45906D03*
X198500Y28000D03*
X212000Y59000D03*
X208500Y72500D03*
X203500D03*
X213000D03*
X216500Y58000D03*
X200500Y90000D03*
X212500Y93500D03*
X219500D03*
X219000Y89000D03*
X217500Y106500D03*
X210500D03*
X212500Y122000D03*
X199000Y112100D03*
X204000Y98000D03*
X212500Y111000D03*
X210000Y129000D03*
X214000Y139500D03*
X219000Y140000D03*
X218000Y127000D03*
X202500Y143500D03*
X198500Y136000D03*
X206339Y143500D03*
X208000Y156500D03*
X210000Y164500D03*
X203500Y175500D03*
X200500D03*
X219000Y173000D03*
Y184500D03*
X206500Y173000D03*
X227500Y14063D03*
Y20937D03*
X233500Y11500D03*
X224500Y23500D03*
X227500Y17500D03*
X241000D03*
X226000Y6000D03*
X230000D03*
X238500Y43000D03*
X233000Y41000D03*
X227500D03*
X238500Y46500D03*
X232500Y27000D03*
X236500D03*
X243000Y32500D03*
X227500Y56000D03*
X238500Y53500D03*
X244000Y69500D03*
X229500Y86937D03*
Y83500D03*
X232000Y76000D03*
X224908Y74700D03*
X229000Y76500D03*
X227500Y119937D03*
X230000Y105500D03*
X224000Y110500D03*
X227500Y116000D03*
X235000Y139500D03*
X238500Y123500D03*
X235000Y143000D03*
X228500Y139000D03*
X225000Y123000D03*
X243898Y134050D03*
X235000Y123000D03*
X240000Y136500D03*
X224000Y152500D03*
X240000Y168000D03*
Y165000D03*
X235000Y151500D03*
X244500Y173000D03*
X228500Y190000D03*
X223000Y187500D03*
Y184500D03*
X244500Y185500D03*
X228500Y173000D03*
X235500Y178000D03*
X267500Y38500D03*
X262500Y43000D03*
X252000Y37500D03*
X249000D03*
X262000Y26000D03*
X262500Y55000D03*
X249500Y61280D03*
X253500D03*
Y83000D03*
X266500Y90000D03*
X254000Y80000D03*
X259000Y122000D03*
X264000Y134500D03*
X259000Y139500D03*
X248500Y134000D03*
X262500Y124000D03*
X259000Y151500D03*
X265000Y169500D03*
X245500Y158000D03*
X248500D03*
X259500Y163000D03*
Y173000D03*
X274000Y-2000D03*
Y9500D03*
Y3000D03*
Y14500D03*
X278500Y46500D03*
X276000Y26000D03*
Y34000D03*
X272500Y38500D03*
Y55000D03*
X270500Y94000D03*
X289000Y95000D03*
X292500Y74000D03*
X270500Y83000D03*
X277980Y91500D03*
X289000Y98500D03*
X270500Y105500D03*
Y100000D03*
X272500Y119500D03*
X270500Y111000D03*
X274260Y101260D03*
X281500Y140000D03*
X275000Y139500D03*
X289000Y157000D03*
X280500Y157500D03*
X274500Y169500D03*
X273500Y150500D03*
X272000Y147000D03*
X270500Y186000D03*
X273500D03*
X270500Y179500D03*
X277500Y185000D03*
X317500Y20000D03*
X305500Y30000D03*
X313000Y47000D03*
X317500Y34000D03*
Y25000D03*
X300500Y30000D03*
X304000Y95000D03*
X302500Y118000D03*
X315500Y142000D03*
X294000Y157000D03*
X304500D03*
X318500Y162500D03*
Y154500D03*
G54D21*
X2110Y94500D03*
Y91941D03*
Y89382D03*
Y99618D03*
Y97059D03*
G54D12*
X-3850Y25500D03*
X-1850Y62000D03*
X2850Y25500D03*
X4850Y62000D03*
X23350Y158500D03*
X16650D03*
X22350Y150000D03*
X15650D03*
X44650Y80000D03*
X30650D03*
X37350D03*
X51350D03*
X122650Y35000D03*
X108650Y42000D03*
X115350D03*
X129350Y35000D03*
X135850Y123500D03*
X129150D03*
X152650Y68500D03*
X159350D03*
X170650Y188500D03*
X196650Y122500D03*
X180650D03*
X187350D03*
X177350Y188500D03*
X189150Y175500D03*
X195850D03*
X203350Y122500D03*
X232150Y22500D03*
X238850D03*
X232150Y118500D03*
X238850D03*
X243650Y129000D03*
X233150Y173000D03*
X239850D03*
X266650Y43500D03*
X247150Y32500D03*
X253850D03*
X269850Y139500D03*
X263150D03*
X250350Y129000D03*
X273350Y43500D03*
X282150Y85000D03*
X288850D03*
X282150Y105000D03*
X288850D03*
G54D30*
X47000Y124100D03*
Y134900D03*
G54D22*
X2922Y83053D03*
Y105947D03*
G54D13*
X-3000Y32500D03*
X-400Y69000D03*
X-2500Y55000D03*
X21500Y29000D03*
Y35500D03*
Y42000D03*
X2000Y32500D03*
X5400Y69000D03*
X23500Y57500D03*
X18500D03*
X23500Y63000D03*
X18500D03*
X23500Y52000D03*
X18500D03*
X2500Y55000D03*
X15000Y109500D03*
X20000D03*
X15000Y103000D03*
X20000D03*
X21900Y142000D03*
X16100D03*
X20000Y179000D03*
X43500Y-1000D03*
X48500D03*
X26500Y29000D03*
Y35500D03*
Y42000D03*
X25000Y179000D03*
X37500Y189000D03*
X32500D03*
X37500Y182000D03*
X32500D03*
X59500Y-1000D03*
X64500D03*
X71500Y168500D03*
X63500Y183000D03*
X58500D03*
X85500Y-1000D03*
X90500D03*
X88500Y82000D03*
X83500D03*
X76500Y168500D03*
X108500Y35000D03*
X113500D03*
X108500Y26500D03*
X113500D03*
X108500Y54500D03*
X113500D03*
X119000Y139000D03*
X114000D03*
X140000Y69500D03*
X145000D03*
X129000Y132500D03*
X134000D03*
X158500Y75500D03*
X153500D03*
X195000Y70000D03*
X190000D03*
X187000Y99500D03*
X192000D03*
X187000Y107000D03*
X192000D03*
X180000D03*
X175000D03*
X202500Y59000D03*
X207500D03*
X199000Y94500D03*
X204000D03*
Y108500D03*
X199000D03*
Y101500D03*
X204000D03*
Y115500D03*
X199000D03*
Y156500D03*
X204000D03*
X203000Y194000D03*
X208000D03*
X220500D03*
X234500Y72000D03*
X239500D03*
X234500Y65000D03*
X239500D03*
Y86000D03*
X234500D03*
X239500Y79000D03*
X234500D03*
X225500Y194000D03*
X267000Y21500D03*
X262000D03*
X266500Y50500D03*
X256000Y87500D03*
X261000D03*
X267500Y119000D03*
X262500D03*
X263000Y147000D03*
X268000D03*
X250000Y173000D03*
X255000D03*
X271500Y50500D03*
X293500Y67500D03*
X291500Y120000D03*
X286500D03*
X294500Y186000D03*
X289500D03*
X308000Y13000D03*
X313000D03*
X295000Y1000D03*
X300000D03*
X298500Y67500D03*
G54D31*
X39031Y161319D03*
X42969D03*
X41000D03*
X39031Y173681D03*
X42969D03*
X41000D03*
G54D40*
X135000Y84500D03*
X173500D03*
X247000Y146000D03*
X250500Y49500D03*
G54D50*
X186750Y47500D03*
X190500D03*
X194250D03*
X186750Y57500D03*
X190500D03*
X194250D03*
X183250Y145000D03*
X187000D03*
X190750D03*
X183250Y155000D03*
X187000D03*
X190750D03*
G54D32*
X34819Y169469D03*
Y165531D03*
X47181D03*
Y169469D03*
X34819Y167500D03*
X47181D03*
G54D14*
X-4559Y47759D03*
Y39241D03*
X-2000Y47759D03*
X559D03*
Y39241D03*
X-2000D03*
G54D23*
X16796Y90500D03*
X21204D03*
X16796Y95500D03*
X21204D03*
G54D41*
X142756Y88437D03*
Y86469D03*
Y84500D03*
Y82531D03*
Y80563D03*
X127244D03*
Y82531D03*
Y84500D03*
Y86469D03*
Y88437D03*
X165744Y80563D03*
Y82531D03*
Y84500D03*
Y86469D03*
Y88437D03*
X181256D03*
Y86469D03*
Y84500D03*
Y82531D03*
Y80563D03*
G54D24*
X20000Y121000D03*
Y133000D03*
G54D15*
X-2000Y43500D03*
G54D60*
X235500Y184000D03*
G54D42*
X131063Y92256D03*
X133031D03*
X135000D03*
X136969D03*
X138937D03*
Y76744D03*
X136969D03*
X135000D03*
X133031D03*
X131063D03*
X169563Y92256D03*
Y76744D03*
X171531Y92256D03*
X173500D03*
X175469D03*
X177437D03*
Y76744D03*
X175469D03*
X173500D03*
X171531D03*
G54D51*
X184791Y184547D03*
Y186516D03*
Y188484D03*
Y190453D03*
X196209D03*
Y188484D03*
Y186516D03*
Y184547D03*
G54D33*
X41000Y167500D03*
X218000Y17500D03*
Y116500D03*
X212500Y185500D03*
Y174500D03*
X263500Y68000D03*
Y79000D03*
Y157500D03*
X274500D03*
G54D70*
G01X-17000Y30500D02*
Y0D01*
G03X0Y-17000I17000J0D01*
G01X29500D01*
G01X-17000Y158500D02*
Y189000D01*
G02X0Y206000I17000J0D01*
G01X29500D01*
G01X102000Y77000D02*
Y74000D01*
G01X102750Y81500D02*
X103500Y82250D01*
G01X102750Y81500D02*
X102000Y80750D01*
Y77000D01*
G01X177350Y188500D02*
Y188150D01*
X177500Y188000D01*
Y182000D01*
X180500Y179000D01*
Y163000D01*
X177500Y160000D01*
Y152000D01*
X174500Y149000D01*
X169205D01*
G01D02*
X167500Y147295D01*
G01X340000Y30500D02*
Y0D01*
G02X323000Y-17000I-17000J0D01*
G01X293500D01*
G01X340000Y158500D02*
Y189000D01*
G03X323000Y206000I-17000J0D01*
G01X293500D01*
G54D16*
X-7154Y81048D03*
G54D43*
X130500Y147000D03*
G54D52*
X190500Y187500D03*
G54D61*
X246750Y22500D03*
X254250D03*
X246750Y119000D03*
X254250D03*
Y163000D03*
X246750D03*
G54D25*
X2500Y119200D03*
Y134800D03*
G54D34*
X86256Y97650D03*
Y91350D03*
X80744D03*
Y97650D03*
G54D71*
G01X46600Y-4500D02*
X46200Y-4617D01*
X45900Y-4908D01*
X45700Y-5258D01*
X45550Y-5725D01*
X45500Y-6250D01*
X45550Y-6775D01*
X45700Y-7242D01*
X45900Y-7592D01*
X46200Y-7883D01*
X46600Y-8000D01*
X47000Y-7883D01*
X47300Y-7592D01*
X47500Y-7242D01*
X47650Y-6775D01*
X47700Y-6250D01*
X47650Y-5725D01*
X47500Y-5258D01*
X47300Y-4908D01*
X47000Y-4617D01*
X46600Y-4500D01*
G01X50400Y-8000D02*
X50750Y-7942D01*
X51150Y-7767D01*
X51400Y-7475D01*
X51500Y-7067D01*
X51400Y-6658D01*
X51100Y-6308D01*
X50650Y-6133D01*
X50150D01*
X49850Y-6017D01*
X49600Y-5725D01*
X49500Y-5317D01*
X49650Y-4908D01*
X50000Y-4617D01*
X50400Y-4500D01*
X50800Y-4617D01*
X51150Y-4908D01*
X51300Y-5317D01*
X51200Y-5725D01*
X50950Y-6017D01*
X50650Y-6133D01*
X50150D01*
X49700Y-6308D01*
X49400Y-6658D01*
X49300Y-7067D01*
X49400Y-7475D01*
X49650Y-7767D01*
X50050Y-7942D01*
X50400Y-8000D01*
G01X53550Y-6833D02*
X54850D01*
G01X58000Y-4500D02*
X57600Y-4617D01*
X57300Y-4908D01*
X57100Y-5258D01*
X56950Y-5725D01*
X56900Y-6250D01*
X56950Y-6775D01*
X57100Y-7242D01*
X57300Y-7592D01*
X57600Y-7883D01*
X58000Y-8000D01*
X58400Y-7883D01*
X58700Y-7592D01*
X58900Y-7242D01*
X59050Y-6775D01*
X59100Y-6250D01*
X59050Y-5725D01*
X58900Y-5258D01*
X58700Y-4908D01*
X58400Y-4617D01*
X58000Y-4500D01*
G01X60700Y-7300D02*
X61000Y-7708D01*
X61400Y-7942D01*
X61850Y-8000D01*
X62250Y-7942D01*
X62650Y-7650D01*
X62900Y-7300D01*
X62950Y-6950D01*
X62850Y-6542D01*
X62500Y-6250D01*
X62150Y-6133D01*
X61700D01*
G01X62150D02*
X62450Y-5958D01*
X62700Y-5667D01*
X62800Y-5317D01*
X62700Y-4967D01*
X62450Y-4675D01*
X62000Y-4500D01*
X61550Y-4558D01*
X61100Y-4792D01*
G01X65500Y-8000D02*
X65600Y-7242D01*
X65750Y-6600D01*
X65950Y-6017D01*
X66200Y-5375D01*
X66600Y-4500D01*
X64600D01*
G01X69300Y-8000D02*
X69400Y-7242D01*
X69550Y-6600D01*
X69750Y-6017D01*
X70000Y-5375D01*
X70400Y-4500D01*
X68400D01*
G01X72250Y-6542D02*
X72600Y-6133D01*
X72900Y-5900D01*
X73300Y-5783D01*
X73650Y-5900D01*
X73900Y-6133D01*
X74100Y-6483D01*
X74150Y-6892D01*
X74100Y-7242D01*
X73900Y-7592D01*
X73600Y-7883D01*
X73250Y-8000D01*
X72850Y-7883D01*
X72500Y-7533D01*
X72300Y-7008D01*
X72250Y-6425D01*
X72350Y-5667D01*
X72500Y-5258D01*
X72750Y-4850D01*
X73100Y-4558D01*
X73450Y-4500D01*
X73800Y-4617D01*
X74050Y-4908D01*
G01X77000Y-4500D02*
X76600Y-4617D01*
X76300Y-4908D01*
X76100Y-5258D01*
X75950Y-5725D01*
X75900Y-6250D01*
X75950Y-6775D01*
X76100Y-7242D01*
X76300Y-7592D01*
X76600Y-7883D01*
X77000Y-8000D01*
X77400Y-7883D01*
X77700Y-7592D01*
X77900Y-7242D01*
X78050Y-6775D01*
X78100Y-6250D01*
X78050Y-5725D01*
X77900Y-5258D01*
X77700Y-4908D01*
X77400Y-4617D01*
X77000Y-4500D01*
G01X83600Y-8000D02*
Y-4500D01*
X84850D01*
X85250Y-4675D01*
X85500Y-4908D01*
X85600Y-5375D01*
X85500Y-5842D01*
X85200Y-6133D01*
X84850Y-6308D01*
X83600D01*
G01X84850D02*
X85600Y-8000D01*
G01X89400D02*
X87400D01*
Y-4500D01*
X89400D01*
G01X88600Y-6192D02*
X87400D01*
G01X90950Y-4500D02*
X92200Y-8000D01*
X93450Y-4500D01*
G01X98700Y-8000D02*
Y-4500D01*
X99700D01*
X100100Y-4675D01*
X100400Y-4908D01*
X100650Y-5258D01*
X100850Y-5667D01*
X100900Y-6250D01*
X100850Y-6833D01*
X100650Y-7242D01*
X100400Y-7592D01*
X100100Y-7825D01*
X99700Y-8000D01*
X98700D01*
G01X106450Y-4500D02*
X108350D01*
X106450Y-8000D01*
X108350D01*
G01X325500Y14100D02*
X322000D01*
Y15300D01*
X322175Y15700D01*
X322583Y16000D01*
X323050Y16100D01*
X323517Y16000D01*
X323867Y15750D01*
X324042Y15300D01*
Y14100D01*
G01X325500Y17900D02*
X322000D01*
Y19150D01*
X322175Y19550D01*
X322408Y19800D01*
X322875Y19900D01*
X323342Y19800D01*
X323633Y19500D01*
X323808Y19150D01*
Y17900D01*
G01Y19150D02*
X325500Y19900D01*
G01X322000Y22100D02*
Y23300D01*
G01Y22700D02*
X325500D01*
G01Y22100D02*
Y23300D01*
G01Y25200D02*
X322000D01*
X324917Y26500D01*
X322000Y27800D01*
X325500D01*
G01Y29050D02*
X322000Y30300D01*
X325500Y31550D01*
G01X324275Y31100D02*
Y29500D01*
G01X325500Y33100D02*
X322000D01*
Y34350D01*
X322175Y34750D01*
X322408Y35000D01*
X322875Y35100D01*
X323342Y35000D01*
X323633Y34700D01*
X323808Y34350D01*
Y33100D01*
G01Y34350D02*
X325500Y35100D01*
G01Y37900D02*
X323925D01*
X322000Y36900D01*
G01Y38900D02*
X323925Y37900D01*
G01X325033Y44450D02*
X325325Y44850D01*
X325500Y45300D01*
Y45700D01*
X325325Y46100D01*
X325033Y46400D01*
X324625Y46550D01*
X324217Y46450D01*
X323867Y46200D01*
X323633Y45750D01*
X323517Y45150D01*
X323283Y44800D01*
X322875Y44650D01*
X322467Y44750D01*
X322175Y45000D01*
X322000Y45350D01*
Y45700D01*
X322117Y46050D01*
X322408Y46350D01*
G01X322000Y48700D02*
Y49900D01*
G01Y49300D02*
X325500D01*
G01Y48700D02*
Y49900D01*
G01Y52000D02*
X322000D01*
Y53000D01*
X322175Y53400D01*
X322408Y53700D01*
X322758Y53950D01*
X323167Y54150D01*
X323750Y54200D01*
X324333Y54150D01*
X324742Y53950D01*
X325092Y53700D01*
X325325Y53400D01*
X325500Y53000D01*
Y52000D01*
G01Y57900D02*
Y55900D01*
X322000D01*
Y57900D01*
G01X323692Y57100D02*
Y55900D01*
G54D17*
X-7154Y107952D03*
G54D62*
X254000Y67250D03*
Y74750D03*
X286000Y4750D03*
Y12250D03*
X283500Y61750D03*
Y54250D03*
X299500Y126750D03*
Y134250D03*
X303500Y182250D03*
Y174750D03*
G54D26*
X12000Y166500D03*
Y171500D03*
X26000D03*
Y166500D03*
X44500Y183000D03*
Y188000D03*
X67000Y81000D03*
Y86000D03*
X58500Y80500D03*
Y85500D03*
X51500Y183000D03*
Y188000D03*
X94500Y95500D03*
X73500Y81000D03*
Y86000D03*
X95000Y81500D03*
Y86500D03*
X86000Y112000D03*
Y107000D03*
X94500Y100500D03*
X79000Y112000D03*
Y107000D03*
X87000Y136000D03*
Y131000D03*
X76000Y180500D03*
Y185500D03*
X120500Y76000D03*
Y81000D03*
X113000Y170000D03*
X119500Y153000D03*
Y148000D03*
X113000Y175000D03*
X145000Y48500D03*
Y53500D03*
X147000Y100000D03*
Y105000D03*
X140000Y100000D03*
Y105000D03*
X133000D03*
Y100000D03*
X126000D03*
Y105000D03*
X163000Y48500D03*
X157000Y39500D03*
Y34500D03*
X164000Y39500D03*
Y34500D03*
X170000Y48500D03*
X152000D03*
X163000Y53500D03*
X170000D03*
X152000D03*
X168000Y99500D03*
Y104500D03*
X194000Y24000D03*
Y19000D03*
X176000Y39500D03*
Y34500D03*
X183000Y39500D03*
Y34500D03*
X194000Y36000D03*
Y31000D03*
X177000Y69500D03*
Y64500D03*
X191000Y135500D03*
Y130500D03*
X184000D03*
Y135500D03*
X212500Y-2000D03*
X205500D03*
X220500Y-4500D03*
X212500Y3000D03*
X205500D03*
X220500Y500D03*
X218000Y71000D03*
Y66000D03*
X219500Y97500D03*
X212500D03*
X200500Y81000D03*
Y86000D03*
X219500Y102500D03*
X212500D03*
X203500Y182000D03*
Y187000D03*
X228000Y-4500D03*
Y500D03*
X234500Y47000D03*
X226000Y71000D03*
Y66000D03*
X234500Y52000D03*
X231000Y147000D03*
Y142000D03*
X249000Y88000D03*
Y83000D03*
X266500Y94500D03*
Y99500D03*
Y106000D03*
Y111000D03*
X265000Y178500D03*
Y173500D03*
X270000Y-2000D03*
X294000Y8000D03*
Y13000D03*
X270000Y9500D03*
Y14500D03*
Y3000D03*
X283000Y41500D03*
Y46500D03*
X281500Y144000D03*
Y149000D03*
X288500Y179000D03*
Y174000D03*
X281500D03*
Y179000D03*
X274500D03*
Y174000D03*
X301000Y8000D03*
Y13000D03*
X313000Y20000D03*
Y25000D03*
Y43000D03*
Y38000D03*
X311500Y147000D03*
Y142000D03*
X295500Y179000D03*
Y174000D03*
G54D35*
X86437Y143953D03*
X84469D03*
X78563D03*
X80531D03*
X82500D03*
X78563Y161047D03*
X80531D03*
X82500D03*
X84469D03*
X86437D03*
X209839Y33445D03*
X207280D03*
X204720D03*
X202161D03*
Y51555D03*
X204720D03*
X209839D03*
X207280D03*
X206339Y130945D03*
X203780D03*
X201220D03*
X198661D03*
Y149055D03*
X201220D03*
X206339D03*
X203780D03*
G54D53*
X212094Y20453D03*
Y14547D03*
Y16516D03*
Y18484D03*
Y119453D03*
Y113547D03*
Y115516D03*
Y117484D03*
X223906Y14547D03*
Y16516D03*
Y20453D03*
Y18484D03*
Y113547D03*
Y115516D03*
Y119453D03*
Y117484D03*
G54D44*
X134437Y141094D03*
X132469D03*
X130500D03*
X128531D03*
X126563D03*
Y152906D03*
X128531D03*
X130500D03*
X132469D03*
X134437D03*
G54D72*
G01X83518Y242750D02*
X82518Y242417D01*
X81768Y241583D01*
X81268Y240583D01*
X80893Y239250D01*
X80768Y237750D01*
X80893Y236250D01*
X81268Y234917D01*
X81768Y233916D01*
X82518Y233083D01*
X83518Y232750D01*
X84518Y233083D01*
X85268Y233916D01*
X85768Y234917D01*
X86143Y236250D01*
X86268Y237750D01*
X86143Y239250D01*
X85768Y240583D01*
X85268Y241583D01*
X84518Y242417D01*
X83518Y242750D01*
G01X93518Y232750D02*
X94393Y232917D01*
X95393Y233417D01*
X96018Y234250D01*
X96268Y235417D01*
X96018Y236583D01*
X95268Y237583D01*
X94143Y238083D01*
X92893D01*
X92143Y238417D01*
X91518Y239250D01*
X91268Y240417D01*
X91643Y241583D01*
X92518Y242417D01*
X93518Y242750D01*
X94518Y242417D01*
X95393Y241583D01*
X95768Y240417D01*
X95518Y239250D01*
X94893Y238417D01*
X94143Y238083D01*
X92893D01*
X91768Y237583D01*
X91018Y236583D01*
X90768Y235417D01*
X91018Y234250D01*
X91643Y233417D01*
X92643Y232917D01*
X93518Y232750D01*
G01X101893Y236083D02*
X105143D01*
G01X171893D02*
X175143D01*
G01X183518Y242750D02*
X182518Y242417D01*
X181768Y241583D01*
X181268Y240583D01*
X180893Y239250D01*
X180768Y237750D01*
X180893Y236250D01*
X181268Y234917D01*
X181768Y233916D01*
X182518Y233083D01*
X183518Y232750D01*
X184518Y233083D01*
X185268Y233916D01*
X185768Y234917D01*
X186143Y236250D01*
X186268Y237750D01*
X186143Y239250D01*
X185768Y240583D01*
X185268Y241583D01*
X184518Y242417D01*
X183518Y242750D01*
G01X193518Y232750D02*
Y242750D01*
X192018Y240750D01*
G01Y232750D02*
X195018D01*
G01X87518Y262916D02*
Y252916D01*
X92518D01*
G01X100018D02*
Y262916D01*
X98518Y260916D01*
G01Y252916D02*
X101518D01*
G01X117518D02*
Y262916D01*
X120518D01*
X121518Y262416D01*
X122268Y261249D01*
X122518Y259916D01*
X122268Y258583D01*
X121643Y257583D01*
X120518Y257082D01*
X117518D01*
G01X127518Y252916D02*
Y262916D01*
X130643D01*
X131643Y262416D01*
X132268Y261749D01*
X132518Y260416D01*
X132268Y259083D01*
X131518Y258249D01*
X130643Y257749D01*
X127518D01*
G01X130643D02*
X132518Y252916D01*
G01X138518Y262916D02*
X141518D01*
G01X140018D02*
Y252916D01*
G01X138518D02*
X141518D01*
G01X146768D02*
Y262916D01*
X150018Y254583D01*
X153268Y262916D01*
Y252916D01*
G01X156893D02*
X160018Y262916D01*
X163143Y252916D01*
G01X162018Y256416D02*
X158018D01*
G01X167518Y252916D02*
Y262916D01*
X170643D01*
X171643Y262416D01*
X172268Y261749D01*
X172518Y260416D01*
X172268Y259083D01*
X171518Y258249D01*
X170643Y257749D01*
X167518D01*
G01X170643D02*
X172518Y252916D01*
G01X180018D02*
Y257416D01*
X177518Y262916D01*
G01X182518D02*
X180018Y257416D01*
G01X112518Y212916D02*
Y222916D01*
X115643D01*
X116643Y222416D01*
X117268Y221749D01*
X117518Y220416D01*
X117268Y219083D01*
X116518Y218249D01*
X115643Y217749D01*
X112518D01*
G01X115643D02*
X117518Y212916D01*
G01X127518D02*
X122518D01*
Y222916D01*
X127518D01*
G01X125518Y218083D02*
X122518D01*
G01X131893Y222916D02*
X135018Y212916D01*
X138143Y222916D01*
G01X152268Y212916D02*
Y222916D01*
X154768D01*
X155768Y222416D01*
X156518Y221749D01*
X157143Y220749D01*
X157643Y219582D01*
X157768Y217916D01*
X157643Y216249D01*
X157143Y215083D01*
X156518Y214082D01*
X155768Y213416D01*
X154768Y212916D01*
X152268D01*
G01X112518Y242916D02*
X111518Y242583D01*
X110768Y241749D01*
X110268Y240749D01*
X109893Y239416D01*
X109768Y237916D01*
X109893Y236416D01*
X110268Y235083D01*
X110768Y234082D01*
X111518Y233249D01*
X112518Y232916D01*
X113518Y233249D01*
X114268Y234082D01*
X114768Y235083D01*
X115143Y236416D01*
X115268Y237916D01*
X115143Y239416D01*
X114768Y240749D01*
X114268Y241749D01*
X113518Y242583D01*
X112518Y242916D01*
G01X119768Y234916D02*
X120518Y233749D01*
X121518Y233083D01*
X122643Y232916D01*
X123643Y233083D01*
X124643Y233916D01*
X125268Y234916D01*
X125393Y235916D01*
X125143Y237082D01*
X124268Y237916D01*
X123393Y238249D01*
X122268D01*
G01X123393D02*
X124143Y238749D01*
X124768Y239582D01*
X125018Y240583D01*
X124768Y241583D01*
X124143Y242416D01*
X123018Y242916D01*
X121893Y242749D01*
X120768Y242083D01*
G01X132268Y232916D02*
X132518Y235083D01*
X132893Y236916D01*
X133393Y238583D01*
X134018Y240416D01*
X135018Y242916D01*
X130018D01*
G01X142268Y232916D02*
X142518Y235083D01*
X142893Y236916D01*
X143393Y238583D01*
X144018Y240416D01*
X145018Y242916D01*
X140018D01*
G01X150143Y237082D02*
X151018Y238249D01*
X151768Y238916D01*
X152768Y239249D01*
X153643Y238916D01*
X154268Y238249D01*
X154768Y237249D01*
X154893Y236083D01*
X154768Y235083D01*
X154268Y234082D01*
X153518Y233249D01*
X152643Y232916D01*
X151643Y233249D01*
X150768Y234249D01*
X150268Y235749D01*
X150143Y237416D01*
X150393Y239582D01*
X150768Y240749D01*
X151393Y241916D01*
X152268Y242749D01*
X153143Y242916D01*
X154018Y242583D01*
X154643Y241749D01*
G01X162518Y242916D02*
X161518Y242583D01*
X160768Y241749D01*
X160268Y240749D01*
X159893Y239416D01*
X159768Y237916D01*
X159893Y236416D01*
X160268Y235083D01*
X160768Y234082D01*
X161518Y233249D01*
X162518Y232916D01*
X163518Y233249D01*
X164268Y234082D01*
X164768Y235083D01*
X165143Y236416D01*
X165268Y237916D01*
X165143Y239416D01*
X164768Y240749D01*
X164268Y241749D01*
X163518Y242583D01*
X162518Y242916D01*
G54D63*
X253500Y189400D03*
X257200Y180600D03*
X249800D03*
G54D36*
X85050Y170550D03*
X94950D03*
X85050Y174500D03*
Y178450D03*
X94950Y174500D03*
Y178450D03*
G54D54*
X215047Y23406D03*
X217016D03*
Y11594D03*
X215047D03*
X217016Y110594D03*
X215047D03*
Y122406D03*
X217016D03*
X220953Y23406D03*
X218984D03*
X220953Y11594D03*
X218984D03*
X220953Y110594D03*
X218984D03*
X220953Y122406D03*
X218984D03*
G54D27*
X36988Y15378D03*
Y17346D03*
Y19315D03*
Y21283D03*
Y23252D03*
Y25220D03*
Y27189D03*
Y29157D03*
Y31126D03*
Y33094D03*
Y35063D03*
Y37031D03*
Y39000D03*
Y40969D03*
Y42937D03*
Y44906D03*
Y46874D03*
Y48843D03*
Y50811D03*
Y52780D03*
Y54748D03*
Y56717D03*
Y58685D03*
Y60654D03*
Y62622D03*
X98012Y23252D03*
Y21283D03*
Y19315D03*
Y17346D03*
Y15378D03*
Y46874D03*
Y44906D03*
Y42937D03*
Y40969D03*
Y39000D03*
Y37031D03*
Y35063D03*
Y33094D03*
Y31126D03*
Y29157D03*
Y27189D03*
Y25220D03*
Y62622D03*
Y60654D03*
Y58685D03*
Y56717D03*
Y54748D03*
Y52780D03*
Y50811D03*
Y48843D03*
G54D45*
X149500Y159150D03*
Y174850D03*
G54D18*
G01X144250Y140848D02*
Y145000D01*
G01D02*
Y149152D01*
G01X140698Y145000D02*
X144250D01*
X20000Y-3000D03*
X309000D03*
X306000Y192000D03*
G54D64*
X290500Y22500D03*
Y42500D03*
X289000Y144500D03*
X294000D03*
X289000Y164500D03*
X294000D03*
X305500Y22500D03*
X300500D03*
X295500D03*
X305500Y42500D03*
X300500D03*
X295500D03*
X299000Y144500D03*
X304000D03*
X299000Y164500D03*
X304000D03*
G54D19*
X25000Y11250D03*
Y18750D03*
X48000Y146250D03*
Y153750D03*
X59000Y146250D03*
Y153750D03*
X95500Y159750D03*
Y152250D03*
X103500Y89750D03*
Y82250D03*
X112000Y123750D03*
Y131250D03*
X169000Y68750D03*
Y61250D03*
X192500Y79250D03*
Y86750D03*
X281500Y26250D03*
Y33750D03*
X313000Y162250D03*
Y154750D03*
G54D37*
X109260Y20059D03*
Y17500D03*
Y14941D03*
X116740Y20059D03*
Y17500D03*
Y14941D03*
X109260Y8059D03*
Y5500D03*
Y2941D03*
X116740Y8059D03*
Y5500D03*
Y2941D03*
X281740Y92441D03*
Y95000D03*
X274260Y92441D03*
Y95000D03*
X292760Y92441D03*
Y95000D03*
X281740Y97559D03*
X274260D03*
X292760D03*
X300240Y92441D03*
Y95000D03*
Y97559D03*
G54D55*
X207953Y79063D03*
Y81031D03*
Y86937D03*
Y84969D03*
Y83000D03*
X225047Y86937D03*
Y84969D03*
Y83000D03*
Y81031D03*
Y79063D03*
G54D28*
X47815Y8488D03*
X45846D03*
X43878D03*
Y69512D03*
X45846D03*
X47815D03*
X71437Y8488D03*
X69469D03*
X67500D03*
X65531D03*
X63563D03*
X61594D03*
X59626D03*
X57657D03*
X55689D03*
X53720D03*
X51752D03*
X49783D03*
Y69512D03*
X51752D03*
X53720D03*
X55689D03*
X57657D03*
X59626D03*
X61594D03*
X63563D03*
X65531D03*
X67500D03*
X69469D03*
X71437D03*
X91122Y8488D03*
X89154D03*
X87185D03*
X85217D03*
X83248D03*
X81280D03*
X79311D03*
X77343D03*
X75374D03*
X73406D03*
Y69512D03*
X75374D03*
X77343D03*
X79311D03*
X81280D03*
X83248D03*
X85217D03*
X87185D03*
X89154D03*
X91122D03*
G54D46*
X133650Y186000D03*
X124350D03*
G54D29*
X33113Y92000D03*
X48887D03*
G54D56*
X240500Y-1000D03*
Y4000D03*
Y9000D03*
Y14000D03*
X237000Y95500D03*
Y100500D03*
Y105500D03*
Y110500D03*
X260500Y-1000D03*
Y4000D03*
Y9000D03*
Y14000D03*
X257000Y95500D03*
Y100500D03*
Y105500D03*
Y110500D03*
G54D47*
X161000Y133500D03*
X154000D03*
G54D65*
X310500Y56000D03*
Y132000D03*
G54D38*
X132000Y23400D03*
X142000D03*
X152000D03*
X162000D03*
X172000D03*
X311600Y69500D03*
Y79500D03*
Y89500D03*
Y99500D03*
Y109500D03*
G54D66*
G01X23000Y69150D02*
X22150Y70000D01*
X19500D01*
X17000Y72500D01*
X10500D01*
X9500Y71500D01*
Y49671D01*
X13171Y46000D01*
X26500D01*
X33280Y52780D01*
X36988D01*
G01X13500Y69150D02*
X11500Y67150D01*
Y50500D01*
X14000Y48000D01*
X25671D01*
X32451Y54780D01*
X36956D01*
X36988Y54748D01*
G01X23000Y75850D02*
X19000Y79850D01*
Y93500D01*
X17000Y95500D01*
X16796D01*
G01D02*
X15516Y94220D01*
X7568D01*
X7288Y94500D01*
X2110D01*
G01X13500Y75850D02*
X13850D01*
X17000Y79000D01*
Y90296D01*
X16796Y90500D01*
G01X36988Y60654D02*
X32846D01*
X29000Y64500D01*
Y70500D01*
X27000Y72500D01*
X20000D01*
X18000Y74500D01*
X14850D01*
X13500Y75850D01*
G01X16796Y90500D02*
X15076Y92220D01*
X7066D01*
X6787Y91941D01*
X2110D01*
G01X15000Y100398D02*
Y103000D01*
G01D02*
Y105602D01*
G01X12248Y103000D02*
X15000D01*
G01Y106898D02*
Y109500D01*
G01D02*
Y112102D01*
G01X12248Y109500D02*
X15000D01*
G01X19000Y166500D02*
X26000D01*
G01Y171500D02*
X12000D01*
G01X43878Y8488D02*
Y3878D01*
X43000Y3000D01*
G01X51500Y28000D02*
X48000D01*
X41283Y21283D01*
X36988D01*
G01Y19315D02*
X43315D01*
X48000Y24000D01*
G01X51500Y20000D02*
X47500D01*
X44846Y17346D01*
X36988D01*
G01Y15378D02*
X47378D01*
X48000Y16000D01*
G01X31000Y41000D02*
X36988Y40969D01*
G01Y48843D02*
X33343D01*
X31000Y46500D01*
G01X36988Y39000D02*
X33500D01*
X31000Y36500D01*
Y32500D01*
G01X90500Y60000D02*
X89000Y58500D01*
X55000D01*
X49500Y53000D01*
Y49000D01*
X43437Y42937D01*
X36988D01*
G01X42500Y38000D02*
X41531Y37031D01*
X36988D01*
G01X54500Y54000D02*
X51500Y51000D01*
Y41500D01*
X45063Y35063D01*
X36988D01*
G01X54500Y50000D02*
X53500Y49000D01*
Y40500D01*
X46094Y33094D01*
X36988D01*
G01Y31126D02*
X48626D01*
X56500Y39000D01*
G01X48500Y60000D02*
X45500Y57000D01*
Y51500D01*
X40874Y46874D01*
X36988D01*
G01X52500Y60000D02*
X47500Y55000D01*
Y50500D01*
X41906Y44906D01*
X36988D01*
G01Y62622D02*
X36956Y62654D01*
X33675D01*
X31000Y65329D01*
Y71329D01*
X27829Y74500D01*
X24350D01*
X23000Y75850D01*
G01X36988Y50811D02*
X41311D01*
X42500Y52000D01*
Y55500D01*
G01X44650Y80000D02*
X43000Y78350D01*
Y76500D01*
X45846Y73654D01*
Y69512D01*
G01X23500Y57500D02*
X27500D01*
X28685Y58685D01*
X36988D01*
G01X23500Y57500D02*
Y63000D01*
G01X37350Y80000D02*
X40500Y76850D01*
Y76000D01*
X43878Y72622D01*
Y69512D01*
G01X44650Y80000D02*
Y87150D01*
X48887Y91387D01*
Y92000D01*
G01X37350Y80000D02*
Y87150D01*
X33113Y91387D01*
Y92000D01*
G01X25000Y179000D02*
X31500Y172500D01*
Y168250D01*
X32250Y167500D01*
X34819D01*
G01X26000Y171500D02*
X28500D01*
X29500Y170500D01*
Y166500D01*
X30469Y165531D01*
X34819D01*
G01X26000Y166500D02*
X29000Y163500D01*
X37000D01*
X41000Y167500D01*
G01X37500Y182000D02*
X43500D01*
X44500Y183000D01*
G01X41000Y173681D02*
Y178500D01*
X37500Y182000D01*
G01X51500Y183000D02*
X50500D01*
X46000Y178500D01*
X44969D01*
X42969Y176500D01*
Y173681D01*
G01X37500Y189000D02*
X43500D01*
X44500Y188000D01*
G01X59626Y8488D02*
Y3626D01*
X59000Y3000D01*
G01X65531Y8488D02*
Y12969D01*
X61500Y17000D01*
Y31500D01*
X64000Y34000D01*
G01X47815Y8488D02*
Y4685D01*
G01D02*
X49500Y3000D01*
G01X56500Y31000D02*
Y18000D01*
X53720Y15220D01*
Y8488D01*
G01X69469D02*
Y14031D01*
X66500Y17000D01*
Y26500D01*
X69000Y29000D01*
G01X64000D02*
Y17000D01*
X67500Y13500D01*
Y8488D01*
G01X56500Y35000D02*
X54000Y32500D01*
Y19000D01*
X51752Y16752D01*
Y8488D01*
G01X56500Y43000D02*
X59500Y40000D01*
Y16500D01*
X55689Y12689D01*
Y8488D01*
G01X73406D02*
Y13094D01*
X71000Y15500D01*
Y27000D01*
X71500Y27500D01*
Y32000D01*
X69000Y34500D01*
Y41000D01*
G01X47815Y69512D02*
Y73815D01*
X49000Y75000D01*
G01X49783Y69512D02*
Y65283D01*
X48500Y64000D01*
G01X71437Y69512D02*
Y64063D01*
X72500Y63000D01*
G01X57657Y69512D02*
Y73157D01*
X62000Y77500D01*
Y111000D01*
X57000Y116000D01*
Y121000D01*
X60500Y124500D01*
X72500D01*
X74000Y126000D01*
Y131000D01*
X76300Y133300D01*
Y148800D01*
X82500Y155000D01*
Y161047D01*
G01X61594Y69512D02*
Y74594D01*
X64000Y77000D01*
Y112000D01*
X59000Y117000D01*
Y120000D01*
X61500Y122500D01*
X77000D01*
X80500Y126000D01*
G01X61500Y63000D02*
X63563Y65063D01*
Y69512D01*
G01X67000Y77000D02*
X69500Y74500D01*
X72000D01*
X73406Y73094D01*
Y69512D01*
G01X62000Y119500D02*
X64500Y117000D01*
X81000D01*
X86000Y112000D01*
G01X94500Y100500D02*
Y105000D01*
X96500Y107000D01*
Y114000D01*
X91000Y119500D01*
X66000D01*
G01X51500Y183000D02*
X58500D01*
G01X85217Y8488D02*
Y3783D01*
X86000Y3000D01*
G01X81280Y8488D02*
Y14220D01*
X78000Y17500D01*
Y54000D01*
X80000Y56000D01*
G01X80500Y47000D02*
X80000Y46500D01*
Y18000D01*
X83248Y14752D01*
Y8488D01*
G01X83500Y56000D02*
Y35000D01*
X82000Y33500D01*
Y19000D01*
X87185Y13815D01*
Y8488D01*
G01X87500Y47000D02*
Y36000D01*
X84000Y32500D01*
Y20000D01*
X89154Y14846D01*
Y8488D01*
G01X73500Y24500D02*
Y16500D01*
X75374Y14626D01*
Y8488D01*
G01X74500Y46000D02*
Y40000D01*
X76000Y38500D01*
Y17000D01*
X79311Y13689D01*
Y8488D01*
G01X86500Y22000D02*
X87500Y21000D01*
X92000D01*
X94252Y23252D01*
X98012D01*
G01Y33094D02*
X91594D01*
X90500Y32000D01*
G01X86500Y26000D02*
X89000Y23500D01*
X91500D01*
X93220Y25220D01*
X98012D01*
G01Y27189D02*
X91689D01*
X90500Y26000D01*
G01X98012Y29157D02*
X87343D01*
X86500Y30000D01*
G01X89500Y74000D02*
X89154Y73654D01*
Y69512D01*
G01X75374D02*
Y74126D01*
X74000Y75500D01*
Y77000D01*
G01X88500Y78000D02*
X87185Y76685D01*
Y69512D01*
G01X79311D02*
Y63689D01*
X80000Y63000D01*
G01X79000Y80000D02*
X78000Y79000D01*
Y76247D01*
X79547Y74700D01*
X79572D01*
X81280Y72992D01*
Y69512D01*
G01X77000Y63000D02*
Y61500D01*
X78000Y60500D01*
X81000D01*
X84500Y64000D01*
X90000D01*
X91122Y65122D01*
Y69512D01*
G01X84500Y75500D02*
X85217Y74783D01*
Y69512D01*
G01X80500Y77000D02*
Y76247D01*
X83248Y73499D01*
Y69512D01*
G01X79000Y107000D02*
X77000Y105000D01*
Y95094D01*
X80744Y91350D01*
G01X86256D02*
X90350D01*
X94500Y95500D01*
G01X80744Y97650D02*
Y101744D01*
X86000Y107000D01*
G01X79000Y112000D02*
X74500D01*
G01X76500Y126000D02*
Y130500D01*
X78563Y132563D01*
Y143953D01*
G01X80500Y130000D02*
X80531Y131969D01*
Y143953D01*
G01X86437Y147563D02*
Y143953D01*
G01X84469D02*
Y138531D01*
X87000Y136000D01*
G01X80000Y174500D02*
Y169000D01*
X84469Y164531D01*
Y161047D01*
G01X78563D02*
Y162937D01*
X76500Y165000D01*
Y168500D01*
G01X86437Y161047D02*
Y166063D01*
X85500Y167000D01*
G01X183000Y39500D02*
X183500D01*
X187000Y36000D01*
Y18500D01*
X164500Y-4000D01*
X125000D01*
X122000Y-1000D01*
X116000D01*
X112059Y2941D01*
X109260D01*
G01X98012Y15378D02*
X101122D01*
X103000Y13500D01*
Y6500D01*
X106559Y2941D01*
X109260D01*
G01X116740Y8059D02*
X121441D01*
X123000Y6500D01*
Y5500D01*
X127500Y1000D01*
X162000D01*
X177000Y16000D01*
Y26000D01*
X173000Y30000D01*
Y44500D01*
X173500Y45000D01*
Y52500D01*
X172500Y53500D01*
X170000D01*
G01X116740Y8059D02*
X113941D01*
X111500Y10500D01*
X109000D01*
X102154Y17346D01*
X98012D01*
G01X109260Y14941D02*
X112059D01*
X116500Y10500D01*
X122000D01*
X125000Y7500D01*
Y6500D01*
X128500Y3000D01*
X153500D01*
X167000Y16500D01*
Y26000D01*
X168000Y27000D01*
Y38000D01*
X166500Y39500D01*
X164000D01*
G01X109260Y14941D02*
X107559D01*
X103185Y19315D01*
X98012D01*
G01X116740Y20059D02*
X120441D01*
X123000Y17500D01*
Y12500D01*
X127000Y8500D01*
Y7500D01*
X129500Y5000D01*
X147500D01*
X157000Y14500D01*
Y27500D01*
X153000Y31500D01*
Y43500D01*
X156000Y46500D01*
Y52500D01*
X155000Y53500D01*
X152000D01*
G01X98012Y21283D02*
X102783D01*
X104000Y22500D01*
X111559D01*
X114000Y20059D01*
X116740D01*
G01X98012Y31126D02*
X102374D01*
X103000Y30500D01*
Y27500D01*
X104000Y26500D01*
X108500D01*
G01Y35000D02*
X108063Y35063D01*
X98012D01*
G01X108650Y42000D02*
X112650Y46000D01*
X125500D01*
X134500Y37000D01*
Y32000D01*
X133000Y30500D01*
X128000D01*
X124500Y27000D01*
Y22000D01*
X127000Y19500D01*
Y16500D01*
X131000Y12500D01*
G01X98012Y40969D02*
X107619D01*
X108650Y42000D01*
G01X122650Y35000D02*
X119650Y38000D01*
X103500D01*
X102500Y39000D01*
X98012D01*
G01Y44906D02*
X103406D01*
X105000Y46500D01*
X110000D01*
X111250Y47750D01*
X126750D01*
X137500Y37000D01*
Y31000D01*
X134500Y28000D01*
X129000D01*
X127000Y26000D01*
Y22318D01*
X129000Y20318D01*
Y18500D01*
X135500Y12000D01*
Y7500D01*
G01X98012Y52780D02*
X106780D01*
X108500Y54500D01*
G01X98012Y54748D02*
X103248D01*
G01D02*
X105000Y56500D01*
Y58500D01*
G01X149500Y12500D02*
X147000Y15000D01*
Y37500D01*
X124500Y60000D01*
X115500D01*
X109500Y66000D01*
Y86000D01*
X112500Y89000D01*
X119000D01*
G01X98012Y48843D02*
X108343D01*
X109000Y49500D01*
X130000D01*
X140500Y39000D01*
Y30000D01*
X137000Y26500D01*
Y15000D01*
X144500Y7500D01*
G01X165744Y88437D02*
X162063D01*
X158500Y92000D01*
Y106000D01*
X150500Y114000D01*
X122500D01*
X119000Y110500D01*
Y89000D01*
G01D02*
Y87000D01*
X121500Y84500D01*
X127244D01*
G01X120500Y124650D02*
X125000Y129150D01*
Y137228D01*
X126563Y138791D01*
Y141094D01*
G01X112000Y123750D02*
X112900Y124650D01*
X120500D01*
G01Y131350D02*
X119000Y132850D01*
Y139000D01*
G01X112000Y159850D02*
X112300Y160150D01*
X120500D01*
G01D02*
X124650Y156000D01*
X127500D01*
X128531Y154969D01*
Y152906D01*
G01X126563D02*
X126469Y153000D01*
X119500D01*
G01X122650Y35000D02*
X121500Y33850D01*
Y22000D01*
X125000Y18500D01*
Y13500D01*
X131000Y7500D01*
G01X140000Y69500D02*
X139000Y70500D01*
X137500D01*
X135000Y73000D01*
Y76744D01*
G01X140500Y50000D02*
Y52000D01*
X142000Y53500D01*
X145000D01*
G01X152000Y48500D02*
X145000D01*
G01X150500Y96000D02*
X148437Y93937D01*
X139563D01*
X138937Y93311D01*
Y92256D01*
G01X149500Y80000D02*
X147700D01*
X145169Y82531D01*
X142756D01*
G01X154500Y80000D02*
Y82000D01*
X150031Y86469D01*
X142756D01*
G01X165744Y84500D02*
X162500D01*
X161000Y83000D01*
X158000D01*
X156500Y84500D01*
Y105000D01*
X149500Y112000D01*
X123500D01*
X121000Y109500D01*
Y92000D01*
X122500Y90500D01*
G01D02*
X124563Y88437D01*
X127244D01*
G01X147000Y100000D02*
Y97500D01*
X145500Y96000D01*
X138000D01*
X136969Y94969D01*
Y92256D01*
G01X133031D02*
Y99969D01*
X133000Y100000D01*
G01X140000D02*
X138000Y98000D01*
X137000D01*
X135000Y96000D01*
Y92256D01*
G01X133000Y105000D02*
Y109500D01*
G01X140000Y105000D02*
Y109500D01*
G01X133000Y138000D02*
X132469Y138531D01*
Y141094D01*
G01D02*
Y145031D01*
G01D02*
X130500Y147000D01*
G01X134437Y138492D02*
Y141094D01*
G01D02*
Y143696D01*
G01Y141094D02*
X135939D01*
G01X129000Y132500D02*
Y123650D01*
X129150Y123500D01*
G01X128531Y141094D02*
Y138284D01*
X128200Y137953D01*
Y133300D01*
X129000Y132500D01*
G01X130500Y141094D02*
Y137000D01*
G01X131000Y160150D02*
X130500Y159150D01*
G01D02*
Y152906D01*
G01X133500Y156000D02*
X132469Y154969D01*
Y152906D01*
G01X157000Y39500D02*
Y44000D01*
G01Y34500D02*
X164000D01*
G01D02*
Y31000D01*
X162000Y29000D01*
Y23400D01*
G01X152000D02*
X151000Y24400D01*
Y44500D01*
X152000Y45500D01*
Y48500D01*
G01X163000Y53500D02*
X160000D01*
X158500Y52000D01*
Y47500D01*
G01X163000Y48500D02*
X170000D01*
G01X171250Y72719D02*
X171531Y73000D01*
Y76744D01*
G01X147000Y105000D02*
Y109500D01*
G01X194000Y9850D02*
X196500Y12350D01*
Y15000D01*
G01X194250Y47500D02*
Y46250D01*
X199000Y41500D01*
X207500D01*
X214500Y34500D01*
Y29500D01*
X215047Y28953D01*
Y26000D01*
G01X204720Y33445D02*
Y36527D01*
X203247Y38000D01*
X199500D01*
X195500Y42000D01*
X192000D01*
X190500Y43500D01*
Y47500D01*
G01X194000Y36000D02*
Y39500D01*
G01Y31000D02*
Y24000D01*
G01X196500Y15000D02*
X197500Y16000D01*
Y23000D01*
X196500Y24000D01*
X194000D01*
G01X176000Y39500D02*
Y44000D01*
G01Y34500D02*
X183000D01*
G01X182000Y23400D02*
Y28500D01*
X183000Y29500D01*
Y34500D01*
G01X170000Y48500D02*
X170500Y48000D01*
Y29500D01*
X172000Y28000D01*
Y23400D01*
G01X189000Y41000D02*
Y42500D01*
X187500Y44000D01*
Y46750D01*
X186750Y47500D01*
G01X186000Y80500D02*
X187000Y79500D01*
Y75500D01*
X186500Y75000D01*
Y67000D01*
X188500Y65000D01*
X194753D01*
X198000Y61753D01*
Y56500D01*
X200000Y54500D01*
Y46000D01*
X202500Y43500D01*
X208500D01*
X216500Y35500D01*
Y30500D01*
X217016Y29984D01*
Y27000D01*
G01X194250Y57500D02*
Y61750D01*
X194500Y62000D01*
G01X173500Y76744D02*
Y73000D01*
X177000Y69500D01*
G01X178500Y99500D02*
Y96500D01*
X177500Y95500D01*
Y92319D01*
X177437Y92256D01*
G01X181256Y86469D02*
X184969D01*
X186000Y87500D01*
G01X181256Y82531D02*
X183969D01*
X186000Y80500D01*
G01X175469Y92256D02*
Y100469D01*
X177000Y102000D01*
X184500D01*
X187000Y99500D01*
G01X173500Y92256D02*
Y102000D01*
X175500Y104000D01*
X184000D01*
X187000Y107000D01*
G01X171531Y92256D02*
Y103531D01*
X175000Y107000D01*
G01X189500Y112000D02*
X185000D01*
X180000Y107000D01*
G01X192000D02*
Y103500D01*
G01Y99500D02*
X195500Y103000D01*
Y111000D01*
X194500Y112000D01*
G01X201220Y130945D02*
Y139780D01*
X195500Y145500D01*
Y148500D01*
X194000Y150000D01*
X188000D01*
X187000Y149000D01*
Y145000D01*
G01X191000Y135500D02*
Y140000D01*
G01X180650Y122500D02*
X180500Y122650D01*
Y127500D01*
G01X184000Y130500D02*
X183500D01*
X180500Y127500D01*
G01X184000Y130500D02*
X191000D01*
G01X183250Y145000D02*
Y142250D01*
X181000Y140000D01*
G01X209000Y126500D02*
X197000D01*
X195500Y128000D01*
Y142500D01*
X193000Y145000D01*
X190750D01*
G01Y155000D02*
Y159750D01*
X191000Y160000D01*
G01X184791Y184547D02*
X182953D01*
X182000Y185500D01*
G01X177350Y188500D02*
X179303Y190453D01*
X184791D01*
G01X182000Y185500D02*
X183016Y186516D01*
X184791D01*
G01X212094Y18484D02*
X209500D01*
X209000Y18984D01*
Y24500D01*
X210500Y26000D01*
X215047D01*
G01X208500Y15500D02*
X202650D01*
X202000Y16150D01*
G01X212094Y14547D02*
X209453D01*
X208500Y15500D01*
G01D02*
X209516Y16516D01*
X212094D01*
G01X219000Y27000D02*
X217016D01*
G01D02*
Y23406D01*
G01X215047Y26000D02*
Y23406D01*
G01X202161Y33445D02*
Y28161D01*
X202000Y28000D01*
G01X204720Y51555D02*
Y46000D01*
G01D02*
X206000D01*
X207280Y47280D01*
Y51555D01*
G01Y33445D02*
Y37220D01*
X205500Y39000D01*
G01X219000Y32500D02*
Y36032D01*
X209126Y45906D01*
G01D02*
X209839Y46619D01*
Y51555D01*
G01X213000Y72500D02*
X215150Y70350D01*
Y68732D01*
X215882Y68000D01*
X216000D01*
X218000Y66000D01*
G01X234500Y65000D02*
X232000Y62500D01*
X221000D01*
X216500Y58000D01*
G01X218000Y71000D02*
X213000Y76000D01*
Y81500D01*
X211500Y83000D01*
X207953D01*
G01X209839Y51555D02*
X216205D01*
X217500Y52850D01*
G01X207953Y79063D02*
X204063D01*
X195000Y70000D01*
G01X207953Y86937D02*
X214063D01*
X217250Y83750D01*
Y79250D01*
X219500Y77000D01*
X228500D01*
X229000Y76500D01*
G01X226000Y71000D02*
X223500D01*
X219250Y75250D01*
X218275D01*
X215250Y78275D01*
Y82750D01*
X213031Y84969D01*
X207953D01*
G01X225047Y79063D02*
X220937D01*
X219500Y80500D01*
Y84500D01*
X214500Y89500D01*
X209000D01*
X204000Y94500D01*
G01X199000Y101500D02*
Y94500D01*
G01X212094Y113547D02*
X209469D01*
X209016Y114000D01*
Y115516D01*
G01D02*
X212094D01*
G01X203350Y122500D02*
X207000Y118850D01*
Y117532D01*
X209016Y115516D01*
G01X204000Y115500D02*
Y108500D01*
G01D02*
X207500D01*
X210000Y111000D01*
X212500D01*
G01X199000Y108500D02*
Y101500D01*
G01X209000Y126500D02*
Y118500D01*
X210016Y117484D01*
X212094D01*
G01X218000Y127000D02*
X219000Y128000D01*
X223500D01*
X232150Y119350D01*
Y118500D01*
G01X218000Y127000D02*
X217016Y126016D01*
Y122406D01*
G01X218984D02*
Y126016D01*
X218000Y127000D01*
G01X201220Y149055D02*
Y144780D01*
X202500Y143500D01*
G01X203780Y149055D02*
Y144780D01*
X202500Y143500D01*
G01X198661Y130945D02*
Y135839D01*
X198500Y136000D01*
G01X203780Y130945D02*
Y134780D01*
X205000Y136000D01*
X209000D01*
X212000Y133000D01*
X225000D01*
X235000Y123000D01*
G01X206339Y149055D02*
Y143500D01*
G01X215047Y122406D02*
Y124953D01*
X213500Y126500D01*
X209000D01*
G01X206339Y149055D02*
X212705D01*
X214000Y150350D01*
G01X203500Y187000D02*
X211000D01*
X212500Y185500D01*
G01X203500Y187000D02*
X200500D01*
X199016Y188484D01*
X196209D01*
G01Y190453D02*
X199453D01*
X203000Y194000D01*
G01X228000Y-4500D02*
X250000D01*
X253500Y-1000D01*
X260500D01*
G01X232150Y22500D02*
X231000Y21350D01*
Y9000D01*
X233000Y7000D01*
Y2000D01*
X231500Y500D01*
X228000D01*
G01X220500D02*
X228000D01*
G01X219000Y27000D02*
X227650D01*
X232150Y22500D01*
G01X226000Y6000D02*
X224750Y7250D01*
X221250D01*
X218984Y9516D01*
Y11594D01*
G01X220953D02*
Y10547D01*
X222500Y9000D01*
X227000D01*
X230000Y6000D01*
G01X246750Y22500D02*
Y16750D01*
X244000Y14000D01*
X240500D01*
G01X218984Y23406D02*
Y26984D01*
X219000Y27000D01*
G01X218984Y110594D02*
Y108516D01*
X222500Y105000D01*
Y95500D01*
X228000Y90000D01*
X241500D01*
X243500Y88000D01*
Y77500D01*
X246500Y74500D01*
Y68500D01*
X243000Y65000D01*
Y62500D01*
X241000Y60500D01*
X225000D01*
X221500Y57000D01*
Y38000D01*
X232500Y27000D01*
G01X220953Y110594D02*
Y109547D01*
X224500Y106000D01*
Y95975D01*
X228475Y92000D01*
X242500D01*
X245500Y89000D01*
Y78500D01*
X248500Y75500D01*
Y67500D01*
X245000Y64000D01*
Y61500D01*
X242000Y58500D01*
X226000D01*
X223500Y56000D01*
Y40000D01*
X236500Y27000D01*
G01X246750Y22500D02*
X240194Y29056D01*
Y33694D01*
X246661Y40161D01*
Y41728D01*
G01X247150Y32500D02*
X243000D01*
G01X224908Y74700D02*
X227418D01*
X229000Y73118D01*
Y68882D01*
X228118Y68000D01*
X228000D01*
X226000Y66000D01*
G01X234500Y72000D02*
Y65000D01*
G01X225047Y86937D02*
X229500D01*
G01X219000Y89000D02*
X221000Y87000D01*
Y85500D01*
X221531Y84969D01*
X225047D01*
G01X234500Y86000D02*
X232500Y84000D01*
Y83000D01*
X230531Y81031D01*
X225047D01*
G01X239500Y79000D02*
Y72000D01*
G01Y86000D02*
Y79000D01*
G01X249000Y88000D02*
Y91500D01*
X242500Y98000D01*
X229000D01*
X227000Y100000D01*
Y111000D01*
X231000Y115000D01*
Y117350D01*
X232150Y118500D01*
G01X246750Y119000D02*
X245000Y117250D01*
Y115000D01*
X240500Y110500D01*
X237000D01*
G01X246750Y119000D02*
X236500Y129250D01*
Y136500D01*
X239000Y139000D01*
X242389D01*
X243161Y138228D01*
G01X240000Y136500D02*
Y132500D01*
X243500Y129000D01*
X243650D01*
G01X246750Y163000D02*
X243161Y159411D01*
Y153772D01*
G01X225500Y194000D02*
Y186646D01*
X228146Y184000D01*
X231241D01*
G01X251780Y41728D02*
Y37720D01*
X252000Y37500D01*
G01X249220Y41728D02*
Y37720D01*
X249000Y37500D01*
G01X254339Y41728D02*
Y32989D01*
X253850Y32500D01*
G01X249500Y61280D02*
X249220Y61000D01*
Y57272D01*
G01X253500Y61280D02*
X252280D01*
X251780Y60780D01*
Y57272D01*
G01X263500Y68000D02*
X254339Y58839D01*
Y57272D01*
G01X254000Y67250D02*
X252250Y65500D01*
X249500D01*
X247200Y63200D01*
Y61225D01*
X246661Y60686D01*
Y57272D01*
G01X249000Y88000D02*
X255500D01*
X256000Y87500D01*
G01X261000D02*
Y88000D01*
X257000Y92000D01*
Y95500D01*
G01X248280Y138228D02*
Y134220D01*
X248500Y134000D01*
G01X245720Y138228D02*
Y135872D01*
X243898Y134050D01*
G01X250839Y138228D02*
Y129489D01*
X250350Y129000D01*
G01X259000Y122000D02*
X257000Y124000D01*
X248000D01*
X243650Y128350D01*
Y129000D01*
G01X245720Y153772D02*
Y157780D01*
X245500Y158000D01*
G01X248280Y153772D02*
Y157780D01*
X248500Y158000D01*
G01X263500Y157500D02*
X252339D01*
X250839Y156000D01*
Y153772D01*
G01X300500Y30000D02*
Y22500D01*
G54D48*
X167500Y147295D03*
Y171705D03*
G54D39*
X132250Y68000D03*
X124750D03*
X144250Y145000D03*
X151750D03*
X210250Y67000D03*
X202750D03*
X205250Y164500D03*
X197750D03*
G54D57*
X242728Y45661D03*
Y48220D03*
Y50780D03*
Y53339D03*
X239228Y142161D03*
Y144720D03*
Y147280D03*
Y149839D03*
X258272Y45661D03*
Y53339D03*
Y50780D03*
Y48220D03*
X254772Y144720D03*
Y142161D03*
Y149839D03*
Y147280D03*
G54D67*
G01X-1850Y62000D02*
X-2500Y61350D01*
Y55000D01*
G01X-4500Y69000D02*
X-7000D01*
G01X-400D02*
X-4500D01*
G01X-400D02*
X-1500Y67900D01*
Y62350D01*
X-1850Y62000D01*
G01X-4559Y51000D02*
Y52941D01*
X-2500Y55000D01*
G01X4850Y62000D02*
X6500Y60350D01*
Y57000D01*
G01X5400Y69000D02*
Y74900D01*
X9000Y78500D01*
Y88400D01*
G01X32500Y138350D02*
X29148D01*
G01X32500D02*
Y141502D01*
G01X105500Y165998D02*
Y169150D01*
G01X102148D02*
X105500D01*
G01X113000Y167248D02*
Y170000D01*
G01X110398D02*
X113000D01*
G01D02*
X115602D01*
G01X120500Y166850D02*
Y170002D01*
G01X117148Y166850D02*
X120500D01*
G01D02*
X123852D01*
G01X121448Y186000D02*
X124350D01*
G01X132250Y72000D02*
Y68000D01*
G01X144498Y159150D02*
X149500D01*
G01X133650Y177698D02*
Y186000D01*
G01D02*
Y194302D01*
G01Y186000D02*
X136552D01*
G01X144498Y174850D02*
X149500D01*
G01X124350Y177698D02*
Y186000D01*
G01D02*
Y194302D01*
G01X167500Y165453D02*
Y171705D01*
G01X149500Y154148D02*
Y159150D01*
G01D02*
Y164152D01*
G01Y159150D02*
X154502D01*
G01X149500Y169848D02*
Y174850D01*
G01X167500Y171705D02*
Y177957D01*
G01X161098Y171705D02*
X167500D01*
G01D02*
X173902D01*
G01X149500Y174850D02*
Y179852D01*
G01Y174850D02*
X154502D01*
G01X190500Y187500D02*
Y180500D01*
G01X244500Y185500D02*
Y187500D01*
X246400Y189400D01*
G01X270500Y186000D02*
X265850D01*
X265500Y185650D01*
G01X265000Y178500D02*
X259300D01*
X257200Y180600D01*
G01X265000Y178500D02*
Y185150D01*
X265500Y185650D01*
G01X249800Y180600D02*
Y173200D01*
X250000Y173000D01*
G01D02*
X244500D01*
G01X265500Y192350D02*
X273150D01*
G01X246400Y189400D02*
X253500D01*
G01X270500Y186000D02*
X273500D01*
G01X273150Y192350D02*
X277500Y188000D01*
Y185000D01*
G54D58*
X243161Y138228D03*
Y153772D03*
X254339Y41728D03*
X251780D03*
X249220D03*
X246661D03*
Y57272D03*
X249220D03*
X251780D03*
X254339D03*
X250839Y138228D03*
X248280D03*
X245720D03*
Y153772D03*
X248280D03*
X250839D03*
G54D49*
X182000Y23400D03*
X311600Y119500D03*
G54D68*
G01X-2000Y39241D02*
Y33500D01*
X-3000Y32500D01*
G01D02*
X-4559Y34059D01*
Y39241D01*
G01X559Y47759D02*
Y49941D01*
X-500Y51000D01*
X-4559D01*
G01D02*
Y47759D01*
G01X20848Y11250D02*
X25000D01*
G01X17500Y42000D02*
X21500D01*
G01Y29000D02*
X17500D01*
G01X21500Y35500D02*
X17500D01*
G01X2000Y29898D02*
Y32500D01*
G01D02*
Y35102D01*
G01X21500Y32898D02*
Y35500D01*
G01D02*
Y38102D01*
G01Y26398D02*
Y29000D01*
G01D02*
Y31602D01*
G01X559Y39241D02*
Y36441D01*
G01Y39241D02*
Y41941D01*
X-1000Y43500D01*
X-2000D01*
G01X21204Y93498D02*
Y95500D01*
G01D02*
Y97502D01*
G01Y95500D02*
X23406D01*
G01X21204Y88498D02*
Y90500D01*
G01D02*
Y92502D01*
G01Y90500D02*
X23406D01*
G01X20000Y100398D02*
Y103000D01*
G01D02*
Y105602D01*
G01Y103000D02*
X22752D01*
G01X20000Y106898D02*
Y109500D01*
G01D02*
Y112102D01*
G01Y109500D02*
X22752D01*
G01X43500Y-1000D02*
Y2500D01*
X43000Y3000D01*
G01X25000Y11250D02*
Y14802D01*
G01Y11250D02*
X29152D01*
G01X31000Y41000D02*
X29500Y39500D01*
Y38117D01*
X26883Y35500D01*
X26500D01*
G01Y42000D02*
X31000Y46500D01*
G01Y32500D02*
X30000D01*
X26500Y29000D01*
G01X36988Y56717D02*
X30217D01*
X28500Y55000D01*
G01X23500Y52000D02*
X24500Y53000D01*
X26500D01*
X28500Y55000D01*
G01X30650Y76648D02*
Y80000D01*
G01D02*
Y83352D01*
G01X27498Y80000D02*
X30650D01*
G01X47000Y123250D02*
Y124100D01*
G01X41000Y157500D02*
Y161319D01*
G01Y167500D02*
X42969Y169469D01*
X47181D01*
G01X38000Y178000D02*
X39031Y176969D01*
Y173681D01*
G01X59500Y-1000D02*
Y2500D01*
X59000Y3000D01*
G01X65500D02*
X64500Y2000D01*
G01X48500Y-1000D02*
Y2000D01*
G01X64500D02*
Y-1000D01*
G01X48500Y2000D02*
X49500Y3000D01*
G01X49000Y75000D02*
X55000D01*
X56000Y76500D01*
G01D02*
Y78000D01*
X58500Y80500D01*
G01X67000Y81000D02*
Y77000D01*
G01Y86000D02*
Y90000D01*
G01X70898Y86000D02*
X73500D01*
G01X51350Y80000D02*
Y83352D01*
G01Y80000D02*
X54502D01*
G01X57000Y90000D02*
X56000D01*
G01X58500Y88500D02*
X57000Y90000D01*
G01X58500Y85500D02*
Y88500D01*
G01X72000Y90000D02*
X70000D01*
G01X71500Y168500D02*
X67000D01*
G01X51000Y167500D02*
X47181D01*
G01X50000Y174500D02*
Y171000D01*
X48469Y169469D01*
X47181D01*
G01X63500Y183000D02*
Y179000D01*
X64000Y178500D01*
G01X51000Y175500D02*
X50000Y174500D01*
G01X85500Y-1000D02*
Y2500D01*
X86000Y3000D01*
G01X90500Y-1000D02*
Y2000D01*
G01D02*
X91500Y3000D01*
G01X73500Y81000D02*
X74000D01*
Y77000D01*
G01X88500Y82000D02*
Y78000D01*
G01X86256Y97650D02*
X87406Y96500D01*
X89000D01*
X90000Y95500D01*
G01X83460Y78100D02*
X83500Y78140D01*
Y82000D01*
G01X95000Y86500D02*
Y89252D01*
G01X92398Y86500D02*
X95000D01*
G01D02*
X97602D01*
G01X73500Y86000D02*
X76102D01*
G01X83500Y82000D02*
Y84602D01*
G01X80748Y82000D02*
X83500D01*
G01X73500Y86000D02*
Y88500D01*
X72000Y90000D01*
G01X82500Y143953D02*
Y148000D01*
X85500Y151000D01*
G01X87000Y131000D02*
Y127000D01*
G01X85050Y170550D02*
X86950D01*
X88500Y169000D01*
Y150000D01*
X86437Y147937D01*
Y147563D01*
G01X80531Y161047D02*
Y157031D01*
X78500Y155000D01*
G01X109260Y5500D02*
X116740D01*
G01D02*
X120500D01*
G01X116740Y17500D02*
X119500D01*
X120500Y16500D01*
G01X109260Y17500D02*
X116740D01*
G01X109260Y8059D02*
X106059D01*
G01X109260Y20059D02*
X106059D01*
G01X116740Y14941D02*
X118559D01*
X120500Y13000D01*
G01Y2500D02*
X120059Y2941D01*
X116740D01*
G01X106500Y31000D02*
X108500Y29000D01*
Y26500D01*
G01X112000Y31000D02*
X111000D01*
X110400Y31600D01*
Y33100D01*
X108500Y35000D01*
G01X120000Y43000D02*
X116350D01*
X115350Y42000D01*
G01X120000Y43000D02*
X125000D01*
X129350Y38650D01*
Y35000D01*
G01X113500D02*
X117000D01*
X118000Y34000D01*
G01X113500Y26500D02*
X118000D01*
G01X108500Y54500D02*
Y58500D01*
G01X113500Y54500D02*
Y58500D01*
G01Y51898D02*
Y54500D01*
G01D02*
X116252D01*
G01X120000Y68000D02*
X119500Y67500D01*
G01X124750Y68000D02*
X120000D01*
G01X103500Y86198D02*
Y89750D01*
G01D02*
Y93302D01*
G01X99348Y89750D02*
X103500D01*
G01D02*
X107652D01*
G01X145000Y69500D02*
X144500Y69000D01*
Y65500D01*
G01X124750Y68000D02*
Y72152D01*
G01Y68000D02*
X125000Y67750D01*
Y62500D01*
G01X133031Y76744D02*
Y72781D01*
X132250Y72000D01*
G01X126500Y96000D02*
X127500Y95000D01*
X129500D01*
X131063Y93437D01*
Y92256D01*
G01X126000Y100000D02*
X126500Y99500D01*
Y96000D01*
G01X131063Y76744D02*
Y75563D01*
X130000Y74500D01*
X125500D01*
X124000Y76000D01*
G01D02*
Y79000D01*
X125563Y80563D01*
X127244D01*
G01X147500Y91000D02*
X144937Y88437D01*
X142756D01*
G01Y84500D02*
X135000D01*
G01X142756Y88437D02*
X138937D01*
X135000Y84500D01*
G01X142756Y80563D02*
X138937D01*
G01D02*
X136969Y82531D01*
G01X138937Y80563D02*
Y76744D01*
G01X136969Y82531D02*
X135000Y84500D01*
G01X127244Y86469D02*
X133031D01*
X135000Y84500D01*
G01X127244Y82531D02*
X133031D01*
X135000Y84500D01*
G01X136969Y76744D02*
Y82531D01*
G01X138937Y76744D02*
X143256D01*
X144500Y75500D01*
Y73500D01*
G01X141500D02*
X137500D01*
X136969Y74031D01*
Y76744D01*
G01X142756Y84500D02*
X147000D01*
X147500Y84000D01*
G01X122500Y87000D02*
X123031Y86469D01*
X127244D01*
G01X126000Y105000D02*
Y109500D01*
G01X169000Y57698D02*
Y61250D01*
G01X164848D02*
X169000D01*
G01X152500Y63500D02*
Y60500D01*
G01X169000Y61250D02*
X173750D01*
G01X169563Y92256D02*
Y93437D01*
X168000Y95000D01*
X167000D01*
G01D02*
Y98500D01*
X168000Y99500D01*
G01X165744Y80563D02*
X164563D01*
X162500Y78500D01*
Y75500D01*
G01D02*
X163500Y74500D01*
X168500D01*
X169563Y75563D01*
Y76744D01*
G01X165744Y86469D02*
X160469D01*
X159500Y85500D01*
G01X165744Y82531D02*
X165762Y82513D01*
X170513D01*
X172500Y84500D01*
X173500D01*
G01X168000Y104500D02*
Y109000D01*
G01X167498Y188500D02*
X170650D01*
G01X194000Y3150D02*
X198150D01*
G01X194000Y16248D02*
Y19000D01*
G01X191398D02*
X194000D01*
G01Y-2D02*
Y3150D01*
G01X190500Y62000D02*
Y57500D01*
G01X190000Y70000D02*
X189500Y70500D01*
Y74000D01*
G01X186750Y57500D02*
Y61250D01*
G01D02*
X184500Y63500D01*
G01X186750Y53998D02*
Y57500D01*
G01X184348D02*
X186750D01*
G01X177000Y61748D02*
Y64500D01*
G01X174398D02*
X177000D01*
G01X173750Y61250D02*
X175000Y60000D01*
G01X180000Y64500D02*
X181000Y63500D01*
G01X177000Y64500D02*
X180000D01*
G01X200500Y81000D02*
X194250D01*
X192500Y79250D01*
G01D02*
X194000Y77750D01*
Y74000D01*
G01X192500Y86750D02*
Y92000D01*
G01X186000Y91000D02*
X183437Y88437D01*
X181256D01*
G01D02*
X181193Y88500D01*
X178000D01*
X174000Y84500D01*
X173500D01*
G01D02*
X175469Y82531D01*
G01X177437Y76744D02*
Y80563D01*
X175469Y82531D01*
G01D02*
Y76744D01*
G01X181000Y72500D02*
X180500Y73000D01*
X177000D01*
G01X177437Y76744D02*
X181056D01*
G01X184500Y77500D02*
Y78605D01*
G01X186000Y84000D02*
X185500Y84500D01*
X181256D01*
G01X177000Y73000D02*
X175469Y74531D01*
Y76744D01*
G01X181056D02*
X184000Y73800D01*
Y72500D01*
G01X184500Y78605D02*
X182542Y80563D01*
X181256D01*
G01X187350Y119148D02*
Y122500D01*
G01D02*
X189850Y125000D01*
X192000D01*
G01X184000Y135500D02*
Y139000D01*
X185000Y140000D01*
G01X181398Y135500D02*
X184000D01*
G01X187000Y160000D02*
Y155000D01*
G01X197750Y164500D02*
X193000D01*
G01X182000Y160000D02*
X183250Y158750D01*
G01D02*
Y155000D01*
G01Y151498D02*
Y155000D01*
G01X180848D02*
X183250D01*
G01X184791Y188484D02*
X189516D01*
X190500Y187500D01*
G01X189150Y172148D02*
Y175500D01*
G01D02*
Y178852D01*
G01X170650Y188500D02*
Y191852D01*
G01X220500Y-4500D02*
X216500D01*
G01X212500Y-2000D02*
Y-6000D01*
G01X205500Y-2000D02*
Y-6000D01*
G01X217500Y7500D02*
X217000D01*
X212500Y3000D01*
G01X217016Y11594D02*
Y7984D01*
X217500Y7500D01*
G01X205500Y3000D02*
Y6000D01*
X207000Y7500D01*
X210500D01*
G01D02*
X213500D01*
X215047Y9047D01*
Y11594D01*
G01X212000Y23000D02*
X212094Y22906D01*
Y20453D01*
G01X223906Y16516D02*
X218984D01*
X218000Y17500D01*
G01D02*
X217045D01*
X214092Y20453D01*
X212094D01*
G01X218000Y17500D02*
Y17547D01*
X220806Y20353D01*
Y21261D01*
X220953Y21408D01*
Y23406D01*
G01X198150Y3150D02*
X199000Y4000D01*
G01X202898Y-2000D02*
X205500D01*
G01D02*
X208102D01*
G01X209898D02*
X212500D01*
G01D02*
X215102D01*
G01X209839Y33445D02*
Y31161D01*
X212000Y29000D01*
G01X217500Y46150D02*
X218000Y45650D01*
Y41500D01*
G01X212000Y59000D02*
X207500D01*
G01X210250Y67000D02*
X208500Y68750D01*
Y72500D01*
G01X202500Y59000D02*
Y66750D01*
X202750Y67000D01*
G01X202161Y51555D02*
Y58661D01*
X202500Y59000D01*
G01X202750Y67000D02*
X203500Y67750D01*
Y72500D01*
G01X200500Y81000D02*
X200531Y81031D01*
X207953D01*
G01X200500Y86000D02*
Y90000D01*
G01X212500Y97500D02*
Y93500D01*
G01X219500Y102500D02*
X217500Y104500D01*
Y106500D01*
G01D02*
X217016Y106984D01*
Y110594D01*
G01X215047D02*
Y107547D01*
X214000Y106500D01*
X210500D01*
G01D02*
Y104500D01*
X212500Y102500D01*
G01X218000Y116500D02*
X218984Y115516D01*
G01X218000Y116500D02*
X215194Y119306D01*
X214239D01*
X214092Y119453D01*
X212094D01*
G01X218000Y116500D02*
X220806Y119306D01*
Y120261D01*
X220953Y120408D01*
Y122406D01*
G01X223906Y113547D02*
X221908D01*
X221761Y113694D01*
X220806D01*
X218984Y115516D01*
G01X212094Y119453D02*
X212500Y119859D01*
Y122000D01*
G01X199000Y112100D02*
Y115500D01*
G01X204000Y98000D02*
Y101500D01*
G01X199000Y115500D02*
Y118102D01*
G01X196248Y115500D02*
X199000D01*
G01X210000Y129000D02*
X208055Y130945D01*
X206339D01*
G01X214000Y143650D02*
Y139500D01*
G01X219000Y140000D02*
X220150Y141150D01*
G01X210648Y143650D02*
X214000D01*
G01D02*
X217352D01*
G01X204000Y156500D02*
X208000D01*
G01X205250Y164500D02*
X210000D01*
G01X199000Y156500D02*
Y163250D01*
X197750Y164500D01*
G01X198661Y149055D02*
Y156161D01*
X199000Y156500D01*
G01X196209Y186000D02*
Y186516D01*
G01X203500Y182000D02*
Y175500D01*
G01X208000Y191398D02*
Y194000D01*
G01D02*
Y196602D01*
G01X212500Y170348D02*
Y174500D01*
G01D02*
Y178652D01*
G01X208348Y174500D02*
X212500D01*
G01D02*
X216652D01*
G01X220500Y-7252D02*
Y-4500D01*
G01D02*
X223102D01*
G01X260500Y9000D02*
X252500D01*
X247500Y4000D01*
X240500D01*
G01X223906Y14547D02*
X227016D01*
X227500Y14063D01*
G01X223906Y20453D02*
X227016D01*
X227500Y20937D01*
G01Y17500D02*
X226516Y16516D01*
X223906D01*
G01X238850Y22500D02*
X241000Y20350D01*
Y17500D01*
G01X242728Y45661D02*
X241161D01*
X238500Y43000D01*
G01X234500Y47000D02*
Y42500D01*
X233000Y41000D01*
G01X227500D02*
Y44650D01*
G01X242728Y48220D02*
X240220D01*
X238500Y46500D01*
G01X224500Y23500D02*
X224406Y23406D01*
X220953D01*
G01X242728Y50780D02*
X249220D01*
X250500Y49500D01*
G01X234500Y52000D02*
X235720Y50780D01*
X242728D01*
G01X227500Y51350D02*
Y56000D01*
G01X234500Y52000D02*
X228150D01*
X227500Y51350D01*
G01X238500Y53500D02*
X238661Y53339D01*
X242728D01*
G01X239500Y65000D02*
X244000Y69500D01*
G01X232000Y76000D02*
X234500Y78500D01*
Y79000D01*
G01X219500Y97500D02*
Y93500D01*
G01X229500Y83500D02*
X229000Y83000D01*
X225047D01*
G01X237000Y100500D02*
X244500D01*
X249500Y105500D01*
X257000D01*
G01X223906Y119453D02*
X227016D01*
X227500Y119937D01*
G01X238850Y118500D02*
X238500Y118850D01*
Y123500D01*
G01X218984Y115516D02*
X223906D01*
G01X227500Y116000D02*
X227016Y115516D01*
X223906D01*
G01X224000Y110500D02*
X223906Y110594D01*
Y113547D01*
G01X238850Y118500D02*
Y121852D01*
G01X239228Y142161D02*
X237661D01*
X235000Y139500D01*
G01X239228Y144720D02*
X236720D01*
X235000Y143000D01*
G01X220150Y141150D02*
X224000D01*
G01X225000Y123000D02*
X224406Y122406D01*
X220953D01*
G01X224000Y137998D02*
Y141150D01*
G01D02*
X227352D01*
G01X231000Y142000D02*
Y138500D01*
G01X239228Y147280D02*
X245720D01*
X247000Y146000D01*
G01X224000Y152500D02*
Y147850D01*
G01D02*
X224850Y147000D01*
X231000D01*
G01D02*
X235440D01*
X235720Y147280D01*
X239228D01*
G01Y149839D02*
X236661D01*
X235000Y151500D01*
G01X233150Y169648D02*
Y173000D01*
G01X239759Y183259D02*
Y184000D01*
G01X228500Y190000D02*
Y188000D01*
X229941Y186559D01*
X231241D01*
G01Y181441D02*
X228441D01*
G01X239759Y186559D02*
X237059D01*
X235500Y185000D01*
Y184000D01*
G01X239759Y186559D02*
Y188161D01*
G01Y186559D02*
X242461D01*
G01X233150Y173000D02*
Y176352D01*
G01X224000Y173150D02*
X227352D01*
G01X220648D02*
X224000D01*
G01Y169998D02*
Y173150D01*
G01X270000Y9500D02*
X269500Y9000D01*
X260500D01*
G01X270000Y3000D02*
X269000Y4000D01*
X260500D01*
G01X267398Y-2000D02*
X270000D01*
G01X266650Y43500D02*
Y50350D01*
X266500Y50500D01*
G01X266650Y43500D02*
Y39350D01*
X267500Y38500D01*
G01X258272Y45661D02*
X259839D01*
X262500Y43000D01*
G01X258272Y50780D02*
X266220D01*
X266500Y50500D01*
G01X258272Y53339D02*
X260839D01*
X262500Y55000D01*
G01X249000Y83000D02*
X253500D01*
G01X266500Y90000D02*
Y94500D01*
G01X263500Y74248D02*
Y79000D01*
G01D02*
Y83752D01*
G01X258748Y79000D02*
X263500D01*
G01D02*
X268252D01*
G01X266500Y106000D02*
X267000Y105500D01*
X270500D01*
G01X257000D02*
X266000D01*
X266500Y106000D01*
G01Y99500D02*
X267000Y100000D01*
X270500D01*
G01X257000Y100500D02*
X265500D01*
X266500Y99500D01*
G01Y111000D02*
X270500D01*
G01X263150Y139500D02*
Y146850D01*
X263000Y147000D01*
G01X263150Y139500D02*
Y135350D01*
X264000Y134500D01*
G01X254772Y142161D02*
X256339D01*
X259000Y139500D01*
G01X263000Y147000D02*
X262720Y147280D01*
X254772D01*
G01Y149839D02*
X257339D01*
X259000Y151500D01*
G01X265000Y173500D02*
Y169500D01*
G01X253500Y189400D02*
X256502D01*
G01X253500D02*
Y193152D01*
G01Y185648D02*
Y189400D01*
G01X270000Y-4752D02*
Y-2000D01*
G01Y9500D02*
X274000D01*
G01X270000Y3000D02*
X274000D01*
G01X270000Y14500D02*
X274000D01*
G01X270000Y-2000D02*
X274000D01*
G01X283000Y46500D02*
X278500D01*
G01X281500Y26250D02*
X281250Y26000D01*
X276000D01*
G01X283000Y41500D02*
Y35250D01*
X281500Y33750D01*
G01X283000Y41500D02*
X284000Y42500D01*
X290500D01*
G01X281500Y33750D02*
X281250Y34000D01*
X276000D01*
G01X273350Y43500D02*
Y39350D01*
X272500Y38500D01*
G01X271500Y50500D02*
Y54000D01*
X272500Y55000D01*
G01X277980Y91500D02*
X278921Y92441D01*
X281740D01*
G01X292760Y97559D02*
X289941D01*
X289000Y98500D01*
G01X274260Y97559D02*
Y101260D01*
G01X289000Y144500D02*
X288500Y144000D01*
X281500D01*
G01D02*
Y140000D01*
G01X269850Y139500D02*
X275000D01*
G01X268000Y144398D02*
Y147000D01*
G01X269850Y136148D02*
Y139500D01*
G01D02*
Y142852D01*
G01X289000Y157000D02*
Y164500D01*
G01X274500Y157500D02*
X280500D01*
G01X274500Y174000D02*
Y169500D01*
G01X268000Y147000D02*
X272000D01*
G01X273500Y150500D02*
X275000Y149000D01*
G01D02*
X281500D01*
G01X274500Y153348D02*
Y157500D01*
G01Y161652D02*
Y157500D01*
G01X268000Y147000D02*
Y149602D01*
G01X270348Y157500D02*
X274500D01*
G01Y179000D02*
X274000Y179500D01*
X270500D01*
G01X281500Y179000D02*
X274500D01*
G01X271898Y174000D02*
X274500D01*
G01D02*
X277102D01*
G01X313000Y20000D02*
X317500D01*
G01X313000D02*
Y13000D01*
G01X305500Y30000D02*
Y22500D01*
G01X313000Y43000D02*
X306000D01*
X305500Y42500D01*
G01X313000Y47000D02*
Y43000D01*
G01Y25000D02*
X317500D01*
G01X313000Y38000D02*
X316000D01*
G01D02*
X317500Y36500D01*
G01X292760Y97559D02*
X295441D01*
X296500Y96500D01*
Y93500D01*
X297559Y92441D01*
X300240D01*
G01X311600Y95498D02*
Y99500D01*
G01Y85498D02*
Y89500D01*
G01D02*
Y93502D01*
G01X307598Y89500D02*
X311600D01*
G01D02*
X315602D01*
G01X311600Y99500D02*
Y103502D01*
G01X307598Y99500D02*
X311600D01*
G01D02*
X315602D01*
G01X311500Y142000D02*
X315500D01*
G01X304000Y144500D02*
X308500D01*
X311000Y147000D01*
X311500D01*
G01X313000Y162250D02*
X313250Y162500D01*
X318500D01*
G01X311500Y147000D02*
Y153250D01*
X313000Y154750D01*
G01D02*
X313250Y154500D01*
X318500D01*
G01X317500Y36500D02*
Y34000D01*
G54D59*
X231241Y181441D03*
Y184000D03*
Y186559D03*
X239759D03*
Y184000D03*
Y181441D03*
G54D69*
G01X9000Y88400D02*
X8018Y89382D01*
X2110D01*
G01Y99618D02*
X6500D01*
X9059Y97059D01*
G01D02*
X2110D01*
G01X95000Y81500D02*
X92000Y78500D01*
Y76500D01*
X89500Y74000D01*
G01X113500Y75150D02*
X115000Y73650D01*
Y70500D01*
G01X120500Y76000D02*
X114350D01*
X113500Y75150D01*
G01X120500Y76000D02*
X124000D01*
G01X113500Y81850D02*
Y86500D01*
G01X120500Y81000D02*
X114350D01*
X113500Y81850D01*
G01X168500Y129000D02*
Y127000D01*
X167000Y125500D01*
X137850D01*
X135850Y123500D01*
G01X160000Y63500D02*
Y67850D01*
X159350Y68500D01*
G01X158500Y75500D02*
Y69350D01*
X159350Y68500D01*
G01X152650D02*
X152500Y68350D01*
Y63500D01*
G01X158500Y75500D02*
X162500D01*
G01X153500D02*
X149500D01*
G01X274260Y95000D02*
X281740D01*
G01X274260D02*
X271500D01*
X270500Y94000D01*
G01X292760Y95000D02*
X289000D01*
G01X292760Y92441D02*
X290941D01*
G01X274260Y91240D02*
Y92441D01*
G01X300240Y97559D02*
X299441D01*
X298500Y98500D01*
G01X281740Y98760D02*
Y97559D01*
G01X294500Y91500D02*
X293559Y92441D01*
X292760D01*
G01X300240Y95000D02*
X304000D01*
G01X300240Y97559D02*
X301559D01*
X302000Y98000D01*
G01X299000Y144500D02*
Y134750D01*
X299500Y134250D01*
M02*
