G04 ================== begin FILE IDENTIFICATION RECORD ==================*
G04 Layout Name:  C:/tmp/20_037760d/worklib/02_037760d_top/physical/08_037760d.brd*
G04 Film Name:    l3_vdd*
G04 File Format:  Gerber RS274X*
G04 File Origin:  Cadence Allegro 16.5-S052*
G04 Origin Date:  Tue Jan 06 12:18:48 2015*
G04 *
G04 Layer:  VIA CLASS/L3_VDD*
G04 Layer:  PIN/L3_VDD*
G04 Layer:  ETCH/L3_VDD*
G04 Layer:  BOARD GEOMETRY/TOOLING_CORNERS*
G04 Layer:  BOARD GEOMETRY/LYR_3*
G04 Layer:  BOARD GEOMETRY/ROOT_NUMBER*
G04 *
G04 Offset:    (0.00 0.00)*
G04 Mirror:    No*
G04 Mode:      Negative*
G04 Rotation:  0*
G04 FullContactRelief:  No*
G04 UndefLineWidth:     8.00*
G04 ================== end FILE IDENTIFICATION RECORD ====================*
%FSLAX55Y55*MOIN*%
%IR0*IPPOS*OFA0.00000B0.00000*MIA0B0*SFA1.00000B1.00000*%
%ADD13C,.032*%
%AMMACRO14*
4,1,26,-.03056,-.01995,
-.03123,-.018168,
-.031795,-.01635,
-.032254,-.014502,
-.032604,-.012631,
-.032845,-.010743,
-.032976,-.008843,
-.033,-.00788,
-.033,.00766,
-.032934,.00958,
-.032757,.011493,
-.032469,.013393,
-.03207,.015273,
-.031564,.017126,
-.03095,.018946,
-.03056,.01995,
-.02257,.01196,
-.022799,.010522,
-.022943,.009074,
-.02299,.00818,
-.02299,-.0075,
-.023,-.00751,
-.022962,-.008822,
-.022848,-.010129,
-.022658,-.011427,
-.02256,-.01195,
-.03056,-.01995,
90.*
4,1,19,.02173,-.03234,
.017084,-.035736,
.011919,-.038273,
.006392,-.039875,
.000671,-.040493,
-.005071,-.040108,
-.010659,-.038732,
-.015922,-.036406,
-.020702,-.033202,
-.02173,-.03234,
-.01463,-.02524,
-.011331,-.027511,
-.007689,-.029175,
-.003812,-.030182,
.00018,-.030499,
.004167,-.030119,
.008027,-.029052,
.011644,-.027331,
.01463,-.02524,
.02173,-.03234,
90.*
4,1,26,.03056,.01995,
.03123,.018168,
.031795,.01635,
.032254,.014502,
.032604,.012631,
.032845,.010743,
.032976,.008843,
.033,.00788,
.033,-.00766,
.032934,-.00958,
.032757,-.011493,
.032469,-.013393,
.03207,-.015273,
.031564,-.017126,
.03095,-.018946,
.03056,-.01995,
.02257,-.01196,
.022799,-.010522,
.022943,-.009074,
.02299,-.00818,
.02299,.0075,
.023,.00751,
.022962,.008822,
.022848,.010129,
.022658,.011427,
.02256,.01195,
.03056,.01995,
90.*
4,1,19,-.02173,.03234,
-.017084,.035736,
-.011919,.038273,
-.006392,.039875,
-.000671,.040493,
.005071,.040108,
.010659,.038732,
.015922,.036406,
.020702,.033202,
.02173,.03234,
.01463,.02524,
.011331,.027511,
.007689,.029175,
.003812,.030182,
-.00018,.030499,
-.004167,.030119,
-.008027,.029052,
-.011644,.027331,
-.01463,.02524,
-.02173,.03234,
90.*
%
%ADD14MACRO14*%
%ADD17C,.08*%
%ADD20C,.092*%
%AMMACRO12*
4,1,22,-.02448,-.03509,
-.020014,-.038983,
-.014939,-.042041,
-.009411,-.044171,
-.003597,-.045309,
.002327,-.04542,
.008179,-.044501,
.013784,-.04258,
.018969,-.039714,
.023578,-.035992,
.02448,-.03509,
.01741,-.02802,
.014277,-.030792,
.010709,-.032978,
.006817,-.034512,
.002717,-.035346,
-.001465,-.035455,
-.005603,-.034837,
-.00957,-.033509,
-.013247,-.031513,
-.016521,-.028909,
-.01741,-.02802,
-.02448,-.03509,
90.*
4,1,22,.02448,.03509,
.020014,.038983,
.014939,.042041,
.009411,.044171,
.003597,.045309,
-.002327,.04542,
-.008179,.044501,
-.013784,.04258,
-.018969,.039714,
-.023578,.035992,
-.02448,.03509,
-.01741,.02802,
-.014277,.030792,
-.010709,.032978,
-.006817,.034512,
-.002717,.035346,
.001465,.035455,
.005603,.034837,
.00957,.033509,
.013247,.031513,
.016521,.028909,
.01741,.02802,
.02448,.03509,
90.*
4,1,20,-.0324,-.02179,
-.032942,-.019912,
-.033373,-.018006,
-.033693,-.016078,
-.0339,-.014134,
-.033994,-.012182,
-.034,-.01151,
-.034,.01155,
-.033941,.013512,
-.033769,.015468,
-.033482,.01741,
-.033084,.019332,
-.032574,.021228,
-.0324,.02179,
-.02393,.01332,
-.023995,.012083,
-.024,.01169,
-.024,-.01154,
-.023971,-.012717,
-.02393,-.01332,
-.0324,-.02179,
90.*
4,1,20,.0324,.02179,
.032942,.019912,
.033373,.018006,
.033693,.016078,
.0339,.014134,
.033994,.012182,
.034,.01151,
.034,-.01155,
.033941,-.013512,
.033769,-.015468,
.033482,-.01741,
.033084,-.019332,
.032574,-.021228,
.0324,-.02179,
.02393,-.01332,
.023995,-.012083,
.024,-.01169,
.024,.01154,
.023971,.012717,
.02393,.01332,
.0324,.02179,
90.*
%
%ADD12MACRO12*%
%AMMACRO19*
4,1,36,.0025,0.0,
.002462,-.000434,
.002349,-.000855,
.002165,-.00125,
.001915,-.001607,
.001607,-.001915,
.00125,-.002165,
.000855,-.002349,
.000434,-.002462,
0.0,-.0025,
-.000434,-.002462,
-.000855,-.002349,
-.00125,-.002165,
-.001607,-.001915,
-.001915,-.001607,
-.002165,-.00125,
-.002349,-.000855,
-.002462,-.000434,
-.0025,0.0,
-.002462,.000434,
-.002349,.000855,
-.002165,.00125,
-.001915,.001607,
-.001607,.001915,
-.00125,.002165,
-.000855,.002349,
-.000434,.002462,
0.0,.0025,
.000434,.002462,
.000855,.002349,
.00125,.002165,
.001607,.001915,
.001915,.001607,
.002165,.00125,
.002349,.000855,
.002462,.000434,
.0025,0.0,
90.*
%
%ADD19MACRO19*%
%AMMACRO18*
4,1,36,-.0025,0.0,
-.002462,-.000434,
-.002349,-.000855,
-.002165,-.00125,
-.001915,-.001607,
-.001607,-.001915,
-.00125,-.002165,
-.000855,-.002349,
-.000434,-.002462,
0.0,-.0025,
.000434,-.002462,
.000855,-.002349,
.00125,-.002165,
.001607,-.001915,
.001915,-.001607,
.002165,-.00125,
.002349,-.000855,
.002462,-.000434,
.0025,0.0,
.002462,.000434,
.002349,.000855,
.002165,.00125,
.001915,.001607,
.001607,.001915,
.00125,.002165,
.000855,.002349,
.000434,.002462,
0.0,.0025,
-.000434,.002462,
-.000855,.002349,
-.00125,.002165,
-.001607,.001915,
-.001915,.001607,
-.002165,.00125,
-.002349,.000855,
-.002462,.000434,
-.0025,0.0,
90.*
%
%ADD18MACRO18*%
%AMMACRO11*
4,1,36,.0025,0.0,
.002462,-.000434,
.002349,-.000855,
.002165,-.00125,
.001915,-.001607,
.001607,-.001915,
.00125,-.002165,
.000855,-.002349,
.000434,-.002462,
0.0,-.0025,
-.000434,-.002462,
-.000855,-.002349,
-.00125,-.002165,
-.001607,-.001915,
-.001915,-.001607,
-.002165,-.00125,
-.002349,-.000855,
-.002462,-.000434,
-.0025,0.0,
-.002462,.000434,
-.002349,.000855,
-.002165,.00125,
-.001915,.001607,
-.001607,.001915,
-.00125,.002165,
-.000855,.002349,
-.000434,.002462,
0.0,.0025,
.000434,.002462,
.000855,.002349,
.00125,.002165,
.001607,.001915,
.001915,.001607,
.002165,.00125,
.002349,.000855,
.002462,.000434,
.0025,0.0,
0.0*
%
%ADD11MACRO11*%
%AMMACRO15*
4,1,26,-.03056,-.01995,
-.03123,-.018168,
-.031795,-.01635,
-.032254,-.014502,
-.032604,-.012631,
-.032845,-.010743,
-.032976,-.008843,
-.033,-.00788,
-.033,.00766,
-.032934,.00958,
-.032757,.011493,
-.032469,.013393,
-.03207,.015273,
-.031564,.017126,
-.03095,.018946,
-.03056,.01995,
-.02257,.01196,
-.022799,.010522,
-.022943,.009074,
-.02299,.00818,
-.02299,-.0075,
-.023,-.00751,
-.022962,-.008822,
-.022848,-.010129,
-.022658,-.011427,
-.02256,-.01195,
-.03056,-.01995,
270.*
4,1,19,.02173,-.03234,
.017084,-.035736,
.011919,-.038273,
.006392,-.039875,
.000671,-.040493,
-.005071,-.040108,
-.010659,-.038732,
-.015922,-.036406,
-.020702,-.033202,
-.02173,-.03234,
-.01463,-.02524,
-.011331,-.027511,
-.007689,-.029175,
-.003812,-.030182,
.00018,-.030499,
.004167,-.030119,
.008027,-.029052,
.011644,-.027331,
.01463,-.02524,
.02173,-.03234,
270.*
4,1,26,.03056,.01995,
.03123,.018168,
.031795,.01635,
.032254,.014502,
.032604,.012631,
.032845,.010743,
.032976,.008843,
.033,.00788,
.033,-.00766,
.032934,-.00958,
.032757,-.011493,
.032469,-.013393,
.03207,-.015273,
.031564,-.017126,
.03095,-.018946,
.03056,-.01995,
.02257,-.01196,
.022799,-.010522,
.022943,-.009074,
.02299,-.00818,
.02299,.0075,
.023,.00751,
.022962,.008822,
.022848,.010129,
.022658,.011427,
.02256,.01195,
.03056,.01995,
270.*
4,1,19,-.02173,.03234,
-.017084,.035736,
-.011919,.038273,
-.006392,.039875,
-.000671,.040493,
.005071,.040108,
.010659,.038732,
.015922,.036406,
.020702,.033202,
.02173,.03234,
.01463,.02524,
.011331,.027511,
.007689,.029175,
.003812,.030182,
-.00018,.030499,
-.004167,.030119,
-.008027,.029052,
-.011644,.027331,
-.01463,.02524,
-.02173,.03234,
270.*
%
%ADD15MACRO15*%
%AMMACRO16*
4,1,18,.0245,.0174,
.027149,.012881,
.028974,.007971,
.029918,.002819,
.029953,-.002419,
.029077,-.007584,
.027319,-.012518,
.02473,-.017071,
.0245,-.0174,
.0316,-.0245,
.035374,-.018641,
.038074,-.012215,
.039616,-.005418,
.039955,.001544,
.03908,.008459,
.037018,.015116,
.03383,.021315,
.0316,.0245,
.0245,.0174,
180.*
4,1,18,.0174,-.0245,
.012881,-.027149,
.007971,-.028974,
.002819,-.029918,
-.002419,-.029953,
-.007584,-.029077,
-.012518,-.027319,
-.017071,-.02473,
-.0174,-.0245,
-.0245,-.0316,
-.018641,-.035374,
-.012215,-.038074,
-.005418,-.039616,
.001544,-.039955,
.008459,-.03908,
.015116,-.037018,
.021315,-.03383,
.0245,-.0316,
.0174,-.0245,
180.*
4,1,18,-.0245,-.0174,
-.027149,-.012881,
-.028974,-.007971,
-.029918,-.002819,
-.029953,.002419,
-.029077,.007584,
-.027319,.012518,
-.02473,.017071,
-.0245,.0174,
-.0316,.0245,
-.035374,.018641,
-.038074,.012215,
-.039616,.005418,
-.039955,-.001544,
-.03908,-.008459,
-.037018,-.015116,
-.03383,-.021315,
-.0316,-.0245,
-.0245,-.0174,
180.*
4,1,18,-.0174,.0245,
-.012881,.027149,
-.007971,.028974,
-.002819,.029918,
.002419,.029953,
.007584,.029077,
.012518,.027319,
.017071,.02473,
.0174,.0245,
.0245,.0316,
.018641,.035374,
.012215,.038074,
.005418,.039616,
-.001544,.039955,
-.008459,.03908,
-.015116,.037018,
-.021315,.03383,
-.0245,.0316,
-.0174,.0245,
180.*
%
%ADD16MACRO16*%
%ADD10C,.175*%
%ADD21C,.025*%
%ADD22C,.008*%
G75*
%LPD*%
G75*
G36*
G01X-115700Y-115700D02*
X438600D01*
Y304800D01*
X-115700D01*
Y-115700D01*
G37*
%LPC*%
G75*
G36*
G01X231750Y73404D02*
Y43282D01*
G03Y38718I1250J-2282D01*
G01Y29496D01*
X231618Y29448D01*
G03Y24552I882J-2448D01*
G01X231750Y24504D01*
Y13426D01*
G03Y9574I1750J-1926D01*
G01Y-8696D01*
X110996D01*
Y-9996D01*
X43504D01*
Y-8696D01*
X2D01*
X-8696Y2D01*
Y55750D01*
X4218D01*
G03X8782I2282J1250D01*
G01X12074D01*
G03X15926I1926J1750D01*
G01X20750D01*
Y88250D01*
X40250D01*
Y98718D01*
G03Y103282I-1250J2282D01*
G01Y116718D01*
G03Y121282I-1250J2282D01*
G01Y134250D01*
X100574D01*
G03X104234Y134060I1926J1750D01*
G02X104766I266J-299D01*
G03X108234I1734J1940D01*
G02X108766I266J-299D01*
G03X112426Y134250I1734J1940D01*
G01X115750D01*
Y145718D01*
G03X115846Y150227I-1250J2282D01*
G01X115750Y150285D01*
Y150750D01*
X138750D01*
Y135750D01*
X168750D01*
Y81250D01*
X156782D01*
G03X152218I-2282J-1250D01*
G01X150750D01*
Y65426D01*
G03Y61574I1750J-1926D01*
G01Y27621D01*
G03Y19179I1250J-4221D01*
G01Y3750D01*
X196404D01*
X196432Y3582D01*
G03X201568I2568J418D01*
G01X201596Y3750D01*
X215250D01*
Y71193D01*
G03Y73807I-2250J1307D01*
G01Y122750D01*
X222404D01*
X222432Y122582D01*
G03X227568I2568J418D01*
G01X227596Y122750D01*
X231750D01*
Y78596D01*
X231582Y78568D01*
G03Y73432I418J-2568D01*
G01X231750Y73404D01*
G37*
G36*
G01X11250Y77750D02*
Y95218D01*
G03X12584Y97803I-1250J2282D01*
G02X12981Y98250I397J47D01*
G01X14250D01*
Y118750D01*
X-8696D01*
Y189098D01*
X2Y197796D01*
X89250D01*
Y164750D01*
X81250D01*
Y183250D01*
X32250D01*
Y152750D01*
X37750D01*
Y121282D01*
G03Y116718I1250J-2282D01*
G01Y103282D01*
G03Y98718I1250J-2282D01*
G01Y90750D01*
X18250D01*
Y58250D01*
X16496D01*
X16448Y58382D01*
G03X11552I-2448J-882D01*
G01X11504Y58250D01*
X8782D01*
G03X4218I-2282J-1250D01*
G01X-8696D01*
Y70250D01*
X8250D01*
Y77750D01*
X11250D01*
G37*
G36*
G01X8750Y99782D02*
G03Y95218I1250J-2282D01*
G01Y80250D01*
X5750D01*
Y72750D01*
X-10296D01*
Y80900D01*
X-9100D01*
G03X-5000Y85200I0J4105D01*
G03X-9100Y89400I-4416J-210D01*
G01X-10296D01*
Y99600D01*
X-9100D01*
G03X-5000Y103900I0J4105D01*
G03X-9100Y108100I-4416J-210D01*
G01X-10296D01*
Y116250D01*
X11750D01*
Y100750D01*
X8750D01*
Y99782D01*
G37*
G36*
G01X108234Y137940D02*
G03X104766I-1734J-1940D01*
G02X104234I-266J299D01*
G03X100052Y136882I-1734J-1940D01*
G01X100004Y136750D01*
X40250D01*
Y152750D01*
X77193D01*
G03X79807I1307J2250D01*
G01X81250D01*
Y162250D01*
X91750D01*
Y197796D01*
X113250D01*
Y150282D01*
G03Y145718I1250J-2282D01*
G01Y137868D01*
G02X112537Y137619I-400J0D01*
G03X108766Y137940I-2037J-1619D01*
G02X108234I-266J299D01*
G37*
G36*
G01X78750Y180750D02*
Y157998D01*
G02X78370Y157599I-400J0D01*
G03X75932Y155418I130J-2599D01*
G01X75904Y155250D01*
X34750D01*
Y180750D01*
X78750D01*
G37*
G36*
G01X168750Y138250D02*
X141250D01*
Y153250D01*
X115750D01*
Y197796D01*
X168750D01*
Y138250D01*
G37*
G36*
G01X212750Y69904D02*
Y6250D01*
X200307D01*
G03X197693I-1307J-2250D01*
G01X153250D01*
Y19179D01*
G03Y27621I-1250J4221D01*
G01Y61004D01*
X153382Y61052D01*
G03Y65948I-882J2448D01*
G01X153250Y65996D01*
Y77121D01*
G02X153763Y77504I400J0D01*
G03X156782Y78750I737J2496D01*
G01X171250D01*
Y163250D01*
X188750D01*
Y161307D01*
G03X193282Y158750I2250J-1307D01*
G01X236750D01*
Y175718D01*
G03X237782Y176750I-1250J2282D01*
G01X247250D01*
Y160282D01*
G03Y155718I1250J-2282D01*
G01Y136282D01*
G03Y131718I1250J-2282D01*
G01Y102250D01*
X282250D01*
Y44250D01*
X264782D01*
G03X261250Y40718I-2282J-1250D01*
G01Y28496D01*
X261118Y28448D01*
G03Y23552I882J-2448D01*
G01X261250Y23504D01*
Y20750D01*
X301750D01*
Y27718D01*
G03Y32282I-1250J2282D01*
G01Y54250D01*
X305814D01*
G03X315186I4686J1750D01*
G01X316750D01*
Y36496D01*
X316618Y36448D01*
G03Y31552I882J-2448D01*
G01X316750Y31504D01*
Y27496D01*
X316618Y27448D01*
G03X314901Y25130I882J-2448D01*
G02X314502Y24750I-399J20D01*
G01X312250D01*
Y-8696D01*
X234250D01*
Y9004D01*
X234382Y9052D01*
G03Y13948I-882J2448D01*
G01X234250Y13996D01*
Y25074D01*
G03Y28926I-1750J1926D01*
G01Y38718D01*
G03Y43282I-1250J2282D01*
G01Y74693D01*
G03Y77307I-2250J1307D01*
G01Y125250D01*
X226307D01*
G03X223693I-1307J-2250D01*
G01X212750D01*
Y75096D01*
X212582Y75068D01*
G03Y69932I418J-2568D01*
G01X212750Y69904D01*
G37*
G36*
G01X319670Y160176D02*
G02X320250Y159819I180J-357D01*
G01Y144250D01*
X316807D01*
G03X314193I-1307J-2250D01*
G01X277250D01*
Y113750D01*
X309250D01*
Y113224D01*
X309161Y113164D01*
G03X309250Y105778I2439J-3664D01*
G01Y103222D01*
G03Y95778I2350J-3722D01*
G01Y93222D01*
G03Y85778I2350J-3722D01*
G01Y83222D01*
G03Y75778I2350J-3722D01*
G01Y73222D01*
G03Y65778I2350J-3722D01*
G01Y60843D01*
G03X305582Y56913I1250J-4843D01*
G01X305552Y56750D01*
X299250D01*
Y32282D01*
G03Y27718I1250J-2282D01*
G01Y23250D01*
X263750D01*
Y24073D01*
X263811Y24131D01*
G03X263750Y27926I-1811J1869D01*
G01Y40718D01*
G03X264782Y41750I-1250J2282D01*
G01X284750D01*
Y104750D01*
X249750D01*
Y131718D01*
G03Y136282I-1250J2282D01*
G01Y155718D01*
G03Y160282I-1250J2282D01*
G01Y179250D01*
X237782D01*
G03X234250Y175718I-2282J-1250D01*
G01Y161250D01*
X193282D01*
G03X191418Y162568I-2282J-1250D01*
G01X191250Y162596D01*
Y165750D01*
X171250D01*
Y197796D01*
X265750D01*
Y175250D01*
X303250D01*
Y161250D01*
X316218D01*
G03X319670Y160176I2282J1250D01*
G37*
G36*
G01X314750Y-8696D02*
Y22250D01*
X319250D01*
Y23074D01*
G03Y26926I-1750J1926D01*
G01Y32074D01*
G03Y35926I-1750J1926D01*
G01Y56750D01*
X315448D01*
X315418Y56913D01*
G03X311750Y60843I-4918J-913D01*
G01Y65101D01*
G03Y73899I-150J4399D01*
G01Y75101D01*
G03Y83899I-150J4399D01*
G01Y85101D01*
G03Y93899I-150J4399D01*
G01Y95101D01*
G03Y103899I-150J4399D01*
G01Y105101D01*
G03Y113899I-150J4399D01*
G01Y116250D01*
X279750D01*
Y141750D01*
X312904D01*
X312932Y141582D01*
G03X318068I2568J418D01*
G01X318096Y141750D01*
X322750D01*
Y163750D01*
X320782D01*
G03X316218I-2282J-1250D01*
G01X305750D01*
Y177750D01*
X268250D01*
Y197796D01*
X322898D01*
X331596Y189098D01*
Y2D01*
X322898Y-8696D01*
X314750D01*
G37*
%LPD*%
G75*
G36*
G01X84250Y4750D02*
Y-1250D01*
X48250D01*
Y718D01*
G02X47176Y4170I1250J2282D01*
G03X46819Y4750I-357J180D01*
G01X33750D01*
Y36750D01*
X26250D01*
Y52750D01*
X34250D01*
Y80750D01*
X61750D01*
Y74750D01*
X69250D01*
Y80750D01*
X76504D01*
X76552Y80882D01*
G02X80250Y77718I2448J-882D01*
G01Y74750D01*
X91250D01*
Y80750D01*
X106250D01*
Y60782D01*
G02Y56218I-1250J-2282D01*
G01Y34750D01*
X110750D01*
Y4750D01*
X84250D01*
G37*
%LPC*%
G75*
G36*
G01X51824Y1830D02*
G03X50750Y5282I-2324J1170D01*
G01Y7250D01*
X36250D01*
Y39250D01*
X28750D01*
Y50250D01*
X36750D01*
Y78250D01*
X59250D01*
Y72250D01*
X71750D01*
Y78250D01*
X77074D01*
G03X77750Y77718I1925J1751D01*
G01Y72250D01*
X93750D01*
Y78250D01*
X103750D01*
Y60782D01*
G03Y56218I1250J-2282D01*
G01Y32250D01*
X108250D01*
Y7250D01*
X81750D01*
Y1250D01*
X52181D01*
G02X51824Y1830I0J400D01*
G37*
%LPD*%
G75*
G54D13*
X17500Y42000D03*
Y29000D03*
Y35500D03*
X2500Y36500D03*
X7500Y25500D03*
X6500Y32500D03*
X14000Y63000D03*
Y57500D03*
Y52000D03*
X6500Y57000D03*
Y52500D03*
X10000Y97500D03*
X2500Y114000D03*
X22500D03*
X4000Y157000D03*
X0D03*
X4000Y153500D03*
X0D03*
X12000Y158500D03*
X7500Y166500D03*
X25000Y6000D03*
X48000Y16000D03*
X42500Y38000D03*
X48000Y24000D03*
X42500Y55500D03*
X33000Y75000D03*
X47000Y119500D03*
X31000Y119000D03*
Y101000D03*
X39000D03*
Y119000D03*
X26500Y114000D03*
X25000Y110000D03*
Y106500D03*
Y103000D03*
X46500Y141500D03*
X43500D03*
X32500Y127000D03*
X65500Y3000D03*
X49500D03*
X51500Y20000D03*
X64000Y34000D03*
X56500Y31000D03*
X69000Y29000D03*
X64000D03*
X56500Y35000D03*
Y39000D03*
Y43000D03*
X51500Y28000D03*
X69000Y41000D03*
X48500Y64000D03*
X72500Y63000D03*
X61500D03*
X54500Y54000D03*
Y50000D03*
X48500Y60000D03*
X52500D03*
X70000Y90000D03*
X67000D03*
X53500Y84500D03*
X56000Y90000D03*
X62000Y119500D03*
X66000D03*
X49500Y141500D03*
X62500Y130000D03*
X67000Y168500D03*
X61000Y169000D03*
X64000Y178500D03*
X75000Y2500D03*
X91500Y3000D03*
X86500Y22000D03*
X90500Y32000D03*
X80500Y47000D03*
X87500D03*
X73500Y24500D03*
X74500Y46000D03*
X86500Y26000D03*
X90500D03*
X86500Y30000D03*
X90500Y60000D03*
X80000Y56000D03*
X83500D03*
X80000Y63000D03*
X77000D03*
X83460Y78100D03*
X79000Y80000D03*
X84500Y75500D03*
X80500Y77000D03*
X94000Y112000D03*
X90500D03*
X74500D03*
X87000Y127000D03*
X94500Y140000D03*
Y144000D03*
X76500Y126000D03*
X80500Y130000D03*
Y126000D03*
X85500Y151000D03*
X78500Y155000D03*
X94500Y148000D03*
X106059Y8059D03*
Y20059D03*
X120500Y13000D03*
Y2500D03*
X118000Y34000D03*
Y26500D03*
X115000Y70500D03*
X119500Y67500D03*
X105000Y58500D03*
X113500D03*
Y86500D03*
X105000Y95000D03*
X98000Y91000D03*
X102500Y128000D03*
X106500D03*
Y132000D03*
X102500D03*
Y136000D03*
X110500D03*
X106500D03*
X98500Y140000D03*
X102500D03*
X106500D03*
X110500D03*
X98500Y144000D03*
X102500D03*
X106500D03*
X110500D03*
X114500Y148000D03*
X98500D03*
X102500D03*
X106500D03*
X110500D03*
X131000Y12500D03*
Y7500D03*
X144500D03*
X135500D03*
X144500Y65500D03*
X140500Y50000D03*
X122500Y87000D03*
X141500Y73500D03*
X144500D03*
X122500Y90500D03*
X126000Y109500D03*
X133000D03*
X140000D03*
X123500Y146500D03*
Y144500D03*
Y142500D03*
X135500Y137000D03*
X133500D03*
X135500Y128500D03*
X133500D03*
X130500Y137000D03*
X123500Y148500D03*
X125500Y167000D03*
X149500Y12500D03*
X158500Y47500D03*
X157000Y44000D03*
X152500Y63500D03*
X150500Y96000D03*
X159500Y85500D03*
X149500Y75500D03*
X147500Y91000D03*
Y84000D03*
X149500Y80000D03*
X154500D03*
X168000Y109000D03*
X147000Y109500D03*
X192500Y15000D03*
X194000Y39500D03*
X176000Y44000D03*
X189000Y41000D03*
X184000Y72500D03*
X181000D03*
X175000Y60000D03*
X181000Y63500D03*
X184500D03*
X194500Y62000D03*
X189500Y74000D03*
X192500Y92000D03*
X186000Y84000D03*
X184500Y77500D03*
X186000Y91000D03*
Y87500D03*
Y80500D03*
X178500Y99500D03*
X189500Y112000D03*
X192000Y103500D03*
X194500Y112000D03*
X192000Y121000D03*
Y125000D03*
X185000Y140000D03*
X191000D03*
X180500Y127500D03*
X181000Y140000D03*
X182000Y160000D03*
X191000D03*
X172500Y183000D03*
X190500Y180500D03*
X184500Y175500D03*
X216500Y-4500D03*
X212500Y-6000D03*
X205500D03*
X212000Y23000D03*
X199000Y4000D03*
X196500Y15000D03*
X212000Y29000D03*
X218000Y41500D03*
X202000Y28000D03*
X204720Y46000D03*
X205500Y39000D03*
X219000Y32500D03*
X209126Y45906D03*
X198500Y28000D03*
X212000Y59000D03*
X208500Y72500D03*
X203500D03*
X213000D03*
X216500Y58000D03*
X200500Y90000D03*
X212500Y93500D03*
X219500D03*
X219000Y89000D03*
X212500Y122000D03*
X199000Y112100D03*
X204000Y98000D03*
X212500Y111000D03*
X210000Y129000D03*
X214000Y139500D03*
X219000Y140000D03*
X218000Y127000D03*
X202500Y143500D03*
X198500Y136000D03*
X206339Y143500D03*
X208000Y156500D03*
X210000Y164500D03*
X219000Y173000D03*
Y184500D03*
X206500Y173000D03*
X233500Y11500D03*
X224500Y23500D03*
X227500Y17500D03*
X241000D03*
X226000Y6000D03*
X230000D03*
X238500Y43000D03*
X233000Y41000D03*
X227500D03*
X238500Y46500D03*
X232500Y27000D03*
X236500D03*
X243000Y32500D03*
X227500Y56000D03*
X238500Y53500D03*
X244000Y69500D03*
X229500Y86937D03*
Y83500D03*
X232000Y76000D03*
X224908Y74700D03*
X229000Y76500D03*
X230000Y105500D03*
X224000Y110500D03*
X227500Y116000D03*
X235000Y139500D03*
X238500Y123500D03*
X235000Y143000D03*
X228500Y139000D03*
X225000Y123000D03*
X243898Y134050D03*
X235000Y123000D03*
X240000Y136500D03*
X224000Y152500D03*
X235000Y151500D03*
X244500Y185500D03*
X228500Y173000D03*
X235500Y178000D03*
X262500Y43000D03*
X252000Y37500D03*
X249000D03*
X262000Y26000D03*
X262500Y55000D03*
X249500Y61280D03*
X253500D03*
Y83000D03*
X266500Y90000D03*
X254000Y80000D03*
X259000Y122000D03*
Y139500D03*
X248500Y134000D03*
X262500Y124000D03*
X259000Y151500D03*
X265000Y169500D03*
X245500Y158000D03*
X248500D03*
X259500Y163000D03*
Y173000D03*
X274000Y-2000D03*
Y9500D03*
Y14500D03*
X278500Y46500D03*
X276000Y26000D03*
X272500Y38500D03*
Y55000D03*
X270500Y83000D03*
X277980Y91500D03*
X289000Y98500D03*
X270500Y105500D03*
X272500Y119500D03*
X270500Y111000D03*
X274260Y101260D03*
X275000Y139500D03*
X289000Y157000D03*
X280500Y157500D03*
X274500Y169500D03*
X273500Y150500D03*
X272000Y147000D03*
X277500Y185000D03*
X305500Y30000D03*
X317500Y34000D03*
Y25000D03*
X300500Y30000D03*
X315500Y142000D03*
X294000Y157000D03*
X304500D03*
X318500Y162500D03*
G54D14*
X2922Y84953D03*
G54D17*
X142000Y23400D03*
X152000D03*
X162000D03*
X172000D03*
X182000D03*
X311600Y69500D03*
Y79500D03*
Y89500D03*
Y99500D03*
Y109500D03*
Y119500D03*
G54D20*
X310500Y56000D03*
Y132000D03*
G54D12*
X-9204Y78358D03*
Y110642D03*
G54D19*
X227500Y20937D03*
Y119937D03*
G54D11*
X-4000Y21000D03*
Y17000D03*
X-7000Y69000D03*
X-4500D03*
X10000Y106500D03*
Y110000D03*
Y103000D03*
X43000Y3000D03*
X31000Y41000D03*
Y46500D03*
Y32500D03*
X25000Y24000D03*
X28500Y55000D03*
X36500Y157000D03*
X46000Y159000D03*
X38000Y178000D03*
X59000Y3000D03*
X56000Y76500D03*
X67000Y77000D03*
X69000Y97500D03*
X72000Y139500D03*
X67000D03*
X72000Y143000D03*
X67000D03*
X72000Y162000D03*
X67000D03*
X72000Y158000D03*
X67000D03*
X52000Y159000D03*
X49000D03*
X86000Y3000D03*
X74000Y77000D03*
X88500Y78000D03*
X90000Y95500D03*
X85500Y167000D03*
X83500Y188000D03*
X80500D03*
X83500Y185000D03*
X80500D03*
X120500Y5500D03*
Y16500D03*
X106500Y31000D03*
X112000D03*
X120000Y43000D03*
X108500Y58500D03*
X102000Y77000D03*
Y74000D03*
X97500Y164000D03*
X100500D03*
X103500D03*
X106500D03*
X127000Y-1500D03*
X126500Y96000D03*
X130000Y171000D03*
X132000D03*
Y173000D03*
X130000D03*
X159000Y-1500D03*
X160000Y63500D03*
X167000Y95000D03*
X156500Y146000D03*
X158500D03*
Y144000D03*
X156500D03*
X158500Y164000D03*
Y168000D03*
X162500Y164000D03*
X158500Y172000D03*
Y176000D03*
Y180000D03*
X162500D03*
X190500Y62000D03*
X194000Y74000D03*
X187000Y160000D03*
X193000Y164500D03*
X217500Y7500D03*
X210500D03*
X217500Y106500D03*
X210500D03*
X203500Y175500D03*
X200500D03*
X240000Y168000D03*
Y165000D03*
X244500Y173000D03*
X228500Y190000D03*
X223000Y187500D03*
Y184500D03*
X267500Y38500D03*
X264000Y134500D03*
X274000Y3000D03*
X276000Y34000D03*
X270500Y94000D03*
X289000Y95000D03*
X292500Y74000D03*
X270500Y100000D03*
X281500Y140000D03*
X270500Y186000D03*
X273500D03*
X270500Y179500D03*
X317500Y20000D03*
X313000Y47000D03*
X304000Y95000D03*
X302500Y118000D03*
X318500Y154500D03*
G54D18*
X227500Y14063D03*
G54D15*
X2922Y104047D03*
G54D10*
X0Y0D03*
Y189125D03*
X322925Y0D03*
Y189125D03*
G54D16*
X132000Y23400D03*
%LPC*%
G75*
G54D21*
G01X-17000Y30500D02*
Y0D01*
G03X0Y-17000I17000J0D01*
G01X29500D01*
G01X-17000Y158500D02*
Y189000D01*
G02X0Y206000I17000J0D01*
G01X29500D01*
G01X340000Y30500D02*
Y0D01*
G02X323000Y-17000I-17000J0D01*
G01X293500D01*
G01X340000Y158500D02*
Y189000D01*
G03X323000Y206000I-17000J0D01*
G01X293500D01*
G54D22*
G01X83518Y242750D02*
X82518Y242417D01*
X81768Y241583D01*
X81268Y240583D01*
X80893Y239250D01*
X80768Y237750D01*
X80893Y236250D01*
X81268Y234917D01*
X81768Y233916D01*
X82518Y233083D01*
X83518Y232750D01*
X84518Y233083D01*
X85268Y233916D01*
X85768Y234917D01*
X86143Y236250D01*
X86268Y237750D01*
X86143Y239250D01*
X85768Y240583D01*
X85268Y241583D01*
X84518Y242417D01*
X83518Y242750D01*
G01X93518Y232750D02*
X94393Y232917D01*
X95393Y233417D01*
X96018Y234250D01*
X96268Y235417D01*
X96018Y236583D01*
X95268Y237583D01*
X94143Y238083D01*
X92893D01*
X92143Y238417D01*
X91518Y239250D01*
X91268Y240417D01*
X91643Y241583D01*
X92518Y242417D01*
X93518Y242750D01*
X94518Y242417D01*
X95393Y241583D01*
X95768Y240417D01*
X95518Y239250D01*
X94893Y238417D01*
X94143Y238083D01*
X92893D01*
X91768Y237583D01*
X91018Y236583D01*
X90768Y235417D01*
X91018Y234250D01*
X91643Y233417D01*
X92643Y232917D01*
X93518Y232750D01*
G01X101893Y236083D02*
X105143D01*
G01X171893D02*
X175143D01*
G01X183518Y242750D02*
X182518Y242417D01*
X181768Y241583D01*
X181268Y240583D01*
X180893Y239250D01*
X180768Y237750D01*
X180893Y236250D01*
X181268Y234917D01*
X181768Y233916D01*
X182518Y233083D01*
X183518Y232750D01*
X184518Y233083D01*
X185268Y233916D01*
X185768Y234917D01*
X186143Y236250D01*
X186268Y237750D01*
X186143Y239250D01*
X185768Y240583D01*
X185268Y241583D01*
X184518Y242417D01*
X183518Y242750D01*
G01X193518Y232750D02*
X194393Y232917D01*
X195393Y233417D01*
X196018Y234250D01*
X196268Y235417D01*
X196018Y236583D01*
X195268Y237583D01*
X194143Y238083D01*
X192893D01*
X192143Y238417D01*
X191518Y239250D01*
X191268Y240417D01*
X191643Y241583D01*
X192518Y242417D01*
X193518Y242750D01*
X194518Y242417D01*
X195393Y241583D01*
X195768Y240417D01*
X195518Y239250D01*
X194893Y238417D01*
X194143Y238083D01*
X192893D01*
X191768Y237583D01*
X191018Y236583D01*
X190768Y235417D01*
X191018Y234250D01*
X191643Y233417D01*
X192643Y232917D01*
X193518Y232750D01*
G01X112518Y212916D02*
Y222916D01*
X115643D01*
X116643Y222416D01*
X117268Y221749D01*
X117518Y220416D01*
X117268Y219083D01*
X116518Y218249D01*
X115643Y217749D01*
X112518D01*
G01X115643D02*
X117518Y212916D01*
G01X127518D02*
X122518D01*
Y222916D01*
X127518D01*
G01X125518Y218083D02*
X122518D01*
G01X131893Y222916D02*
X135018Y212916D01*
X138143Y222916D01*
G01X152268Y212916D02*
Y222916D01*
X154768D01*
X155768Y222416D01*
X156518Y221749D01*
X157143Y220749D01*
X157643Y219582D01*
X157768Y217916D01*
X157643Y216249D01*
X157143Y215083D01*
X156518Y214082D01*
X155768Y213416D01*
X154768Y212916D01*
X152268D01*
G01X112518Y242916D02*
X111518Y242583D01*
X110768Y241749D01*
X110268Y240749D01*
X109893Y239416D01*
X109768Y237916D01*
X109893Y236416D01*
X110268Y235083D01*
X110768Y234082D01*
X111518Y233249D01*
X112518Y232916D01*
X113518Y233249D01*
X114268Y234082D01*
X114768Y235083D01*
X115143Y236416D01*
X115268Y237916D01*
X115143Y239416D01*
X114768Y240749D01*
X114268Y241749D01*
X113518Y242583D01*
X112518Y242916D01*
G01X119768Y234916D02*
X120518Y233749D01*
X121518Y233083D01*
X122643Y232916D01*
X123643Y233083D01*
X124643Y233916D01*
X125268Y234916D01*
X125393Y235916D01*
X125143Y237082D01*
X124268Y237916D01*
X123393Y238249D01*
X122268D01*
G01X123393D02*
X124143Y238749D01*
X124768Y239582D01*
X125018Y240583D01*
X124768Y241583D01*
X124143Y242416D01*
X123018Y242916D01*
X121893Y242749D01*
X120768Y242083D01*
G01X132268Y232916D02*
X132518Y235083D01*
X132893Y236916D01*
X133393Y238583D01*
X134018Y240416D01*
X135018Y242916D01*
X130018D01*
G01X142268Y232916D02*
X142518Y235083D01*
X142893Y236916D01*
X143393Y238583D01*
X144018Y240416D01*
X145018Y242916D01*
X140018D01*
G01X150143Y237082D02*
X151018Y238249D01*
X151768Y238916D01*
X152768Y239249D01*
X153643Y238916D01*
X154268Y238249D01*
X154768Y237249D01*
X154893Y236083D01*
X154768Y235083D01*
X154268Y234082D01*
X153518Y233249D01*
X152643Y232916D01*
X151643Y233249D01*
X150768Y234249D01*
X150268Y235749D01*
X150143Y237416D01*
X150393Y239582D01*
X150768Y240749D01*
X151393Y241916D01*
X152268Y242749D01*
X153143Y242916D01*
X154018Y242583D01*
X154643Y241749D01*
G01X162518Y242916D02*
X161518Y242583D01*
X160768Y241749D01*
X160268Y240749D01*
X159893Y239416D01*
X159768Y237916D01*
X159893Y236416D01*
X160268Y235083D01*
X160768Y234082D01*
X161518Y233249D01*
X162518Y232916D01*
X163518Y233249D01*
X164268Y234082D01*
X164768Y235083D01*
X165143Y236416D01*
X165268Y237916D01*
X165143Y239416D01*
X164768Y240749D01*
X164268Y241749D01*
X163518Y242583D01*
X162518Y242916D01*
G01X107518Y262750D02*
Y252750D01*
X112518D01*
G01X117268Y254750D02*
X118018Y253583D01*
X119018Y252917D01*
X120143Y252750D01*
X121143Y252917D01*
X122143Y253750D01*
X122768Y254750D01*
X122893Y255750D01*
X122643Y256916D01*
X121768Y257750D01*
X120893Y258083D01*
X119768D01*
G01X120893D02*
X121643Y258583D01*
X122268Y259416D01*
X122518Y260417D01*
X122268Y261417D01*
X121643Y262250D01*
X120518Y262750D01*
X119393Y262583D01*
X118268Y261917D01*
G01X136893Y262750D02*
X140018Y252750D01*
X143143Y262750D01*
G01X147268Y252750D02*
Y262750D01*
X149768D01*
X150768Y262250D01*
X151518Y261583D01*
X152143Y260583D01*
X152643Y259416D01*
X152768Y257750D01*
X152643Y256083D01*
X152143Y254917D01*
X151518Y253916D01*
X150768Y253250D01*
X149768Y252750D01*
X147268D01*
G01X157268D02*
Y262750D01*
X159768D01*
X160768Y262250D01*
X161518Y261583D01*
X162143Y260583D01*
X162643Y259416D01*
X162768Y257750D01*
X162643Y256083D01*
X162143Y254917D01*
X161518Y253916D01*
X160768Y253250D01*
X159768Y252750D01*
X157268D01*
M02*
