G04 ================== begin FILE IDENTIFICATION RECORD ==================*
G04 Layout Name:  C:/tmp/20_037760d/worklib/02_037760d_top/physical/08_037760d.brd*
G04 Film Name:    l4_secondary*
G04 File Format:  Gerber RS274X*
G04 File Origin:  Cadence Allegro 16.5-S052*
G04 Origin Date:  Fri Nov 07 03:57:16 2014*
G04 *
G04 Layer:  VIA CLASS/BOTTOM*
G04 Layer:  PIN/BOTTOM*
G04 Layer:  PACKAGE GEOMETRY/ETCH_BOTTOM*
G04 Layer:  ETCH/BOTTOM*
G04 Layer:  BOARD GEOMETRY/TOOLING_CORNERS*
G04 Layer:  BOARD GEOMETRY/LYR_BOTTOM*
G04 Layer:  BOARD GEOMETRY/ROOT_NUMBER*
G04 *
G04 Offset:    (0.00 0.00)*
G04 Mirror:    No*
G04 Mode:      Positive*
G04 Rotation:  0*
G04 FullContactRelief:  No*
G04 UndefLineWidth:     8.00*
G04 ================== end FILE IDENTIFICATION RECORD ====================*
%FSLAX55Y55*MOIN*%
%IR0*IPPOS*OFA0.00000B0.00000*MIA0B0*SFA1.00000B1.00000*%
%ADD15R,.029X.11*%
%ADD11C,.02*%
%ADD13C,.04*%
%ADD18C,.06*%
%ADD20C,.072*%
%ADD19R,.06X.06*%
%AMMACRO10*
4,1,36,0.0,-.02,
.003473,-.019696,
.00684,-.018794,
.01,-.017321,
.012856,-.015321,
.015321,-.012856,
.017321,-.01,
.018794,-.00684,
.019696,-.003473,
.02,0.0,
.019696,.003473,
.018794,.00684,
.017321,.01,
.015321,.012856,
.012856,.015321,
.01,.017321,
.00684,.018794,
.003473,.019696,
0.0,.02,
-.003473,.019696,
-.00684,.018794,
-.01,.017321,
-.012856,.015321,
-.015321,.012856,
-.017321,.01,
-.018794,.00684,
-.019696,.003473,
-.02,0.0,
-.019696,-.003473,
-.018794,-.00684,
-.017321,-.01,
-.015321,-.012856,
-.012856,-.015321,
-.01,-.017321,
-.00684,-.018794,
-.003473,-.019696,
0.0,-.02,
0.0*
%
%ADD10MACRO10*%
%ADD14O,.061X.046*%
%ADD17R,.051X.055*%
%ADD12O,.071X.048*%
%ADD16R,.043X.047*%
%ADD21C,.01*%
%ADD22C,.012*%
%ADD23C,.015*%
%ADD24C,.025*%
%ADD25C,.008*%
%ADD26C,.05204*%
%ADD28C,.07204*%
%ADD27C,.08804*%
%ADD29O,.08902X.07402*%
G75*
%LPD*%
G75*
G36*
G01X316621Y197083D02*
G03X330883Y182821I6304J-7958D01*
G02X331596Y182573I313J-249D01*
G01Y6552D01*
G02X330883Y6304I-400J1D01*
G03X329015Y8122I-7956J-6306D01*
G03X313816Y-4482I-6090J-8122D01*
G03X316651Y-7982I9110J4481D01*
G02X316404Y-8696I-247J-314D01*
G01X110996D01*
Y-9996D01*
X43504D01*
Y-8696D01*
X6521D01*
G02X6274Y-7982I0J400D01*
G03X-7982Y6274I-6274J7982D01*
G02X-8696Y6521I-314J247D01*
G01Y66293D01*
G02X-8133Y66658I400J0D01*
G03X-5750Y66718I1133J2342D01*
G03Y71282I1250J2282D01*
G03X-8133Y71342I-1250J-2282D01*
G02X-8696Y71707I-163J365D01*
G01Y72116D01*
X-8544Y72154D01*
G03X-7834Y72498I-456J1846D01*
G01X13915D01*
X16002Y74585D01*
Y114415D01*
X13915Y116502D01*
X-7834D01*
G03X-8544Y116846I-1166J-1502D01*
G01X-8696Y116884D01*
Y182604D01*
G02X-7982Y182851I400J0D01*
G03X-4482Y180016I7981J6275D01*
G03X8122Y195215I4482J9109D01*
G03X6304Y197083I-8124J-6088D01*
G02X6552Y197796I249J313D01*
G01X316373D01*
G02X316621Y197083I-1J-400D01*
G37*
G36*
G01X-9200Y99600D02*
G03X-6133Y106792I0J4250D01*
G02X-6054Y107409I289J277D01*
G03X-8054Y114444I-2000J3233D01*
G01X-10299D01*
Y115500D01*
X-293D01*
G02X79Y114953I0J-400D01*
G03X4921I2421J-953D01*
G02X5293Y115500I372J147D01*
G01X13500D01*
X15000Y114000D01*
Y75000D01*
X13500Y73500D01*
X-10299D01*
Y74556D01*
X-8054D01*
G03X-5998Y81556I0J3802D01*
G02X-6067Y82172I216J336D01*
G03X-9100Y89400I-3033J2978D01*
G01X-10299D01*
Y99600D01*
X-9200D01*
G37*
%LPC*%
G75*
G36*
G01X124598Y140212D02*
Y164559D01*
G02X128097Y167164I902J2441D01*
G01X128102Y167088D01*
X128402Y166788D01*
Y141788D01*
X130588Y139602D01*
X130664Y139597D01*
G02X127903Y136836I-164J-2597D01*
G01X127898Y136912D01*
X124598Y140212D01*
G37*
G36*
G01X255002Y77598D02*
G02Y82402I-1002J2402D01*
G01X284505D01*
X289598Y87495D01*
Y92005D01*
G03X289172Y92404I-400J0D01*
G02X287074Y96750I-172J2596D01*
G02X289172Y101096I1926J1750D01*
G03X289598Y101495I26J399D01*
G01Y103498D01*
X272163D01*
G02X271543Y103116I-1662J2003D01*
G03Y102384I161J-366D01*
G02X269457I-1043J-2384D01*
G03Y103116I-161J366D01*
G02X272163Y107502I1044J2384D01*
G01X289171D01*
X299908Y118239D01*
X299916Y118307D01*
G02X302807Y115416I2584J-307D01*
G01X302739Y115408D01*
X299915Y112584D01*
G03X300198Y111902I283J-282D01*
G01X307911D01*
G02X312408Y113827I3689J-2402D01*
G01X312512Y113808D01*
X313119Y114416D01*
G03X312837Y115099I-283J283D01*
G01X307198D01*
Y123902D01*
X316098D01*
Y137495D01*
X322098Y143495D01*
Y160005D01*
X321157Y160946D01*
G03X320558Y160908I-283J-283D01*
G02X315969Y163105I-2058J1592D01*
G03X315580Y163598I-389J93D01*
G01X283495D01*
X280495Y160598D01*
X260502D01*
G02Y165402I-1002J2402D01*
G01X278505D01*
X281505Y168402D01*
X320495D01*
X326902Y161995D01*
Y141505D01*
X320902Y135505D01*
Y115405D01*
X315908Y110412D01*
X315927Y110308D01*
G02X307911Y107098I-4327J-808D01*
G01X299995D01*
X294402Y101505D01*
Y85505D01*
X286495Y77598D01*
X255002D01*
G37*
G36*
G01X32043Y43384D02*
G02X29957I-1043J-2384D01*
G03Y44116I-161J366D01*
G02X32043I1043J2384D01*
G03Y43384I161J-366D01*
G37*
G36*
G01X275663Y11502D02*
X306171D01*
X314908Y20239D01*
X314916Y20307D01*
G02X317807Y17416I2584J-307D01*
G01X317739Y17408D01*
X307829Y7498D01*
X275663D01*
G02Y11502I-1663J2002D01*
G37*
G36*
G01X-2060Y19266D02*
G03Y18734I299J-266D01*
G02X-5940I-1940J-1734D01*
G03Y19266I-299J266D01*
G02X-2060I1940J1734D01*
G37*
G36*
G01X69833Y138060D02*
G03X69167I-333J-222D01*
G02X65074Y141250I-2167J1440D01*
G02X69167Y144440I1926J1750D01*
G03X69833I333J222D01*
G02X73926Y141250I2167J-1440D01*
G02X69833Y138060I-1926J-1750D01*
G37*
G36*
G01X4519Y159550D02*
G03X4998Y159942I79J392D01*
G01Y165783D01*
X4991Y165809D01*
G02Y167191I2509J691D01*
G01X4998Y167217D01*
Y171002D01*
X59337D01*
G02X62663I1663J-2002D01*
G01X64002D01*
Y162998D01*
X15002D01*
Y156498D01*
X13663D01*
G02X10337I-1663J2002D01*
G01X6558D01*
X6519Y156349D01*
G02X5926Y155250I-2520J650D01*
G02X2266Y151560I-1925J-1751D01*
G03X1734I-266J-299D01*
G02X-1926Y155250I-1735J1939D01*
G02X1734Y158940I1925J1751D01*
G03X2266I266J299D01*
G02X4519Y159550I1734J-1940D01*
G37*
G36*
G01X69833Y156560D02*
G03X69167I-333J-222D01*
G02X65060Y159734I-2167J1440D01*
G03Y160266I-299J266D01*
G02X69167Y163440I1940J1734D01*
G03X69833I333J222D01*
G02X73940Y160266I2167J-1440D01*
G03Y159734I299J-266D01*
G02X69833Y156560I-1940J-1734D01*
G37*
G36*
G01X50500Y156874D02*
G02X47500I-1500J2126D01*
G02Y161126I-1500J2126D01*
G02X50500I1500J-2126D01*
G02Y156874I1500J-2126D01*
G37*
G36*
G01X102000Y161874D02*
G02X99000I-1500J2126D01*
G02Y166126I-1500J2126D01*
G02X102000I1500J-2126D01*
G02X105000I1500J-2126D01*
G02Y161874I1500J-2126D01*
G02X102000I-1500J2126D01*
G37*
G36*
G01X237874Y166500D02*
G02X242126I2126J1500D01*
G02X237874I-2126J-1500D01*
G37*
G36*
G01X202000Y177626D02*
G02Y173374I1500J-2126D01*
G02Y177626I-1500J2126D01*
G37*
G36*
G01X220874Y186000D02*
G02X225126I2126J1500D01*
G02X220874I-2126J-1500D01*
G37*
G36*
G01X272000Y188126D02*
G02Y183874I1500J-2126D01*
G02Y188126I-1500J2126D01*
G37*
G36*
G01X143902Y-5852D02*
X128098D01*
Y-4420D01*
G03X127605Y-4031I-400J0D01*
G02Y1031I-605J2531D01*
G03X128098Y1420I93J389D01*
G01Y2852D01*
X136493D01*
G03X136776Y3535I0J400D01*
G01X135412Y4898D01*
X135337Y4903D01*
G02X133550Y5777I163J2597D01*
G03X132950I-300J-264D01*
G02X129224Y5598I-1950J1723D01*
G01X124212D01*
X123712Y6098D01*
X123495D01*
G03X123096Y5672I0J-400D01*
G02X117904I-2596J-172D01*
G03X117505Y6098I-399J26D01*
G01X113288D01*
X111047Y3858D01*
X103453D01*
X102712Y4598D01*
X88752D01*
G03X88386Y4039I1J-400D01*
G02X83614I-2386J-1039D01*
G03X83248Y4598I-367J159D01*
G01X61752D01*
G03X61386Y4039I1J-400D01*
G02X56614I-2386J-1039D01*
G03X56248Y4598I-367J159D01*
G01X48712D01*
X41598Y11712D01*
Y26788D01*
X45098Y30288D01*
Y54212D01*
X39598Y59712D01*
Y106788D01*
X60212Y127402D01*
X67212D01*
X71712Y131902D01*
X78724D01*
G02X82440Y128266I1777J-1901D01*
G03Y127734I299J-266D01*
G02X83097Y126163I-1940J-1734D01*
G01X83102Y126088D01*
X84288Y124902D01*
X148712D01*
X178212Y154402D01*
X182712D01*
X185566Y157255D01*
G03X185512Y157866I-283J283D01*
G02X188734Y161940I1487J2135D01*
G03X189266I266J299D01*
G02X190507Y162555I1734J-1940D01*
G03X190773Y163154I-76J393D01*
G02X193493Y161945I2227J1346D01*
G03X193227Y161346I76J-393D01*
G02X191163Y157403I-2227J-1346D01*
G01X191088Y157398D01*
X186773Y153084D01*
G03X187056Y152402I283J-282D01*
G01X207788D01*
X209288Y150902D01*
X221248D01*
G03X221614Y151461I-1J400D01*
G02X226134Y153988I2386J1039D01*
G03X226745Y153934I328J229D01*
G01X232712Y159902D01*
X243724D01*
G02X247000Y160126I1776J-1902D01*
G02X250402Y156224I1500J-2126D01*
G01Y155212D01*
X248288Y153098D01*
X237752D01*
G03X237386Y152539I1J-400D01*
G02X236025Y149108I-2386J-1039D01*
G01X235989Y149093D01*
X234601Y147705D01*
Y142502D01*
G03X235001Y142102I400J0D01*
G02X236002Y141902I1J-2602D01*
G01X256598D01*
Y150498D01*
G02X261402I2402J1002D01*
G01Y140502D01*
G02X257998Y137098I-2402J-1002D01*
G01X242995D01*
G03X242596Y136672I0J-400D01*
G02X242599Y136618I-2596J-171D01*
G03X242878Y136444I200J10D01*
G02X245911Y135699I1020J-2394D01*
G03X246524Y135693I309J254D01*
G02X250451Y132279I1976J-1693D01*
G01X250402Y132222D01*
Y131902D01*
X261956D01*
G03X262228Y132594I0J400D01*
G02X265772I1772J1906D01*
G03X266044Y131902I272J-292D01*
G01X279005D01*
X291598Y144495D01*
Y154956D01*
G03X290906Y155228I-400J0D01*
G02X291167Y158440I-1906J1771D01*
G03X291833I333J222D01*
G02X296402Y155998I2168J-1440D01*
G01Y145263D01*
G03X297084Y144981I400J1D01*
G01X302098Y149995D01*
Y155998D01*
G02X306902I2402J1002D01*
G01Y148005D01*
X293481Y134584D01*
G03X293763Y133901I283J-283D01*
G01X305874D01*
G02Y130098I4626J-1902D01*
G01X292788D01*
X276788Y114098D01*
X261712D01*
X257098Y118712D01*
Y120224D01*
G02X256855Y123472I1902J1775D01*
G03X256525Y124098I-330J226D01*
G01X237920D01*
G03X237531Y123605I0J-400D01*
G02X236902Y121224I-2531J-605D01*
G01Y114212D01*
X234488Y111798D01*
X220488D01*
X218280Y109590D01*
G03X218421Y108934I283J-282D01*
G02X215728Y108406I-921J-2434D01*
G03X215456Y109098I-272J292D01*
G01X214276D01*
G02X212993Y108445I-1776J1902D01*
G03X212727Y107846I76J-393D01*
G02X210007Y109055I-2227J-1346D01*
G03X210273Y109654I-76J393D01*
G02X214276Y112902I2227J1346D01*
G01X216212D01*
X218912Y115602D01*
X232912D01*
X233098Y115788D01*
Y121224D01*
G02X232469Y123605I1902J1776D01*
G03X232080Y124098I-389J93D01*
G01X221505D01*
X220135Y125469D01*
X219988Y125321D01*
X219983Y125315D01*
G02X219902Y125224I-1984J1684D01*
G01Y123212D01*
X191402Y94712D01*
Y90212D01*
X188602Y87412D01*
X188597Y87337D01*
G02X186163Y84903I-2597J163D01*
G01X186088Y84898D01*
X183932Y82743D01*
G03X184073Y82402I141J-141D01*
G01X184222D01*
X184279Y82451D01*
G02X188434Y81421I1721J-1951D01*
G03X189090Y81280I374J142D01*
G01X192712Y84902D01*
X212212D01*
X216398Y89088D01*
X216403Y89163D01*
G02X219163Y86403I2597J-163D01*
G01X219088Y86398D01*
X216273Y83584D01*
G03X216556Y82902I283J-282D01*
G01X222775D01*
X226898Y87025D01*
X226903Y87100D01*
G02X229663Y84340I2597J-163D01*
G01X229588Y84335D01*
X226836Y81584D01*
G03X227119Y80902I283J-282D01*
G01X227288D01*
X229088Y79102D01*
X229163Y79097D01*
G02X230861Y74681I-163J-2597D01*
G03X231147Y74002I286J-279D01*
G01X289891D01*
X289905Y74187D01*
G02X293089Y71465I2595J-187D01*
G01X293033Y71453D01*
X291579Y69998D01*
X216171D01*
X215457Y70713D01*
G03X214884Y70706I-283J-283D01*
G02X213163Y69903I-1885J1794D01*
G01X213088Y69898D01*
X206288Y63098D01*
X197420D01*
G03X197031Y62605I0J-400D01*
G02X196402Y60224I-2531J-605D01*
G01Y56712D01*
X178773Y39084D01*
G03X179056Y38402I283J-282D01*
G01X186956D01*
G03X187228Y39094I0J400D01*
G02X188837Y43597I1772J1906D01*
G01X188912Y43602D01*
X195712Y50402D01*
X207320D01*
X209214Y48508D01*
X209289Y48503D01*
G02X210977Y47735I-163J-2597D01*
G03X211544Y47733I284J281D01*
G01X214598Y50788D01*
Y56224D01*
G02X214188Y56806I1902J1776D01*
G03X213589Y56939I-355J-184D01*
G02X214312Y60194I-1589J2061D01*
G03X214911Y60061I355J184D01*
G02X218402Y56224I1589J-2061D01*
G01Y52056D01*
G03X219084Y51773I400J0D01*
G01X219212Y51902D01*
X225712D01*
X226720Y52910D01*
G03X226579Y53566I-283J282D01*
G02X229934Y56921I921J2434D01*
G03X230590Y56780I374J142D01*
G01X233712Y59902D01*
X245432D01*
X246898Y61368D01*
X246903Y61443D01*
G02X251234Y63220I2597J-163D01*
G03X251766I266J299D01*
G02X253663Y58683I1734J-1940D01*
G01X253588Y58678D01*
X249008Y54098D01*
X242263D01*
G03X241981Y53416I1J-400D01*
G01X244402Y50995D01*
Y45402D01*
X260098D01*
Y53998D01*
G02X264902I2402J1002D01*
G01Y44002D01*
G02X261498Y40598I-2402J-1002D01*
G01X254056D01*
G03X253773Y39916I0J-400D01*
G01X253902Y39788D01*
Y39278D01*
X253951Y39221D01*
G02X254531Y36895I-1951J-1722D01*
G03X254920Y36402I389J-93D01*
G01X265025D01*
G03X265355Y37028I0J400D01*
G02X269645I2145J1472D01*
G03X269975Y36402I330J-226D01*
G01X271212D01*
X278104Y43293D01*
G03X277912Y43965I-283J283D01*
G02X281035Y47088I588J2535D01*
G03X281707Y46896I389J91D01*
G01X292712Y57902D01*
X305874D01*
G02Y54098I4626J-1902D01*
G01X294288D01*
X277124Y36935D01*
G03X277219Y36299I283J-283D01*
G02X277772Y32094I-1219J-2299D01*
G03X278044Y31402I272J-292D01*
G01X298308D01*
G02X302667Y31440I2192J-1402D01*
G03X303333I333J222D01*
G02Y28560I2167J-1440D01*
G03X302667I-333J-222D01*
G02X301525Y27608I-2168J1439D01*
G01X301489Y27593D01*
X300495Y26598D01*
X278995D01*
G03X278596Y26172I0J-400D01*
G02X273404I-2596J-172D01*
G03X273005Y26598I-399J26D01*
G01X264995D01*
G03X264596Y26172I0J-400D01*
G02X260998Y23598I-2596J-172D01*
G01X240655D01*
X239406Y24848D01*
X239366D01*
X238685Y25529D01*
X238536Y25380D01*
X238529Y25371D01*
G02X238402Y25224I-2031J1626D01*
G01Y9212D01*
X233288Y4098D01*
X231776D01*
G02X230163Y3403I-1776J1902D01*
G01X230088Y3398D01*
X229523Y2834D01*
G03X229806Y2152I283J-282D01*
G01X270109D01*
X271443Y3486D01*
X271455Y3544D01*
G02X274544Y455I2545J-544D01*
G01X274486Y443D01*
X271891Y-2152D01*
X217109D01*
X210014Y4943D01*
X209956Y4955D01*
G02X208114Y8539I544J2545D01*
G03X207748Y9098I-367J159D01*
G01X200288D01*
X197288Y6098D01*
X149556D01*
G03X149273Y5416I0J-400D01*
G01X149552Y5138D01*
Y2452D01*
X158102D01*
Y1460D01*
G03X158568Y1066I400J0D01*
G02Y-4066I432J-2566D01*
G03X158102Y-4460I-66J-394D01*
G01Y-5452D01*
X143902D01*
Y-5852D01*
G37*
G36*
G01X155902Y182466D02*
Y174966D01*
X68098D01*
Y182702D01*
X78175D01*
G03X78484Y183354I-1J400D01*
G02X78374Y186500I2016J1645D01*
G02X82000Y190126I2126J1500D01*
G02X84887Y190202I1500J-2126D01*
G01X157752D01*
Y182466D01*
X155902D01*
G37*
G54D26*
X318500Y154500D03*
X315500Y142000D03*
X304000Y95000D03*
X313000Y47000D03*
X270500Y179500D03*
X281500Y140000D03*
X270500Y94000D03*
X228500Y190000D03*
X244500Y173000D03*
X227500Y119937D03*
X208000Y156500D03*
X210000Y164500D03*
X85500Y167000D03*
X38000Y178000D03*
X36500Y157000D03*
X28500Y55000D03*
X25000Y24000D03*
X31000Y32500D03*
X43000Y3000D03*
X10000Y97500D03*
G54D28*
X309000Y-3000D03*
X20000Y192000D03*
Y-3000D03*
G54D27*
X311600Y99500D03*
Y89500D03*
Y79500D03*
Y69500D03*
G54D29*
X2922Y104047D03*
Y84953D03*
%LPD*%
G75*
G36*
G01X6558Y157500D02*
X6519Y157650D01*
G03X6000Y158664I-2519J-650D01*
G01Y170000D01*
X63000D01*
Y164000D01*
X14000D01*
Y157500D01*
X6558D01*
G37*
G36*
G01X48084Y65727D02*
X50598Y63212D01*
Y62475D01*
G02X49972Y62145I-400J0D01*
G03X48663Y62597I-1473J-2145D01*
G01X48588Y62602D01*
X47402Y63788D01*
Y65444D01*
G02X48084Y65727I400J0D01*
G37*
G36*
G01X73720Y42910D02*
X72207Y41396D01*
G02X71535Y41588I-283J283D01*
G03X70902Y42776I-2535J-588D01*
G01Y48288D01*
X69902Y49288D01*
Y73288D01*
X68714Y74475D01*
G02X68731Y75057I283J283D01*
G03X66828Y79596I-1731J1943D01*
G02X66401Y79995I-27J399D01*
G01Y95456D01*
G02X67094Y95728I400J0D01*
G03X71051Y95898I1906J1772D01*
G01X77052D01*
Y96098D01*
X85948D01*
Y95898D01*
X86998D01*
G02X87398Y95499I0J-400D01*
G03X87546Y94635I2602J1D01*
G02X87169Y94102I-377J-133D01*
G01X70948D01*
Y79898D01*
X72098D01*
Y79465D01*
X72159Y79405D01*
G02Y78839I-283J-283D01*
G03X75839Y75159I1841J-1839D01*
G02X76405I283J-283D01*
G01X76465Y75098D01*
X78724D01*
G03X81592Y74638I1776J1902D01*
G02X82125Y74438I168J-363D01*
G03X82728Y73594I2376J1060D01*
G02X82456Y72902I-272J-292D01*
G01X80712D01*
X75098Y67288D01*
Y64776D01*
G03X77605Y60469I1902J-1776D01*
G02X78098Y60080I93J-389D01*
G01Y57776D01*
G03X77954Y54392I1902J-1776D01*
G01X78064Y54253D01*
X72598Y48788D01*
Y47776D01*
G03X73579Y43566I1902J-1776D01*
G02X73720Y42910I-142J-374D01*
G37*
G36*
G01X56172Y79096D02*
G03Y73904I-172J-2596D01*
G02X56598Y73505I26J-399D01*
G01Y68556D01*
G02X55916Y68273I-400J0D01*
G01X51902Y72288D01*
Y99212D01*
X55916Y103227D01*
G02X56598Y102944I282J-283D01*
G01Y79495D01*
G02X56172Y79096I-400J0D01*
G37*
G36*
G01X144398Y109588D02*
X129712Y94902D01*
X129420D01*
G02X129031Y95395I0J400D01*
G03X128231Y97943I-2531J605D01*
G02X128214Y98525I266J299D01*
G01X137288Y107598D01*
X138224D01*
G03Y111402I1776J1902D01*
G01X135712D01*
X135525Y111214D01*
G02X134943Y111231I-283J283D01*
G03X130403Y109663I-1943J-1731D01*
G01X130398Y109588D01*
X119712Y98902D01*
X114712D01*
X97735Y81924D01*
G02X97052Y82207I-283J283D01*
G01Y94102D01*
X92831D01*
G02X92454Y94635I0J400D01*
G03X92596Y95672I-2454J864D01*
G02X92995Y96098I399J26D01*
G01X96852D01*
Y109902D01*
X92052D01*
Y110102D01*
X85948D01*
Y109902D01*
X77052D01*
Y110105D01*
G02X76755Y110701I49J397D01*
G03X77031Y112605I-2255J1299D01*
G02X77420Y113098I389J93D01*
G01X150944D01*
G02X151227Y112416I0J-400D01*
G01X149745Y110934D01*
G02X149134Y110988I-283J283D01*
G03X144403Y109663I-2134J-1488D01*
G01X144398Y109588D01*
G37*
G36*
G01X114712Y98902D02*
X97735Y81924D01*
G02X97052Y82206I-283J283D01*
G01Y94102D01*
X92831D01*
G02X92454Y94635I0J400D01*
G03X92596Y95672I-2454J864D01*
G02X92995Y96098I399J26D01*
G01X96852D01*
Y109902D01*
X92052D01*
Y110102D01*
X85948D01*
Y109902D01*
X77052D01*
Y110105D01*
G02X76755Y110701I49J397D01*
G03X77031Y112605I-2255J1299D01*
G02X77419Y113098I389J93D01*
G01X130500D01*
Y110222D01*
G03X130403Y109663I2500J-722D01*
G01X130398Y109588D01*
X119712Y98902D01*
X114712D01*
G37*
G36*
G01X96773Y15584D02*
X103288Y22098D01*
X108241D01*
G02X108524Y21416I0J-400D01*
G01X102009Y14901D01*
X97056D01*
G02X96773Y15584I0J400D01*
G37*
G36*
G01X186288Y16598D02*
X195416Y25727D01*
G02X196098Y25444I282J-283D01*
G01Y25005D01*
X204005Y17098D01*
X217245D01*
X227745Y27598D01*
X229194D01*
G02X229477Y26916I0J-400D01*
G01X229098Y26538D01*
Y23689D01*
G02X228539Y23323I-400J1D01*
G03Y18551I-1039J-2386D01*
G02X229098Y18185I159J-367D01*
G01Y16815D01*
G02X228539Y16449I-400J1D01*
G03X227781Y11476I-1039J-2386D01*
G02X228107Y10796I43J-398D01*
G01X226000Y8689D01*
X219788Y14902D01*
X199107D01*
X199100Y15094D01*
G03X193903Y15163I-2600J-95D01*
G01X193898Y15088D01*
X193212Y14402D01*
X151276D01*
G03X147557Y14231I-1776J-1902D01*
G02X146975Y14214I-299J266D01*
G01X146788Y14402D01*
X132776D01*
G03X129224I-1776J-1902D01*
G01X125420D01*
X123279Y12260D01*
X108187D01*
G02X107904Y12943I0J400D01*
G01X113060Y18098D01*
X117748D01*
G02X118114Y17539I-1J-400D01*
G03X123100Y16406I2386J-1039D01*
G01X123107Y16598D01*
X186288D01*
G37*
G36*
G01X108884Y32043D02*
G03X106303Y33595I-2384J-1043D01*
G02X105990Y34276I-30J399D01*
G01X106313Y34598D01*
X120944D01*
G02X121227Y33916I0J-400D01*
G01X120912Y33602D01*
X115412D01*
X114525Y32714D01*
G02X113943Y32731I-283J283D01*
G03X109616Y32043I-1943J-1731D01*
G02X108884I-366J161D01*
G37*
G36*
G01X152109Y68348D02*
X157443Y63014D01*
X157455Y62956D01*
G03X157469Y62895I2543J552D01*
G02X157080Y62402I-389J-93D01*
G01X118212D01*
X110212Y54402D01*
X98556D01*
G02X98273Y55084I0J400D01*
G01X103288Y60098D01*
X105748D01*
G02X106114Y59539I-1J-400D01*
G03X108714Y61093I2386J-1039D01*
G02X108464Y61775I33J399D01*
G01X114402Y67712D01*
Y67926D01*
X114616D01*
X114630Y67924D01*
G03X116463Y68348I370J2576D01*
G01X152109D01*
G37*
G36*
G01D02*
X157443Y63014D01*
X157455Y62956D01*
G03X157469Y62895I2543J552D01*
G02X157080Y62402I-389J-93D01*
G01X118212D01*
X110212Y54402D01*
X98556D01*
G02X98273Y55084I0J400D01*
G01X103288Y60098D01*
X105748D01*
G02X106114Y59539I-1J-400D01*
G03X108714Y61093I2386J-1039D01*
G02X108464Y61775I33J399D01*
G01X114402Y67712D01*
Y67926D01*
X114616D01*
X114630Y67924D01*
G03X116463Y68348I370J2576D01*
G01X152109D01*
G37*
G36*
G01X103943Y78731D02*
G03X103731Y78943I-1943J-1731D01*
G02X103714Y79525I266J299D01*
G01X117288Y93098D01*
X117944D01*
G02X118227Y92416I0J-400D01*
G01X117098Y91288D01*
Y85288D01*
X115712Y83902D01*
X109712D01*
X104525Y78714D01*
G02X103943Y78731I-283J283D01*
G37*
G36*
G01X119773Y82584D02*
X120902Y83712D01*
Y87748D01*
G02X121461Y88114I400J-1D01*
G03X124276Y88598I1039J2386D01*
G01X129444D01*
G02X129727Y87916I0J-400D01*
G01X123712Y81902D01*
X120056D01*
G02X119773Y82584I0J400D01*
G37*
G36*
G01X135702Y21018D02*
G03X135865Y25507I-3702J2382D01*
G02X136216Y26098I351J191D01*
G01X137784D01*
G02X138135Y25507I0J-400D01*
G03X138298Y21018I3865J-2107D01*
G02X137962Y20402I-336J-216D01*
G01X136038D01*
G02X135702Y21018I0J400D01*
G37*
G36*
G01X129523Y73334D02*
X140788Y84598D01*
X150444D01*
G02X150727Y83916I0J-400D01*
G01X149412Y82602D01*
X149337Y82597D01*
G03X151667Y78560I163J-2597D01*
G02X152333I333J-222D01*
G03X156276Y78098I2167J1440D01*
G01X159788D01*
X160288Y78598D01*
X184224D01*
G03X185079Y78066I1776J1902D01*
G02X185220Y77410I-142J-374D01*
G01X184712Y76902D01*
X176212D01*
X163207Y63896D01*
G02X162535Y64088I-283J283D01*
G03X160544Y66045I-2535J-588D01*
G01X160486Y66057D01*
X153891Y72652D01*
X129806D01*
G02X129523Y73334I0J400D01*
G37*
G36*
G01X141273Y91084D02*
X141788Y91598D01*
X148712D01*
X149561Y90750D01*
X149212Y90402D01*
X141556D01*
G02X141273Y91084I0J400D01*
G37*
G36*
G01X176212Y76902D02*
X163207Y63896D01*
G02X162535Y64088I-283J283D01*
G03X160544Y66045I-2535J-588D01*
G01X160486Y66057D01*
X153891Y72652D01*
X131500D01*
Y75310D01*
X140788Y84598D01*
X150444D01*
G02X150727Y83916I0J-400D01*
G01X149412Y82602D01*
X149337Y82597D01*
G03X151667Y78560I163J-2597D01*
G02X152333I333J-222D01*
G03X156276Y78098I2167J1440D01*
G01X159788D01*
X160288Y78598D01*
X184224D01*
G03X185079Y78066I1776J1902D01*
G02X185220Y77410I-142J-374D01*
G01X184712Y76902D01*
X176212D01*
G37*
G36*
G01X216098Y124788D02*
X195207Y103896D01*
G02X194535Y104088I-283J283D01*
G03X191828Y106096I-2535J-588D01*
G02X191401Y106495I-27J399D01*
G01Y110224D01*
G03X191667Y110560I-1900J1777D01*
G02X192333I333J-222D01*
G03X194663Y114597I2167J1440D01*
G01X194588Y114602D01*
X192288Y116902D01*
X186712D01*
X183598Y113788D01*
Y102788D01*
X181435Y100624D01*
G02X180799Y100719I-283J283D01*
G03X176724Y101402I-2299J-1219D01*
G01X153212D01*
X150412Y98602D01*
X150337Y98597D01*
G03X148724Y97902I163J-2597D01*
G01X143056D01*
G02X142773Y98584I0J400D01*
G01X169788Y125598D01*
X178724D01*
G03X183096Y127672I1776J1902D01*
G02X183495Y128098I399J26D01*
G01X188288D01*
X195410Y135220D01*
G02X196066Y135079I282J-283D01*
G03X197510Y133594I2433J922D01*
G01X200005Y131098D01*
X207525D01*
G02X207855Y130472I0J-400D01*
G03Y127528I2145J-1472D01*
G02X207525Y126902I-330J-226D01*
G01X194505D01*
X191010Y123406D01*
G03X194406Y120010I990J-2406D01*
G01X196495Y122098D01*
X210495D01*
X214836Y126440D01*
G02X215503Y126269I283J-283D01*
G03X216049Y125279I2497J731D01*
G01X216098Y125222D01*
Y124788D01*
G37*
G36*
G01D02*
X195207Y103896D01*
G02X194535Y104088I-283J283D01*
G03X191828Y106096I-2535J-588D01*
G02X191401Y106495I-27J399D01*
G01Y110224D01*
G03X191667Y110560I-1900J1777D01*
G02X192333I333J-222D01*
G03X194663Y114597I2167J1440D01*
G01X194588Y114602D01*
X192288Y116902D01*
X186712D01*
X183598Y113788D01*
Y102788D01*
X181435Y100624D01*
G02X180799Y100719I-283J283D01*
G03X176724Y101402I-2299J-1219D01*
G01X153212D01*
X150412Y98602D01*
X150337Y98597D01*
G03X148724Y97902I163J-2597D01*
G01X143056D01*
G02X142773Y98584I0J400D01*
G01X169788Y125598D01*
X178724D01*
G03X182902Y126500I1776J1902D01*
G01X194103D01*
X191010Y123406D01*
G03X194406Y120010I990J-2406D01*
G01X196495Y122098D01*
X210495D01*
X214836Y126440D01*
G02X215503Y126269I283J-283D01*
G03X216049Y125279I2497J731D01*
G01X216098Y125222D01*
Y124788D01*
G37*
G36*
G01X145702Y21018D02*
G03X145865Y25507I-3702J2382D01*
G02X146216Y26098I351J191D01*
G01X147784D01*
G02X148135Y25507I0J-400D01*
G03X148298Y21018I3865J-2107D01*
G02X147962Y20402I-336J-216D01*
G01X146038D01*
G02X145702Y21018I0J400D01*
G37*
G36*
G01X168773Y55084D02*
X177788Y64098D01*
X184944D01*
G02X185227Y63416I0J-400D01*
G01X184712Y62902D01*
X179712D01*
X171212Y54402D01*
X169056D01*
G02X168773Y55084I0J400D01*
G37*
G36*
G01X179288Y86098D02*
X186916Y93727D01*
G02X187598Y93444I282J-283D01*
G01Y91788D01*
X185912Y90102D01*
X185837Y90097D01*
G03X183403Y87663I163J-2597D01*
G01X183398Y87588D01*
X180712Y84902D01*
X153056D01*
G02X152773Y85584I0J400D01*
G01X153288Y86098D01*
X179288D01*
G37*
G36*
G01X198727Y80416D02*
X194792Y76481D01*
X194680Y76511D01*
G03X191404Y73828I-680J-2511D01*
G02X191005Y73402I-399J-26D01*
G01X187556D01*
G02X187273Y74084I0J400D01*
G01X194288Y81098D01*
X198444D01*
G02X198727Y80416I0J-400D01*
G37*
G36*
G01X177273Y72584D02*
X177788Y73098D01*
X184944D01*
G02X185227Y72416I0J-400D01*
G01X184712Y71902D01*
X177556D01*
G02X177273Y72584I0J400D01*
G37*
G36*
G01X183602Y139912D02*
X188288Y144598D01*
X191944D01*
G02X192227Y143916I0J-400D01*
G01X190912Y142602D01*
X190837Y142597D01*
G03X189269Y138057I163J-2597D01*
G02X189286Y137475I-266J-299D01*
G01X185712Y133902D01*
X170056D01*
G02X169773Y134584I0J400D01*
G01X181788Y146598D01*
X183944D01*
G02X184227Y145916I0J-400D01*
G01X180912Y142602D01*
X180837Y142597D01*
G03X183597Y139837I163J-2597D01*
G01X183602Y139912D01*
G37*
G36*
G01X216773Y41084D02*
X221788Y46098D01*
X228288D01*
X235293Y53104D01*
G02X235965Y52912I283J-283D01*
G03X237510Y51094I2535J588D01*
G01X239598Y49005D01*
Y45920D01*
G02X239105Y45531I-400J0D01*
G03X236366Y44488I-604J-2531D01*
G02X235755Y44434I-328J229D01*
G01X234788Y45402D01*
X222712D01*
X217712Y40402D01*
X217056D01*
G02X216773Y41084I0J400D01*
G37*
G36*
G01X205995Y21902D02*
X204981Y22916D01*
G02X205263Y23598I283J282D01*
G01X215987D01*
G02X216269Y22916I-1J-400D01*
G01X215255Y21902D01*
X205995D01*
G37*
G36*
G01X210788Y137902D02*
X209939Y138750D01*
X211788Y140598D01*
X219212D01*
X219398Y140412D01*
Y138412D01*
X219568Y138243D01*
G02X219427Y137902I-141J-141D01*
G01X210788D01*
G37*
G36*
G01X234598Y10788D02*
X231747Y7936D01*
X231608Y8046D01*
G03X231488Y8134I-1598J-2053D01*
G02X231434Y8745I229J328D01*
G01X232902Y10212D01*
Y24424D01*
X233059Y24459D01*
G03X233972Y24855I-560J2541D01*
G02X234598Y24525I226J-330D01*
G01Y10788D01*
G37*
G36*
G01X223273Y40584D02*
X224288Y41598D01*
X233212D01*
X234227Y40584D01*
G02X233944Y39902I-283J-282D01*
G01X223556D01*
G02X223273Y40584I0J400D01*
G37*
G36*
G01X227288Y138402D02*
X224952Y140738D01*
Y143238D01*
X223773Y144416D01*
G02X224056Y145098I283J282D01*
G01X226288D01*
X229116Y147927D01*
G02X229799Y147644I283J-283D01*
G01Y139805D01*
X230519Y139084D01*
G02X230237Y138402I-283J-282D01*
G01X227288D01*
G37*
G36*
G01X277844Y120533D02*
X275212Y117902D01*
X263288D01*
X261235Y119954D01*
X260936Y120253D01*
X261046Y120392D01*
G03X261474Y121193I-2046J1608D01*
G02X261940Y121459I380J-125D01*
G03X263502Y121598I561J2541D01*
G01X268298D01*
X268495Y121402D01*
X273505D01*
X273702Y121598D01*
X277944D01*
G02X278232Y120922I-1J-400D01*
G01X277844Y120533D01*
G37*
G54D10*
X0Y0D03*
Y189125D03*
X322925Y0D03*
Y189125D03*
G54D20*
X310500Y56000D03*
Y132000D03*
G54D11*
G01X-9204Y78358D02*
X-3142D01*
G01X-9204Y110642D02*
X-3142D01*
G01X2922Y81051D02*
Y84953D01*
G01D02*
Y88855D01*
G01X-1730Y84953D02*
X2922D01*
G01D02*
X7574D01*
G01X2922Y100145D02*
Y104047D01*
G01D02*
Y107949D01*
G01X-1730Y104047D02*
X2922D01*
G01D02*
X7574D01*
G01X69000Y97500D02*
Y101500D01*
X70500Y103000D01*
X74000D01*
G01X84000D02*
Y112000D01*
G01X94000D02*
X90500D01*
G01X94000Y103000D02*
Y112000D01*
G01X79000Y103000D02*
Y111000D01*
G01X84000Y112000D02*
X90500D01*
G01X79000Y111000D02*
X80000Y112000D01*
X84000D01*
G01X192000Y121000D02*
X195500Y124500D01*
X209500D01*
X215250Y130250D01*
X218750D01*
X222500Y126500D01*
X260000D01*
X262500Y124000D01*
G01X262000Y26000D02*
X241650D01*
X240401Y27249D01*
X240361D01*
X237610Y30000D01*
X226750D01*
X216250Y19500D01*
X205000D01*
X198500Y26000D01*
Y28000D01*
G01X202000D02*
X204000Y26000D01*
X218500D01*
X225500Y33000D01*
X238500D01*
X241500Y30000D01*
X241540D01*
X242540Y29000D01*
X299500D01*
X300500Y30000D01*
G01X294000Y157000D02*
Y143500D01*
X280000Y129500D01*
X224000D01*
X220000Y133500D01*
X201000D01*
X198500Y136000D01*
G01X242000Y43000D02*
X238500D01*
G01Y53500D02*
X242000Y50000D01*
Y43000D01*
G01D02*
X262500D01*
G01X259000Y139500D02*
X235000D01*
G01Y151500D02*
X232200Y148700D01*
Y140800D01*
X233500Y139500D01*
X235000D01*
G01X262500Y43000D02*
Y55000D01*
G01X254000Y80000D02*
X285500D01*
X292000Y86500D01*
Y102500D01*
X299000Y109500D01*
X311600D01*
G01X259000Y139500D02*
Y151500D01*
G01X262500Y124000D02*
X279500D01*
X304500Y149000D01*
Y157000D01*
G01X311600Y109500D02*
X318500Y116400D01*
Y136500D01*
X324500Y142500D01*
Y161000D01*
X319500Y166000D01*
X282500D01*
X279500Y163000D01*
X259500D01*
X-4000Y21000D03*
Y17000D03*
X-7000Y69000D03*
X-4500D03*
X17500Y42000D03*
Y29000D03*
Y35500D03*
X2500Y36500D03*
X7500Y25500D03*
X6500Y32500D03*
X14000Y63000D03*
Y57500D03*
Y52000D03*
X6500Y57000D03*
Y52500D03*
X10000Y97500D03*
X2500Y114000D03*
X22500D03*
X10000Y106500D03*
Y110000D03*
Y103000D03*
X4000Y157000D03*
X0D03*
X4000Y153500D03*
X0D03*
X12000Y158500D03*
X7500Y166500D03*
X43000Y3000D03*
X25000Y6000D03*
X48000Y16000D03*
X31000Y41000D03*
Y46500D03*
Y32500D03*
X25000Y24000D03*
X42500Y38000D03*
X48000Y24000D03*
X28500Y55000D03*
X42500Y55500D03*
X33000Y75000D03*
X47000Y119500D03*
X31000Y119000D03*
Y101000D03*
X39000D03*
Y119000D03*
X26500Y114000D03*
X25000Y110000D03*
Y106500D03*
Y103000D03*
X46500Y141500D03*
X43500D03*
X32500Y127000D03*
X36500Y157000D03*
X46000Y159000D03*
X38000Y178000D03*
X59000Y3000D03*
X65500D03*
X49500D03*
X51500Y20000D03*
X64000Y34000D03*
X56500Y31000D03*
X69000Y29000D03*
X64000D03*
X56500Y35000D03*
Y39000D03*
Y43000D03*
X51500Y28000D03*
X69000Y41000D03*
X48500Y64000D03*
X72500Y63000D03*
X61500D03*
X54500Y54000D03*
Y50000D03*
X48500Y60000D03*
X52500D03*
X56000Y76500D03*
X67000Y77000D03*
X69000Y97500D03*
X70000Y90000D03*
X67000D03*
X53500Y84500D03*
X56000Y90000D03*
X62000Y119500D03*
X66000D03*
X49500Y141500D03*
X62500Y130000D03*
X72000Y139500D03*
X67000D03*
X72000Y143000D03*
X67000D03*
Y168500D03*
X61000Y169000D03*
X72000Y162000D03*
X67000D03*
X72000Y158000D03*
X67000D03*
X52000Y159000D03*
X49000D03*
X64000Y178500D03*
X86000Y3000D03*
X75000Y2500D03*
X91500Y3000D03*
X86500Y22000D03*
X90500Y32000D03*
X80500Y47000D03*
X87500D03*
X73500Y24500D03*
X74500Y46000D03*
X86500Y26000D03*
X90500D03*
X86500Y30000D03*
X90500Y60000D03*
X80000Y56000D03*
X83500D03*
X80000Y63000D03*
X77000D03*
X74000Y77000D03*
X88500Y78000D03*
X90000Y95500D03*
X83460Y78100D03*
X79000Y80000D03*
X84500Y75500D03*
X80500Y77000D03*
X94000Y112000D03*
X90500D03*
X74500D03*
X87000Y127000D03*
X94500Y140000D03*
Y144000D03*
X76500Y126000D03*
X80500Y130000D03*
Y126000D03*
X85500Y151000D03*
X78500Y155000D03*
X94500Y148000D03*
X85500Y167000D03*
X83500Y188000D03*
X80500D03*
X83500Y185000D03*
X80500D03*
X120500Y5500D03*
Y16500D03*
X106059Y8059D03*
Y20059D03*
X120500Y13000D03*
Y2500D03*
X106500Y31000D03*
X112000D03*
X120000Y43000D03*
X118000Y34000D03*
Y26500D03*
X108500Y58500D03*
X115000Y70500D03*
X119500Y67500D03*
X105000Y58500D03*
X113500D03*
X102000Y77000D03*
Y74000D03*
X113500Y86500D03*
X105000Y95000D03*
X98000Y91000D03*
X102500Y128000D03*
X106500D03*
Y132000D03*
X102500D03*
Y136000D03*
X110500D03*
X106500D03*
X98500Y140000D03*
X102500D03*
X106500D03*
X110500D03*
X98500Y144000D03*
X102500D03*
X106500D03*
X110500D03*
X114500Y148000D03*
X98500D03*
X102500D03*
X106500D03*
X110500D03*
X97500Y164000D03*
X100500D03*
X103500D03*
X106500D03*
X127000Y-1500D03*
X131000Y12500D03*
Y7500D03*
X144500D03*
X135500D03*
X144500Y65500D03*
X140500Y50000D03*
X126500Y96000D03*
X122500Y87000D03*
X141500Y73500D03*
X144500D03*
X122500Y90500D03*
X126000Y109500D03*
X133000D03*
X140000D03*
X123500Y146500D03*
Y144500D03*
Y142500D03*
X135500Y137000D03*
X133500D03*
X135500Y128500D03*
X133500D03*
X130500Y137000D03*
X130000Y171000D03*
X123500Y148500D03*
X132000Y171000D03*
X125500Y167000D03*
X132000Y173000D03*
X130000D03*
X159000Y-1500D03*
X149500Y12500D03*
X158500Y47500D03*
X157000Y44000D03*
X160000Y63500D03*
X152500D03*
X167000Y95000D03*
X150500Y96000D03*
X159500Y85500D03*
X149500Y75500D03*
X147500Y91000D03*
Y84000D03*
X149500Y80000D03*
X154500D03*
X168000Y109000D03*
X147000Y109500D03*
X156500Y146000D03*
X158500D03*
Y144000D03*
X156500D03*
X158500Y164000D03*
Y168000D03*
X162500Y164000D03*
X158500Y172000D03*
Y176000D03*
Y180000D03*
X162500D03*
X192500Y15000D03*
X194000Y39500D03*
X176000Y44000D03*
X189000Y41000D03*
X190500Y62000D03*
X184000Y72500D03*
X181000D03*
X175000Y60000D03*
X181000Y63500D03*
X184500D03*
X194500Y62000D03*
X194000Y74000D03*
X189500D03*
X192500Y92000D03*
X186000Y84000D03*
X184500Y77500D03*
X186000Y91000D03*
Y87500D03*
Y80500D03*
X178500Y99500D03*
X189500Y112000D03*
X192000Y103500D03*
X194500Y112000D03*
X192000Y121000D03*
Y125000D03*
X185000Y140000D03*
X191000D03*
X180500Y127500D03*
X181000Y140000D03*
X187000Y160000D03*
X193000Y164500D03*
X182000Y160000D03*
X191000D03*
X172500Y183000D03*
X190500Y180500D03*
X184500Y175500D03*
X216500Y-4500D03*
X212500Y-6000D03*
X205500D03*
X217500Y7500D03*
X210500D03*
X212000Y23000D03*
X199000Y4000D03*
X196500Y15000D03*
X212000Y29000D03*
X218000Y41500D03*
X202000Y28000D03*
X204720Y46000D03*
X205500Y39000D03*
X219000Y32500D03*
X209126Y45906D03*
X198500Y28000D03*
X212000Y59000D03*
X208500Y72500D03*
X203500D03*
X213000D03*
X216500Y58000D03*
X200500Y90000D03*
X212500Y93500D03*
X219500D03*
X219000Y89000D03*
X217500Y106500D03*
X210500D03*
X212500Y122000D03*
X199000Y112100D03*
X204000Y98000D03*
X212500Y111000D03*
X210000Y129000D03*
X214000Y139500D03*
X219000Y140000D03*
X218000Y127000D03*
X202500Y143500D03*
X198500Y136000D03*
X206339Y143500D03*
X208000Y156500D03*
X210000Y164500D03*
X203500Y175500D03*
X200500D03*
X219000Y173000D03*
Y184500D03*
X206500Y173000D03*
X227500Y14063D03*
Y20937D03*
X233500Y11500D03*
X224500Y23500D03*
X227500Y17500D03*
X241000D03*
X226000Y6000D03*
X230000D03*
X238500Y43000D03*
X233000Y41000D03*
X227500D03*
X238500Y46500D03*
X232500Y27000D03*
X236500D03*
X243000Y32500D03*
X227500Y56000D03*
X238500Y53500D03*
X244000Y69500D03*
X229500Y86937D03*
Y83500D03*
X232000Y76000D03*
X224908Y74700D03*
X229000Y76500D03*
X227500Y119937D03*
X230000Y105500D03*
X224000Y110500D03*
X227500Y116000D03*
X235000Y139500D03*
X238500Y123500D03*
X235000Y143000D03*
X228500Y139000D03*
X225000Y123000D03*
X243898Y134050D03*
X235000Y123000D03*
X240000Y136500D03*
X224000Y152500D03*
X240000Y168000D03*
Y165000D03*
X235000Y151500D03*
X244500Y173000D03*
X228500Y190000D03*
X223000Y187500D03*
Y184500D03*
X244500Y185500D03*
X228500Y173000D03*
X235500Y178000D03*
X267500Y38500D03*
X262500Y43000D03*
X252000Y37500D03*
X249000D03*
X262000Y26000D03*
X262500Y55000D03*
X249500Y61280D03*
X253500D03*
Y83000D03*
X266500Y90000D03*
X254000Y80000D03*
X259000Y122000D03*
X264000Y134500D03*
X259000Y139500D03*
X248500Y134000D03*
X262500Y124000D03*
X259000Y151500D03*
X265000Y169500D03*
X245500Y158000D03*
X248500D03*
X259500Y163000D03*
Y173000D03*
X274000Y-2000D03*
Y9500D03*
Y3000D03*
Y14500D03*
X278500Y46500D03*
X276000Y26000D03*
Y34000D03*
X272500Y38500D03*
Y55000D03*
X270500Y94000D03*
X289000Y95000D03*
X292500Y74000D03*
X270500Y83000D03*
X277980Y91500D03*
X289000Y98500D03*
X270500Y105500D03*
Y100000D03*
X272500Y119500D03*
X270500Y111000D03*
X274260Y101260D03*
X281500Y140000D03*
X275000Y139500D03*
X289000Y157000D03*
X280500Y157500D03*
X274500Y169500D03*
X273500Y150500D03*
X272000Y147000D03*
X270500Y186000D03*
X273500D03*
X270500Y179500D03*
X277500Y185000D03*
X317500Y20000D03*
X305500Y30000D03*
X313000Y47000D03*
X317500Y34000D03*
Y25000D03*
X300500Y30000D03*
X304000Y95000D03*
X302500Y118000D03*
X315500Y142000D03*
X294000Y157000D03*
X304500D03*
X318500Y162500D03*
Y154500D03*
G54D21*
G01X-9000Y74000D02*
X-9204Y74204D01*
G01D02*
Y78358D01*
G01X-9000Y115000D02*
X-9204Y114796D01*
G01D02*
Y110642D01*
G01X76500Y126000D02*
X71500D01*
X68500Y123000D01*
X62000D01*
X43500Y104500D01*
Y61500D01*
X49000Y56000D01*
Y28500D01*
X45500Y25000D01*
Y13329D01*
X50329Y8500D01*
X103247D01*
X105106Y10359D01*
X124067D01*
X126208Y12500D01*
X131000D01*
G01Y7500D02*
X125000D01*
X124500Y8000D01*
X112500D01*
X110259Y5759D01*
X104241D01*
X103500Y6500D01*
X49500D01*
X43500Y12500D01*
Y26000D01*
X47000Y29500D01*
Y55000D01*
X41500Y60500D01*
Y106000D01*
X61000Y125500D01*
X68000D01*
X72500Y130000D01*
X80500D01*
G01X62000Y119500D02*
X45500Y103000D01*
Y63000D01*
X48500Y60000D01*
G01X61500Y63000D02*
Y52500D01*
X53500Y44500D01*
Y30000D01*
X64500Y19000D01*
X91000D01*
X100500Y28500D01*
X113000D01*
X116200Y31700D01*
X121700D01*
X124500Y34500D01*
X155000D01*
X159000Y38500D01*
X175500D01*
X194500Y57500D01*
Y62000D01*
G01X249500Y61280D02*
X246220Y58000D01*
X234500D01*
X226500Y50000D01*
X220000D01*
X206500Y36500D01*
X160000D01*
X156000Y32500D01*
X126000D01*
X123000Y29500D01*
X117500D01*
X114500Y26500D01*
X101500D01*
X92000Y17000D01*
X62500D01*
X51500Y28000D01*
G01X253500Y61280D02*
X248220Y56000D01*
X235500D01*
X227500Y48000D01*
X221000D01*
X207500Y34500D01*
X161000D01*
X157000Y30500D01*
X127000D01*
X120500Y24000D01*
X102500D01*
X93500Y15000D01*
X60500D01*
X51500Y24000D01*
X48000D01*
G01X51500Y20000D02*
X58500Y13000D01*
X102797D01*
X111797Y22000D01*
X122000D01*
X128000Y28000D01*
X158500D01*
X163000Y32500D01*
X209000D01*
X215000Y38500D01*
X218500D01*
X223500Y43500D01*
X234000D01*
X237500Y40000D01*
X251000D01*
X252000Y39000D01*
Y37500D01*
G01X249000D02*
X248500Y38000D01*
X220475D01*
X219225Y36750D01*
X216250D01*
X210000Y30500D01*
X197500D01*
X185500Y18500D01*
X123500D01*
X122000Y20000D01*
X112272D01*
X103272Y11000D01*
X57500D01*
X52500Y16000D01*
X48000D01*
G01X64000Y34000D02*
X74000D01*
X82500Y42500D01*
X91000D01*
X99000Y50500D01*
X112000D01*
X120000Y58500D01*
X163500D01*
X175000Y70000D01*
X185500D01*
X187000Y71500D01*
X195000D01*
X196500Y73000D01*
Y75500D01*
X202000Y81000D01*
X223563D01*
X229500Y86937D01*
G01X56500Y31000D02*
X62000Y36500D01*
X73500D01*
X81500Y44500D01*
X90000D01*
X98000Y52500D01*
X111000D01*
X119000Y60500D01*
X162500D01*
X177000Y75000D01*
X185500D01*
X193500Y83000D01*
X213000D01*
X219000Y89000D01*
G01X69000Y29000D02*
X75000D01*
X84500Y38500D01*
X93000D01*
X101000Y46500D01*
X114000D01*
X122000Y54500D01*
X165500D01*
X177000Y66000D01*
X186500D01*
X188000Y67500D01*
X197000D01*
X200500Y71000D01*
Y73500D01*
X204000Y77000D01*
X222608D01*
X224908Y74700D01*
G01X64000Y29000D02*
X66500Y31500D01*
X74500D01*
X83500Y40500D01*
X92000D01*
X100000Y48500D01*
X113000D01*
X121000Y56500D01*
X164500D01*
X176000Y68000D01*
X186000D01*
X187500Y69500D01*
X196000D01*
X198500Y72000D01*
Y74500D01*
X203000Y79000D01*
X226500D01*
X229000Y76500D01*
G01X194500Y112000D02*
X191500Y115000D01*
X187500D01*
X185500Y113000D01*
Y102000D01*
X175500Y92000D01*
X151000D01*
X149500Y93500D01*
X141000D01*
X125500Y78000D01*
X112500D01*
X108500Y74000D01*
Y70500D01*
X104000Y66000D01*
X100500D01*
X85550Y51050D01*
X80550D01*
X77500Y48000D01*
Y44000D01*
X72000Y38500D01*
X60000D01*
X56500Y35000D01*
G01X248500Y134000D02*
Y132500D01*
X247750Y131750D01*
X225750D01*
X221500Y136000D01*
X210000D01*
X207500Y138500D01*
X196000D01*
X187500Y130000D01*
X168500D01*
X153500Y115000D01*
X74000D01*
X62500Y103500D01*
Y74500D01*
X66000Y71000D01*
Y48500D01*
X56500Y39000D01*
G01X243898Y134050D02*
X243848Y134000D01*
X226500D01*
X221300Y139200D01*
Y141200D01*
X220000Y142500D01*
X211000D01*
X209000Y140500D01*
X195000D01*
X186500Y132000D01*
X167500D01*
X152500Y117000D01*
X73000D01*
X60500Y104500D01*
Y73500D01*
X64000Y70000D01*
Y50500D01*
X56500Y43000D01*
G01X69000Y41000D02*
Y47500D01*
X68000Y48500D01*
Y72500D01*
X64500Y76000D01*
Y102500D01*
X74000Y112000D01*
X74500D01*
G01X54500Y54000D02*
X56500Y56000D01*
Y65000D01*
X50000Y71500D01*
Y100000D01*
X71000Y121000D01*
X150500D01*
X180000Y150500D01*
X207000D01*
X208500Y149000D01*
X224500D01*
X233500Y158000D01*
X245500D01*
G01X54500Y50000D02*
X58500Y54000D01*
Y105499D01*
X72000Y119000D01*
X151500D01*
X181000Y148500D01*
X206000D01*
X207500Y147000D01*
X225500D01*
X233500Y155000D01*
X247500D01*
X248500Y156000D01*
Y158000D01*
G01X52500Y60000D02*
Y64000D01*
X48000Y68500D01*
Y101500D01*
X66000Y119500D01*
G01X86500Y22000D02*
X91025D01*
X105525Y36500D01*
X153500D01*
X157500Y40500D01*
X172500D01*
X176000Y44000D01*
G01X189500Y112000D02*
Y103000D01*
X176500Y90000D01*
X151500D01*
X150000Y88500D01*
X139000D01*
X126500Y76000D01*
X113500D01*
X110500Y73000D01*
Y69500D01*
X105000Y64000D01*
X101500D01*
X86800Y49300D01*
X82800D01*
X80500Y47000D01*
G01X192000Y103500D02*
Y101500D01*
X178500Y88000D01*
X152500D01*
X151000Y86500D01*
X140000D01*
X127500Y74000D01*
X114500D01*
X112500Y72000D01*
Y68500D01*
X106000Y62000D01*
X102500D01*
X87500Y47000D01*
G01X213000Y72500D02*
X205500Y65000D01*
X189500D01*
X185500Y61000D01*
X180500D01*
X172000Y52500D01*
X123000D01*
X115000Y44500D01*
X102000D01*
X94000Y36500D01*
X85500D01*
X73500Y24500D01*
G01X74500Y46000D02*
Y48000D01*
X79500Y53000D01*
X84500D01*
X87500Y56000D01*
Y60500D01*
X97000Y70000D01*
X102000D01*
X104500Y72500D01*
Y76000D01*
X110500Y82000D01*
X116500D01*
X119000Y84500D01*
Y90500D01*
X121500Y93000D01*
X130500D01*
X147000Y109500D01*
G01X86500Y26000D02*
X89500Y29000D01*
X92000D01*
X103500Y40500D01*
X150000D01*
X157000Y47500D01*
X158500D01*
G01X90500Y26000D02*
X92000D01*
X104500Y38500D01*
X151500D01*
X157000Y44000D01*
G01X86500Y30000D02*
Y32184D01*
X88816Y34500D01*
X94500D01*
X102500Y42500D01*
X116000D01*
X123500Y50000D01*
X140500D01*
G01X150500Y96000D02*
X140500D01*
X124500Y80000D01*
X111500D01*
X106500Y75000D01*
Y71500D01*
X103000Y68000D01*
X98500D01*
X90500Y60000D01*
G01X80000Y56000D02*
Y59500D01*
X97500Y77000D01*
Y79000D01*
X115500Y97000D01*
X120500D01*
X133000Y109500D01*
G01X83500Y56000D02*
Y60000D01*
X99500Y76000D01*
Y78000D01*
X116500Y95000D01*
X122000D01*
X136500Y109500D01*
X140000D01*
G01X80000Y63000D02*
Y65500D01*
X82500Y68000D01*
X85000D01*
X94000Y77000D01*
Y87000D01*
G01X77000Y63000D02*
Y66500D01*
X81500Y71000D01*
X85000D01*
X91000Y77000D01*
Y80500D01*
X89000Y82500D01*
Y87000D01*
G01X79000D02*
Y80000D01*
G01X84500Y75500D02*
X86000Y77000D01*
Y80500D01*
X84000Y82500D01*
Y87000D01*
G01X80500Y77000D02*
X77253D01*
X74000Y80253D01*
Y87000D01*
G01X191000Y160000D02*
X183500Y152500D01*
X179000D01*
X149500Y123000D01*
X83500D01*
X80500Y126000D01*
G01X226000Y6000D02*
X219000Y13000D01*
X198500D01*
X195500Y10000D01*
X148500D01*
X146000Y12500D01*
X131000D01*
G01X230000Y6000D02*
X227500Y3500D01*
X225000D01*
X217500Y11000D01*
X199500D01*
X196500Y8000D01*
X147500D01*
X145500Y10000D01*
X133500D01*
X131000Y7500D01*
G01X147650Y-1500D02*
Y4350D01*
X144500Y7500D01*
G01X139750Y-1500D02*
Y3250D01*
X135500Y7500D01*
G01X122500Y90500D02*
X132000D01*
X169000Y127500D01*
X180500D01*
G01X125500Y167000D02*
X126500Y166000D01*
Y141000D01*
X130500Y137000D01*
G01X149500Y12500D02*
X194000D01*
X196500Y15000D01*
G01X150500Y96000D02*
X154000Y99500D01*
X178500D01*
G01X186000Y87500D02*
X181500Y83000D01*
X152500D01*
X149500Y80000D01*
G01X154500D02*
X159000D01*
X159500Y80500D01*
X186000D01*
G01X204720Y46000D02*
X200250D01*
X194000Y39750D01*
Y39500D01*
G01X209126Y45906D02*
X206532Y48500D01*
X196500D01*
X189000Y41000D01*
G01X218000Y127000D02*
Y124000D01*
X189500Y95500D01*
Y91000D01*
X186000Y87500D01*
G01X191000Y140000D02*
X194500Y143500D01*
X202500D01*
G01X181000Y140000D02*
X187500Y146500D01*
X203339D01*
X206339Y143500D01*
G01X205500Y39000D02*
X216500Y50000D01*
Y58000D01*
G01X235000Y123000D02*
Y115000D01*
X233700Y113700D01*
X219700D01*
X217000Y111000D01*
X212500D01*
G01X240000Y136500D02*
X226500D01*
X223050Y139950D01*
Y142450D01*
X221000Y144500D01*
X210000D01*
X209000Y143500D01*
X206339D01*
G01X226000Y6000D02*
X231000Y11000D01*
Y25750D01*
X232250Y27000D01*
X232500D01*
G01X236500D02*
Y10000D01*
X232500Y6000D01*
X230000D01*
G01X243000Y32500D02*
X246500D01*
X248500Y34500D01*
X272000D01*
X293500Y56000D01*
X310500D01*
G01X219000Y32500D02*
X222500Y36000D01*
X239500D01*
X243000Y32500D01*
G01X259000Y122000D02*
Y119500D01*
X262500Y116000D01*
X276000D01*
X292000Y132000D01*
X310500D01*
G54D12*
X-9204Y78358D03*
Y110642D03*
G54D22*
G01X132250Y-1500D02*
X127000D01*
G01X142000Y23400D02*
X146602D01*
G01X137398D02*
X142000D01*
G01X154350Y-1500D02*
X159000D01*
G01X292500Y74000D02*
Y73750D01*
X290750Y72000D01*
X217000D01*
X214000Y75000D01*
X206000D01*
X203500Y72500D01*
G01X274000Y9500D02*
X307000D01*
X317500Y20000D01*
G01X270500Y105500D02*
X290000D01*
X302500Y118000D01*
G01X311600Y94898D02*
Y99500D01*
G01Y84898D02*
Y89500D01*
G01D02*
Y94102D01*
G01X306998Y89500D02*
X311600D01*
G01D02*
X316202D01*
G01X311600Y99500D02*
Y104102D01*
G01X306998Y99500D02*
X311600D01*
G01D02*
X316202D01*
G54D13*
X20000Y-3000D03*
Y192000D03*
X309000Y-3000D03*
G54D23*
G01X115000Y70500D02*
X153000D01*
X160000Y63500D01*
G01X274000Y3000D02*
X271000Y0D01*
X218000D01*
X210500Y7500D01*
G54D14*
X2922Y84953D03*
Y104047D03*
G54D24*
G01X-17000Y30500D02*
Y0D01*
G03X0Y-17000I17000J0D01*
G01X29500D01*
G01X-17000Y158500D02*
Y189000D01*
G02X0Y206000I17000J0D01*
G01X29500D01*
G01X340000Y30500D02*
Y0D01*
G02X323000Y-17000I-17000J0D01*
G01X293500D01*
G01X340000Y158500D02*
Y189000D01*
G03X323000Y206000I-17000J0D01*
G01X293500D01*
G54D15*
X94000Y87000D03*
X89000D03*
X84000D03*
X79000D03*
X74000D03*
X94000Y103000D03*
X89000D03*
X84000D03*
X79000D03*
X74000D03*
G54D25*
G01X152800Y181500D02*
X153307Y181367D01*
X153687Y181033D01*
X153940Y180633D01*
X154130Y180100D01*
X154193Y179500D01*
X154130Y178900D01*
X153940Y178367D01*
X153687Y177967D01*
X153307Y177633D01*
X152800Y177500D01*
X152293Y177633D01*
X151913Y177967D01*
X151660Y178367D01*
X151470Y178900D01*
X151407Y179500D01*
X151470Y180100D01*
X151660Y180633D01*
X151913Y181033D01*
X152293Y181367D01*
X152800Y181500D01*
G01X147700Y177500D02*
X147257Y177567D01*
X146750Y177767D01*
X146433Y178100D01*
X146307Y178567D01*
X146433Y179033D01*
X146813Y179433D01*
X147383Y179633D01*
X148017D01*
X148397Y179767D01*
X148713Y180100D01*
X148840Y180567D01*
X148650Y181033D01*
X148207Y181367D01*
X147700Y181500D01*
X147193Y181367D01*
X146750Y181033D01*
X146560Y180567D01*
X146687Y180100D01*
X147003Y179767D01*
X147383Y179633D01*
X148017D01*
X148587Y179433D01*
X148967Y179033D01*
X149093Y178567D01*
X148967Y178100D01*
X148650Y177767D01*
X148143Y177567D01*
X147700Y177500D01*
G01X143423Y178833D02*
X141777D01*
G01X137500Y181500D02*
X138007Y181367D01*
X138387Y181033D01*
X138640Y180633D01*
X138830Y180100D01*
X138893Y179500D01*
X138830Y178900D01*
X138640Y178367D01*
X138387Y177967D01*
X138007Y177633D01*
X137500Y177500D01*
X136993Y177633D01*
X136613Y177967D01*
X136360Y178367D01*
X136170Y178900D01*
X136107Y179500D01*
X136170Y180100D01*
X136360Y180633D01*
X136613Y181033D01*
X136993Y181367D01*
X137500Y181500D01*
G01X133793Y178300D02*
X133413Y177833D01*
X132907Y177567D01*
X132337Y177500D01*
X131830Y177567D01*
X131323Y177900D01*
X131007Y178300D01*
X130943Y178700D01*
X131070Y179167D01*
X131513Y179500D01*
X131957Y179633D01*
X132527D01*
G01X131957D02*
X131577Y179833D01*
X131260Y180167D01*
X131133Y180567D01*
X131260Y180967D01*
X131577Y181300D01*
X132147Y181500D01*
X132717Y181433D01*
X133287Y181167D01*
G01X127427Y177500D02*
X127300Y178367D01*
X127110Y179100D01*
X126857Y179767D01*
X126540Y180500D01*
X126033Y181500D01*
X128567D01*
G01X122327Y177500D02*
X122200Y178367D01*
X122010Y179100D01*
X121757Y179767D01*
X121440Y180500D01*
X120933Y181500D01*
X123467D01*
G01X118303Y179167D02*
X117860Y179633D01*
X117480Y179900D01*
X116973Y180033D01*
X116530Y179900D01*
X116213Y179633D01*
X115960Y179233D01*
X115897Y178767D01*
X115960Y178367D01*
X116213Y177967D01*
X116593Y177633D01*
X117037Y177500D01*
X117543Y177633D01*
X117987Y178033D01*
X118240Y178633D01*
X118303Y179300D01*
X118177Y180167D01*
X117987Y180633D01*
X117670Y181100D01*
X117227Y181433D01*
X116783Y181500D01*
X116340Y181367D01*
X116023Y181033D01*
G01X112000Y181500D02*
X112507Y181367D01*
X112887Y181033D01*
X113140Y180633D01*
X113330Y180100D01*
X113393Y179500D01*
X113330Y178900D01*
X113140Y178367D01*
X112887Y177967D01*
X112507Y177633D01*
X112000Y177500D01*
X111493Y177633D01*
X111113Y177967D01*
X110860Y178367D01*
X110670Y178900D01*
X110607Y179500D01*
X110670Y180100D01*
X110860Y180633D01*
X111113Y181033D01*
X111493Y181367D01*
X112000Y181500D01*
G01X103067Y177500D02*
Y181500D01*
X101483D01*
X100977Y181300D01*
X100660Y181033D01*
X100533Y180500D01*
X100660Y179967D01*
X101040Y179633D01*
X101483Y179433D01*
X103067D01*
G01X101483D02*
X100533Y177500D01*
G01X95433D02*
X97967D01*
Y181500D01*
X95433D01*
G01X96447Y179567D02*
X97967D01*
G01X93183Y181500D02*
X91600Y177500D01*
X90017Y181500D01*
G01X82793Y177500D02*
Y181500D01*
X81527D01*
X81020Y181300D01*
X80640Y181033D01*
X80323Y180633D01*
X80070Y180167D01*
X80007Y179500D01*
X80070Y178833D01*
X80323Y178367D01*
X80640Y177967D01*
X81020Y177700D01*
X81527Y177500D01*
X82793D01*
G01X72403Y181500D02*
X69997D01*
X72403Y177500D01*
X69997D01*
G01X155980Y185533D02*
X155473Y185200D01*
X154903Y185000D01*
X154397D01*
X153890Y185200D01*
X153510Y185533D01*
X153320Y186000D01*
X153447Y186467D01*
X153763Y186867D01*
X154333Y187133D01*
X155093Y187267D01*
X155537Y187533D01*
X155727Y188000D01*
X155600Y188467D01*
X155283Y188800D01*
X154840Y189000D01*
X154397D01*
X153953Y188867D01*
X153573Y188533D01*
G01X148283Y185000D02*
X150817D01*
Y189000D01*
X148283D01*
G01X149297Y187067D02*
X150817D01*
G01X143057Y188667D02*
X143437Y188867D01*
X143880Y189000D01*
X144387D01*
X144957Y188800D01*
X145400Y188467D01*
X145717Y188067D01*
X145970Y187400D01*
X146033Y186800D01*
X145907Y186200D01*
X145717Y185800D01*
X145337Y185400D01*
X144893Y185133D01*
X144450Y185000D01*
X144007D01*
X143563Y185133D01*
X143183Y185333D01*
X142867Y185600D01*
G01X139350Y185000D02*
X139857Y185067D01*
X140300Y185333D01*
X140680Y185733D01*
X140933Y186200D01*
X141060Y186733D01*
Y187267D01*
X140933Y187800D01*
X140680Y188267D01*
X140300Y188667D01*
X139857Y188933D01*
X139350Y189000D01*
X138843Y188933D01*
X138400Y188667D01*
X138020Y188267D01*
X137767Y187800D01*
X137640Y187267D01*
Y186733D01*
X137767Y186200D01*
X138020Y185733D01*
X138400Y185333D01*
X138843Y185067D01*
X139350Y185000D01*
G01X135707D02*
Y189000D01*
X132793Y185000D01*
Y189000D01*
G01X130543Y185000D02*
Y189000D01*
X129277D01*
X128770Y188800D01*
X128390Y188533D01*
X128073Y188133D01*
X127820Y187667D01*
X127757Y187000D01*
X127820Y186333D01*
X128073Y185867D01*
X128390Y185467D01*
X128770Y185200D01*
X129277Y185000D01*
X130543D01*
G01X125633D02*
X124050Y189000D01*
X122467Y185000D01*
G01X123037Y186400D02*
X125063D01*
G01X120217Y185000D02*
Y189000D01*
X118633D01*
X118127Y188800D01*
X117810Y188533D01*
X117683Y188000D01*
X117810Y187467D01*
X118190Y187133D01*
X118633Y186933D01*
X120217D01*
G01X118633D02*
X117683Y185000D01*
G01X113850D02*
Y186800D01*
X115117Y189000D01*
G01X112583D02*
X113850Y186800D01*
G01X104980Y185533D02*
X104473Y185200D01*
X103903Y185000D01*
X103397D01*
X102890Y185200D01*
X102510Y185533D01*
X102320Y186000D01*
X102447Y186467D01*
X102763Y186867D01*
X103333Y187133D01*
X104093Y187267D01*
X104537Y187533D01*
X104727Y188000D01*
X104600Y188467D01*
X104283Y188800D01*
X103840Y189000D01*
X103397D01*
X102953Y188867D01*
X102573Y188533D01*
G01X99310Y189000D02*
X97790D01*
G01X98550D02*
Y185000D01*
G01X99310D02*
X97790D01*
G01X94843D02*
Y189000D01*
X93577D01*
X93070Y188800D01*
X92690Y188533D01*
X92373Y188133D01*
X92120Y187667D01*
X92057Y187000D01*
X92120Y186333D01*
X92373Y185867D01*
X92690Y185467D01*
X93070Y185200D01*
X93577Y185000D01*
X94843D01*
G01X87083D02*
X89617D01*
Y189000D01*
X87083D01*
G01X88097Y187067D02*
X89617D01*
G01X83518Y243067D02*
X82518Y242734D01*
X81768Y241900D01*
X81268Y240900D01*
X80893Y239567D01*
X80768Y238067D01*
X80893Y236567D01*
X81268Y235234D01*
X81768Y234233D01*
X82518Y233400D01*
X83518Y233067D01*
X84518Y233400D01*
X85268Y234233D01*
X85768Y235234D01*
X86143Y236567D01*
X86268Y238067D01*
X86143Y239567D01*
X85768Y240900D01*
X85268Y241900D01*
X84518Y242734D01*
X83518Y243067D01*
G01X93518Y233067D02*
X94393Y233234D01*
X95393Y233734D01*
X96018Y234567D01*
X96268Y235734D01*
X96018Y236900D01*
X95268Y237900D01*
X94143Y238400D01*
X92893D01*
X92143Y238734D01*
X91518Y239567D01*
X91268Y240734D01*
X91643Y241900D01*
X92518Y242734D01*
X93518Y243067D01*
X94518Y242734D01*
X95393Y241900D01*
X95768Y240734D01*
X95518Y239567D01*
X94893Y238734D01*
X94143Y238400D01*
X92893D01*
X91768Y237900D01*
X91018Y236900D01*
X90768Y235734D01*
X91018Y234567D01*
X91643Y233734D01*
X92643Y233234D01*
X93518Y233067D01*
G01X101893Y236400D02*
X105143D01*
G01X171893D02*
X175143D01*
G01X183518Y243067D02*
X182518Y242734D01*
X181768Y241900D01*
X181268Y240900D01*
X180893Y239567D01*
X180768Y238067D01*
X180893Y236567D01*
X181268Y235234D01*
X181768Y234233D01*
X182518Y233400D01*
X183518Y233067D01*
X184518Y233400D01*
X185268Y234233D01*
X185768Y235234D01*
X186143Y236567D01*
X186268Y238067D01*
X186143Y239567D01*
X185768Y240900D01*
X185268Y241900D01*
X184518Y242734D01*
X183518Y243067D01*
G01X191143Y241400D02*
X191893Y242400D01*
X192768Y242900D01*
X193768Y243067D01*
X195018Y242734D01*
X195893Y241900D01*
X196143Y240900D01*
X196018Y239900D01*
X195518Y239067D01*
X193018Y237400D01*
X191893Y236234D01*
X191143Y234567D01*
X190893Y233067D01*
X196143D01*
G01X77518Y262916D02*
Y252916D01*
X82518D01*
G01X91518D02*
Y262916D01*
X86893Y255749D01*
X93143D01*
G01X107393Y254249D02*
X108393Y253416D01*
X109518Y252916D01*
X110518D01*
X111518Y253416D01*
X112268Y254249D01*
X112643Y255416D01*
X112393Y256582D01*
X111768Y257583D01*
X110643Y258249D01*
X109143Y258583D01*
X108268Y259249D01*
X107893Y260416D01*
X108143Y261583D01*
X108768Y262416D01*
X109643Y262916D01*
X110518D01*
X111393Y262583D01*
X112143Y261749D01*
G01X122518Y252916D02*
X117518D01*
Y262916D01*
X122518D01*
G01X120518Y258083D02*
X117518D01*
G01X132768Y262083D02*
X132018Y262583D01*
X131143Y262916D01*
X130143D01*
X129018Y262416D01*
X128143Y261583D01*
X127518Y260583D01*
X127018Y258916D01*
X126893Y257416D01*
X127143Y255916D01*
X127518Y254916D01*
X128268Y253916D01*
X129143Y253249D01*
X130018Y252916D01*
X130893D01*
X131768Y253249D01*
X132518Y253749D01*
X133143Y254416D01*
G01X140018Y252916D02*
X139018Y253083D01*
X138143Y253749D01*
X137393Y254749D01*
X136893Y255916D01*
X136643Y257249D01*
Y258583D01*
X136893Y259916D01*
X137393Y261083D01*
X138143Y262083D01*
X139018Y262749D01*
X140018Y262916D01*
X141018Y262749D01*
X141893Y262083D01*
X142643Y261083D01*
X143143Y259916D01*
X143393Y258583D01*
Y257249D01*
X143143Y255916D01*
X142643Y254749D01*
X141893Y253749D01*
X141018Y253083D01*
X140018Y252916D01*
G01X147143D02*
Y262916D01*
X152893Y252916D01*
Y262916D01*
G01X157268Y252916D02*
Y262916D01*
X159768D01*
X160768Y262416D01*
X161518Y261749D01*
X162143Y260749D01*
X162643Y259582D01*
X162768Y257916D01*
X162643Y256249D01*
X162143Y255083D01*
X161518Y254082D01*
X160768Y253416D01*
X159768Y252916D01*
X157268D01*
G01X166893D02*
X170018Y262916D01*
X173143Y252916D01*
G01X172018Y256416D02*
X168018D01*
G01X177518Y252916D02*
Y262916D01*
X180643D01*
X181643Y262416D01*
X182268Y261749D01*
X182518Y260416D01*
X182268Y259083D01*
X181518Y258249D01*
X180643Y257749D01*
X177518D01*
G01X180643D02*
X182518Y252916D01*
G01X190018D02*
Y257416D01*
X187518Y262916D01*
G01X192518D02*
X190018Y257416D01*
G01X112518Y212916D02*
Y222916D01*
X115643D01*
X116643Y222416D01*
X117268Y221749D01*
X117518Y220416D01*
X117268Y219083D01*
X116518Y218249D01*
X115643Y217749D01*
X112518D01*
G01X115643D02*
X117518Y212916D01*
G01X127518D02*
X122518D01*
Y222916D01*
X127518D01*
G01X125518Y218083D02*
X122518D01*
G01X131893Y222916D02*
X135018Y212916D01*
X138143Y222916D01*
G01X152268Y212916D02*
Y222916D01*
X154768D01*
X155768Y222416D01*
X156518Y221749D01*
X157143Y220749D01*
X157643Y219582D01*
X157768Y217916D01*
X157643Y216249D01*
X157143Y215083D01*
X156518Y214082D01*
X155768Y213416D01*
X154768Y212916D01*
X152268D01*
G01X112518Y242916D02*
X111518Y242583D01*
X110768Y241749D01*
X110268Y240749D01*
X109893Y239416D01*
X109768Y237916D01*
X109893Y236416D01*
X110268Y235083D01*
X110768Y234082D01*
X111518Y233249D01*
X112518Y232916D01*
X113518Y233249D01*
X114268Y234082D01*
X114768Y235083D01*
X115143Y236416D01*
X115268Y237916D01*
X115143Y239416D01*
X114768Y240749D01*
X114268Y241749D01*
X113518Y242583D01*
X112518Y242916D01*
G01X119768Y234916D02*
X120518Y233749D01*
X121518Y233083D01*
X122643Y232916D01*
X123643Y233083D01*
X124643Y233916D01*
X125268Y234916D01*
X125393Y235916D01*
X125143Y237082D01*
X124268Y237916D01*
X123393Y238249D01*
X122268D01*
G01X123393D02*
X124143Y238749D01*
X124768Y239582D01*
X125018Y240583D01*
X124768Y241583D01*
X124143Y242416D01*
X123018Y242916D01*
X121893Y242749D01*
X120768Y242083D01*
G01X132268Y232916D02*
X132518Y235083D01*
X132893Y236916D01*
X133393Y238583D01*
X134018Y240416D01*
X135018Y242916D01*
X130018D01*
G01X142268Y232916D02*
X142518Y235083D01*
X142893Y236916D01*
X143393Y238583D01*
X144018Y240416D01*
X145018Y242916D01*
X140018D01*
G01X150143Y237082D02*
X151018Y238249D01*
X151768Y238916D01*
X152768Y239249D01*
X153643Y238916D01*
X154268Y238249D01*
X154768Y237249D01*
X154893Y236083D01*
X154768Y235083D01*
X154268Y234082D01*
X153518Y233249D01*
X152643Y232916D01*
X151643Y233249D01*
X150768Y234249D01*
X150268Y235749D01*
X150143Y237416D01*
X150393Y239582D01*
X150768Y240749D01*
X151393Y241916D01*
X152268Y242749D01*
X153143Y242916D01*
X154018Y242583D01*
X154643Y241749D01*
G01X162518Y242916D02*
X161518Y242583D01*
X160768Y241749D01*
X160268Y240749D01*
X159893Y239416D01*
X159768Y237916D01*
X159893Y236416D01*
X160268Y235083D01*
X160768Y234082D01*
X161518Y233249D01*
X162518Y232916D01*
X163518Y233249D01*
X164268Y234082D01*
X164768Y235083D01*
X165143Y236416D01*
X165268Y237916D01*
X165143Y239416D01*
X164768Y240749D01*
X164268Y241749D01*
X163518Y242583D01*
X162518Y242916D01*
G54D16*
X147650Y-1500D03*
X154350D03*
G54D17*
X139750D03*
X132250D03*
G54D18*
X132000Y23400D03*
X142000D03*
X152000D03*
X162000D03*
X172000D03*
X311600Y69500D03*
Y79500D03*
Y89500D03*
Y99500D03*
Y109500D03*
G54D19*
X182000Y23400D03*
X311600Y119500D03*
M02*
