G04 ================== begin FILE IDENTIFICATION RECORD ==================*
G04 Layout Name:  C:/tmp/20_037760d/worklib/02_037760d_top/physical/08_037760d.brd*
G04 Film Name:    mask_prm*
G04 File Format:  Gerber RS274X*
G04 File Origin:  Cadence Allegro 16.5-S052*
G04 Origin Date:  Tue Jan 06 12:18:48 2015*
G04 *
G04 Layer:  VIA CLASS/SOLDERMASK_TOP*
G04 Layer:  PIN/SOLDERMASK_TOP*
G04 Layer:  PACKAGE GEOMETRY/SOLDERMASK_TOP*
G04 Layer:  BOARD GEOMETRY/TOOLING_CORNERS*
G04 Layer:  BOARD GEOMETRY/SOLDERMASK_TOP*
G04 Layer:  BOARD GEOMETRY/ROOT_NUMBER*
G04 *
G04 Offset:    (0.00 0.00)*
G04 Mirror:    No*
G04 Mode:      Positive*
G04 Rotation:  0*
G04 FullContactRelief:  No*
G04 UndefLineWidth:     8.00*
G04 ================== end FILE IDENTIFICATION RECORD ====================*
%FSLAX55Y55*MOIN*%
%IR0*IPPOS*OFA0.00000B0.00000*MIA0B0*SFA1.00000B1.00000*%
%ADD29R,.105X.04*%
%ADD45R,.043X.151*%
%ADD47R,.101X.098*%
%ADD17C,.08*%
%ADD37C,.065*%
%ADD65C,.077*%
%ADD48R,.065X.065*%
%ADD44R,.085X.085*%
%ADD32R,.067X.067*%
%ADD55R,.068X.068*%
%AMMACRO15*
4,1,35,.0053,-.055,
-.0463,-.055,
-.04946,-.054724,
-.052525,-.053902,
-.0554,-.052562,
-.057999,-.050742,
-.060242,-.048499,
-.062062,-.0459,
-.063402,-.043025,
-.064224,-.03996,
-.0645,-.0368,
-.0645,.014,
-.0197,.014,
-.01501,.014412,
-.010462,.015633,
-.006196,.017624,
-.00234,.020326,
.000988,.023657,
.003687,.027515,
.005675,.031783,
.006892,.036331,
.0073,.041,
.0073,.055,
.0645,.055,
.0645,-.0215,
.0235,-.0215,
.0235,-.0368,
.023224,-.03996,
.022402,-.043025,
.021062,-.0459,
.019242,-.048499,
.016999,-.050742,
.0144,-.052562,
.011525,-.053902,
.00846,-.054724,
.0053,-.055,
0.0*
%
%ADD15MACRO15*%
%AMMACRO16*
4,1,35,.0053,.055,
.00846,.054724,
.011525,.053902,
.0144,.052562,
.016999,.050742,
.019242,.048499,
.021062,.0459,
.022402,.043025,
.023224,.03996,
.0235,.0368,
.0235,.0215,
.0645,.0215,
.0645,-.055,
.0073,-.055,
.0073,-.041,
.006888,-.03631,
.005667,-.031762,
.003676,-.027496,
.000974,-.02364,
-.002357,-.020312,
-.006215,-.017613,
-.010483,-.015625,
-.015031,-.014408,
-.0197,-.014,
-.0645,-.014,
-.0645,.0368,
-.064224,.03996,
-.063402,.043025,
-.062062,.0459,
-.060242,.048499,
-.057999,.050742,
-.0554,.052562,
-.052525,.053902,
-.04946,.054724,
-.0463,.055,
.0053,.055,
0.0*
%
%ADD16MACRO16*%
%ADD31O,.043X.014*%
%ADD43O,.012X.036*%
%ADD30O,.014X.043*%
%ADD40O,.045X.014*%
%ADD50O,.037X.014*%
%ADD41O,.014X.045*%
%ADD20R,.073X.02*%
%ADD57O,.043X.018*%
%ADD58O,.018X.043*%
%ADD52O,.039X.014*%
%ADD25R,.037X.04*%
%ADD59O,.038X.016*%
%ADD53O,.014X.039*%
%ADD36R,.029X.022*%
%ADD12R,.04X.037*%
%ADD63R,.045X.06*%
%ADD33R,.038X.05*%
%ADD13O,.016X.038*%
%ADD62R,.06X.056*%
%ADD49R,.033X.055*%
%ADD26R,.065X.015*%
%ADD61R,.056X.06*%
%ADD27R,.015X.065*%
%ADD22R,.029X.025*%
%ADD39R,.102X.102*%
%ADD19R,.052X.048*%
%ADD10C,.145*%
%ADD60R,.043X.067*%
%ADD54R,.057X.017*%
%ADD35R,.058X.025*%
%ADD21R,.062X.084*%
%ADD11R,.048X.052*%
%ADD56R,.091X.029*%
%ADD34R,.017X.057*%
%ADD14R,.067X.043*%
%ADD64R,.029X.091*%
%ADD46R,.045X.075*%
%ADD24R,.086X.055*%
%ADD23R,.092X.085*%
%ADD18R,.068X.056*%
%ADD38R,.056X.068*%
%ADD28R,.084X.099*%
%ADD51R,.069X.098*%
%ADD42R,.098X.069*%
%ADD66C,.025*%
%ADD67C,.008*%
G75*
%LPD*%
G75*
G36*
G01X118190Y13841D02*
X115290D01*
Y21159D01*
X118190D01*
Y13841D01*
G37*
G36*
G01X110710D02*
X107810D01*
Y21159D01*
X110710D01*
Y13841D01*
G37*
G36*
G01X118190Y1841D02*
X115290D01*
Y9159D01*
X118190D01*
Y1841D01*
G37*
G36*
G01X110710D02*
X107810D01*
Y9159D01*
X110710D01*
Y1841D01*
G37*
G36*
G01X272810Y98659D02*
X275710D01*
Y91341D01*
X272810D01*
Y98659D01*
G37*
G36*
G01X280290D02*
X283190D01*
Y91341D01*
X280290D01*
Y98659D01*
G37*
G36*
G01X291310D02*
X294210D01*
Y91341D01*
X291310D01*
Y98659D01*
G37*
G36*
G01X298790D02*
X301690D01*
Y91341D01*
X298790D01*
Y98659D01*
G37*
G54D10*
X0Y0D03*
Y189125D03*
X322925Y0D03*
Y189125D03*
G54D11*
X-3850Y25500D03*
X-1850Y62000D03*
X2850Y25500D03*
X4850Y62000D03*
X23350Y158500D03*
X16650D03*
X22350Y150000D03*
X15650D03*
X44650Y80000D03*
X30650D03*
X37350D03*
X51350D03*
X122650Y35000D03*
X108650Y42000D03*
X115350D03*
X129350Y35000D03*
X135850Y123500D03*
X129150D03*
X152650Y68500D03*
X159350D03*
X170650Y188500D03*
X196650Y122500D03*
X180650D03*
X187350D03*
X177350Y188500D03*
X189150Y175500D03*
X195850D03*
X203350Y122500D03*
X232150Y22500D03*
X238850D03*
X232150Y118500D03*
X238850D03*
X243650Y129000D03*
X233150Y173000D03*
X239850D03*
X266650Y43500D03*
X247150Y32500D03*
X253850D03*
X269850Y139500D03*
X263150D03*
X250350Y129000D03*
X273350Y43500D03*
X282150Y85000D03*
X288850D03*
X282150Y105000D03*
X288850D03*
G54D20*
X2110Y94500D03*
Y91941D03*
Y89382D03*
Y99618D03*
Y97059D03*
G54D21*
X2922Y83053D03*
Y105947D03*
G54D12*
X-3000Y32500D03*
X-400Y69000D03*
X-2500Y55000D03*
X21500Y29000D03*
Y35500D03*
Y42000D03*
X2000Y32500D03*
X5400Y69000D03*
X23500Y57500D03*
X18500D03*
X23500Y63000D03*
X18500D03*
X23500Y52000D03*
X18500D03*
X2500Y55000D03*
X15000Y109500D03*
X20000D03*
X15000Y103000D03*
X20000D03*
X21900Y142000D03*
X16100D03*
X20000Y179000D03*
X43500Y-1000D03*
X48500D03*
X26500Y29000D03*
Y35500D03*
Y42000D03*
X25000Y179000D03*
X37500Y189000D03*
X32500D03*
X37500Y182000D03*
X32500D03*
X59500Y-1000D03*
X64500D03*
X71500Y168500D03*
X63500Y183000D03*
X58500D03*
X85500Y-1000D03*
X90500D03*
X88500Y82000D03*
X83500D03*
X76500Y168500D03*
X108500Y35000D03*
X113500D03*
X108500Y26500D03*
X113500D03*
X108500Y54500D03*
X113500D03*
X119000Y139000D03*
X114000D03*
X140000Y69500D03*
X145000D03*
X129000Y132500D03*
X134000D03*
X158500Y75500D03*
X153500D03*
X195000Y70000D03*
X190000D03*
X187000Y99500D03*
X192000D03*
X187000Y107000D03*
X192000D03*
X180000D03*
X175000D03*
X202500Y59000D03*
X207500D03*
X199000Y94500D03*
X204000D03*
Y108500D03*
X199000D03*
Y101500D03*
X204000D03*
Y115500D03*
X199000D03*
Y156500D03*
X204000D03*
X203000Y194000D03*
X208000D03*
X220500D03*
X234500Y72000D03*
X239500D03*
X234500Y65000D03*
X239500D03*
Y86000D03*
X234500D03*
X239500Y79000D03*
X234500D03*
X225500Y194000D03*
X267000Y21500D03*
X262000D03*
X266500Y50500D03*
X256000Y87500D03*
X261000D03*
X267500Y119000D03*
X262500D03*
X263000Y147000D03*
X268000D03*
X250000Y173000D03*
X255000D03*
X271500Y50500D03*
X293500Y67500D03*
X291500Y120000D03*
X286500D03*
X294500Y186000D03*
X289500D03*
X308000Y13000D03*
X313000D03*
X295000Y1000D03*
X300000D03*
X298500Y67500D03*
G54D30*
X39031Y161319D03*
X42969D03*
X41000D03*
X39031Y173681D03*
X42969D03*
X41000D03*
G54D22*
X16796Y90500D03*
X21204D03*
X16796Y95500D03*
X21204D03*
G54D13*
X-4559Y47759D03*
Y39241D03*
X-2000Y47759D03*
X559D03*
Y39241D03*
X-2000D03*
G54D40*
X142756Y88437D03*
Y86469D03*
Y84500D03*
Y82531D03*
Y80563D03*
X127244D03*
Y82531D03*
Y84500D03*
Y86469D03*
Y88437D03*
X165744Y80563D03*
Y82531D03*
Y84500D03*
Y86469D03*
Y88437D03*
X181256D03*
Y86469D03*
Y84500D03*
Y82531D03*
Y80563D03*
G54D31*
X34819Y169469D03*
Y165531D03*
X47181D03*
Y169469D03*
X34819Y167500D03*
X47181D03*
G54D23*
X20000Y121000D03*
Y133000D03*
G54D14*
X-2000Y43500D03*
G54D41*
X131063Y92256D03*
X133031D03*
X135000D03*
X136969D03*
X138937D03*
Y76744D03*
X136969D03*
X135000D03*
X133031D03*
X131063D03*
X169563Y92256D03*
Y76744D03*
X171531Y92256D03*
X173500D03*
X175469D03*
X177437D03*
Y76744D03*
X175469D03*
X173500D03*
X171531D03*
G54D50*
X184791Y184547D03*
Y186516D03*
Y188484D03*
Y190453D03*
X196209D03*
Y188484D03*
Y186516D03*
Y184547D03*
G54D32*
X41000Y167500D03*
X218000Y17500D03*
Y116500D03*
G54D42*
X130500Y147000D03*
G54D51*
X190500Y187500D03*
G54D24*
X2500Y119200D03*
Y134800D03*
G54D60*
X235500Y184000D03*
G54D33*
X86256Y97650D03*
Y91350D03*
X80744D03*
Y97650D03*
G54D15*
X-7154Y81048D03*
G54D34*
X86437Y143953D03*
X84469D03*
X78563D03*
X80531D03*
X82500D03*
X78563Y161047D03*
X80531D03*
X82500D03*
X84469D03*
X86437D03*
X209839Y33445D03*
X207280D03*
X204720D03*
X202161D03*
Y51555D03*
X204720D03*
X209839D03*
X207280D03*
X206339Y130945D03*
X203780D03*
X201220D03*
X198661D03*
Y149055D03*
X201220D03*
X206339D03*
X203780D03*
G54D61*
X246750Y22500D03*
X254250D03*
X246750Y119000D03*
X254250D03*
Y163000D03*
X246750D03*
G54D25*
X12000Y166500D03*
Y171500D03*
X26000D03*
Y166500D03*
X44500Y183000D03*
Y188000D03*
X67000Y81000D03*
Y86000D03*
X58500Y80500D03*
Y85500D03*
X51500Y183000D03*
Y188000D03*
X94500Y95500D03*
X73500Y81000D03*
Y86000D03*
X95000Y81500D03*
Y86500D03*
X86000Y112000D03*
Y107000D03*
X94500Y100500D03*
X79000Y112000D03*
Y107000D03*
X87000Y136000D03*
Y131000D03*
X76000Y180500D03*
Y185500D03*
X120500Y76000D03*
Y81000D03*
X113000Y170000D03*
X119500Y153000D03*
Y148000D03*
X113000Y175000D03*
X145000Y48500D03*
Y53500D03*
X147000Y100000D03*
Y105000D03*
X140000Y100000D03*
Y105000D03*
X133000D03*
Y100000D03*
X126000D03*
Y105000D03*
X163000Y48500D03*
X157000Y39500D03*
Y34500D03*
X164000Y39500D03*
Y34500D03*
X170000Y48500D03*
X152000D03*
X163000Y53500D03*
X170000D03*
X152000D03*
X168000Y99500D03*
Y104500D03*
X194000Y24000D03*
Y19000D03*
X176000Y39500D03*
Y34500D03*
X183000Y39500D03*
Y34500D03*
X194000Y36000D03*
Y31000D03*
X177000Y69500D03*
Y64500D03*
X191000Y135500D03*
Y130500D03*
X184000D03*
Y135500D03*
X212500Y-2000D03*
X205500D03*
X220500Y-4500D03*
X212500Y3000D03*
X205500D03*
X220500Y500D03*
X218000Y71000D03*
Y66000D03*
X219500Y97500D03*
X212500D03*
X200500Y81000D03*
Y86000D03*
X219500Y102500D03*
X212500D03*
X203500Y182000D03*
Y187000D03*
X228000Y-4500D03*
Y500D03*
X234500Y47000D03*
X226000Y71000D03*
Y66000D03*
X234500Y52000D03*
X231000Y147000D03*
Y142000D03*
X249000Y88000D03*
Y83000D03*
X266500Y94500D03*
Y99500D03*
Y106000D03*
Y111000D03*
X265000Y178500D03*
Y173500D03*
X270000Y-2000D03*
X294000Y8000D03*
Y13000D03*
X270000Y9500D03*
Y14500D03*
Y3000D03*
X283000Y41500D03*
Y46500D03*
X281500Y144000D03*
Y149000D03*
X288500Y179000D03*
Y174000D03*
X281500D03*
Y179000D03*
X274500D03*
Y174000D03*
X301000Y8000D03*
Y13000D03*
X313000Y20000D03*
Y25000D03*
Y43000D03*
Y38000D03*
X311500Y147000D03*
Y142000D03*
X295500Y179000D03*
Y174000D03*
G54D52*
X212094Y20453D03*
Y14547D03*
Y16516D03*
Y18484D03*
Y119453D03*
Y113547D03*
Y115516D03*
Y117484D03*
X223906Y14547D03*
Y16516D03*
Y20453D03*
Y18484D03*
Y113547D03*
Y115516D03*
Y119453D03*
Y117484D03*
G54D43*
X134437Y141094D03*
X132469D03*
X130500D03*
X128531D03*
X126563D03*
Y152906D03*
X128531D03*
X130500D03*
X132469D03*
X134437D03*
G54D16*
X-7154Y107952D03*
G54D35*
X85050Y170550D03*
X94950D03*
X85050Y174500D03*
Y178450D03*
X94950Y174500D03*
Y178450D03*
G54D26*
X36988Y15378D03*
Y17346D03*
Y19315D03*
Y21283D03*
Y23252D03*
Y25220D03*
Y27189D03*
Y29157D03*
Y31126D03*
Y33094D03*
Y35063D03*
Y37031D03*
Y39000D03*
Y40969D03*
Y42937D03*
Y44906D03*
Y46874D03*
Y48843D03*
Y50811D03*
Y52780D03*
Y54748D03*
Y56717D03*
Y58685D03*
Y60654D03*
Y62622D03*
X98012Y23252D03*
Y21283D03*
Y19315D03*
Y17346D03*
Y15378D03*
Y46874D03*
Y44906D03*
Y42937D03*
Y40969D03*
Y39000D03*
Y37031D03*
Y35063D03*
Y33094D03*
Y31126D03*
Y29157D03*
Y27189D03*
Y25220D03*
Y62622D03*
Y60654D03*
Y58685D03*
Y56717D03*
Y54748D03*
Y52780D03*
Y50811D03*
Y48843D03*
G54D62*
X254000Y67250D03*
Y74750D03*
X286000Y4750D03*
Y12250D03*
X283500Y61750D03*
Y54250D03*
X299500Y126750D03*
Y134250D03*
X303500Y182250D03*
Y174750D03*
G54D53*
X215047Y23406D03*
X217016D03*
Y11594D03*
X215047D03*
X217016Y110594D03*
X215047D03*
Y122406D03*
X217016D03*
X220953Y23406D03*
X218984D03*
X220953Y11594D03*
X218984D03*
X220953Y110594D03*
X218984D03*
X220953Y122406D03*
X218984D03*
G54D44*
X149500Y159150D03*
Y174850D03*
G54D17*
X20000Y-3000D03*
X309000D03*
X306000Y192000D03*
G54D18*
X25000Y11250D03*
Y18750D03*
X48000Y146250D03*
Y153750D03*
X59000Y146250D03*
Y153750D03*
X95500Y159750D03*
Y152250D03*
X103500Y89750D03*
Y82250D03*
X112000Y123750D03*
Y131250D03*
X169000Y68750D03*
Y61250D03*
X192500Y79250D03*
Y86750D03*
X281500Y26250D03*
Y33750D03*
X313000Y162250D03*
Y154750D03*
G54D54*
X207953Y79063D03*
Y81031D03*
Y86937D03*
Y84969D03*
Y83000D03*
X225047Y86937D03*
Y84969D03*
Y83000D03*
Y81031D03*
Y79063D03*
G54D27*
X47815Y8488D03*
X45846D03*
X43878D03*
Y69512D03*
X45846D03*
X47815D03*
X71437Y8488D03*
X69469D03*
X67500D03*
X65531D03*
X63563D03*
X61594D03*
X59626D03*
X57657D03*
X55689D03*
X53720D03*
X51752D03*
X49783D03*
Y69512D03*
X51752D03*
X53720D03*
X55689D03*
X57657D03*
X59626D03*
X61594D03*
X63563D03*
X65531D03*
X67500D03*
X69469D03*
X71437D03*
X91122Y8488D03*
X89154D03*
X87185D03*
X85217D03*
X83248D03*
X81280D03*
X79311D03*
X77343D03*
X75374D03*
X73406D03*
Y69512D03*
X75374D03*
X77343D03*
X79311D03*
X81280D03*
X83248D03*
X85217D03*
X87185D03*
X89154D03*
X91122D03*
G54D63*
X253500Y189400D03*
X257200Y180600D03*
X249800D03*
G54D36*
X109260Y20059D03*
Y17500D03*
Y14941D03*
X116740Y20059D03*
Y17500D03*
Y14941D03*
X109260Y8059D03*
Y5500D03*
Y2941D03*
X116740Y8059D03*
Y5500D03*
Y2941D03*
X281740Y92441D03*
Y95000D03*
X274260Y92441D03*
Y95000D03*
X292760Y92441D03*
Y95000D03*
X281740Y97559D03*
X274260D03*
X292760D03*
X300240Y92441D03*
Y95000D03*
Y97559D03*
G54D45*
X133650Y186000D03*
X124350D03*
G54D28*
X33113Y92000D03*
X48887D03*
G54D46*
X161000Y133500D03*
X154000D03*
G54D64*
X290500Y22500D03*
Y42500D03*
X289000Y144500D03*
X294000D03*
X289000Y164500D03*
X294000D03*
X305500Y22500D03*
X300500D03*
X295500D03*
X305500Y42500D03*
X300500D03*
X295500D03*
X299000Y144500D03*
X304000D03*
X299000Y164500D03*
X304000D03*
G54D19*
X13500Y69150D03*
X23000D03*
X13500Y75850D03*
X23000D03*
X2000Y142650D03*
Y149350D03*
X32500Y145650D03*
Y138350D03*
Y131650D03*
Y152350D03*
X69500Y147150D03*
X55500Y168650D03*
X69500Y153850D03*
X55500Y175350D03*
X113500Y81850D03*
Y75150D03*
X120500Y124650D03*
Y131350D03*
X104000Y152650D03*
Y159350D03*
X120500Y166850D03*
Y160150D03*
X112000Y159850D03*
Y153150D03*
X105500Y169150D03*
Y175850D03*
X131000Y166850D03*
Y160150D03*
X194000Y9850D03*
Y3150D03*
X202000Y22850D03*
Y16150D03*
X217500Y46150D03*
Y52850D03*
X214000Y143650D03*
Y150350D03*
X227500Y44650D03*
Y51350D03*
X224000Y141150D03*
Y147850D03*
Y173150D03*
Y179850D03*
X265500Y192350D03*
Y185650D03*
X292000Y60350D03*
Y53650D03*
X290500Y127150D03*
Y133850D03*
X282000Y127150D03*
Y133850D03*
X300000Y60350D03*
Y53650D03*
G54D55*
X212500Y185500D03*
Y174500D03*
X263500Y68000D03*
Y79000D03*
Y157500D03*
X274500D03*
G54D37*
X132000Y23400D03*
X142000D03*
X152000D03*
X162000D03*
X172000D03*
X311600Y69500D03*
Y79500D03*
Y89500D03*
Y99500D03*
Y109500D03*
G54D38*
X132250Y68000D03*
X124750D03*
X144250Y145000D03*
X151750D03*
X210250Y67000D03*
X202750D03*
X205250Y164500D03*
X197750D03*
G54D56*
X240500Y-1000D03*
Y4000D03*
Y9000D03*
Y14000D03*
X237000Y95500D03*
Y100500D03*
Y105500D03*
Y110500D03*
X260500Y-1000D03*
Y4000D03*
Y9000D03*
Y14000D03*
X257000Y95500D03*
Y100500D03*
Y105500D03*
Y110500D03*
G54D65*
X310500Y56000D03*
Y132000D03*
G54D47*
X167500Y147295D03*
Y171705D03*
G54D29*
X47000Y124100D03*
Y134900D03*
G54D66*
G01X-17000Y30500D02*
Y0D01*
G03X0Y-17000I17000J0D01*
G01X29500D01*
G01X-17000Y158500D02*
Y189000D01*
G02X0Y206000I17000J0D01*
G01X29500D01*
G01X340000Y30500D02*
Y0D01*
G02X323000Y-17000I-17000J0D01*
G01X293500D01*
G01X340000Y158500D02*
Y189000D01*
G03X323000Y206000I-17000J0D01*
G01X293500D01*
G54D39*
X135000Y84500D03*
X173500D03*
X247000Y146000D03*
X250500Y49500D03*
G54D57*
X242728Y45661D03*
Y48220D03*
Y50780D03*
Y53339D03*
X239228Y142161D03*
Y144720D03*
Y147280D03*
Y149839D03*
X258272Y45661D03*
Y53339D03*
Y50780D03*
Y48220D03*
X254772Y144720D03*
Y142161D03*
Y149839D03*
Y147280D03*
G54D48*
X182000Y23400D03*
X311600Y119500D03*
G54D67*
G01X47393Y254249D02*
X48393Y253416D01*
X49518Y252916D01*
X50518D01*
X51518Y253416D01*
X52268Y254249D01*
X52643Y255416D01*
X52393Y256582D01*
X51768Y257583D01*
X50643Y258249D01*
X49143Y258583D01*
X48268Y259249D01*
X47893Y260416D01*
X48143Y261583D01*
X48768Y262416D01*
X49643Y262916D01*
X50518D01*
X51393Y262583D01*
X52143Y261749D01*
G01X60018Y252916D02*
X59018Y253083D01*
X58143Y253749D01*
X57393Y254749D01*
X56893Y255916D01*
X56643Y257249D01*
Y258583D01*
X56893Y259916D01*
X57393Y261083D01*
X58143Y262083D01*
X59018Y262749D01*
X60018Y262916D01*
X61018Y262749D01*
X61893Y262083D01*
X62643Y261083D01*
X63143Y259916D01*
X63393Y258583D01*
Y257249D01*
X63143Y255916D01*
X62643Y254749D01*
X61893Y253749D01*
X61018Y253083D01*
X60018Y252916D01*
G01X67518Y262916D02*
Y252916D01*
X72518D01*
G01X77268D02*
Y262916D01*
X79768D01*
X80768Y262416D01*
X81518Y261749D01*
X82143Y260749D01*
X82643Y259582D01*
X82768Y257916D01*
X82643Y256249D01*
X82143Y255083D01*
X81518Y254082D01*
X80768Y253416D01*
X79768Y252916D01*
X77268D01*
G01X92518D02*
X87518D01*
Y262916D01*
X92518D01*
G01X90518Y258083D02*
X87518D01*
G01X97518Y252916D02*
Y262916D01*
X100643D01*
X101643Y262416D01*
X102268Y261749D01*
X102518Y260416D01*
X102268Y259083D01*
X101518Y258249D01*
X100643Y257749D01*
X97518D01*
G01X100643D02*
X102518Y252916D01*
G01X106768D02*
Y262916D01*
X110018Y254583D01*
X113268Y262916D01*
Y252916D01*
G01X116893D02*
X120018Y262916D01*
X123143Y252916D01*
G01X122018Y256416D02*
X118018D01*
G01X127393Y254249D02*
X128393Y253416D01*
X129518Y252916D01*
X130518D01*
X131518Y253416D01*
X132268Y254249D01*
X132643Y255416D01*
X132393Y256582D01*
X131768Y257583D01*
X130643Y258249D01*
X129143Y258583D01*
X128268Y259249D01*
X127893Y260416D01*
X128143Y261583D01*
X128768Y262416D01*
X129643Y262916D01*
X130518D01*
X131393Y262583D01*
X132143Y261749D01*
G01X137268Y252916D02*
Y262916D01*
G01X142018D02*
X137268Y256749D01*
G01X142768Y252916D02*
X139393Y259582D01*
G01X157518Y252916D02*
Y262916D01*
X160518D01*
X161518Y262416D01*
X162268Y261249D01*
X162518Y259916D01*
X162268Y258583D01*
X161643Y257583D01*
X160518Y257082D01*
X157518D01*
G01X167518Y252916D02*
Y262916D01*
X170643D01*
X171643Y262416D01*
X172268Y261749D01*
X172518Y260416D01*
X172268Y259083D01*
X171518Y258249D01*
X170643Y257749D01*
X167518D01*
G01X170643D02*
X172518Y252916D01*
G01X178518Y262916D02*
X181518D01*
G01X180018D02*
Y252916D01*
G01X178518D02*
X181518D01*
G01X186768D02*
Y262916D01*
X190018Y254583D01*
X193268Y262916D01*
Y252916D01*
G01X196893D02*
X200018Y262916D01*
X203143Y252916D01*
G01X202018Y256416D02*
X198018D01*
G01X207518Y252916D02*
Y262916D01*
X210643D01*
X211643Y262416D01*
X212268Y261749D01*
X212518Y260416D01*
X212268Y259083D01*
X211518Y258249D01*
X210643Y257749D01*
X207518D01*
G01X210643D02*
X212518Y252916D01*
G01X220018D02*
Y257416D01*
X217518Y262916D01*
G01X222518D02*
X220018Y257416D01*
G01X81018Y242916D02*
X80018Y242583D01*
X79268Y241749D01*
X78768Y240749D01*
X78393Y239416D01*
X78268Y237916D01*
X78393Y236416D01*
X78768Y235083D01*
X79268Y234082D01*
X80018Y233249D01*
X81018Y232916D01*
X82018Y233249D01*
X82768Y234082D01*
X83268Y235083D01*
X83643Y236416D01*
X83768Y237916D01*
X83643Y239416D01*
X83268Y240749D01*
X82768Y241749D01*
X82018Y242583D01*
X81018Y242916D01*
G01X91018Y232916D02*
X91893Y233083D01*
X92893Y233583D01*
X93518Y234416D01*
X93768Y235583D01*
X93518Y236749D01*
X92768Y237749D01*
X91643Y238249D01*
X90393D01*
X89643Y238583D01*
X89018Y239416D01*
X88768Y240583D01*
X89143Y241749D01*
X90018Y242583D01*
X91018Y242916D01*
X92018Y242583D01*
X92893Y241749D01*
X93268Y240583D01*
X93018Y239416D01*
X92393Y238583D01*
X91643Y238249D01*
X90393D01*
X89268Y237749D01*
X88518Y236749D01*
X88268Y235583D01*
X88518Y234416D01*
X89143Y233583D01*
X90143Y233083D01*
X91018Y232916D01*
G01X99393Y236249D02*
X102643D01*
G01X169393D02*
X172643D01*
G01X181018Y242916D02*
X180018Y242583D01*
X179268Y241749D01*
X178768Y240749D01*
X178393Y239416D01*
X178268Y237916D01*
X178393Y236416D01*
X178768Y235083D01*
X179268Y234082D01*
X180018Y233249D01*
X181018Y232916D01*
X182018Y233249D01*
X182768Y234082D01*
X183268Y235083D01*
X183643Y236416D01*
X183768Y237916D01*
X183643Y239416D01*
X183268Y240749D01*
X182768Y241749D01*
X182018Y242583D01*
X181018Y242916D01*
G01X192518Y232916D02*
Y242916D01*
X187893Y235749D01*
X194143D01*
G01X112518Y212916D02*
Y222916D01*
X115643D01*
X116643Y222416D01*
X117268Y221749D01*
X117518Y220416D01*
X117268Y219083D01*
X116518Y218249D01*
X115643Y217749D01*
X112518D01*
G01X115643D02*
X117518Y212916D01*
G01X127518D02*
X122518D01*
Y222916D01*
X127518D01*
G01X125518Y218083D02*
X122518D01*
G01X131893Y222916D02*
X135018Y212916D01*
X138143Y222916D01*
G01X152268Y212916D02*
Y222916D01*
X154768D01*
X155768Y222416D01*
X156518Y221749D01*
X157143Y220749D01*
X157643Y219582D01*
X157768Y217916D01*
X157643Y216249D01*
X157143Y215083D01*
X156518Y214082D01*
X155768Y213416D01*
X154768Y212916D01*
X152268D01*
G01X112518Y242916D02*
X111518Y242583D01*
X110768Y241749D01*
X110268Y240749D01*
X109893Y239416D01*
X109768Y237916D01*
X109893Y236416D01*
X110268Y235083D01*
X110768Y234082D01*
X111518Y233249D01*
X112518Y232916D01*
X113518Y233249D01*
X114268Y234082D01*
X114768Y235083D01*
X115143Y236416D01*
X115268Y237916D01*
X115143Y239416D01*
X114768Y240749D01*
X114268Y241749D01*
X113518Y242583D01*
X112518Y242916D01*
G01X119768Y234916D02*
X120518Y233749D01*
X121518Y233083D01*
X122643Y232916D01*
X123643Y233083D01*
X124643Y233916D01*
X125268Y234916D01*
X125393Y235916D01*
X125143Y237082D01*
X124268Y237916D01*
X123393Y238249D01*
X122268D01*
G01X123393D02*
X124143Y238749D01*
X124768Y239582D01*
X125018Y240583D01*
X124768Y241583D01*
X124143Y242416D01*
X123018Y242916D01*
X121893Y242749D01*
X120768Y242083D01*
G01X132268Y232916D02*
X132518Y235083D01*
X132893Y236916D01*
X133393Y238583D01*
X134018Y240416D01*
X135018Y242916D01*
X130018D01*
G01X142268Y232916D02*
X142518Y235083D01*
X142893Y236916D01*
X143393Y238583D01*
X144018Y240416D01*
X145018Y242916D01*
X140018D01*
G01X150143Y237082D02*
X151018Y238249D01*
X151768Y238916D01*
X152768Y239249D01*
X153643Y238916D01*
X154268Y238249D01*
X154768Y237249D01*
X154893Y236083D01*
X154768Y235083D01*
X154268Y234082D01*
X153518Y233249D01*
X152643Y232916D01*
X151643Y233249D01*
X150768Y234249D01*
X150268Y235749D01*
X150143Y237416D01*
X150393Y239582D01*
X150768Y240749D01*
X151393Y241916D01*
X152268Y242749D01*
X153143Y242916D01*
X154018Y242583D01*
X154643Y241749D01*
G01X162518Y242916D02*
X161518Y242583D01*
X160768Y241749D01*
X160268Y240749D01*
X159893Y239416D01*
X159768Y237916D01*
X159893Y236416D01*
X160268Y235083D01*
X160768Y234082D01*
X161518Y233249D01*
X162518Y232916D01*
X163518Y233249D01*
X164268Y234082D01*
X164768Y235083D01*
X165143Y236416D01*
X165268Y237916D01*
X165143Y239416D01*
X164768Y240749D01*
X164268Y241749D01*
X163518Y242583D01*
X162518Y242916D01*
G54D49*
X186750Y47500D03*
X190500D03*
X194250D03*
X186750Y57500D03*
X190500D03*
X194250D03*
X183250Y145000D03*
X187000D03*
X190750D03*
X183250Y155000D03*
X187000D03*
X190750D03*
G54D58*
X243161Y138228D03*
Y153772D03*
X254339Y41728D03*
X251780D03*
X249220D03*
X246661D03*
Y57272D03*
X249220D03*
X251780D03*
X254339D03*
X250839Y138228D03*
X248280D03*
X245720D03*
Y153772D03*
X248280D03*
X250839D03*
G54D59*
X231241Y181441D03*
Y184000D03*
Y186559D03*
X239759D03*
Y184000D03*
Y181441D03*
M02*
