G04 ================== begin FILE IDENTIFICATION RECORD ==================*
G04 Layout Name:  C:/tmp/20_037760d/worklib/02_037760d_top/physical/08_037760d.brd*
G04 Film Name:    mask_sec*
G04 File Format:  Gerber RS274X*
G04 File Origin:  Cadence Allegro 16.5-S052*
G04 Origin Date:  Tue Jan 06 12:18:48 2015*
G04 *
G04 Layer:  VIA CLASS/SOLDERMASK_BOTTOM*
G04 Layer:  PIN/SOLDERMASK_BOTTOM*
G04 Layer:  PACKAGE GEOMETRY/SOLDERMASK_BOTTOM*
G04 Layer:  BOARD GEOMETRY/TOOLING_CORNERS*
G04 Layer:  BOARD GEOMETRY/SOLDERMASK_BOTTOM*
G04 Layer:  BOARD GEOMETRY/ROOT_NUMBER*
G04 *
G04 Offset:    (0.00 0.00)*
G04 Mirror:    No*
G04 Mode:      Positive*
G04 Rotation:  0*
G04 FullContactRelief:  No*
G04 UndefLineWidth:     8.00*
G04 ================== end FILE IDENTIFICATION RECORD ====================*
%FSLAX55Y55*MOIN*%
%IR0*IPPOS*OFA0.00000B0.00000*MIA0B0*SFA1.00000B1.00000*%
%ADD14R,.034X.115*%
%ADD12C,.08*%
%ADD17C,.065*%
%ADD19C,.077*%
%ADD18R,.065X.065*%
%ADD13O,.066X.051*%
%ADD16R,.056X.06*%
%ADD11O,.076X.053*%
%ADD10C,.145*%
%ADD15R,.048X.052*%
%ADD20C,.025*%
%ADD21C,.008*%
G75*
%LPD*%
G75*
G54D10*
X0Y0D03*
Y189125D03*
X322925Y0D03*
Y189125D03*
G54D20*
G01X-17000Y30500D02*
Y0D01*
G03X0Y-17000I17000J0D01*
G01X29500D01*
G01X-17000Y158500D02*
Y189000D01*
G02X0Y206000I17000J0D01*
G01X29500D01*
G01X340000Y30500D02*
Y0D01*
G02X323000Y-17000I-17000J0D01*
G01X293500D01*
G01X340000Y158500D02*
Y189000D01*
G03X323000Y206000I-17000J0D01*
G01X293500D01*
G54D11*
X-9204Y78358D03*
Y110642D03*
G54D21*
G01X37393Y254249D02*
X38393Y253416D01*
X39518Y252916D01*
X40518D01*
X41518Y253416D01*
X42268Y254249D01*
X42643Y255416D01*
X42393Y256582D01*
X41768Y257583D01*
X40643Y258249D01*
X39143Y258583D01*
X38268Y259249D01*
X37893Y260416D01*
X38143Y261583D01*
X38768Y262416D01*
X39643Y262916D01*
X40518D01*
X41393Y262583D01*
X42143Y261749D01*
G01X50018Y252916D02*
X49018Y253083D01*
X48143Y253749D01*
X47393Y254749D01*
X46893Y255916D01*
X46643Y257249D01*
Y258583D01*
X46893Y259916D01*
X47393Y261083D01*
X48143Y262083D01*
X49018Y262749D01*
X50018Y262916D01*
X51018Y262749D01*
X51893Y262083D01*
X52643Y261083D01*
X53143Y259916D01*
X53393Y258583D01*
Y257249D01*
X53143Y255916D01*
X52643Y254749D01*
X51893Y253749D01*
X51018Y253083D01*
X50018Y252916D01*
G01X57518Y262916D02*
Y252916D01*
X62518D01*
G01X67268D02*
Y262916D01*
X69768D01*
X70768Y262416D01*
X71518Y261749D01*
X72143Y260749D01*
X72643Y259582D01*
X72768Y257916D01*
X72643Y256249D01*
X72143Y255083D01*
X71518Y254082D01*
X70768Y253416D01*
X69768Y252916D01*
X67268D01*
G01X82518D02*
X77518D01*
Y262916D01*
X82518D01*
G01X80518Y258083D02*
X77518D01*
G01X87518Y252916D02*
Y262916D01*
X90643D01*
X91643Y262416D01*
X92268Y261749D01*
X92518Y260416D01*
X92268Y259083D01*
X91518Y258249D01*
X90643Y257749D01*
X87518D01*
G01X90643D02*
X92518Y252916D01*
G01X96768D02*
Y262916D01*
X100018Y254583D01*
X103268Y262916D01*
Y252916D01*
G01X106893D02*
X110018Y262916D01*
X113143Y252916D01*
G01X112018Y256416D02*
X108018D01*
G01X117393Y254249D02*
X118393Y253416D01*
X119518Y252916D01*
X120518D01*
X121518Y253416D01*
X122268Y254249D01*
X122643Y255416D01*
X122393Y256582D01*
X121768Y257583D01*
X120643Y258249D01*
X119143Y258583D01*
X118268Y259249D01*
X117893Y260416D01*
X118143Y261583D01*
X118768Y262416D01*
X119643Y262916D01*
X120518D01*
X121393Y262583D01*
X122143Y261749D01*
G01X127268Y252916D02*
Y262916D01*
G01X132018D02*
X127268Y256749D01*
G01X132768Y252916D02*
X129393Y259582D01*
G01X147393Y254249D02*
X148393Y253416D01*
X149518Y252916D01*
X150518D01*
X151518Y253416D01*
X152268Y254249D01*
X152643Y255416D01*
X152393Y256582D01*
X151768Y257583D01*
X150643Y258249D01*
X149143Y258583D01*
X148268Y259249D01*
X147893Y260416D01*
X148143Y261583D01*
X148768Y262416D01*
X149643Y262916D01*
X150518D01*
X151393Y262583D01*
X152143Y261749D01*
G01X162518Y252916D02*
X157518D01*
Y262916D01*
X162518D01*
G01X160518Y258083D02*
X157518D01*
G01X172768Y262083D02*
X172018Y262583D01*
X171143Y262916D01*
X170143D01*
X169018Y262416D01*
X168143Y261583D01*
X167518Y260583D01*
X167018Y258916D01*
X166893Y257416D01*
X167143Y255916D01*
X167518Y254916D01*
X168268Y253916D01*
X169143Y253249D01*
X170018Y252916D01*
X170893D01*
X171768Y253249D01*
X172518Y253749D01*
X173143Y254416D01*
G01X180018Y252916D02*
X179018Y253083D01*
X178143Y253749D01*
X177393Y254749D01*
X176893Y255916D01*
X176643Y257249D01*
Y258583D01*
X176893Y259916D01*
X177393Y261083D01*
X178143Y262083D01*
X179018Y262749D01*
X180018Y262916D01*
X181018Y262749D01*
X181893Y262083D01*
X182643Y261083D01*
X183143Y259916D01*
X183393Y258583D01*
Y257249D01*
X183143Y255916D01*
X182643Y254749D01*
X181893Y253749D01*
X181018Y253083D01*
X180018Y252916D01*
G01X187143D02*
Y262916D01*
X192893Y252916D01*
Y262916D01*
G01X197268Y252916D02*
Y262916D01*
X199768D01*
X200768Y262416D01*
X201518Y261749D01*
X202143Y260749D01*
X202643Y259582D01*
X202768Y257916D01*
X202643Y256249D01*
X202143Y255083D01*
X201518Y254082D01*
X200768Y253416D01*
X199768Y252916D01*
X197268D01*
G01X206893D02*
X210018Y262916D01*
X213143Y252916D01*
G01X212018Y256416D02*
X208018D01*
G01X217518Y252916D02*
Y262916D01*
X220643D01*
X221643Y262416D01*
X222268Y261749D01*
X222518Y260416D01*
X222268Y259083D01*
X221518Y258249D01*
X220643Y257749D01*
X217518D01*
G01X220643D02*
X222518Y252916D01*
G01X230018D02*
Y257416D01*
X227518Y262916D01*
G01X232518D02*
X230018Y257416D01*
G01X81018Y242916D02*
X80018Y242583D01*
X79268Y241749D01*
X78768Y240749D01*
X78393Y239416D01*
X78268Y237916D01*
X78393Y236416D01*
X78768Y235083D01*
X79268Y234082D01*
X80018Y233249D01*
X81018Y232916D01*
X82018Y233249D01*
X82768Y234082D01*
X83268Y235083D01*
X83643Y236416D01*
X83768Y237916D01*
X83643Y239416D01*
X83268Y240749D01*
X82768Y241749D01*
X82018Y242583D01*
X81018Y242916D01*
G01X91018Y232916D02*
X91893Y233083D01*
X92893Y233583D01*
X93518Y234416D01*
X93768Y235583D01*
X93518Y236749D01*
X92768Y237749D01*
X91643Y238249D01*
X90393D01*
X89643Y238583D01*
X89018Y239416D01*
X88768Y240583D01*
X89143Y241749D01*
X90018Y242583D01*
X91018Y242916D01*
X92018Y242583D01*
X92893Y241749D01*
X93268Y240583D01*
X93018Y239416D01*
X92393Y238583D01*
X91643Y238249D01*
X90393D01*
X89268Y237749D01*
X88518Y236749D01*
X88268Y235583D01*
X88518Y234416D01*
X89143Y233583D01*
X90143Y233083D01*
X91018Y232916D01*
G01X99393Y236249D02*
X102643D01*
G01X169393D02*
X172643D01*
G01X181018Y242916D02*
X180018Y242583D01*
X179268Y241749D01*
X178768Y240749D01*
X178393Y239416D01*
X178268Y237916D01*
X178393Y236416D01*
X178768Y235083D01*
X179268Y234082D01*
X180018Y233249D01*
X181018Y232916D01*
X182018Y233249D01*
X182768Y234082D01*
X183268Y235083D01*
X183643Y236416D01*
X183768Y237916D01*
X183643Y239416D01*
X183268Y240749D01*
X182768Y241749D01*
X182018Y242583D01*
X181018Y242916D01*
G01X188643Y237082D02*
X189518Y238249D01*
X190268Y238916D01*
X191268Y239249D01*
X192143Y238916D01*
X192768Y238249D01*
X193268Y237249D01*
X193393Y236083D01*
X193268Y235083D01*
X192768Y234082D01*
X192018Y233249D01*
X191143Y232916D01*
X190143Y233249D01*
X189268Y234249D01*
X188768Y235749D01*
X188643Y237416D01*
X188893Y239582D01*
X189268Y240749D01*
X189893Y241916D01*
X190768Y242749D01*
X191643Y242916D01*
X192518Y242583D01*
X193143Y241749D01*
G01X112518Y212916D02*
Y222916D01*
X115643D01*
X116643Y222416D01*
X117268Y221749D01*
X117518Y220416D01*
X117268Y219083D01*
X116518Y218249D01*
X115643Y217749D01*
X112518D01*
G01X115643D02*
X117518Y212916D01*
G01X127518D02*
X122518D01*
Y222916D01*
X127518D01*
G01X125518Y218083D02*
X122518D01*
G01X131893Y222916D02*
X135018Y212916D01*
X138143Y222916D01*
G01X152268Y212916D02*
Y222916D01*
X154768D01*
X155768Y222416D01*
X156518Y221749D01*
X157143Y220749D01*
X157643Y219582D01*
X157768Y217916D01*
X157643Y216249D01*
X157143Y215083D01*
X156518Y214082D01*
X155768Y213416D01*
X154768Y212916D01*
X152268D01*
G01X112518Y242916D02*
X111518Y242583D01*
X110768Y241749D01*
X110268Y240749D01*
X109893Y239416D01*
X109768Y237916D01*
X109893Y236416D01*
X110268Y235083D01*
X110768Y234082D01*
X111518Y233249D01*
X112518Y232916D01*
X113518Y233249D01*
X114268Y234082D01*
X114768Y235083D01*
X115143Y236416D01*
X115268Y237916D01*
X115143Y239416D01*
X114768Y240749D01*
X114268Y241749D01*
X113518Y242583D01*
X112518Y242916D01*
G01X119768Y234916D02*
X120518Y233749D01*
X121518Y233083D01*
X122643Y232916D01*
X123643Y233083D01*
X124643Y233916D01*
X125268Y234916D01*
X125393Y235916D01*
X125143Y237082D01*
X124268Y237916D01*
X123393Y238249D01*
X122268D01*
G01X123393D02*
X124143Y238749D01*
X124768Y239582D01*
X125018Y240583D01*
X124768Y241583D01*
X124143Y242416D01*
X123018Y242916D01*
X121893Y242749D01*
X120768Y242083D01*
G01X132268Y232916D02*
X132518Y235083D01*
X132893Y236916D01*
X133393Y238583D01*
X134018Y240416D01*
X135018Y242916D01*
X130018D01*
G01X142268Y232916D02*
X142518Y235083D01*
X142893Y236916D01*
X143393Y238583D01*
X144018Y240416D01*
X145018Y242916D01*
X140018D01*
G01X150143Y237082D02*
X151018Y238249D01*
X151768Y238916D01*
X152768Y239249D01*
X153643Y238916D01*
X154268Y238249D01*
X154768Y237249D01*
X154893Y236083D01*
X154768Y235083D01*
X154268Y234082D01*
X153518Y233249D01*
X152643Y232916D01*
X151643Y233249D01*
X150768Y234249D01*
X150268Y235749D01*
X150143Y237416D01*
X150393Y239582D01*
X150768Y240749D01*
X151393Y241916D01*
X152268Y242749D01*
X153143Y242916D01*
X154018Y242583D01*
X154643Y241749D01*
G01X162518Y242916D02*
X161518Y242583D01*
X160768Y241749D01*
X160268Y240749D01*
X159893Y239416D01*
X159768Y237916D01*
X159893Y236416D01*
X160268Y235083D01*
X160768Y234082D01*
X161518Y233249D01*
X162518Y232916D01*
X163518Y233249D01*
X164268Y234082D01*
X164768Y235083D01*
X165143Y236416D01*
X165268Y237916D01*
X165143Y239416D01*
X164768Y240749D01*
X164268Y241749D01*
X163518Y242583D01*
X162518Y242916D01*
G54D12*
X20000Y-3000D03*
Y192000D03*
X309000Y-3000D03*
G54D13*
X2922Y84953D03*
Y104047D03*
G54D14*
X94000Y87000D03*
X89000D03*
X84000D03*
X79000D03*
X74000D03*
X94000Y103000D03*
X89000D03*
X84000D03*
X79000D03*
X74000D03*
G54D15*
X147650Y-1500D03*
X154350D03*
G54D16*
X139750D03*
X132250D03*
G54D17*
X132000Y23400D03*
X142000D03*
X152000D03*
X162000D03*
X172000D03*
X311600Y69500D03*
Y79500D03*
Y89500D03*
Y99500D03*
Y109500D03*
G54D18*
X182000Y23400D03*
X311600Y119500D03*
G54D19*
X310500Y56000D03*
Y132000D03*
M02*
