G04 ================== begin FILE IDENTIFICATION RECORD ==================*
G04 Layout Name:  C:/tmp/20_037760d/worklib/02_037760d_top/physical/08_037760d.brd*
G04 Film Name:    paste_prm*
G04 File Format:  Gerber RS274X*
G04 File Origin:  Cadence Allegro 16.5-S052*
G04 Origin Date:  Fri Nov 07 03:57:16 2014*
G04 *
G04 Layer:  VIA CLASS/PASTEMASK_TOP*
G04 Layer:  PIN/PASTEMASK_TOP*
G04 Layer:  PACKAGE GEOMETRY/PASTEMASK_TOP*
G04 Layer:  BOARD GEOMETRY/TOOLING_CORNERS*
G04 Layer:  BOARD GEOMETRY/PASTEMASK_TOP*
G04 Layer:  BOARD GEOMETRY/ROOT_NUMBER*
G04 *
G04 Offset:    (0.00 0.00)*
G04 Mirror:    No*
G04 Mode:      Positive*
G04 Rotation:  0*
G04 FullContactRelief:  No*
G04 UndefLineWidth:     8.00*
G04 ================== end FILE IDENTIFICATION RECORD ====================*
%FSLAX55Y55*MOIN*%
%IR0*IPPOS*OFA0.00000B0.00000*MIA0B0*SFA1.00000B1.00000*%
%ADD25R,.1X.035*%
%ADD14C,.04*%
%ADD40R,.038X.146*%
%ADD39R,.08X.08*%
%ADD28R,.063X.063*%
%ADD34R,.098X.098*%
%ADD38O,.01X.032*%
%ADD35O,.041X.012*%
%ADD44O,.033X.012*%
%ADD36O,.012X.041*%
%ADD52O,.034X.012*%
%ADD22R,.06X.01*%
%ADD46O,.035X.012*%
%ADD23R,.01X.06*%
%ADD18R,.024X.02*%
%ADD12O,.012X.034*%
%ADD47O,.012X.035*%
%ADD48R,.052X.012*%
%ADD31R,.053X.02*%
%ADD30R,.012X.052*%
%ADD41R,.04X.07*%
%ADD27O,.039X.012*%
%ADD26O,.012X.039*%
%ADD21R,.032X.035*%
%ADD50O,.039X.014*%
%ADD32R,.024X.017*%
%ADD11R,.035X.032*%
%ADD56R,.04X.055*%
%ADD51O,.014X.039*%
%ADD29R,.033X.045*%
%ADD15R,.063X.051*%
%ADD55R,.055X.051*%
%ADD43R,.028X.05*%
%ADD33R,.051X.063*%
%ADD20R,.083X.05*%
%ADD54R,.051X.055*%
%ADD16R,.047X.043*%
%ADD10R,.043X.047*%
%ADD49R,.086X.024*%
%ADD57R,.024X.086*%
%ADD53R,.039X.063*%
%ADD17R,.069X.016*%
%ADD13R,.063X.039*%
%ADD19R,.087X.08*%
%ADD45R,.065X.094*%
%ADD37R,.094X.065*%
%ADD42R,.096X.093*%
%ADD24R,.079X.094*%
%ADD58C,.025*%
%ADD59C,.008*%
G75*
%LPD*%
G75*
G54D10*
X-3850Y25500D03*
X-1850Y62000D03*
X2850Y25500D03*
X4850Y62000D03*
X23350Y158500D03*
X16650D03*
X22350Y150000D03*
X15650D03*
X44650Y80000D03*
X30650D03*
X37350D03*
X51350D03*
X122650Y35000D03*
X108650Y42000D03*
X115350D03*
X129350Y35000D03*
X135850Y123500D03*
X129150D03*
X152650Y68500D03*
X159350D03*
X170650Y188500D03*
X196650Y122500D03*
X180650D03*
X187350D03*
X177350Y188500D03*
X189150Y175500D03*
X195850D03*
X203350Y122500D03*
X232150Y22500D03*
X238850D03*
X232150Y118500D03*
X238850D03*
X243650Y129000D03*
X233150Y173000D03*
X239850D03*
X266650Y43500D03*
X247150Y32500D03*
X253850D03*
X269850Y139500D03*
X263150D03*
X250350Y129000D03*
X273350Y43500D03*
X282150Y85000D03*
X288850D03*
X282150Y105000D03*
X288850D03*
G54D20*
X2500Y119200D03*
Y134800D03*
G54D11*
X-3000Y32500D03*
X-400Y69000D03*
X-2500Y55000D03*
X21500Y29000D03*
Y35500D03*
Y42000D03*
X2000Y32500D03*
X5400Y69000D03*
X23500Y57500D03*
X18500D03*
X23500Y63000D03*
X18500D03*
X23500Y52000D03*
X18500D03*
X2500Y55000D03*
X15000Y109500D03*
X20000D03*
X15000Y103000D03*
X20000D03*
X21900Y142000D03*
X16100D03*
X20000Y179000D03*
X43500Y-1000D03*
X48500D03*
X26500Y29000D03*
Y35500D03*
Y42000D03*
X25000Y179000D03*
X37500Y189000D03*
X32500D03*
X37500Y182000D03*
X32500D03*
X59500Y-1000D03*
X64500D03*
X71500Y168500D03*
X63500Y183000D03*
X58500D03*
X85500Y-1000D03*
X90500D03*
X88500Y82000D03*
X83500D03*
X76500Y168500D03*
X108500Y35000D03*
X113500D03*
X108500Y26500D03*
X113500D03*
X108500Y54500D03*
X113500D03*
X119000Y139000D03*
X114000D03*
X140000Y69500D03*
X145000D03*
X129000Y132500D03*
X134000D03*
X158500Y75500D03*
X153500D03*
X195000Y70000D03*
X190000D03*
X187000Y99500D03*
X192000D03*
X187000Y107000D03*
X192000D03*
X180000D03*
X175000D03*
X202500Y59000D03*
X207500D03*
X199000Y94500D03*
X204000D03*
Y108500D03*
X199000D03*
Y101500D03*
X204000D03*
Y115500D03*
X199000D03*
Y156500D03*
X204000D03*
X203000Y194000D03*
X208000D03*
X220500D03*
X234500Y72000D03*
X239500D03*
X234500Y65000D03*
X239500D03*
Y86000D03*
X234500D03*
X239500Y79000D03*
X234500D03*
X225500Y194000D03*
X267000Y21500D03*
X262000D03*
X266500Y50500D03*
X256000Y87500D03*
X261000D03*
X267500Y119000D03*
X262500D03*
X263000Y147000D03*
X268000D03*
X250000Y173000D03*
X255000D03*
X271500Y50500D03*
X293500Y67500D03*
X291500Y120000D03*
X286500D03*
X294500Y186000D03*
X289500D03*
X308000Y13000D03*
X313000D03*
X295000Y1000D03*
X300000D03*
X298500Y67500D03*
G54D21*
X12000Y166500D03*
Y171500D03*
X26000D03*
Y166500D03*
X44500Y183000D03*
Y188000D03*
X67000Y81000D03*
Y86000D03*
X58500Y80500D03*
Y85500D03*
X51500Y183000D03*
Y188000D03*
X94500Y95500D03*
X73500Y81000D03*
Y86000D03*
X95000Y81500D03*
Y86500D03*
X86000Y112000D03*
Y107000D03*
X94500Y100500D03*
X79000Y112000D03*
Y107000D03*
X87000Y136000D03*
Y131000D03*
X76000Y180500D03*
Y185500D03*
X120500Y76000D03*
Y81000D03*
X113000Y170000D03*
X119500Y153000D03*
Y148000D03*
X113000Y175000D03*
X145000Y48500D03*
Y53500D03*
X147000Y100000D03*
Y105000D03*
X140000Y100000D03*
Y105000D03*
X133000D03*
Y100000D03*
X126000D03*
Y105000D03*
X163000Y48500D03*
X157000Y39500D03*
Y34500D03*
X164000Y39500D03*
Y34500D03*
X170000Y48500D03*
X152000D03*
X163000Y53500D03*
X170000D03*
X152000D03*
X168000Y99500D03*
Y104500D03*
X194000Y24000D03*
Y19000D03*
X176000Y39500D03*
Y34500D03*
X183000Y39500D03*
Y34500D03*
X194000Y36000D03*
Y31000D03*
X177000Y69500D03*
Y64500D03*
X191000Y135500D03*
Y130500D03*
X184000D03*
Y135500D03*
X212500Y-2000D03*
X205500D03*
X220500Y-4500D03*
X212500Y3000D03*
X205500D03*
X220500Y500D03*
X218000Y71000D03*
Y66000D03*
X219500Y97500D03*
X212500D03*
X200500Y81000D03*
Y86000D03*
X219500Y102500D03*
X212500D03*
X203500Y182000D03*
Y187000D03*
X228000Y-4500D03*
Y500D03*
X234500Y47000D03*
X226000Y71000D03*
Y66000D03*
X234500Y52000D03*
X231000Y147000D03*
Y142000D03*
X249000Y88000D03*
Y83000D03*
X266500Y94500D03*
Y99500D03*
Y106000D03*
Y111000D03*
X265000Y178500D03*
Y173500D03*
X270000Y-2000D03*
X294000Y8000D03*
Y13000D03*
X270000Y9500D03*
Y14500D03*
Y3000D03*
X283000Y41500D03*
Y46500D03*
X281500Y144000D03*
Y149000D03*
X288500Y179000D03*
Y174000D03*
X281500D03*
Y179000D03*
X274500D03*
Y174000D03*
X301000Y8000D03*
Y13000D03*
X313000Y20000D03*
Y25000D03*
Y43000D03*
Y38000D03*
X311500Y147000D03*
Y142000D03*
X295500Y179000D03*
Y174000D03*
G54D30*
X86437Y143953D03*
X84469D03*
X78563D03*
X80531D03*
X82500D03*
X78563Y161047D03*
X80531D03*
X82500D03*
X84469D03*
X86437D03*
X209839Y33445D03*
X207280D03*
X204720D03*
X202161D03*
Y51555D03*
X204720D03*
X209839D03*
X207280D03*
X206339Y130945D03*
X203780D03*
X201220D03*
X198661D03*
Y149055D03*
X201220D03*
X206339D03*
X203780D03*
G54D12*
X-4559Y47759D03*
Y39241D03*
X-2000Y47759D03*
X559D03*
Y39241D03*
X-2000D03*
G54D13*
Y43500D03*
G54D31*
X85050Y170550D03*
X94950D03*
X85050Y174500D03*
Y178450D03*
X94950Y174500D03*
Y178450D03*
G54D22*
X36988Y15378D03*
Y17346D03*
Y19315D03*
Y21283D03*
Y23252D03*
Y25220D03*
Y27189D03*
Y29157D03*
Y31126D03*
Y33094D03*
Y35063D03*
Y37031D03*
Y39000D03*
Y40969D03*
Y42937D03*
Y44906D03*
Y46874D03*
Y48843D03*
Y50811D03*
Y52780D03*
Y54748D03*
Y56717D03*
Y58685D03*
Y60654D03*
Y62622D03*
X98012Y23252D03*
Y21283D03*
Y19315D03*
Y17346D03*
Y15378D03*
Y46874D03*
Y44906D03*
Y42937D03*
Y40969D03*
Y39000D03*
Y37031D03*
Y35063D03*
Y33094D03*
Y31126D03*
Y29157D03*
Y27189D03*
Y25220D03*
Y62622D03*
Y60654D03*
Y58685D03*
Y56717D03*
Y54748D03*
Y52780D03*
Y50811D03*
Y48843D03*
G54D40*
X133650Y186000D03*
X124350D03*
G54D32*
X109260Y20059D03*
Y17500D03*
Y14941D03*
X116740Y20059D03*
Y17500D03*
Y14941D03*
X109260Y8059D03*
Y5500D03*
Y2941D03*
X116740Y8059D03*
Y5500D03*
Y2941D03*
X281740Y92441D03*
Y95000D03*
X274260Y92441D03*
Y95000D03*
X292760Y92441D03*
Y95000D03*
X281740Y97559D03*
X274260D03*
X292760D03*
X300240Y92441D03*
Y95000D03*
Y97559D03*
G54D50*
X242728Y45661D03*
Y48220D03*
Y50780D03*
Y53339D03*
X239228Y142161D03*
Y144720D03*
Y147280D03*
Y149839D03*
X258272Y45661D03*
Y53339D03*
Y50780D03*
Y48220D03*
X254772Y144720D03*
Y142161D03*
Y149839D03*
Y147280D03*
G54D41*
X161000Y133500D03*
X154000D03*
G54D23*
X47815Y8488D03*
X45846D03*
X43878D03*
Y69512D03*
X45846D03*
X47815D03*
X71437Y8488D03*
X69469D03*
X67500D03*
X65531D03*
X63563D03*
X61594D03*
X59626D03*
X57657D03*
X55689D03*
X53720D03*
X51752D03*
X49783D03*
Y69512D03*
X51752D03*
X53720D03*
X55689D03*
X57657D03*
X59626D03*
X61594D03*
X63563D03*
X65531D03*
X67500D03*
X69469D03*
X71437D03*
X91122Y8488D03*
X89154D03*
X87185D03*
X85217D03*
X83248D03*
X81280D03*
X79311D03*
X77343D03*
X75374D03*
X73406D03*
Y69512D03*
X75374D03*
X77343D03*
X79311D03*
X81280D03*
X83248D03*
X85217D03*
X87185D03*
X89154D03*
X91122D03*
G54D14*
X20000Y-3000D03*
X309000D03*
X306000Y192000D03*
G54D24*
X33113Y92000D03*
X48887D03*
G54D42*
X167500Y147295D03*
Y171705D03*
G54D33*
X132250Y68000D03*
X124750D03*
X144250Y145000D03*
X151750D03*
X210250Y67000D03*
X202750D03*
X205250Y164500D03*
X197750D03*
G54D15*
X25000Y11250D03*
Y18750D03*
X48000Y146250D03*
Y153750D03*
X59000Y146250D03*
Y153750D03*
X95500Y159750D03*
Y152250D03*
X103500Y89750D03*
Y82250D03*
X112000Y123750D03*
Y131250D03*
X169000Y68750D03*
Y61250D03*
X192500Y79250D03*
Y86750D03*
X281500Y26250D03*
Y33750D03*
X313000Y162250D03*
Y154750D03*
G54D51*
X243161Y138228D03*
Y153772D03*
X254339Y41728D03*
X251780D03*
X249220D03*
X246661D03*
Y57272D03*
X249220D03*
X251780D03*
X254339D03*
X250839Y138228D03*
X248280D03*
X245720D03*
Y153772D03*
X248280D03*
X250839D03*
G54D16*
X13500Y69150D03*
X23000D03*
X13500Y75850D03*
X23000D03*
X2000Y142650D03*
Y149350D03*
X32500Y145650D03*
Y138350D03*
Y131650D03*
Y152350D03*
X69500Y147150D03*
X55500Y168650D03*
X69500Y153850D03*
X55500Y175350D03*
X113500Y81850D03*
Y75150D03*
X120500Y124650D03*
Y131350D03*
X104000Y152650D03*
Y159350D03*
X120500Y166850D03*
Y160150D03*
X112000Y159850D03*
Y153150D03*
X105500Y169150D03*
Y175850D03*
X131000Y166850D03*
Y160150D03*
X194000Y9850D03*
Y3150D03*
X202000Y22850D03*
Y16150D03*
X217500Y46150D03*
Y52850D03*
X214000Y143650D03*
Y150350D03*
X227500Y44650D03*
Y51350D03*
X224000Y141150D03*
Y147850D03*
Y173150D03*
Y179850D03*
X265500Y192350D03*
Y185650D03*
X292000Y60350D03*
Y53650D03*
X290500Y127150D03*
Y133850D03*
X282000Y127150D03*
Y133850D03*
X300000Y60350D03*
Y53650D03*
G54D43*
X186750Y47500D03*
X190500D03*
X194250D03*
X186750Y57500D03*
X190500D03*
X194250D03*
X183250Y145000D03*
X187000D03*
X190750D03*
X183250Y155000D03*
X187000D03*
X190750D03*
G54D52*
X231241Y181441D03*
Y184000D03*
Y186559D03*
X239759D03*
Y184000D03*
Y181441D03*
G54D34*
X135000Y84500D03*
X173500D03*
X247000Y146000D03*
X250500Y49500D03*
G54D25*
X47000Y124100D03*
Y134900D03*
G54D17*
X2110Y94500D03*
Y91941D03*
Y89382D03*
Y99618D03*
Y97059D03*
G54D53*
X235500Y184000D03*
G54D26*
X39031Y161319D03*
X42969D03*
X41000D03*
X39031Y173681D03*
X42969D03*
X41000D03*
G54D44*
X184791Y184547D03*
Y186516D03*
Y188484D03*
Y190453D03*
X196209D03*
Y188484D03*
Y186516D03*
Y184547D03*
G54D35*
X142756Y88437D03*
Y86469D03*
Y84500D03*
Y82531D03*
Y80563D03*
X127244D03*
Y82531D03*
Y84500D03*
Y86469D03*
Y88437D03*
X165744Y80563D03*
Y82531D03*
Y84500D03*
Y86469D03*
Y88437D03*
X181256D03*
Y86469D03*
Y84500D03*
Y82531D03*
Y80563D03*
G54D45*
X190500Y187500D03*
G54D54*
X246750Y22500D03*
X254250D03*
X246750Y119000D03*
X254250D03*
Y163000D03*
X246750D03*
G54D27*
X34819Y169469D03*
Y165531D03*
X47181D03*
Y169469D03*
X34819Y167500D03*
X47181D03*
G54D18*
X16796Y90500D03*
X21204D03*
X16796Y95500D03*
X21204D03*
G54D36*
X131063Y92256D03*
X133031D03*
X135000D03*
X136969D03*
X138937D03*
Y76744D03*
X136969D03*
X135000D03*
X133031D03*
X131063D03*
X169563Y92256D03*
Y76744D03*
X171531Y92256D03*
X173500D03*
X175469D03*
X177437D03*
Y76744D03*
X175469D03*
X173500D03*
X171531D03*
G54D37*
X130500Y147000D03*
G54D19*
X20000Y121000D03*
Y133000D03*
G54D55*
X254000Y67250D03*
Y74750D03*
X286000Y4750D03*
Y12250D03*
X283500Y61750D03*
Y54250D03*
X299500Y126750D03*
Y134250D03*
X303500Y182250D03*
Y174750D03*
G54D46*
X212094Y20453D03*
Y14547D03*
Y16516D03*
Y18484D03*
Y119453D03*
Y113547D03*
Y115516D03*
Y117484D03*
X223906Y14547D03*
Y16516D03*
Y20453D03*
Y18484D03*
Y113547D03*
Y115516D03*
Y119453D03*
Y117484D03*
G54D28*
X41000Y167500D03*
X218000Y17500D03*
Y116500D03*
X212500Y185500D03*
Y174500D03*
X263500Y68000D03*
Y79000D03*
Y157500D03*
X274500D03*
G54D29*
X86256Y97650D03*
Y91350D03*
X80744D03*
Y97650D03*
G54D56*
X253500Y189400D03*
X257200Y180600D03*
X249800D03*
G54D47*
X215047Y23406D03*
X217016D03*
Y11594D03*
X215047D03*
X217016Y110594D03*
X215047D03*
Y122406D03*
X217016D03*
X220953Y23406D03*
X218984D03*
X220953Y11594D03*
X218984D03*
X220953Y110594D03*
X218984D03*
X220953Y122406D03*
X218984D03*
G54D38*
X134437Y141094D03*
X132469D03*
X130500D03*
X128531D03*
X126563D03*
Y152906D03*
X128531D03*
X130500D03*
X132469D03*
X134437D03*
G54D57*
X290500Y22500D03*
Y42500D03*
X289000Y144500D03*
X294000D03*
X289000Y164500D03*
X294000D03*
X305500Y22500D03*
X300500D03*
X295500D03*
X305500Y42500D03*
X300500D03*
X295500D03*
X299000Y144500D03*
X304000D03*
X299000Y164500D03*
X304000D03*
G54D48*
X207953Y79063D03*
Y81031D03*
Y86937D03*
Y84969D03*
Y83000D03*
X225047Y86937D03*
Y84969D03*
Y83000D03*
Y81031D03*
Y79063D03*
G54D39*
X149500Y159150D03*
Y174850D03*
G54D58*
G01X-17000Y30500D02*
Y0D01*
G03X0Y-17000I17000J0D01*
G01X29500D01*
G01X-17000Y158500D02*
Y189000D01*
G02X0Y206000I17000J0D01*
G01X29500D01*
G01X340000Y30500D02*
Y0D01*
G02X323000Y-17000I-17000J0D01*
G01X293500D01*
G01X340000Y158500D02*
Y189000D01*
G03X323000Y206000I-17000J0D01*
G01X293500D01*
G54D49*
X240500Y-1000D03*
Y4000D03*
Y9000D03*
Y14000D03*
X237000Y95500D03*
Y100500D03*
Y105500D03*
Y110500D03*
X260500Y-1000D03*
Y4000D03*
Y9000D03*
Y14000D03*
X257000Y95500D03*
Y100500D03*
Y105500D03*
Y110500D03*
G54D59*
G01X52518Y252916D02*
Y262916D01*
X55518D01*
X56518Y262416D01*
X57268Y261249D01*
X57518Y259916D01*
X57268Y258583D01*
X56643Y257583D01*
X55518Y257082D01*
X52518D01*
G01X61893Y252916D02*
X65018Y262916D01*
X68143Y252916D01*
G01X67018Y256416D02*
X63018D01*
G01X72393Y254249D02*
X73393Y253416D01*
X74518Y252916D01*
X75518D01*
X76518Y253416D01*
X77268Y254249D01*
X77643Y255416D01*
X77393Y256582D01*
X76768Y257583D01*
X75643Y258249D01*
X74143Y258583D01*
X73268Y259249D01*
X72893Y260416D01*
X73143Y261583D01*
X73768Y262416D01*
X74643Y262916D01*
X75518D01*
X76393Y262583D01*
X77143Y261749D01*
G01X85018Y262916D02*
Y252916D01*
G01X82143Y262916D02*
X87893D01*
G01X97518Y252916D02*
X92518D01*
Y262916D01*
X97518D01*
G01X95518Y258083D02*
X92518D01*
G01X101768Y252916D02*
Y262916D01*
X105018Y254583D01*
X108268Y262916D01*
Y252916D01*
G01X111893D02*
X115018Y262916D01*
X118143Y252916D01*
G01X117018Y256416D02*
X113018D01*
G01X122393Y254249D02*
X123393Y253416D01*
X124518Y252916D01*
X125518D01*
X126518Y253416D01*
X127268Y254249D01*
X127643Y255416D01*
X127393Y256582D01*
X126768Y257583D01*
X125643Y258249D01*
X124143Y258583D01*
X123268Y259249D01*
X122893Y260416D01*
X123143Y261583D01*
X123768Y262416D01*
X124643Y262916D01*
X125518D01*
X126393Y262583D01*
X127143Y261749D01*
G01X132268Y252916D02*
Y262916D01*
G01X137018D02*
X132268Y256749D01*
G01X137768Y252916D02*
X134393Y259582D01*
G01X152518Y252916D02*
Y262916D01*
X155518D01*
X156518Y262416D01*
X157268Y261249D01*
X157518Y259916D01*
X157268Y258583D01*
X156643Y257583D01*
X155518Y257082D01*
X152518D01*
G01X162518Y252916D02*
Y262916D01*
X165643D01*
X166643Y262416D01*
X167268Y261749D01*
X167518Y260416D01*
X167268Y259083D01*
X166518Y258249D01*
X165643Y257749D01*
X162518D01*
G01X165643D02*
X167518Y252916D01*
G01X173518Y262916D02*
X176518D01*
G01X175018D02*
Y252916D01*
G01X173518D02*
X176518D01*
G01X181768D02*
Y262916D01*
X185018Y254583D01*
X188268Y262916D01*
Y252916D01*
G01X191893D02*
X195018Y262916D01*
X198143Y252916D01*
G01X197018Y256416D02*
X193018D01*
G01X202518Y252916D02*
Y262916D01*
X205643D01*
X206643Y262416D01*
X207268Y261749D01*
X207518Y260416D01*
X207268Y259083D01*
X206518Y258249D01*
X205643Y257749D01*
X202518D01*
G01X205643D02*
X207518Y252916D01*
G01X215018D02*
Y257416D01*
X212518Y262916D01*
G01X217518D02*
X215018Y257416D01*
G01X81018Y242916D02*
X80018Y242583D01*
X79268Y241749D01*
X78768Y240749D01*
X78393Y239416D01*
X78268Y237916D01*
X78393Y236416D01*
X78768Y235083D01*
X79268Y234082D01*
X80018Y233249D01*
X81018Y232916D01*
X82018Y233249D01*
X82768Y234082D01*
X83268Y235083D01*
X83643Y236416D01*
X83768Y237916D01*
X83643Y239416D01*
X83268Y240749D01*
X82768Y241749D01*
X82018Y242583D01*
X81018Y242916D01*
G01X91018Y232916D02*
X91893Y233083D01*
X92893Y233583D01*
X93518Y234416D01*
X93768Y235583D01*
X93518Y236749D01*
X92768Y237749D01*
X91643Y238249D01*
X90393D01*
X89643Y238583D01*
X89018Y239416D01*
X88768Y240583D01*
X89143Y241749D01*
X90018Y242583D01*
X91018Y242916D01*
X92018Y242583D01*
X92893Y241749D01*
X93268Y240583D01*
X93018Y239416D01*
X92393Y238583D01*
X91643Y238249D01*
X90393D01*
X89268Y237749D01*
X88518Y236749D01*
X88268Y235583D01*
X88518Y234416D01*
X89143Y233583D01*
X90143Y233083D01*
X91018Y232916D01*
G01X99393Y236249D02*
X102643D01*
G01X169393D02*
X172643D01*
G01X181018Y242916D02*
X180018Y242583D01*
X179268Y241749D01*
X178768Y240749D01*
X178393Y239416D01*
X178268Y237916D01*
X178393Y236416D01*
X178768Y235083D01*
X179268Y234082D01*
X180018Y233249D01*
X181018Y232916D01*
X182018Y233249D01*
X182768Y234082D01*
X183268Y235083D01*
X183643Y236416D01*
X183768Y237916D01*
X183643Y239416D01*
X183268Y240749D01*
X182768Y241749D01*
X182018Y242583D01*
X181018Y242916D01*
G01X188893Y234082D02*
X189768Y233249D01*
X190768Y232916D01*
X191768Y233249D01*
X192643Y234249D01*
X193268Y235749D01*
X193518Y237249D01*
Y239083D01*
X193268Y240583D01*
X192643Y241916D01*
X191893Y242583D01*
X191018Y242916D01*
X190018Y242583D01*
X189268Y241916D01*
X188768Y240916D01*
X188518Y239582D01*
X188768Y238416D01*
X189393Y237249D01*
X190143Y236582D01*
X191018Y236416D01*
X192018Y236749D01*
X192768Y237583D01*
X193518Y239083D01*
G01X112518Y212916D02*
Y222916D01*
X115643D01*
X116643Y222416D01*
X117268Y221749D01*
X117518Y220416D01*
X117268Y219083D01*
X116518Y218249D01*
X115643Y217749D01*
X112518D01*
G01X115643D02*
X117518Y212916D01*
G01X127518D02*
X122518D01*
Y222916D01*
X127518D01*
G01X125518Y218083D02*
X122518D01*
G01X131893Y222916D02*
X135018Y212916D01*
X138143Y222916D01*
G01X152268Y212916D02*
Y222916D01*
X154768D01*
X155768Y222416D01*
X156518Y221749D01*
X157143Y220749D01*
X157643Y219582D01*
X157768Y217916D01*
X157643Y216249D01*
X157143Y215083D01*
X156518Y214082D01*
X155768Y213416D01*
X154768Y212916D01*
X152268D01*
G01X112518Y242916D02*
X111518Y242583D01*
X110768Y241749D01*
X110268Y240749D01*
X109893Y239416D01*
X109768Y237916D01*
X109893Y236416D01*
X110268Y235083D01*
X110768Y234082D01*
X111518Y233249D01*
X112518Y232916D01*
X113518Y233249D01*
X114268Y234082D01*
X114768Y235083D01*
X115143Y236416D01*
X115268Y237916D01*
X115143Y239416D01*
X114768Y240749D01*
X114268Y241749D01*
X113518Y242583D01*
X112518Y242916D01*
G01X119768Y234916D02*
X120518Y233749D01*
X121518Y233083D01*
X122643Y232916D01*
X123643Y233083D01*
X124643Y233916D01*
X125268Y234916D01*
X125393Y235916D01*
X125143Y237082D01*
X124268Y237916D01*
X123393Y238249D01*
X122268D01*
G01X123393D02*
X124143Y238749D01*
X124768Y239582D01*
X125018Y240583D01*
X124768Y241583D01*
X124143Y242416D01*
X123018Y242916D01*
X121893Y242749D01*
X120768Y242083D01*
G01X132268Y232916D02*
X132518Y235083D01*
X132893Y236916D01*
X133393Y238583D01*
X134018Y240416D01*
X135018Y242916D01*
X130018D01*
G01X142268Y232916D02*
X142518Y235083D01*
X142893Y236916D01*
X143393Y238583D01*
X144018Y240416D01*
X145018Y242916D01*
X140018D01*
G01X150143Y237082D02*
X151018Y238249D01*
X151768Y238916D01*
X152768Y239249D01*
X153643Y238916D01*
X154268Y238249D01*
X154768Y237249D01*
X154893Y236083D01*
X154768Y235083D01*
X154268Y234082D01*
X153518Y233249D01*
X152643Y232916D01*
X151643Y233249D01*
X150768Y234249D01*
X150268Y235749D01*
X150143Y237416D01*
X150393Y239582D01*
X150768Y240749D01*
X151393Y241916D01*
X152268Y242749D01*
X153143Y242916D01*
X154018Y242583D01*
X154643Y241749D01*
G01X162518Y242916D02*
X161518Y242583D01*
X160768Y241749D01*
X160268Y240749D01*
X159893Y239416D01*
X159768Y237916D01*
X159893Y236416D01*
X160268Y235083D01*
X160768Y234082D01*
X161518Y233249D01*
X162518Y232916D01*
X163518Y233249D01*
X164268Y234082D01*
X164768Y235083D01*
X165143Y236416D01*
X165268Y237916D01*
X165143Y239416D01*
X164768Y240749D01*
X164268Y241749D01*
X163518Y242583D01*
X162518Y242916D01*
M02*
